<?xml version="1.0" encoding="utf-8"?>
<!-- Generator: Adobe Illustrator 23.0.1, SVG Export Plug-In . SVG Version: 6.00 Build 0)  -->
<svg version="1.1" id="Ebene_2" xmlns="http://www.w3.org/2000/svg" xmlns:xlink="http://www.w3.org/1999/xlink" x="0px" y="0px"
	 viewBox="0 0 143 122" style="enable-background:new 0 0 143 122;" xml:space="preserve">
<style type="text/css">
	.st0{fill:url(#SVGID_1_);}
	.st1{fill:#F7B82C;}
	.st2{fill:#F7B82D;}
	.st3{fill:#F5AE23;}
	.st4{fill:url(#SVGID_2_);}
	.st5{fill:#DADCDE;}
	.st6{fill:url(#SVGID_3_);}
	.st7{fill:#59B9E8;}
	.st8{fill:url(#SVGID_4_);}
	.st9{fill:url(#SVGID_5_);}
	.st10{fill:url(#SVGID_6_);}
	.st11{fill:url(#SVGID_7_);}
	.st12{fill:url(#SVGID_8_);}
	.st13{fill:url(#SVGID_9_);}
	.st14{fill:url(#SVGID_10_);}
	.st15{fill:url(#SVGID_11_);}
	.st16{fill:url(#SVGID_12_);}
	.st17{fill:url(#SVGID_13_);}
	.st18{fill:url(#SVGID_14_);}
	.st19{fill:url(#SVGID_15_);}
	.st20{fill:url(#SVGID_16_);}
	.st21{fill:#BEE2F1;}
	.st22{fill:url(#SVGID_17_);}
	.st23{fill:url(#SVGID_18_);}
	.st24{fill:#CBD9E7;}
	.st25{fill:#C3CFDA;}
	.st26{fill:url(#SVGID_19_);}
	.st27{fill:url(#SVGID_20_);}
	.st28{fill:url(#SVGID_21_);}
	.st29{fill:url(#SVGID_22_);}
	.st30{fill:url(#SVGID_23_);}
	.st31{fill:url(#SVGID_24_);}
	.st32{fill:url(#SVGID_25_);}
	.st33{fill:url(#SVGID_26_);}
	.st34{fill:url(#SVGID_27_);}
	.st35{fill:url(#SVGID_28_);}
	.st36{fill:url(#SVGID_29_);}
	.st37{fill:url(#SVGID_30_);}
	.st38{fill:url(#SVGID_31_);}
	.st39{fill:url(#SVGID_32_);}
	.st40{fill:url(#SVGID_33_);}
	.st41{fill:url(#SVGID_34_);}
	.st42{fill:url(#SVGID_35_);}
	.st43{fill:url(#SVGID_36_);}
	.st44{fill:url(#SVGID_37_);}
	.st45{fill:url(#SVGID_38_);}
	.st46{fill:url(#SVGID_39_);}
	.st47{fill:url(#SVGID_40_);}
	.st48{fill:url(#SVGID_41_);}
	.st49{fill:url(#SVGID_42_);}
	.st50{fill:url(#SVGID_43_);}
	.st51{fill:url(#SVGID_44_);}
	.st52{fill:url(#SVGID_45_);}
	.st53{fill:url(#SVGID_46_);}
	.st54{fill:url(#SVGID_47_);}
	.st55{fill:url(#SVGID_48_);}
	.st56{fill:url(#SVGID_49_);}
	.st57{fill:url(#SVGID_50_);}
	.st58{fill:url(#SVGID_51_);}
	.st59{fill:url(#SVGID_52_);}
	.st60{fill:url(#SVGID_53_);}
	.st61{fill:url(#SVGID_54_);}
	.st62{fill:url(#SVGID_55_);}
	.st63{fill:url(#SVGID_56_);}
	.st64{fill:url(#SVGID_57_);}
	.st65{fill:url(#SVGID_58_);}
	.st66{fill:url(#SVGID_59_);}
	.st67{fill:url(#SVGID_60_);}
	.st68{fill:url(#SVGID_61_);}
	.st69{fill:url(#SVGID_62_);}
	.st70{fill:url(#SVGID_63_);}
	.st71{fill:url(#SVGID_64_);}
	.st72{fill:url(#SVGID_65_);}
	.st73{fill:url(#SVGID_66_);}
	.st74{fill:url(#SVGID_67_);}
	.st75{fill:url(#SVGID_68_);}
	.st76{fill:url(#SVGID_69_);}
	.st77{fill:url(#SVGID_70_);}
	.st78{fill:url(#SVGID_71_);}
	.st79{fill:url(#SVGID_72_);}
	.st80{fill:url(#SVGID_73_);}
	.st81{fill:url(#SVGID_74_);}
	.st82{fill:url(#SVGID_75_);}
	.st83{fill:url(#SVGID_76_);}
	.st84{fill:url(#SVGID_77_);}
	.st85{fill:url(#SVGID_78_);}
	.st86{fill:url(#SVGID_79_);}
	.st87{fill:url(#SVGID_80_);}
	.st88{fill:url(#SVGID_81_);}
	.st89{fill:url(#SVGID_82_);}
	.st90{fill:url(#SVGID_83_);}
	.st91{fill:url(#SVGID_84_);}
	.st92{fill:url(#SVGID_85_);}
	.st93{fill:url(#SVGID_86_);}
	.st94{fill:url(#SVGID_87_);}
	.st95{fill:url(#SVGID_88_);}
	.st96{fill:url(#SVGID_89_);}
	.st97{fill:url(#SVGID_90_);}
	.st98{fill:url(#SVGID_91_);}
	.st99{fill:url(#SVGID_92_);}
	.st100{fill:url(#SVGID_93_);}
	.st101{fill:url(#SVGID_94_);}
	.st102{fill:url(#SVGID_95_);}
	.st103{fill:url(#SVGID_96_);}
	.st104{fill:url(#SVGID_97_);}
	.st105{fill:url(#SVGID_98_);}
	.st106{fill:url(#SVGID_99_);}
	.st107{fill:url(#SVGID_100_);}
	.st108{fill:url(#SVGID_101_);}
	.st109{fill:url(#SVGID_102_);}
	.st110{fill:url(#SVGID_103_);}
	.st111{fill:url(#SVGID_104_);}
	.st112{fill:url(#SVGID_105_);}
	.st113{fill:url(#SVGID_106_);}
	.st114{fill:url(#SVGID_107_);}
	.st115{fill:url(#SVGID_108_);}
	.st116{fill:url(#SVGID_109_);}
	.st117{fill:url(#SVGID_110_);}
	.st118{fill:url(#SVGID_111_);}
	.st119{fill:url(#SVGID_112_);}
	.st120{fill:url(#SVGID_113_);}
	.st121{fill:url(#SVGID_114_);}
	.st122{fill:#FFFFFF;}
	.st123{fill:url(#SVGID_115_);}
	.st124{fill:url(#SVGID_116_);}
	.st125{fill:url(#SVGID_117_);}
	.st126{fill:url(#SVGID_118_);}
	.st127{fill:url(#SVGID_119_);}
	.st128{fill:url(#SVGID_120_);}
	.st129{fill:url(#SVGID_121_);}
	.st130{fill:url(#SVGID_122_);}
	.st131{fill:url(#SVGID_123_);}
	.st132{fill:url(#SVGID_124_);}
	.st133{fill:url(#SVGID_125_);}
	.st134{fill:url(#SVGID_126_);}
	.st135{fill:url(#SVGID_127_);}
	.st136{fill:url(#SVGID_128_);}
	.st137{fill:#1D1D1B;stroke:#1D1D1B;stroke-width:0.5;stroke-miterlimit:10;}
	.st138{fill:url(#SVGID_129_);}
	.st139{fill:url(#SVGID_130_);}
	.st140{fill:url(#SVGID_131_);}
	.st141{fill:url(#SVGID_132_);}
	.st142{fill:url(#SVGID_133_);}
	.st143{fill:url(#SVGID_134_);}
	.st144{fill:url(#SVGID_135_);}
	.st145{fill:url(#SVGID_136_);}
	.st146{fill:url(#SVGID_137_);}
	.st147{fill:url(#SVGID_138_);}
	.st148{fill:url(#SVGID_139_);}
	.st149{fill:url(#SVGID_140_);}
	.st150{fill:url(#SVGID_141_);}
	.st151{fill:url(#SVGID_142_);}
	.st152{fill:url(#SVGID_143_);}
	.st153{fill:url(#SVGID_144_);}
	.st154{fill:url(#SVGID_145_);}
	.st155{fill:url(#SVGID_146_);}
	.st156{fill:url(#SVGID_147_);}
	.st157{fill:url(#SVGID_148_);}
	.st158{fill:url(#SVGID_149_);}
	.st159{fill:url(#SVGID_150_);}
	.st160{fill:url(#SVGID_151_);}
	.st161{fill:url(#SVGID_152_);}
	.st162{fill:url(#SVGID_153_);}
	.st163{fill:url(#SVGID_154_);}
	.st164{fill:url(#SVGID_155_);}
	.st165{fill:url(#SVGID_156_);}
	.st166{fill:url(#SVGID_157_);}
	.st167{fill:url(#SVGID_158_);}
	.st168{fill:url(#SVGID_159_);}
	.st169{fill:url(#SVGID_160_);}
	.st170{fill:url(#SVGID_161_);}
	.st171{fill:url(#SVGID_162_);}
	.st172{fill:url(#SVGID_163_);}
	.st173{fill:url(#SVGID_164_);}
	.st174{fill:url(#SVGID_165_);}
	.st175{fill:url(#SVGID_166_);}
	.st176{fill:url(#SVGID_167_);}
	.st177{fill:url(#SVGID_168_);}
	.st178{fill:url(#SVGID_169_);}
	.st179{fill:url(#SVGID_170_);}
	.st180{fill:url(#SVGID_171_);}
	.st181{fill:url(#SVGID_172_);}
	.st182{fill:url(#SVGID_173_);}
	.st183{fill:url(#SVGID_174_);}
	.st184{fill:url(#SVGID_175_);}
	.st185{fill:url(#SVGID_176_);}
	.st186{fill:url(#SVGID_177_);}
	.st187{fill:url(#SVGID_178_);}
	.st188{fill:url(#SVGID_179_);}
	.st189{fill:url(#SVGID_180_);}
	.st190{fill:url(#SVGID_181_);}
	.st191{fill:url(#SVGID_182_);}
	.st192{fill:url(#SVGID_183_);}
	.st193{fill:url(#SVGID_184_);}
	.st194{fill:url(#SVGID_185_);}
	.st195{fill:url(#SVGID_186_);}
	.st196{fill:url(#SVGID_187_);}
	.st197{fill:url(#SVGID_188_);}
	.st198{fill:url(#SVGID_189_);}
	.st199{fill:url(#SVGID_190_);}
	.st200{fill:url(#SVGID_191_);}
	.st201{fill:url(#SVGID_192_);}
	.st202{fill:url(#SVGID_193_);}
	.st203{fill:url(#SVGID_194_);}
	.st204{fill:url(#SVGID_195_);}
	.st205{fill:url(#SVGID_196_);}
	.st206{fill:url(#SVGID_197_);}
	.st207{fill:url(#SVGID_198_);}
	.st208{fill:url(#SVGID_199_);}
	.st209{fill:url(#SVGID_200_);}
	.st210{fill:url(#SVGID_201_);}
	.st211{fill:url(#SVGID_202_);}
	.st212{fill:url(#SVGID_203_);}
	.st213{fill:url(#SVGID_204_);}
	.st214{fill:url(#SVGID_205_);}
	.st215{fill:url(#SVGID_206_);}
	.st216{fill:url(#SVGID_207_);}
	.st217{fill:url(#SVGID_208_);}
	.st218{fill:url(#SVGID_209_);}
	.st219{fill:url(#SVGID_210_);}
	.st220{fill:url(#SVGID_211_);}
	.st221{fill:url(#SVGID_212_);}
	.st222{fill:url(#SVGID_213_);}
	.st223{fill:url(#SVGID_214_);}
	.st224{fill:url(#SVGID_215_);}
	.st225{fill:url(#SVGID_216_);}
	.st226{fill:url(#SVGID_217_);}
	.st227{fill:url(#SVGID_218_);}
	.st228{fill:url(#SVGID_219_);}
	.st229{fill:url(#SVGID_220_);}
	.st230{fill:url(#SVGID_221_);}
	.st231{fill:url(#SVGID_222_);}
	.st232{fill:url(#SVGID_223_);}
	.st233{fill:url(#SVGID_224_);}
	.st234{fill:url(#SVGID_225_);}
	.st235{fill:url(#SVGID_226_);}
	.st236{fill:url(#SVGID_227_);}
	.st237{fill:url(#SVGID_228_);}
	.st238{fill:url(#SVGID_229_);}
	.st239{fill:url(#SVGID_230_);}
	.st240{fill:url(#SVGID_231_);}
	.st241{fill:url(#SVGID_232_);}
	.st242{fill:url(#SVGID_233_);}
	.st243{fill:url(#SVGID_234_);}
	.st244{fill:url(#SVGID_235_);}
	.st245{fill:url(#SVGID_236_);}
	.st246{fill:url(#SVGID_237_);}
	.st247{fill:url(#SVGID_238_);}
	.st248{fill:url(#SVGID_239_);}
	.st249{fill:url(#SVGID_240_);}
	.st250{fill:url(#SVGID_241_);}
	.st251{fill:url(#SVGID_242_);}
	.st252{fill:url(#SVGID_243_);}
	.st253{fill:url(#SVGID_244_);}
	.st254{fill:url(#SVGID_245_);}
	.st255{fill:url(#SVGID_246_);}
	.st256{fill:url(#SVGID_247_);}
	.st257{fill:url(#SVGID_248_);}
	.st258{fill:url(#SVGID_249_);}
	.st259{fill:url(#SVGID_250_);}
	.st260{fill:url(#SVGID_251_);}
	.st261{fill:url(#SVGID_252_);}
	.st262{fill:url(#SVGID_253_);}
	.st263{fill:url(#SVGID_254_);}
	.st264{fill:url(#SVGID_255_);}
	.st265{fill:url(#SVGID_256_);}
	.st266{fill:url(#SVGID_257_);}
	.st267{fill:url(#SVGID_258_);}
	.st268{fill:url(#SVGID_259_);}
	.st269{fill:url(#SVGID_260_);}
	.st270{fill:url(#SVGID_261_);}
	.st271{fill:url(#SVGID_262_);}
	.st272{fill:url(#SVGID_263_);}
	.st273{fill:url(#SVGID_264_);}
	.st274{fill:url(#SVGID_265_);}
	.st275{fill:url(#SVGID_266_);}
	.st276{fill:url(#SVGID_267_);}
	.st277{fill:url(#SVGID_268_);}
	.st278{fill:url(#SVGID_269_);}
	.st279{fill:url(#SVGID_270_);}
	.st280{fill:url(#SVGID_271_);}
	.st281{fill:url(#SVGID_272_);}
	.st282{fill:url(#SVGID_273_);}
	.st283{fill:url(#SVGID_274_);}
	.st284{fill:url(#SVGID_275_);}
</style>
<g>
	<g>
		
			<radialGradient id="SVGID_1_" cx="65.3874" cy="2984.6553" r="31.8395" gradientTransform="matrix(1 0 0 -1 0.2615 3026.8992)" gradientUnits="userSpaceOnUse">
			<stop  offset="0" style="stop-color:#F9DA52"/>
			<stop  offset="1" style="stop-color:#F7B82C"/>
		</radialGradient>
		<path class="st0" d="M65.338,74.512c-13.352,0-24.089-10.831-24.089-24.089c0-13.258,10.831-24.089,24.089-24.089
			s24.089,10.831,24.089,24.089S78.596,74.512,65.338,74.512z"/>
		<path class="st1" d="M65.338,26.707c12.978,0,23.622,10.551,23.622,23.622c0,12.978-10.551,23.622-23.622,23.622
			c-12.978,0-23.622-10.551-23.622-23.622C41.715,37.351,52.266,26.707,65.338,26.707 M65.338,25.68
			c-13.632,0-24.649,11.111-24.649,24.649c0,13.632,11.111,24.649,24.649,24.649c13.632,0,24.649-11.111,24.649-24.649
			C89.987,36.698,78.97,25.68,65.338,25.68L65.338,25.68z"/>
	</g>
	<g>
		<path class="st2" d="M40.595,27.921c-0.467,0-0.84-0.187-1.12-0.467l-7.843-7.843c-0.28-0.28-0.467-0.747-0.467-1.12
			s0.187-0.84,0.467-1.12s0.747-0.467,1.12-0.467c0.467,0,0.84,0.187,1.12,0.467l7.843,7.843c0.654,0.654,0.654,1.681,0,2.334
			C41.435,27.828,41.062,27.921,40.595,27.921z"/>
		<path class="st3" d="M32.845,17.464c0.28,0,0.56,0.093,0.747,0.28l7.843,7.843c0.187,0.187,0.28,0.467,0.28,0.747
			s-0.093,0.56-0.28,0.747c-0.187,0.187-0.467,0.28-0.747,0.28s-0.56-0.093-0.747-0.28l-7.843-7.843
			c-0.187-0.187-0.28-0.467-0.28-0.747s0.093-0.56,0.28-0.747C32.285,17.557,32.565,17.464,32.845,17.464 M32.845,16.344
			c-0.56,0-1.12,0.187-1.494,0.654c-0.84,0.84-0.84,2.241,0,3.081l7.843,7.843c0.467,0.467,0.934,0.654,1.494,0.654
			c0.56,0,1.12-0.187,1.494-0.654c0.84-0.84,0.84-2.241,0-3.081l-7.843-7.843C33.966,16.53,33.406,16.344,32.845,16.344
			L32.845,16.344z"/>
	</g>
	<g>
		<path class="st2" d="M22.575,52.384c-0.934,0-1.587-0.747-1.587-1.587c0-0.84,0.747-1.587,1.587-1.587h7.936
			c0.934,0,1.587,0.747,1.587,1.587c0,0.84-0.747,1.587-1.587,1.587H22.575z"/>
		<path class="st3" d="M30.511,49.676c0.56,0,1.12,0.467,1.12,1.12c0,0.56-0.467,1.12-1.12,1.12h-7.936
			c-0.56,0-1.12-0.467-1.12-1.12c0-0.56,0.467-1.12,1.12-1.12H30.511 M30.511,48.556h-7.936c-1.214,0-2.147,0.934-2.147,2.147
			s0.934,2.147,2.147,2.147h7.936c1.214,0,2.147-0.934,2.147-2.147C32.659,49.583,31.725,48.556,30.511,48.556L30.511,48.556z"/>
	</g>
	<g>
		<path class="st2" d="M65.058,17.837c-0.934,0-1.587-0.747-1.587-1.587V8.314c0-0.934,0.747-1.587,1.587-1.587
			c0.934,0,1.587,0.747,1.587,1.587v7.936C66.738,17.091,65.991,17.837,65.058,17.837z"/>
		<path class="st3" d="M65.058,7.193c0.56,0,1.12,0.467,1.12,1.12v7.936c0,0.56-0.467,1.12-1.12,1.12c-0.654,0-1.12-0.467-1.12-1.12
			V8.314C64.031,7.66,64.497,7.193,65.058,7.193 M65.058,6.073c-1.214,0-2.147,0.934-2.147,2.147v7.936
			c0,1.214,0.934,2.147,2.147,2.147c1.214,0,2.147-0.934,2.147-2.147V8.22C67.205,7.007,66.271,6.073,65.058,6.073L65.058,6.073z"/>
	</g>
	<g>
		<path class="st2" d="M89.52,27.921c-0.467,0-0.84-0.187-1.12-0.467c-0.28-0.28-0.467-0.747-0.467-1.12
			c0-0.467,0.187-0.84,0.467-1.12l7.843-7.843c0.28-0.28,0.747-0.467,1.12-0.467c0.467,0,0.84,0.187,1.12,0.467
			c0.654,0.654,0.654,1.681,0,2.334l-7.843,7.843C90.36,27.828,89.987,27.921,89.52,27.921z"/>
		<path class="st3" d="M97.363,17.464c0.28,0,0.56,0.093,0.747,0.28c0.187,0.187,0.28,0.467,0.28,0.747s-0.093,0.56-0.28,0.747
			l-7.843,7.843c-0.187,0.187-0.467,0.28-0.747,0.28c-0.28,0-0.56-0.093-0.747-0.28c-0.187-0.187-0.28-0.467-0.28-0.747
			s0.093-0.56,0.28-0.747l7.843-7.843C96.803,17.557,96.99,17.464,97.363,17.464 M97.363,16.344c-0.56,0-1.12,0.187-1.494,0.654
			l-7.843,7.843c-0.84,0.84-0.84,2.241,0,3.081c0.467,0.467,0.934,0.654,1.494,0.654s1.12-0.187,1.494-0.654l7.843-7.843
			c0.84-0.84,0.84-2.241,0-3.081C98.484,16.53,97.923,16.344,97.363,16.344L97.363,16.344z"/>
	</g>
	<g>
		<g>
			
				<radialGradient id="SVGID_2_" cx="59.879" cy="2966.8608" r="61.0056" gradientTransform="matrix(1 0 0 -1 0 3026.8655)" gradientUnits="userSpaceOnUse">
				<stop  offset="0" style="stop-color:#FBFBFB"/>
				<stop  offset="1" style="stop-color:#E7E7E7"/>
			</radialGradient>
			<path class="st4" d="M58.335,86.37c-6.442,0-12.231-3.828-14.846-9.71c-0.934-2.054-1.401-4.202-1.401-6.442
				c0-8.963,7.283-16.246,16.246-16.246c0.934,0,1.867,0.093,2.894,0.28l0.467,0.093l0.187-0.467c0.28-0.654,0.56-1.401,0.934-2.147
				c0.187-0.28,0.28-0.56,0.467-0.84l0.093-0.187c0.654-1.027,1.307-2.054,2.054-2.894l0.093-0.093
				c0.093-0.187,0.28-0.373,0.467-0.467c2.147-2.334,4.668-4.202,7.563-5.415c2.801-1.214,5.695-1.867,8.59-1.867
				c7.563,0,14.472,3.828,18.487,10.364l0.187,0.28l0.373-0.093c1.027-0.187,1.961-0.28,2.894-0.28c9.897,0,18.02,8.123,18.02,18.02
				c0,9.897-8.123,18.02-18.02,18.02H58.335V86.37z"/>
		</g>
		<g>
			<path class="st5" d="M82.051,40.526c7.376,0,14.192,3.735,18.02,10.084l0.373,0.654l0.747-0.093
				c1.027-0.187,1.867-0.28,2.801-0.28c9.617,0,17.46,7.843,17.46,17.46c0,9.617-7.843,17.46-17.46,17.46H58.335
				c-6.256,0-11.858-3.735-14.379-9.43c-0.84-1.961-1.307-4.108-1.307-6.256c0-8.683,7.003-15.686,15.686-15.686
				c0.934,0,1.867,0.093,2.801,0.28l0.934,0.187l0.373-0.84c0.28-0.654,0.56-1.401,0.934-2.054c0.093-0.28,0.28-0.467,0.467-0.84
				l0.093-0.187c0.654-1.027,1.307-1.961,1.961-2.801l0.093-0.093c0.093-0.187,0.28-0.28,0.373-0.467
				c2.054-2.334,4.575-4.108,7.376-5.322C76.449,41.086,79.25,40.526,82.051,40.526 M82.051,39.406
				c-2.988,0-5.882,0.654-8.777,1.867c-2.988,1.307-5.602,3.175-7.75,5.602c-0.187,0.187-0.28,0.373-0.467,0.56l-0.093,0.093
				c-0.747,0.84-1.401,1.867-2.054,2.988l-0.093,0.187c-0.187,0.28-0.373,0.56-0.467,0.84c-0.373,0.747-0.747,1.494-1.027,2.147
				c-1.027-0.187-2.054-0.28-2.988-0.28c-9.243,0-16.713,7.563-16.713,16.713c0,2.334,0.467,4.575,1.401,6.723
				c2.708,6.162,8.683,10.084,15.312,10.084h45.657c10.271,0,18.58-8.31,18.58-18.58s-8.31-18.58-18.58-18.58
				c-0.934,0-1.961,0.093-2.988,0.28C96.99,43.42,89.8,39.406,82.051,39.406L82.051,39.406z"/>
		</g>
	</g>
	<g>
		
			<radialGradient id="SVGID_3_" cx="65.5414" cy="2919.4409" r="9.1324" gradientTransform="matrix(1 0 0 -1 0 3026.8655)" gradientUnits="userSpaceOnUse">
			<stop  offset="0" style="stop-color:#71C6E4"/>
			<stop  offset="1" style="stop-color:#56C0EE"/>
		</radialGradient>
		<path class="st6" d="M62.904,119.609c-0.093,0-0.28,0-0.373-0.093c-0.84-0.187-1.401-1.12-1.214-1.961l5.229-21.101
			c0.187-0.747,0.84-1.214,1.587-1.214c0.093,0,0.28,0,0.373,0.093c0.84,0.187,1.401,1.12,1.214,1.961l-5.229,21.101
			C64.304,119.142,63.65,119.609,62.904,119.609z"/>
		<path class="st7" d="M68.132,95.8L68.132,95.8c0.093,0,0.187,0,0.28,0c0.56,0.187,0.934,0.747,0.84,1.307l-5.229,21.101
			c-0.093,0.467-0.56,0.84-1.027,0.84c-0.093,0-0.187,0-0.28,0c-0.56-0.187-0.934-0.747-0.84-1.307l5.229-21.101
			C67.198,96.08,67.665,95.8,68.132,95.8 M68.132,94.68c-0.934,0-1.867,0.654-2.147,1.681l-5.229,21.101
			c-0.28,1.12,0.467,2.334,1.587,2.614c0.187,0,0.373,0.093,0.56,0.093c0.934,0,1.867-0.654,2.147-1.681l5.229-21.101
			c0.28-1.12-0.467-2.334-1.587-2.614C68.506,94.68,68.319,94.68,68.132,94.68L68.132,94.68z"/>
	</g>
</g>
<g>
	<g>
		
			<radialGradient id="SVGID_4_" cx="76.702" cy="-16.1374" r="34.2917" gradientTransform="matrix(0.9582 0 0 0.9582 -37.7028 50.1608)" gradientUnits="userSpaceOnUse">
			<stop  offset="0" style="stop-color:#D44445"/>
			<stop  offset="1" style="stop-color:#C11F1F"/>
		</radialGradient>
		<path class="st8" d="M14.114,62.136c-1.914,0-3.623-0.992-4.573-2.654c-0.949-1.661-0.937-3.638,0.035-5.287L30.68,18.364
			c0.956-1.625,2.653-2.594,4.538-2.594s3.582,0.97,4.538,2.594l21.104,35.831c0.972,1.649,0.984,3.626,0.034,5.288
			c-0.95,1.661-2.659,2.653-4.572,2.653H14.114z"/>
		<path class="st122" d="M35.218,16.77c1.426,0,2.852,0.701,3.677,2.102l21.104,35.831c1.675,2.845-0.375,6.433-3.677,6.433H14.114
			c-3.301,0-5.352-3.588-3.677-6.433l21.104-35.831C32.366,17.471,33.792,16.77,35.218,16.77 M35.218,14.77
			c-2.243,0-4.262,1.154-5.4,3.087L8.714,53.688c-1.156,1.962-1.171,4.314-0.041,6.291c1.13,1.977,3.164,3.157,5.441,3.157h42.208
			c2.277,0,4.311-1.18,5.441-3.157c1.13-1.977,1.115-4.329-0.041-6.291L40.618,17.857C39.48,15.924,37.461,14.77,35.218,14.77
			L35.218,14.77z"/>
	</g>
	<g>
		<path class="st122" d="M14.114,61.136h42.209c3.301,0,5.352-3.588,3.677-6.433L38.895,18.872c-1.65-2.802-5.703-2.802-7.354,0
			L10.437,54.703C8.761,57.547,10.812,61.136,14.114,61.136z"/>
		<radialGradient id="SVGID_5_" cx="35.218" cy="38.9529" r="23.834" gradientUnits="userSpaceOnUse">
			<stop  offset="0" style="stop-color:#D44445"/>
			<stop  offset="1" style="stop-color:#C11F1F"/>
		</radialGradient>
		<path class="st9" d="M35.218,20.52c0.296,0,0.409,0.192,0.446,0.255l21.104,35.831c0.038,0.064,0.152,0.259,0.003,0.519
			c-0.149,0.261-0.375,0.261-0.449,0.261H14.114c-0.074,0-0.3,0-0.449-0.261c-0.149-0.261-0.034-0.455,0.003-0.519l21.104-35.831
			C34.809,20.712,34.922,20.52,35.218,20.52 M35.218,16.77c-1.426,0-2.852,0.701-3.677,2.102L10.437,54.703
			c-1.675,2.845,0.375,6.433,3.677,6.433h42.208c3.301,0,5.352-3.588,3.677-6.433L38.895,18.872
			C38.07,17.471,36.644,16.77,35.218,16.77L35.218,16.77z"/>
	</g>
	<path class="st137" d="M35.218,46.186c-0.811,0-1.467-0.657-1.467-1.467V32.282c0-0.81,0.657-1.467,1.467-1.467
		c0.811,0,1.467,0.657,1.467,1.467v12.437C36.685,45.529,36.029,46.186,35.218,46.186z"/>
	<circle class="st137" cx="35.218" cy="50.541" r="1.956"/>
</g>
</svg>
