<?xml version="1.0" encoding="utf-8"?>
<!-- Generator: Adobe Illustrator 23.0.1, SVG Export Plug-In . SVG Version: 6.00 Build 0)  -->
<svg version="1.1" id="Ebene_2" xmlns="http://www.w3.org/2000/svg" xmlns:xlink="http://www.w3.org/1999/xlink" x="0px" y="0px"
	 viewBox="0 0 143 122" style="enable-background:new 0 0 143 122;" xml:space="preserve">
<style type="text/css">
	.st0{fill:url(#SVGID_1_);}
	.st1{fill:#F7B82C;}
	.st2{fill:#F7B82D;}
	.st3{fill:#F5AE23;}
	.st4{fill:url(#SVGID_2_);}
	.st5{fill:#DADCDE;}
	.st6{fill:url(#SVGID_3_);}
	.st7{fill:#59B9E8;}
	.st8{fill:url(#SVGID_4_);}
	.st9{fill:url(#SVGID_5_);}
	.st10{fill:url(#SVGID_6_);}
	.st11{fill:url(#SVGID_7_);}
	.st12{fill:url(#SVGID_8_);}
	.st13{fill:url(#SVGID_9_);}
	.st14{fill:url(#SVGID_10_);}
	.st15{fill:url(#SVGID_11_);}
	.st16{fill:url(#SVGID_12_);}
	.st17{fill:url(#SVGID_13_);}
	.st18{fill:url(#SVGID_14_);}
	.st19{fill:url(#SVGID_15_);}
	.st20{fill:url(#SVGID_16_);}
	.st21{fill:url(#SVGID_17_);}
	.st22{fill:url(#SVGID_18_);}
	.st23{fill:url(#SVGID_19_);}
	.st24{fill:url(#SVGID_20_);}
	.st25{fill:url(#SVGID_21_);}
	.st26{fill:url(#SVGID_22_);}
	.st27{fill:url(#SVGID_23_);}
	.st28{fill:#BEE2F1;}
	.st29{fill:url(#SVGID_24_);}
	.st30{fill:url(#SVGID_25_);}
	.st31{fill:#CBD9E7;}
	.st32{fill:#C3CFDA;}
	.st33{fill:url(#SVGID_26_);}
	.st34{fill:url(#SVGID_27_);}
	.st35{fill:url(#SVGID_28_);}
	.st36{fill:url(#SVGID_29_);}
	.st37{fill:url(#SVGID_30_);}
	.st38{fill:url(#SVGID_31_);}
	.st39{fill:url(#SVGID_32_);}
	.st40{fill:url(#SVGID_33_);}
	.st41{fill:url(#SVGID_34_);}
	.st42{fill:url(#SVGID_35_);}
	.st43{fill:url(#SVGID_36_);}
	.st44{fill:url(#SVGID_37_);}
	.st45{fill:url(#SVGID_38_);}
	.st46{fill:url(#SVGID_39_);}
	.st47{fill:url(#SVGID_40_);}
	.st48{fill:url(#SVGID_41_);}
	.st49{fill:url(#SVGID_42_);}
	.st50{fill:url(#SVGID_43_);}
	.st51{fill:url(#SVGID_44_);}
	.st52{fill:url(#SVGID_45_);}
	.st53{fill:url(#SVGID_46_);}
	.st54{fill:url(#SVGID_47_);}
	.st55{fill:url(#SVGID_48_);}
	.st56{fill:url(#SVGID_49_);}
	.st57{fill:url(#SVGID_50_);}
	.st58{fill:url(#SVGID_51_);}
	.st59{fill:url(#SVGID_52_);}
	.st60{fill:url(#SVGID_53_);}
	.st61{fill:url(#SVGID_54_);}
	.st62{fill:url(#SVGID_55_);}
	.st63{fill:url(#SVGID_56_);}
	.st64{fill:url(#SVGID_57_);}
	.st65{fill:url(#SVGID_58_);}
	.st66{fill:url(#SVGID_59_);}
	.st67{fill:url(#SVGID_60_);}
	.st68{fill:url(#SVGID_61_);}
	.st69{fill:url(#SVGID_62_);}
	.st70{fill:url(#SVGID_63_);}
	.st71{fill:url(#SVGID_64_);}
	.st72{fill:url(#SVGID_65_);}
	.st73{fill:url(#SVGID_66_);}
	.st74{fill:#FFFFFF;}
	.st75{fill:url(#SVGID_67_);}
	.st76{fill:url(#SVGID_68_);}
	.st77{fill:url(#SVGID_69_);}
	.st78{fill:url(#SVGID_70_);}
	.st79{fill:url(#SVGID_71_);}
	.st80{fill:url(#SVGID_72_);}
	.st81{fill:url(#SVGID_73_);}
	.st82{fill:url(#SVGID_74_);}
	.st83{fill:url(#SVGID_75_);}
	.st84{fill:url(#SVGID_76_);}
	.st85{fill:url(#SVGID_77_);}
	.st86{fill:url(#SVGID_78_);}
	.st87{fill:url(#SVGID_79_);}
	.st88{fill:url(#SVGID_80_);}
	.st89{fill:url(#SVGID_81_);}
	.st90{fill:url(#SVGID_82_);}
	.st91{fill:url(#SVGID_83_);}
	.st92{fill:url(#SVGID_84_);}
	.st93{fill:url(#SVGID_85_);}
	.st94{fill:url(#SVGID_86_);}
	.st95{fill:url(#SVGID_87_);}
	.st96{fill:url(#SVGID_88_);}
	.st97{fill:url(#SVGID_89_);}
	.st98{fill:url(#SVGID_90_);}
	.st99{fill:url(#SVGID_91_);}
	.st100{fill:url(#SVGID_92_);}
	.st101{fill:url(#SVGID_93_);}
	.st102{fill:url(#SVGID_94_);}
	.st103{fill:url(#SVGID_95_);}
	.st104{fill:url(#SVGID_96_);}
	.st105{fill:url(#SVGID_97_);}
	.st106{fill:url(#SVGID_98_);}
	.st107{fill:url(#SVGID_99_);}
	.st108{fill:url(#SVGID_100_);}
	.st109{fill:url(#SVGID_101_);}
	.st110{fill:url(#SVGID_102_);}
	.st111{fill:url(#SVGID_103_);}
	.st112{fill:url(#SVGID_104_);}
	.st113{fill:url(#SVGID_105_);}
	.st114{fill:url(#SVGID_106_);}
	.st115{fill:url(#SVGID_107_);}
	.st116{fill:url(#SVGID_108_);}
	.st117{fill:url(#SVGID_109_);}
	.st118{fill:url(#SVGID_110_);}
	.st119{fill:url(#SVGID_111_);}
	.st120{fill:url(#SVGID_112_);}
	.st121{fill:url(#SVGID_113_);}
	.st122{fill:url(#SVGID_114_);}
	.st123{fill:url(#SVGID_115_);}
	.st124{fill:url(#SVGID_116_);}
	.st125{fill:url(#SVGID_117_);}
	.st126{fill:url(#SVGID_118_);}
	.st127{fill:url(#SVGID_119_);}
	.st128{fill:url(#SVGID_120_);}
	.st129{fill:url(#SVGID_121_);}
	.st130{fill:url(#SVGID_122_);}
	.st131{fill:url(#SVGID_123_);}
	.st132{fill:url(#SVGID_124_);}
	.st133{fill:url(#SVGID_125_);}
	.st134{fill:url(#SVGID_126_);}
	.st135{fill:url(#SVGID_127_);}
	.st136{fill:url(#SVGID_128_);}
	.st137{fill:url(#SVGID_129_);}
	.st138{fill:url(#SVGID_130_);}
	.st139{fill:url(#SVGID_131_);}
	.st140{fill:url(#SVGID_132_);}
	.st141{fill:url(#SVGID_133_);}
	.st142{fill:url(#SVGID_134_);}
	.st143{fill:url(#SVGID_135_);}
	.st144{fill:url(#SVGID_136_);}
	.st145{fill:url(#SVGID_137_);}
	.st146{fill:url(#SVGID_138_);}
	.st147{fill:url(#SVGID_139_);}
	.st148{fill:url(#SVGID_140_);}
	.st149{fill:url(#SVGID_141_);}
	.st150{fill:url(#SVGID_142_);}
	.st151{fill:url(#SVGID_143_);}
	.st152{fill:url(#SVGID_144_);}
	.st153{fill:url(#SVGID_145_);}
	.st154{fill:url(#SVGID_146_);}
	.st155{fill:url(#SVGID_147_);}
	.st156{fill:url(#SVGID_148_);}
	.st157{fill:url(#SVGID_149_);}
	.st158{fill:url(#SVGID_150_);}
	.st159{fill:url(#SVGID_151_);}
	.st160{fill:url(#SVGID_152_);}
	.st161{fill:url(#SVGID_153_);}
	.st162{fill:url(#SVGID_154_);}
	.st163{fill:url(#SVGID_155_);}
	.st164{fill:url(#SVGID_156_);}
	.st165{fill:url(#SVGID_157_);}
	.st166{fill:url(#SVGID_158_);}
	.st167{fill:url(#SVGID_159_);}
	.st168{fill:url(#SVGID_160_);}
	.st169{fill:url(#SVGID_161_);}
	.st170{fill:url(#SVGID_162_);}
	.st171{fill:url(#SVGID_163_);}
	.st172{fill:url(#SVGID_164_);}
	.st173{fill:url(#SVGID_165_);}
	.st174{fill:url(#SVGID_166_);}
	.st175{fill:url(#SVGID_167_);}
	.st176{fill:url(#SVGID_168_);}
	.st177{fill:url(#SVGID_169_);}
	.st178{fill:url(#SVGID_170_);}
	.st179{fill:url(#SVGID_171_);}
	.st180{fill:url(#SVGID_172_);}
	.st181{fill:#1D1D1B;stroke:#FFFFFF;stroke-width:3;stroke-linecap:round;stroke-miterlimit:10;}
	.st182{fill:url(#SVGID_173_);}
	.st183{fill:#1D1D1B;stroke:#1D1D1B;stroke-width:3;stroke-linecap:round;stroke-miterlimit:10;}
	.st184{fill:url(#SVGID_174_);}
	.st185{fill:url(#SVGID_175_);}
	.st186{fill:url(#SVGID_176_);}
	.st187{fill:url(#SVGID_177_);}
	.st188{fill:url(#SVGID_178_);}
	.st189{fill:url(#SVGID_179_);}
	.st190{fill:url(#SVGID_180_);}
	.st191{fill:url(#SVGID_181_);}
	.st192{fill:url(#SVGID_182_);}
	.st193{fill:url(#SVGID_183_);}
	.st194{fill:url(#SVGID_184_);}
	.st195{fill:url(#SVGID_185_);}
	.st196{fill:url(#SVGID_186_);}
	.st197{fill:url(#SVGID_187_);}
	.st198{fill:url(#SVGID_188_);}
	.st199{fill:url(#SVGID_189_);}
	.st200{fill:url(#SVGID_190_);}
	.st201{fill:url(#SVGID_191_);}
	.st202{fill:url(#SVGID_192_);}
	.st203{fill:url(#SVGID_193_);}
	.st204{fill:url(#SVGID_194_);}
	.st205{fill:url(#SVGID_195_);}
	.st206{fill:url(#SVGID_196_);}
	.st207{fill:url(#SVGID_197_);}
	.st208{fill:url(#SVGID_198_);}
	.st209{fill:url(#SVGID_199_);}
	.st210{fill:url(#SVGID_200_);}
	.st211{fill:url(#SVGID_201_);}
	.st212{fill:url(#SVGID_202_);}
	.st213{fill:url(#SVGID_203_);}
	.st214{fill:url(#SVGID_204_);}
	.st215{fill:url(#SVGID_205_);}
	.st216{fill:url(#SVGID_206_);}
	.st217{fill:url(#SVGID_207_);}
	.st218{fill:url(#SVGID_208_);}
	.st219{fill:url(#SVGID_209_);}
	.st220{fill:url(#SVGID_210_);}
	.st221{fill:url(#SVGID_211_);}
	.st222{fill:url(#SVGID_212_);}
	.st223{fill:url(#SVGID_213_);}
	.st224{fill:url(#SVGID_214_);}
	.st225{fill:url(#SVGID_215_);}
	.st226{fill:url(#SVGID_216_);}
	.st227{fill:url(#SVGID_217_);}
	.st228{fill:url(#SVGID_218_);}
	.st229{fill:url(#SVGID_219_);}
	.st230{fill:url(#SVGID_220_);}
	.st231{fill:url(#SVGID_221_);}
	.st232{fill:url(#SVGID_222_);}
	.st233{fill:url(#SVGID_223_);}
	.st234{fill:url(#SVGID_224_);}
	.st235{fill:url(#SVGID_225_);}
	.st236{fill:url(#SVGID_226_);}
	.st237{fill:url(#SVGID_227_);}
	.st238{fill:url(#SVGID_228_);}
</style>
<g>
	<g>
		
			<radialGradient id="SVGID_1_" cx="65.4412" cy="2984.6553" r="31.8395" gradientTransform="matrix(1 0 0 -1 0.2615 3026.8992)" gradientUnits="userSpaceOnUse">
			<stop  offset="0" style="stop-color:#F9DA52"/>
			<stop  offset="1" style="stop-color:#F7B82C"/>
		</radialGradient>
		<path class="st0" d="M65.391,74.512c-13.352,0-24.089-10.831-24.089-24.089c0-13.258,10.831-24.089,24.089-24.089
			s24.089,10.831,24.089,24.089S78.65,74.512,65.391,74.512z"/>
		<path class="st1" d="M65.391,26.707c12.978,0,23.622,10.551,23.622,23.622c0,12.978-10.551,23.622-23.622,23.622
			c-12.978,0-23.622-10.551-23.622-23.622C41.769,37.351,52.32,26.707,65.391,26.707 M65.391,25.68
			c-13.632,0-24.649,11.111-24.649,24.649c0,13.632,11.111,24.649,24.649,24.649c13.632,0,24.649-11.111,24.649-24.649
			C90.041,36.698,79.023,25.68,65.391,25.68L65.391,25.68z"/>
	</g>
	<g>
		<path class="st2" d="M40.649,27.921c-0.467,0-0.84-0.187-1.12-0.467l-7.843-7.843c-0.28-0.28-0.467-0.747-0.467-1.12
			s0.187-0.84,0.467-1.12s0.747-0.467,1.12-0.467c0.467,0,0.84,0.187,1.12,0.467l7.843,7.843c0.654,0.654,0.654,1.681,0,2.334
			C41.489,27.828,41.116,27.921,40.649,27.921z"/>
		<path class="st3" d="M32.899,17.464c0.28,0,0.56,0.093,0.747,0.28l7.843,7.843c0.187,0.187,0.28,0.467,0.28,0.747
			s-0.093,0.56-0.28,0.747c-0.187,0.187-0.467,0.28-0.747,0.28s-0.56-0.093-0.747-0.28l-7.843-7.843
			c-0.187-0.187-0.28-0.467-0.28-0.747s0.093-0.56,0.28-0.747C32.339,17.557,32.619,17.464,32.899,17.464 M32.899,16.344
			c-0.56,0-1.12,0.187-1.494,0.654c-0.84,0.84-0.84,2.241,0,3.081l7.843,7.843c0.467,0.467,0.934,0.654,1.494,0.654
			s1.12-0.187,1.494-0.654c0.84-0.84,0.84-2.241,0-3.081l-7.843-7.843C34.02,16.53,33.459,16.344,32.899,16.344L32.899,16.344z"/>
	</g>
	<g>
		<path class="st2" d="M22.629,52.384c-0.934,0-1.587-0.747-1.587-1.587c0-0.84,0.747-1.587,1.587-1.587h7.936
			c0.934,0,1.587,0.747,1.587,1.587c0,0.84-0.747,1.587-1.587,1.587H22.629z"/>
		<path class="st3" d="M30.565,49.676c0.56,0,1.12,0.467,1.12,1.12c0,0.56-0.467,1.12-1.12,1.12h-7.936
			c-0.56,0-1.12-0.467-1.12-1.12c0-0.56,0.467-1.12,1.12-1.12H30.565 M30.565,48.556h-7.936c-1.214,0-2.147,0.934-2.147,2.147
			s0.934,2.147,2.147,2.147h7.936c1.214,0,2.147-0.934,2.147-2.147C32.713,49.583,31.779,48.556,30.565,48.556L30.565,48.556z"/>
	</g>
	<g>
		<path class="st2" d="M65.111,17.837c-0.934,0-1.587-0.747-1.587-1.587V8.314c0-0.934,0.747-1.587,1.587-1.587
			c0.934,0,1.587,0.747,1.587,1.587v7.936C66.792,17.091,66.045,17.837,65.111,17.837z"/>
		<path class="st3" d="M65.111,7.193c0.56,0,1.12,0.467,1.12,1.12v7.936c0,0.56-0.467,1.12-1.12,1.12c-0.654,0-1.12-0.467-1.12-1.12
			V8.314C64.084,7.66,64.551,7.193,65.111,7.193 M65.111,6.073c-1.214,0-2.147,0.934-2.147,2.147v7.936
			c0,1.214,0.934,2.147,2.147,2.147c1.214,0,2.147-0.934,2.147-2.147V8.22C67.259,7.007,66.325,6.073,65.111,6.073L65.111,6.073z"/>
	</g>
	<g>
		<path class="st2" d="M89.574,27.921c-0.467,0-0.84-0.187-1.12-0.467c-0.28-0.28-0.467-0.747-0.467-1.12
			c0-0.467,0.187-0.84,0.467-1.12l7.843-7.843c0.28-0.28,0.747-0.467,1.12-0.467c0.467,0,0.84,0.187,1.12,0.467
			c0.654,0.654,0.654,1.681,0,2.334l-7.843,7.843C90.414,27.828,90.041,27.921,89.574,27.921z"/>
		<path class="st3" d="M97.417,17.464c0.28,0,0.56,0.093,0.747,0.28c0.187,0.187,0.28,0.467,0.28,0.747s-0.093,0.56-0.28,0.747
			l-7.843,7.843c-0.187,0.187-0.467,0.28-0.747,0.28c-0.28,0-0.56-0.093-0.747-0.28c-0.187-0.187-0.28-0.467-0.28-0.747
			s0.093-0.56,0.28-0.747l7.843-7.843C96.857,17.557,97.043,17.464,97.417,17.464 M97.417,16.344c-0.56,0-1.12,0.187-1.494,0.654
			L88.08,24.84c-0.84,0.84-0.84,2.241,0,3.081c0.467,0.467,0.934,0.654,1.494,0.654c0.56,0,1.12-0.187,1.494-0.654l7.843-7.843
			c0.84-0.84,0.84-2.241,0-3.081C98.537,16.53,97.977,16.344,97.417,16.344L97.417,16.344z"/>
	</g>
	<g>
		<g>
			
				<radialGradient id="SVGID_2_" cx="59.9328" cy="2966.8608" r="61.0056" gradientTransform="matrix(1 0 0 -1 0 3026.8655)" gradientUnits="userSpaceOnUse">
				<stop  offset="0" style="stop-color:#FBFBFB"/>
				<stop  offset="1" style="stop-color:#E7E7E7"/>
			</radialGradient>
			<path class="st4" d="M58.389,86.37c-6.442,0-12.231-3.828-14.846-9.71c-0.934-2.054-1.401-4.202-1.401-6.442
				c0-8.963,7.283-16.246,16.246-16.246c0.934,0,1.867,0.093,2.894,0.28l0.467,0.093l0.187-0.467c0.28-0.654,0.56-1.401,0.934-2.147
				c0.187-0.28,0.28-0.56,0.467-0.84l0.093-0.187c0.654-1.027,1.307-2.054,2.054-2.894l0.093-0.093
				c0.093-0.187,0.28-0.373,0.467-0.467c2.147-2.334,4.668-4.202,7.563-5.415c2.801-1.214,5.695-1.867,8.59-1.867
				c7.563,0,14.472,3.828,18.487,10.364l0.187,0.28l0.373-0.093c1.027-0.187,1.961-0.28,2.894-0.28c9.897,0,18.02,8.123,18.02,18.02
				c0,9.897-8.123,18.02-18.02,18.02H58.389V86.37z"/>
		</g>
		<g>
			<path class="st5" d="M82.104,40.526c7.376,0,14.192,3.735,18.02,10.084l0.373,0.654l0.747-0.093
				c1.027-0.187,1.867-0.28,2.801-0.28c9.617,0,17.46,7.843,17.46,17.46c0,9.617-7.843,17.46-17.46,17.46H58.389
				c-6.256,0-11.858-3.735-14.379-9.43c-0.84-1.961-1.307-4.108-1.307-6.256c0-8.683,7.003-15.686,15.686-15.686
				c0.934,0,1.867,0.093,2.801,0.28l0.934,0.187l0.373-0.84c0.28-0.654,0.56-1.401,0.934-2.054c0.093-0.28,0.28-0.467,0.467-0.84
				l0.093-0.187c0.654-1.027,1.307-1.961,1.961-2.801l0.093-0.093c0.093-0.187,0.28-0.28,0.373-0.467
				c2.054-2.334,4.575-4.108,7.376-5.322C76.502,41.086,79.303,40.526,82.104,40.526 M82.104,39.406
				c-2.988,0-5.882,0.654-8.777,1.867c-2.988,1.307-5.602,3.175-7.75,5.602c-0.187,0.187-0.28,0.373-0.467,0.56l-0.093,0.093
				c-0.747,0.84-1.401,1.867-2.054,2.988l-0.093,0.187c-0.187,0.28-0.373,0.56-0.467,0.84c-0.373,0.747-0.747,1.494-1.027,2.147
				c-1.027-0.187-2.054-0.28-2.988-0.28c-9.243,0-16.713,7.563-16.713,16.713c0,2.334,0.467,4.575,1.401,6.723
				c2.708,6.162,8.683,10.084,15.312,10.084h45.657c10.271,0,18.58-8.31,18.58-18.58s-8.31-18.58-18.58-18.58
				c-0.934,0-1.961,0.093-2.988,0.28C97.043,43.42,89.854,39.406,82.104,39.406L82.104,39.406z"/>
		</g>
	</g>
	<g>
		
			<radialGradient id="SVGID_3_" cx="47.5877" cy="2919.4409" r="9.1324" gradientTransform="matrix(1 0 0 -1 0 3026.8655)" gradientUnits="userSpaceOnUse">
			<stop  offset="0" style="stop-color:#71C6E4"/>
			<stop  offset="1" style="stop-color:#56C0EE"/>
		</radialGradient>
		<path class="st6" d="M44.944,119.609c-0.093,0-0.28,0-0.373-0.093c-0.84-0.187-1.401-1.12-1.214-1.961l5.229-21.101
			c0.187-0.747,0.84-1.214,1.587-1.214c0.093,0,0.28,0,0.373,0.093c0.84,0.187,1.401,1.12,1.214,1.961l-5.229,21.101
			C46.344,119.142,45.691,119.609,44.944,119.609z"/>
		<path class="st7" d="M50.172,95.8L50.172,95.8c0.093,0,0.187,0,0.28,0c0.56,0.187,0.934,0.747,0.84,1.307l-5.229,21.101
			c-0.093,0.467-0.56,0.84-1.027,0.84c-0.093,0-0.187,0-0.28,0c-0.56-0.187-0.934-0.747-0.84-1.307l5.229-21.101
			C49.239,96.08,49.706,95.8,50.172,95.8 M50.172,94.68c-0.934,0-1.867,0.654-2.147,1.681l-5.229,21.101
			c-0.28,1.12,0.467,2.334,1.587,2.614c0.187,0,0.373,0.093,0.56,0.093c0.934,0,1.867-0.654,2.147-1.681l5.229-21.101
			c0.28-1.12-0.467-2.334-1.587-2.614C50.546,94.68,50.359,94.68,50.172,94.68L50.172,94.68z"/>
	</g>
	<g>
		
			<radialGradient id="SVGID_4_" cx="83.4352" cy="2919.4409" r="9.1324" gradientTransform="matrix(1 0 0 -1 0 3026.8655)" gradientUnits="userSpaceOnUse">
			<stop  offset="0" style="stop-color:#71C6E4"/>
			<stop  offset="1" style="stop-color:#56C0EE"/>
		</radialGradient>
		<path class="st8" d="M80.797,119.609c-0.093,0-0.28,0-0.373-0.093c-0.84-0.187-1.401-1.12-1.214-1.961l5.229-21.101
			c0.187-0.747,0.84-1.214,1.587-1.214c0.093,0,0.28,0,0.373,0.093c0.84,0.187,1.401,1.12,1.214,1.961l-5.229,21.101
			C82.198,119.142,81.544,119.609,80.797,119.609z"/>
		<path class="st7" d="M86.026,95.8L86.026,95.8c0.093,0,0.187,0,0.28,0c0.56,0.187,0.934,0.747,0.84,1.307l-5.229,21.101
			c-0.093,0.467-0.56,0.84-1.027,0.84c-0.093,0-0.187,0-0.28,0c-0.56-0.187-0.934-0.747-0.84-1.307l5.229-21.101
			C85.092,96.08,85.559,95.8,86.026,95.8 M86.026,94.68c-0.934,0-1.867,0.654-2.147,1.681l-5.229,21.101
			c-0.28,1.12,0.467,2.334,1.587,2.614c0.187,0,0.373,0.093,0.56,0.093c0.934,0,1.867-0.654,2.147-1.681l5.229-21.101
			c0.28-1.12-0.467-2.334-1.587-2.614C86.399,94.68,86.213,94.68,86.026,94.68L86.026,94.68z"/>
	</g>
	<g>
		
			<radialGradient id="SVGID_5_" cx="101.359" cy="2919.4409" r="9.1325" gradientTransform="matrix(1 0 0 -1 0 3026.8655)" gradientUnits="userSpaceOnUse">
			<stop  offset="0" style="stop-color:#71C6E4"/>
			<stop  offset="1" style="stop-color:#56C0EE"/>
		</radialGradient>
		<path class="st9" d="M98.724,119.609c-0.093,0-0.28,0-0.373-0.093c-0.84-0.187-1.401-1.12-1.214-1.961l5.229-21.101
			c0.187-0.747,0.84-1.214,1.587-1.214c0.093,0,0.28,0,0.373,0.093c0.84,0.187,1.401,1.12,1.214,1.961l-5.229,21.101
			C100.125,119.142,99.471,119.609,98.724,119.609z"/>
		<path class="st7" d="M103.953,95.8L103.953,95.8c0.093,0,0.187,0,0.28,0c0.56,0.187,0.934,0.747,0.84,1.307l-5.229,21.101
			c-0.093,0.467-0.56,0.84-1.027,0.84c-0.093,0-0.187,0-0.28,0c-0.56-0.187-0.934-0.747-0.84-1.307l5.229-21.101
			C103.019,96.08,103.486,95.8,103.953,95.8 M103.953,94.68c-0.934,0-1.867,0.654-2.147,1.681l-5.229,21.101
			c-0.28,1.12,0.467,2.334,1.587,2.614c0.187,0,0.373,0.093,0.56,0.093c0.934,0,1.867-0.654,2.147-1.681l5.229-21.101
			c0.28-1.12-0.467-2.334-1.587-2.614C104.326,94.68,104.139,94.68,103.953,94.68L103.953,94.68z"/>
	</g>
	<g>
		
			<radialGradient id="SVGID_6_" cx="67.1721" cy="2926.1167" r="4.3058" gradientTransform="matrix(1 0 0 -1 0 3026.8655)" gradientUnits="userSpaceOnUse">
			<stop  offset="0" style="stop-color:#71C6E4"/>
			<stop  offset="1" style="stop-color:#56C0EE"/>
		</radialGradient>
		<path class="st10" d="M66.232,106.257c-0.093,0-0.28,0-0.373-0.093c-0.84-0.187-1.401-1.12-1.214-1.961l1.961-7.75
			c0.187-0.747,0.84-1.214,1.587-1.214c0.093,0,0.28,0,0.373,0.093c0.84,0.187,1.401,1.12,1.214,1.961l-1.961,7.75
			C67.632,105.697,66.979,106.257,66.232,106.257z"/>
		<path class="st7" d="M68.099,95.8L68.099,95.8c0.093,0,0.187,0,0.28,0c0.56,0.187,0.934,0.747,0.84,1.307l-1.961,7.75
			c-0.093,0.467-0.56,0.84-1.027,0.84c-0.093,0-0.187,0-0.28,0c-0.56-0.187-0.934-0.747-0.84-1.307l1.961-7.75
			C67.165,96.08,67.632,95.8,68.099,95.8 M68.099,94.68c-0.934,0-1.867,0.654-2.147,1.681l-1.961,7.75
			c-0.28,1.12,0.467,2.334,1.587,2.614c0.187,0,0.373,0.093,0.56,0.093c0.934,0,1.867-0.654,2.147-1.681l1.961-7.75
			c0.28-1.12-0.467-2.334-1.587-2.614C68.473,94.68,68.286,94.68,68.099,94.68L68.099,94.68z"/>
	</g>
</g>
<g>
	
		<radialGradient id="SVGID_7_" cx="177.8725" cy="9.154856e-04" r="24.3393" gradientTransform="matrix(0.9582 0 0 0.9582 -64.9433 50.1608)" gradientUnits="userSpaceOnUse">
		<stop  offset="0" style="stop-color:#D44445"/>
		<stop  offset="1" style="stop-color:#C11F1F"/>
	</radialGradient>
	<path class="st11" d="M89.472,69.588h31.23c2.443,0,3.96-2.655,2.721-4.76l-15.615-26.512c-1.221-2.073-4.22-2.073-5.441,0
		L86.752,64.828C85.512,66.933,87.029,69.588,89.472,69.588z"/>
	<path class="st74" d="M104.279,59.802V49.021c0-1.165-0.947-2.112-2.112-2.112c-1.165,0-2.112,0.948-2.112,2.112v10.781
		c-0.73,0.618-1.156,1.527-1.156,2.494c0,1.802,1.467,3.269,3.269,3.269c1.802,0,3.269-1.466,3.269-3.269
		C105.435,61.329,105.008,60.42,104.279,59.802z M102.167,48.16c0.474,0,0.86,0.386,0.86,0.86v8.931h-1.721v-8.931
		C101.306,48.546,101.692,48.16,102.167,48.16z"/>
	<g>
		<path class="st74" d="M110.785,58.084c0,1.078-0.181,1.867-0.542,2.368c-0.361,0.501-0.914,0.752-1.658,0.752
			c-0.728,0-1.276-0.262-1.645-0.785c-0.37-0.524-0.554-1.302-0.554-2.335c0-1.083,0.181-1.878,0.542-2.383
			c0.361-0.505,0.914-0.758,1.658-0.758c0.725,0,1.273,0.263,1.644,0.79C110.6,56.258,110.785,57.042,110.785,58.084z
			 M108.023,58.084c0,0.689,0.043,1.162,0.129,1.421c0.086,0.258,0.231,0.388,0.433,0.388c0.206,0,0.351-0.133,0.436-0.4
			c0.085-0.267,0.127-0.736,0.127-1.408c0-0.675-0.043-1.148-0.129-1.419c-0.086-0.271-0.231-0.406-0.434-0.406
			c-0.203,0-0.347,0.13-0.433,0.392C108.066,56.912,108.023,57.39,108.023,58.084z"/>
		<path class="st74" d="M111.348,56.48c0-0.269,0.068-0.523,0.204-0.76c0.136-0.238,0.324-0.426,0.562-0.567
			c0.239-0.14,0.496-0.21,0.771-0.21c0.275,0,0.532,0.07,0.771,0.21c0.239,0.14,0.426,0.328,0.562,0.564
			c0.136,0.236,0.204,0.49,0.204,0.762c0,0.27-0.067,0.521-0.202,0.754c-0.134,0.233-0.321,0.419-0.558,0.556
			c-0.237,0.138-0.496,0.206-0.777,0.206c-0.275,0-0.532-0.068-0.771-0.204c-0.239-0.136-0.426-0.321-0.562-0.554
			C111.416,57.005,111.348,56.752,111.348,56.48z M112.339,56.48c0,0.139,0.054,0.262,0.161,0.369
			c0.107,0.107,0.236,0.16,0.385,0.16s0.278-0.054,0.385-0.162c0.107-0.108,0.161-0.231,0.161-0.367
			c0-0.144-0.052-0.273-0.156-0.385c-0.104-0.112-0.234-0.169-0.39-0.169c-0.156,0-0.286,0.056-0.39,0.169
			C112.391,56.207,112.339,56.336,112.339,56.48z"/>
	</g>
</g>
<line class="st181" x1="9.081" y1="26.008" x2="9.081" y2="68.142"/>
<g>
	<path class="st74" d="M10.572,27.168l11.166-2.312l23.595,17.408c0,0-0.218,2.947-0.893,4.874
		c-0.676,1.926-3.704,2.489-3.704,2.489l-25.21-10.982l-4.954-9V27.168z"/>
	
		<radialGradient id="SVGID_8_" cx="28.7328" cy="37.4444" r="15.5557" gradientTransform="matrix(1 0 0 0.9981 0 -0.1475)" gradientUnits="userSpaceOnUse">
		<stop  offset="0" style="stop-color:#D44545"/>
		<stop  offset="1" style="stop-color:#C21E1E"/>
	</radialGradient>
	<path class="st12" d="M22.842,23.815C22.873,23.815,22.873,23.815,22.842,23.815L22.842,23.815z M22.842,23.815L22.842,23.815
		L22.842,23.815L22.842,23.815z M22.842,23.815c-0.187,0-1.026,0.062-1.483,0.517l-10.046,2.235l0.031,5.008l3.452,6.374
		c0.031,0.6,0.207,1.024,0.549,1.242c0.187,0.124,24.632,11.444,25.908,11.444h0.031c1.358-0.062,2.177-0.993,3.39-2.897
		c1.244-1.966,1.97-4.739,1.089-5.981c-0.124-0.155-21.605-17.766-22.787-17.88L22.842,23.815z M16.787,30.789
		c-0.881,1.935-1.607,3.953-1.876,5.556l-3.566-6.581l-0.031-2.297l9.113-2.08C19.514,26.505,17.606,28.978,16.787,30.789z
		 M42.187,45.502c0.85-1.749,1.638-2.39,2.208-2.597c0.156,0.455-0.062,2.08-1.151,3.839c-1.12,1.78-1.545,2.059-1.939,2.111
		C41.275,48.1,41.43,47.013,42.187,45.502z M32.649,39.584c2.032-4.046,3.846-3.177,3.846-3.177v-0.031
		c1.545,1.242,3.027,2.421,4.24,3.415c-0.726,0.662-1.721,1.718-2.426,3.052c-0.819,1.542-1.12,3.228-1.213,4.294
		c-1.545-0.662-3.359-1.48-5.298-2.328C31.56,44.292,31.042,42.75,32.649,39.584z M27.59,29.34c1.151,0.911,2.447,1.904,3.784,2.959
		c-0.933,0.755-2.478,2.173-3.546,4.077c-1.275,2.297-1.514,4.894-1.576,5.888c-1.451-0.662-2.872-1.304-4.178-1.904
		c-0.332-0.486-0.881-1.966,1.026-5.95C25.081,30.364,26.895,29.516,27.59,29.34z"/>
</g>
<line class="st183" x1="10.074" y1="26.008" x2="10.074" y2="68.464"/>
</svg>
