<?xml version="1.0" encoding="utf-8"?>
<!-- Generator: Adobe Illustrator 23.0.1, SVG Export Plug-In . SVG Version: 6.00 Build 0)  -->
<svg version="1.1" id="Ebene_2" xmlns="http://www.w3.org/2000/svg" xmlns:xlink="http://www.w3.org/1999/xlink" x="0px" y="0px"
	 viewBox="0 0 143 122" style="enable-background:new 0 0 143 122;" xml:space="preserve">
<style type="text/css">
	.st0{fill:url(#SVGID_1_);}
	.st1{fill:#F7B82C;}
	.st2{fill:#F7B82D;}
	.st3{fill:#F5AE23;}
	.st4{fill:url(#SVGID_2_);}
	.st5{fill:#DADCDE;}
	.st6{fill:url(#SVGID_3_);}
	.st7{fill:#59B9E8;}
	.st8{fill:url(#SVGID_4_);}
	.st9{fill:url(#SVGID_5_);}
	.st10{fill:url(#SVGID_6_);}
	.st11{fill:url(#SVGID_7_);}
	.st12{fill:url(#SVGID_8_);}
	.st13{fill:url(#SVGID_9_);}
	.st14{fill:url(#SVGID_10_);}
	.st15{fill:url(#SVGID_11_);}
	.st16{fill:url(#SVGID_12_);}
	.st17{fill:url(#SVGID_13_);}
	.st18{fill:url(#SVGID_14_);}
	.st19{fill:url(#SVGID_15_);}
	.st20{fill:url(#SVGID_16_);}
	.st21{fill:url(#SVGID_17_);}
	.st22{fill:url(#SVGID_18_);}
	.st23{fill:url(#SVGID_19_);}
	.st24{fill:url(#SVGID_20_);}
	.st25{fill:url(#SVGID_21_);}
	.st26{fill:url(#SVGID_22_);}
	.st27{fill:url(#SVGID_23_);}
	.st28{fill:#BEE2F1;}
	.st29{fill:url(#SVGID_24_);}
	.st30{fill:url(#SVGID_25_);}
	.st31{fill:#CBD9E7;}
	.st32{fill:#C3CFDA;}
	.st33{fill:url(#SVGID_26_);}
	.st34{fill:url(#SVGID_27_);}
	.st35{fill:url(#SVGID_28_);}
	.st36{fill:url(#SVGID_29_);}
	.st37{fill:url(#SVGID_30_);}
	.st38{fill:url(#SVGID_31_);}
	.st39{fill:url(#SVGID_32_);}
	.st40{fill:url(#SVGID_33_);}
	.st41{fill:url(#SVGID_34_);}
	.st42{fill:url(#SVGID_35_);}
	.st43{fill:url(#SVGID_36_);}
	.st44{fill:url(#SVGID_37_);}
	.st45{fill:url(#SVGID_38_);}
	.st46{fill:url(#SVGID_39_);}
	.st47{fill:url(#SVGID_40_);}
	.st48{fill:url(#SVGID_41_);}
	.st49{fill:url(#SVGID_42_);}
	.st50{fill:url(#SVGID_43_);}
	.st51{fill:url(#SVGID_44_);}
	.st52{fill:url(#SVGID_45_);}
	.st53{fill:url(#SVGID_46_);}
	.st54{fill:url(#SVGID_47_);}
	.st55{fill:url(#SVGID_48_);}
	.st56{fill:url(#SVGID_49_);}
	.st57{fill:url(#SVGID_50_);}
	.st58{fill:url(#SVGID_51_);}
	.st59{fill:url(#SVGID_52_);}
	.st60{fill:url(#SVGID_53_);}
	.st61{fill:url(#SVGID_54_);}
	.st62{fill:url(#SVGID_55_);}
	.st63{fill:url(#SVGID_56_);}
	.st64{fill:url(#SVGID_57_);}
	.st65{fill:url(#SVGID_58_);}
	.st66{fill:url(#SVGID_59_);}
	.st67{fill:url(#SVGID_60_);}
	.st68{fill:url(#SVGID_61_);}
	.st69{fill:url(#SVGID_62_);}
	.st70{fill:url(#SVGID_63_);}
	.st71{fill:url(#SVGID_64_);}
	.st72{fill:url(#SVGID_65_);}
	.st73{fill:url(#SVGID_66_);}
	.st74{fill:#FFFFFF;}
	.st75{fill:url(#SVGID_67_);}
	.st76{fill:url(#SVGID_68_);}
	.st77{fill:url(#SVGID_69_);}
	.st78{fill:url(#SVGID_70_);}
	.st79{fill:url(#SVGID_71_);}
	.st80{fill:url(#SVGID_72_);}
	.st81{fill:url(#SVGID_73_);}
	.st82{fill:url(#SVGID_74_);}
	.st83{fill:url(#SVGID_75_);}
	.st84{fill:url(#SVGID_76_);}
	.st85{fill:url(#SVGID_77_);}
	.st86{fill:url(#SVGID_78_);}
	.st87{fill:url(#SVGID_79_);}
	.st88{fill:url(#SVGID_80_);}
	.st89{fill:url(#SVGID_81_);}
	.st90{fill:url(#SVGID_82_);}
	.st91{fill:url(#SVGID_83_);}
	.st92{fill:url(#SVGID_84_);}
	.st93{fill:url(#SVGID_85_);}
	.st94{fill:url(#SVGID_86_);}
	.st95{fill:url(#SVGID_87_);}
	.st96{fill:url(#SVGID_88_);}
	.st97{fill:url(#SVGID_89_);}
	.st98{fill:url(#SVGID_90_);}
	.st99{fill:url(#SVGID_91_);}
	.st100{fill:url(#SVGID_92_);}
	.st101{fill:url(#SVGID_93_);}
	.st102{fill:url(#SVGID_94_);}
	.st103{fill:url(#SVGID_95_);}
	.st104{fill:url(#SVGID_96_);}
	.st105{fill:url(#SVGID_97_);}
	.st106{fill:url(#SVGID_98_);}
	.st107{fill:url(#SVGID_99_);}
	.st108{fill:url(#SVGID_100_);}
	.st109{fill:url(#SVGID_101_);}
	.st110{fill:url(#SVGID_102_);}
	.st111{fill:url(#SVGID_103_);}
	.st112{fill:url(#SVGID_104_);}
	.st113{fill:url(#SVGID_105_);}
	.st114{fill:url(#SVGID_106_);}
	.st115{fill:url(#SVGID_107_);}
	.st116{fill:url(#SVGID_108_);}
	.st117{fill:url(#SVGID_109_);}
	.st118{fill:url(#SVGID_110_);}
	.st119{fill:url(#SVGID_111_);}
	.st120{fill:url(#SVGID_112_);}
	.st121{fill:url(#SVGID_113_);}
	.st122{fill:url(#SVGID_114_);}
	.st123{fill:url(#SVGID_115_);}
	.st124{fill:url(#SVGID_116_);}
	.st125{fill:url(#SVGID_117_);}
	.st126{fill:url(#SVGID_118_);}
	.st127{fill:url(#SVGID_119_);}
	.st128{fill:url(#SVGID_120_);}
	.st129{fill:url(#SVGID_121_);}
	.st130{fill:url(#SVGID_122_);}
	.st131{fill:url(#SVGID_123_);}
	.st132{fill:url(#SVGID_124_);}
	.st133{fill:url(#SVGID_125_);}
	.st134{fill:url(#SVGID_126_);}
	.st135{fill:url(#SVGID_127_);}
	.st136{fill:url(#SVGID_128_);}
	.st137{fill:url(#SVGID_129_);}
	.st138{fill:url(#SVGID_130_);}
	.st139{fill:url(#SVGID_131_);}
	.st140{fill:url(#SVGID_132_);}
	.st141{fill:url(#SVGID_133_);}
	.st142{fill:url(#SVGID_134_);}
	.st143{fill:url(#SVGID_135_);}
	.st144{fill:url(#SVGID_136_);}
	.st145{fill:url(#SVGID_137_);}
	.st146{fill:url(#SVGID_138_);}
	.st147{fill:url(#SVGID_139_);}
	.st148{fill:url(#SVGID_140_);}
	.st149{fill:url(#SVGID_141_);}
	.st150{fill:url(#SVGID_142_);}
	.st151{fill:url(#SVGID_143_);}
	.st152{fill:url(#SVGID_144_);}
	.st153{fill:url(#SVGID_145_);}
	.st154{fill:url(#SVGID_146_);}
	.st155{fill:url(#SVGID_147_);}
	.st156{fill:url(#SVGID_148_);}
	.st157{fill:url(#SVGID_149_);}
	.st158{fill:url(#SVGID_150_);}
	.st159{fill:url(#SVGID_151_);}
	.st160{fill:url(#SVGID_152_);}
	.st161{fill:url(#SVGID_153_);}
	.st162{fill:url(#SVGID_154_);}
	.st163{fill:url(#SVGID_155_);}
	.st164{fill:url(#SVGID_156_);}
	.st165{fill:url(#SVGID_157_);}
	.st166{fill:url(#SVGID_158_);}
	.st167{fill:url(#SVGID_159_);}
	.st168{fill:url(#SVGID_160_);}
	.st169{fill:url(#SVGID_161_);}
	.st170{fill:url(#SVGID_162_);}
	.st171{fill:url(#SVGID_163_);}
	.st172{fill:url(#SVGID_164_);}
	.st173{fill:url(#SVGID_165_);}
	.st174{fill:url(#SVGID_166_);}
	.st175{fill:url(#SVGID_167_);}
	.st176{fill:url(#SVGID_168_);}
	.st177{fill:url(#SVGID_169_);}
	.st178{fill:url(#SVGID_170_);}
	.st179{fill:url(#SVGID_171_);}
	.st180{fill:url(#SVGID_172_);}
	.st181{fill:#1D1D1B;stroke:#FFFFFF;stroke-width:3;stroke-linecap:round;stroke-miterlimit:10;}
	.st182{fill:url(#SVGID_173_);}
	.st183{fill:#1D1D1B;stroke:#1D1D1B;stroke-width:3;stroke-linecap:round;stroke-miterlimit:10;}
	.st184{fill:url(#SVGID_174_);}
	.st185{fill:url(#SVGID_175_);}
	.st186{fill:url(#SVGID_176_);}
	.st187{fill:url(#SVGID_177_);}
	.st188{fill:url(#SVGID_178_);}
	.st189{fill:url(#SVGID_179_);}
	.st190{fill:url(#SVGID_180_);}
	.st191{fill:url(#SVGID_181_);}
	.st192{fill:url(#SVGID_182_);}
	.st193{fill:url(#SVGID_183_);}
	.st194{fill:url(#SVGID_184_);}
	.st195{fill:url(#SVGID_185_);}
	.st196{fill:url(#SVGID_186_);}
	.st197{fill:url(#SVGID_187_);}
	.st198{fill:url(#SVGID_188_);}
	.st199{fill:url(#SVGID_189_);}
	.st200{fill:url(#SVGID_190_);}
	.st201{fill:url(#SVGID_191_);}
	.st202{fill:url(#SVGID_192_);}
	.st203{fill:url(#SVGID_193_);}
	.st204{fill:url(#SVGID_194_);}
	.st205{fill:url(#SVGID_195_);}
	.st206{fill:url(#SVGID_196_);}
	.st207{fill:url(#SVGID_197_);}
	.st208{fill:url(#SVGID_198_);}
	.st209{fill:url(#SVGID_199_);}
	.st210{fill:url(#SVGID_200_);}
	.st211{fill:url(#SVGID_201_);}
	.st212{fill:url(#SVGID_202_);}
	.st213{fill:url(#SVGID_203_);}
	.st214{fill:url(#SVGID_204_);}
	.st215{fill:url(#SVGID_205_);}
	.st216{fill:url(#SVGID_206_);}
	.st217{fill:url(#SVGID_207_);}
	.st218{fill:url(#SVGID_208_);}
	.st219{fill:url(#SVGID_209_);}
	.st220{fill:url(#SVGID_210_);}
	.st221{fill:url(#SVGID_211_);}
	.st222{fill:url(#SVGID_212_);}
	.st223{fill:url(#SVGID_213_);}
	.st224{fill:url(#SVGID_214_);}
	.st225{fill:url(#SVGID_215_);}
	.st226{fill:url(#SVGID_216_);}
	.st227{fill:url(#SVGID_217_);}
	.st228{fill:url(#SVGID_218_);}
	.st229{fill:url(#SVGID_219_);}
	.st230{fill:url(#SVGID_220_);}
	.st231{fill:url(#SVGID_221_);}
	.st232{fill:url(#SVGID_222_);}
	.st233{fill:url(#SVGID_223_);}
	.st234{fill:url(#SVGID_224_);}
	.st235{fill:url(#SVGID_225_);}
	.st236{fill:url(#SVGID_226_);}
	.st237{fill:url(#SVGID_227_);}
	.st238{fill:url(#SVGID_228_);}
</style>
<g>
	<g>
		
			<radialGradient id="SVGID_1_" cx="69.48" cy="2980.2725" r="31.8393" gradientTransform="matrix(1 0 0 -1 0.2615 3026.8992)" gradientUnits="userSpaceOnUse">
			<stop  offset="0" style="stop-color:#F9DA52"/>
			<stop  offset="1" style="stop-color:#F7B82C"/>
		</radialGradient>
		<circle class="st0" cx="69.446" cy="54.699" r="24.089"/>
		<path class="st1" d="M69.446,31.17c12.978,0,23.622,10.551,23.622,23.622c0,12.978-10.551,23.622-23.622,23.622
			S45.824,67.864,45.824,54.792C45.824,41.721,56.374,31.17,69.446,31.17 M69.446,30.05c-13.632,0-24.649,11.111-24.649,24.649
			c0,13.632,11.111,24.649,24.649,24.649c13.632,0,24.649-11.111,24.649-24.649C94.095,41.16,82.984,30.05,69.446,30.05
			L69.446,30.05z"/>
	</g>
	<g>
		<path class="st2" d="M44.703,32.384c-0.467,0-0.84-0.187-1.12-0.467l-7.843-7.843c-0.654-0.654-0.654-1.681,0-2.334
			c0.28-0.28,0.747-0.467,1.12-0.467c0.467,0,0.84,0.187,1.12,0.467l7.843,7.843c0.654,0.654,0.654,1.681,0,2.334
			C45.544,32.197,45.17,32.384,44.703,32.384z"/>
		<path class="st3" d="M36.86,21.833c0.28,0,0.56,0.093,0.747,0.28l7.843,7.843c0.187,0.187,0.28,0.467,0.28,0.747
			c0,0.28-0.093,0.56-0.28,0.747c-0.187,0.187-0.467,0.28-0.747,0.28s-0.56-0.093-0.747-0.28l-7.843-7.843
			c-0.187-0.187-0.28-0.467-0.28-0.747s0.093-0.56,0.28-0.747C36.3,21.926,36.58,21.833,36.86,21.833 M36.86,20.713
			c-0.56,0-1.12,0.187-1.494,0.654c-0.84,0.84-0.84,2.241,0,3.081l7.843,7.843c0.467,0.467,0.934,0.654,1.494,0.654
			s1.12-0.187,1.494-0.654c0.84-0.84,0.84-2.241,0-3.081l-7.843-7.843C37.981,20.899,37.421,20.713,36.86,20.713L36.86,20.713z"/>
	</g>
	<g>
		<path class="st2" d="M26.59,56.753c-0.934,0-1.587-0.747-1.587-1.587s0.747-1.587,1.587-1.587h7.936
			c0.934,0,1.587,0.747,1.587,1.587s-0.747,1.587-1.587,1.587H26.59z"/>
		<path class="st3" d="M34.619,54.045c0.56,0,1.12,0.467,1.12,1.12s-0.467,1.12-1.12,1.12h-7.936c-0.56,0-1.12-0.467-1.12-1.12
			s0.467-1.12,1.12-1.12H34.619 M34.619,53.018h-7.936c-1.214,0-2.148,0.934-2.148,2.147s0.934,2.147,2.148,2.147h7.936
			c1.214,0,2.148-0.934,2.148-2.147S35.833,53.018,34.619,53.018L34.619,53.018z"/>
	</g>
	<g>
		<path class="st2" d="M104.179,55.913c-0.934,0-1.587-0.747-1.587-1.587c0-0.84,0.747-1.587,1.587-1.587h7.936
			c0.934,0,1.587,0.747,1.587,1.587c0,0.84-0.747,1.587-1.587,1.587H104.179z"/>
		<path class="st3" d="M112.209,53.205c0.56,0,1.12,0.467,1.12,1.12c0,0.56-0.467,1.12-1.12,1.12h-7.936
			c-0.56,0-1.12-0.467-1.12-1.12c0-0.56,0.467-1.12,1.12-1.12H112.209 M112.209,52.084h-7.936c-1.214,0-2.148,0.934-2.148,2.147
			s0.934,2.147,2.148,2.147h7.936c1.214,0,2.148-0.934,2.148-2.147C114.356,53.112,113.422,52.084,112.209,52.084L112.209,52.084z"
			/>
	</g>
	<g>
		<path class="st2" d="M69.166,22.207c-0.934,0-1.587-0.747-1.587-1.587v-7.936c0-0.934,0.747-1.587,1.587-1.587
			c0.934,0,1.587,0.747,1.587,1.587v7.936C70.753,21.46,70.099,22.207,69.166,22.207z"/>
		<path class="st3" d="M69.166,11.563c0.56,0,1.12,0.467,1.12,1.12v7.936c0,0.56-0.467,1.12-1.12,1.12c-0.56,0-1.12-0.467-1.12-1.12
			v-7.936C68.045,12.029,68.606,11.563,69.166,11.563 M69.166,10.442c-1.214,0-2.148,0.934-2.148,2.147v7.936
			c0,1.214,0.934,2.147,2.148,2.147s2.148-0.934,2.148-2.147V12.59C71.313,11.376,70.38,10.442,69.166,10.442L69.166,10.442z"/>
	</g>
	<g>
		<path class="st2" d="M93.628,32.384c-0.467,0-0.84-0.187-1.12-0.467c-0.28-0.28-0.467-0.747-0.467-1.12
			c0-0.467,0.187-0.84,0.467-1.12l7.843-7.843c0.28-0.28,0.747-0.467,1.12-0.467s0.84,0.187,1.12,0.467
			c0.654,0.654,0.654,1.681,0,2.334l-7.843,7.843C94.469,32.197,94.002,32.384,93.628,32.384z"/>
		<path class="st3" d="M101.378,21.833c0.28,0,0.56,0.093,0.747,0.28c0.187,0.187,0.28,0.467,0.28,0.747s-0.093,0.56-0.28,0.747
			l-7.843,7.843c-0.187,0.187-0.467,0.28-0.747,0.28s-0.56-0.093-0.747-0.28c-0.187-0.187-0.28-0.467-0.28-0.747
			c0-0.28,0.093-0.56,0.28-0.747l7.843-7.843C100.818,21.926,101.098,21.833,101.378,21.833 M101.378,20.713
			c-0.56,0-1.12,0.187-1.494,0.654l-7.843,7.843c-0.84,0.84-0.84,2.241,0,3.081c0.467,0.467,0.934,0.654,1.494,0.654
			s1.12-0.187,1.494-0.654l7.843-7.843c0.84-0.84,0.84-2.241,0-3.081C102.498,20.899,101.938,20.713,101.378,20.713L101.378,20.713z
			"/>
	</g>
	<g>
		
			<radialGradient id="SVGID_2_" cx="47.9208" cy="2952.0798" r="33.8884" gradientTransform="matrix(1 0 0 -1 0 3026.8655)" gradientUnits="userSpaceOnUse">
			<stop  offset="0" style="stop-color:#FBFBFB"/>
			<stop  offset="1" style="stop-color:#E7E7E7"/>
		</radialGradient>
		<path class="st4" d="M37.047,68.797c-1.307,0-2.334-1.027-2.334-2.334c0-1.307,1.027-2.334,2.334-2.334h69.466
			c1.307,0,2.334,1.027,2.334,2.334c0,1.307-1.027,2.334-2.334,2.334H37.047z"/>
		<path class="st5" d="M106.513,64.689c1.027,0,1.774,0.84,1.774,1.774c0,0.934-0.84,1.774-1.774,1.774H37.047
			c-1.027,0-1.774-0.84-1.774-1.774c0-0.934,0.84-1.774,1.774-1.774H106.513 M106.513,63.569H37.047
			c-1.587,0-2.894,1.307-2.894,2.894c0,1.587,1.307,2.894,2.894,2.894h69.466c1.587,0,2.894-1.307,2.894-2.894
			C109.408,64.876,108.101,63.569,106.513,63.569L106.513,63.569z"/>
	</g>
	<g>
		
			<radialGradient id="SVGID_3_" cx="48.0511" cy="2949.9453" r="33.9468" gradientTransform="matrix(1 0 0 -1 0 3026.8655)" gradientUnits="userSpaceOnUse">
			<stop  offset="0" style="stop-color:#FBFBFB"/>
			<stop  offset="1" style="stop-color:#E7E7E7"/>
		</radialGradient>
		<path class="st6" d="M46.01,80.188c-1.307,0-2.334-1.027-2.334-2.334c0-1.307,1.027-2.334,2.334-2.334h69.466
			c1.307,0,2.334,1.027,2.334,2.334c0,1.307-1.027,2.334-2.334,2.334H46.01z"/>
		<path class="st5" d="M115.57,75.987c1.027,0,1.774,0.84,1.774,1.774s-0.84,1.774-1.774,1.774H46.104
			c-1.027,0-1.774-0.84-1.774-1.774s0.84-1.774,1.774-1.774H115.57 M115.57,74.96H46.104c-1.587,0-2.894,1.307-2.894,2.894
			c0,1.587,1.307,2.894,2.894,2.894h69.466c1.587,0,2.894-1.307,2.894-2.894C118.464,76.267,117.157,74.96,115.57,74.96
			L115.57,74.96z"/>
	</g>
	<g>
		
			<radialGradient id="SVGID_4_" cx="47.8688" cy="2947.8101" r="33.6071" gradientTransform="matrix(1 0 0 -1 0 3026.8655)" gradientUnits="userSpaceOnUse">
			<stop  offset="0" style="stop-color:#FBFBFB"/>
			<stop  offset="1" style="stop-color:#E7E7E7"/>
		</radialGradient>
		<path class="st8" d="M33.499,91.579c-1.307,0-2.334-1.027-2.334-2.334c0-1.307,1.027-2.334,2.334-2.334h69.466
			c1.307,0,2.334,1.027,2.334,2.334c0,1.307-1.027,2.334-2.334,2.334H33.499z"/>
		<path class="st5" d="M102.965,87.378c1.027,0,1.774,0.84,1.774,1.774s-0.84,1.774-1.774,1.774H33.499
			c-1.027,0-1.774-0.84-1.774-1.774s0.84-1.774,1.774-1.774H102.965 M102.965,86.351H33.499c-1.587,0-2.894,1.307-2.894,2.894
			c0,1.587,1.307,2.894,2.894,2.894h69.466c1.587,0,2.894-1.307,2.894-2.894C105.86,87.658,104.552,86.351,102.965,86.351
			L102.965,86.351z"/>
	</g>
</g>
<g>
	
		<radialGradient id="SVGID_5_" cx="133.5758" cy="0.4222" r="24.3409" gradientTransform="matrix(0.9582 0 0 0.9582 -24.0825 50.1608)" gradientUnits="userSpaceOnUse">
		<stop  offset="0" style="stop-color:#D44445"/>
		<stop  offset="1" style="stop-color:#C11F1F"/>
	</radialGradient>
	<path class="st9" d="M87.886,69.993h31.232c2.443,0,3.96-2.655,2.721-4.76l-15.616-26.513c-1.221-2.073-4.22-2.073-5.441,0
		L85.165,65.233C83.925,67.337,85.443,69.993,87.886,69.993z"/>
	<path class="st74" d="M108.556,49.39l-4.581-1.418c-0.643-0.199-1.51,0.256-1.854,0.837l-2.165,3.56l-0.015,0.048
		c-0.003,0.007-0.007,0.013-0.011,0.02c-0.021,0.039-0.053,0.098-0.078,0.177c-0.164,0.53,0.06,1.086,0.508,1.386l-0.318,1.026
		c-0.137,0.44,0.11,0.908,0.55,1.044c0.082,0.025,0.165,0.037,0.247,0.037c0.356,0,0.686-0.23,0.797-0.588l0.3-0.97l4.583,1.419
		l-0.3,0.97c-0.137,0.44,0.11,0.908,0.55,1.044c0.082,0.025,0.165,0.037,0.247,0.037c0.356,0,0.686-0.23,0.797-0.588l0.316-1.022
		c0.547,0.016,1.033-0.31,1.203-0.86c0.025-0.08,0.032-0.146,0.036-0.19c0.001-0.007,0.001-0.015,0.002-0.022l0.015-0.048
		l0.221-4.303C109.654,50.312,109.199,49.589,108.556,49.39z M103.575,49.638l4.365,1.351l-0.127,2.298l-5.431-1.682L103.575,49.638
		z"/>
	<path class="st74" d="M93.868,62.863c-0.196,0-0.389-0.091-0.511-0.263l-0.035-0.049c-0.421-0.593-0.529-1.405-0.289-2.171
		c0.229-0.729,0.735-1.282,1.389-1.517c1.838-0.66,5.089-1.034,5.227-1.05c0.343-0.041,0.653,0.208,0.692,0.551
		c0.039,0.344-0.208,0.654-0.551,0.693c-0.032,0.004-3.244,0.374-4.945,0.984c-0.282,0.101-0.508,0.361-0.618,0.714
		c-0.12,0.383-0.075,0.803,0.115,1.071l0.035,0.049c0.2,0.282,0.134,0.673-0.148,0.873C94.121,62.825,93.994,62.863,93.868,62.863z"
		/>
	<path class="st74" d="M110.407,66.539c-0.28,0-0.553-0.14-0.711-0.396c-0.242-0.392-0.121-0.906,0.271-1.149
		c0.057-0.035,0.228-0.141,0.168-0.387c-0.045-0.186-0.229-0.414-0.601-0.443c-0.214-0.017-0.487-0.037-0.798-0.059
		c-2.448-0.176-4.711-0.363-5.499-0.705c-0.648-0.281-1.095-0.942-1.168-1.726c-0.072-0.776,0.236-1.476,0.824-1.872
		c0.679-0.458,2.014-0.69,2.275-0.732c0.458-0.075,0.883,0.237,0.956,0.691c0.073,0.455-0.236,0.883-0.691,0.957
		c-0.578,0.093-1.356,0.299-1.607,0.468c-0.07,0.047-0.108,0.184-0.095,0.334c0.016,0.177,0.1,0.318,0.169,0.348
		c0.592,0.257,3.65,0.477,4.955,0.571c0.317,0.023,0.594,0.043,0.811,0.06c1.022,0.082,1.863,0.771,2.091,1.715
		c0.209,0.864-0.149,1.727-0.912,2.199C110.708,66.499,110.557,66.539,110.407,66.539z"/>
</g>
<line class="st181" x1="9.081" y1="26.008" x2="9.081" y2="68.142"/>
<g>
	<path class="st74" d="M10.572,27.168l11.166-2.312l23.595,17.408c0,0-0.218,2.947-0.893,4.874
		c-0.676,1.926-3.704,2.489-3.704,2.489l-25.21-10.982l-4.954-9V27.168z"/>
	
		<radialGradient id="SVGID_6_" cx="28.7328" cy="37.4444" r="15.5557" gradientTransform="matrix(1 0 0 0.9981 0 -0.1475)" gradientUnits="userSpaceOnUse">
		<stop  offset="0" style="stop-color:#D44545"/>
		<stop  offset="1" style="stop-color:#C21E1E"/>
	</radialGradient>
	<path class="st10" d="M22.842,23.815C22.873,23.815,22.873,23.815,22.842,23.815L22.842,23.815z M22.842,23.815L22.842,23.815
		L22.842,23.815L22.842,23.815z M22.842,23.815c-0.187,0-1.026,0.062-1.483,0.517l-10.046,2.235l0.031,5.008l3.452,6.374
		c0.031,0.6,0.207,1.024,0.549,1.242c0.187,0.124,24.632,11.444,25.908,11.444h0.031c1.358-0.062,2.177-0.993,3.39-2.897
		c1.244-1.966,1.97-4.739,1.089-5.981c-0.124-0.155-21.605-17.766-22.787-17.88L22.842,23.815z M16.787,30.789
		c-0.881,1.935-1.607,3.953-1.876,5.556l-3.566-6.581l-0.031-2.297l9.113-2.08C19.514,26.505,17.606,28.978,16.787,30.789z
		 M42.187,45.502c0.85-1.749,1.638-2.39,2.208-2.597c0.156,0.455-0.062,2.08-1.151,3.839c-1.12,1.78-1.545,2.059-1.939,2.111
		C41.275,48.1,41.43,47.013,42.187,45.502z M32.649,39.584c2.032-4.046,3.846-3.177,3.846-3.177v-0.031
		c1.545,1.242,3.027,2.421,4.24,3.415c-0.726,0.662-1.721,1.718-2.426,3.052c-0.819,1.542-1.12,3.228-1.213,4.294
		c-1.545-0.662-3.359-1.48-5.298-2.328C31.56,44.292,31.042,42.75,32.649,39.584z M27.59,29.34c1.151,0.911,2.447,1.904,3.784,2.959
		c-0.933,0.755-2.478,2.173-3.546,4.077c-1.275,2.297-1.514,4.894-1.576,5.888c-1.451-0.662-2.872-1.304-4.178-1.904
		c-0.332-0.486-0.881-1.966,1.026-5.95C25.081,30.364,26.895,29.516,27.59,29.34z"/>
</g>
<line class="st183" x1="10.074" y1="26.008" x2="10.074" y2="68.464"/>
</svg>
