<?xml version="1.0" encoding="utf-8"?>
<!-- Generator: Adobe Illustrator 23.0.1, SVG Export Plug-In . SVG Version: 6.00 Build 0)  -->
<svg version="1.1" id="Ebene_2" xmlns="http://www.w3.org/2000/svg" xmlns:xlink="http://www.w3.org/1999/xlink" x="0px" y="0px"
	 viewBox="0 0 143 122" style="enable-background:new 0 0 143 122;" xml:space="preserve">
<style type="text/css">
	.st0{fill:url(#SVGID_1_);}
	.st1{fill:#DADCDE;}
	.st2{fill:url(#SVGID_2_);}
	.st3{fill:url(#SVGID_3_);}
	.st4{fill:#59B9E8;}
	.st5{fill:url(#SVGID_4_);}
	.st6{fill:url(#SVGID_5_);}
	.st7{fill:url(#SVGID_6_);}
	.st8{fill:url(#SVGID_7_);}
	.st9{fill:#CBD9E7;}
	.st10{fill:#C3CFDA;}
	.st11{fill:url(#SVGID_8_);}
	.st12{fill:#BEE2F1;}
	.st13{fill:url(#SVGID_9_);}
	.st14{fill:url(#SVGID_10_);}
	.st15{fill:url(#SVGID_11_);}
	.st16{fill:url(#SVGID_12_);}
	.st17{fill:url(#SVGID_13_);}
	.st18{fill:url(#SVGID_14_);}
	.st19{fill:url(#SVGID_15_);}
	.st20{fill:url(#SVGID_16_);}
	.st21{fill:url(#SVGID_17_);}
	.st22{fill:url(#SVGID_18_);}
	.st23{fill:url(#SVGID_19_);}
	.st24{fill:url(#SVGID_20_);}
	.st25{fill:#F7B82C;}
	.st26{fill:#F5AE23;}
	.st27{fill:url(#SVGID_21_);}
	.st28{fill:url(#SVGID_22_);}
	.st29{fill:url(#SVGID_23_);}
	.st30{fill:url(#SVGID_24_);}
	.st31{fill:url(#SVGID_25_);}
	.st32{fill:url(#SVGID_26_);}
	.st33{fill:url(#SVGID_27_);}
	.st34{fill:url(#SVGID_28_);}
	.st35{fill:url(#SVGID_29_);}
	.st36{fill:url(#SVGID_30_);}
	.st37{fill:url(#SVGID_31_);}
	.st38{fill:url(#SVGID_32_);}
	.st39{fill:url(#SVGID_33_);}
	.st40{fill:url(#SVGID_34_);}
	.st41{fill:url(#SVGID_35_);}
	.st42{fill:url(#SVGID_36_);}
	.st43{fill:url(#SVGID_37_);}
	.st44{fill:url(#SVGID_38_);}
	.st45{fill:url(#SVGID_39_);}
	.st46{fill:url(#SVGID_40_);}
	.st47{fill:url(#SVGID_41_);}
	.st48{fill:url(#SVGID_42_);}
	.st49{fill:url(#SVGID_43_);}
	.st50{fill:#FFFFFF;}
	.st51{fill:url(#SVGID_44_);}
	.st52{fill:url(#SVGID_45_);}
	.st53{fill:url(#SVGID_46_);}
	.st54{fill:url(#SVGID_47_);}
	.st55{fill:url(#SVGID_48_);}
	.st56{fill:url(#SVGID_49_);}
	.st57{fill:url(#SVGID_50_);}
	.st58{fill:url(#SVGID_51_);}
	.st59{fill:url(#SVGID_52_);}
	.st60{fill:url(#SVGID_53_);}
	.st61{fill:url(#SVGID_54_);}
	.st62{fill:url(#SVGID_55_);}
	.st63{fill:url(#SVGID_56_);}
	.st64{fill:#F7B82D;}
	.st65{fill:url(#SVGID_57_);}
	.st66{fill:url(#SVGID_58_);}
	.st67{fill:url(#SVGID_59_);}
	.st68{fill:url(#SVGID_60_);}
	.st69{fill:url(#SVGID_61_);}
	.st70{fill:url(#SVGID_62_);}
	.st71{fill:url(#SVGID_63_);}
	.st72{fill:url(#SVGID_64_);}
	.st73{fill:url(#SVGID_65_);}
	.st74{fill:url(#SVGID_66_);}
	.st75{fill:url(#SVGID_67_);}
	.st76{fill:url(#SVGID_68_);}
	.st77{fill:url(#SVGID_69_);}
	.st78{fill:url(#SVGID_70_);}
	.st79{fill:url(#SVGID_71_);}
	.st80{fill:url(#SVGID_72_);}
	.st81{fill:url(#SVGID_73_);}
	.st82{fill:url(#SVGID_74_);}
	.st83{fill:url(#SVGID_75_);}
	.st84{fill:url(#SVGID_76_);}
	.st85{fill:url(#SVGID_77_);}
	.st86{fill:url(#SVGID_78_);}
	.st87{fill:url(#SVGID_79_);}
	.st88{fill:url(#SVGID_80_);}
	.st89{fill:url(#SVGID_81_);}
	.st90{fill:url(#SVGID_82_);}
	.st91{fill:url(#SVGID_83_);}
	.st92{fill:url(#SVGID_84_);}
	.st93{fill:url(#SVGID_85_);}
	.st94{fill:url(#SVGID_86_);}
	.st95{fill:url(#SVGID_87_);}
	.st96{fill:url(#SVGID_88_);}
	.st97{fill:url(#SVGID_89_);}
	.st98{fill:url(#SVGID_90_);}
	.st99{fill:url(#SVGID_91_);}
	.st100{fill:url(#SVGID_92_);}
	.st101{fill:url(#SVGID_93_);}
	.st102{fill:url(#SVGID_94_);}
	.st103{fill:url(#SVGID_95_);}
	.st104{fill:url(#SVGID_96_);}
	.st105{fill:url(#SVGID_97_);}
	.st106{fill:url(#SVGID_98_);}
	.st107{fill:url(#SVGID_99_);}
	.st108{fill:url(#SVGID_100_);}
	.st109{fill:url(#SVGID_101_);}
	.st110{fill:url(#SVGID_102_);}
	.st111{fill:url(#SVGID_103_);}
	.st112{fill:url(#SVGID_104_);}
	.st113{fill:url(#SVGID_105_);}
	.st114{fill:url(#SVGID_106_);}
	.st115{fill:url(#SVGID_107_);}
	.st116{fill:url(#SVGID_108_);}
	.st117{fill:url(#SVGID_109_);}
	.st118{fill:url(#SVGID_110_);}
	.st119{fill:url(#SVGID_111_);}
	.st120{fill:url(#SVGID_112_);}
	.st121{fill:url(#SVGID_113_);}
	.st122{fill:url(#SVGID_114_);}
	.st123{fill:url(#SVGID_115_);}
	.st124{fill:url(#SVGID_116_);}
	.st125{fill:url(#SVGID_117_);}
	.st126{fill:url(#SVGID_118_);}
	.st127{fill:url(#SVGID_119_);}
	.st128{fill:url(#SVGID_120_);}
	.st129{fill:url(#SVGID_121_);}
	.st130{fill:url(#SVGID_122_);}
	.st131{fill:url(#SVGID_123_);}
	.st132{fill:url(#SVGID_124_);}
	.st133{fill:url(#SVGID_125_);}
	.st134{fill:url(#SVGID_126_);}
	.st135{fill:url(#SVGID_127_);}
	.st136{fill:url(#SVGID_128_);}
	.st137{fill:url(#SVGID_129_);}
	.st138{fill:url(#SVGID_130_);}
	.st139{fill:url(#SVGID_131_);}
	.st140{fill:url(#SVGID_132_);}
	.st141{fill:url(#SVGID_133_);}
	.st142{fill:url(#SVGID_134_);}
	.st143{fill:url(#SVGID_135_);}
	.st144{fill:url(#SVGID_136_);}
	.st145{fill:url(#SVGID_137_);}
	.st146{fill:url(#SVGID_138_);}
	.st147{fill:url(#SVGID_139_);}
	.st148{fill:url(#SVGID_140_);}
	.st149{fill:url(#SVGID_141_);}
	.st150{fill:url(#SVGID_142_);}
	.st151{fill:url(#SVGID_143_);}
	.st152{fill:url(#SVGID_144_);}
	.st153{fill:url(#SVGID_145_);}
	.st154{fill:url(#SVGID_146_);}
	.st155{fill:url(#SVGID_147_);}
	.st156{fill:url(#SVGID_148_);}
	.st157{fill:url(#SVGID_149_);}
	.st158{fill:url(#SVGID_150_);}
	.st159{fill:url(#SVGID_151_);}
	.st160{fill:url(#SVGID_152_);}
	.st161{fill:url(#SVGID_153_);}
	.st162{fill:url(#SVGID_154_);}
	.st163{fill:url(#SVGID_155_);}
	.st164{fill:url(#SVGID_156_);}
	.st165{fill:url(#SVGID_157_);}
	.st166{fill:url(#SVGID_158_);}
	.st167{fill:url(#SVGID_159_);}
	.st168{fill:url(#SVGID_160_);}
	.st169{fill:url(#SVGID_161_);}
	.st170{fill:url(#SVGID_162_);}
	.st171{fill:url(#SVGID_163_);}
	.st172{fill:url(#SVGID_164_);}
	.st173{fill:url(#SVGID_165_);}
	.st174{fill:url(#SVGID_166_);}
	.st175{fill:url(#SVGID_167_);}
	.st176{fill:url(#SVGID_168_);}
	.st177{fill:url(#SVGID_169_);}
	.st178{fill:url(#SVGID_170_);}
	.st179{fill:url(#SVGID_171_);}
	.st180{fill:url(#SVGID_172_);}
	.st181{fill:url(#SVGID_173_);}
	.st182{fill:url(#SVGID_174_);}
	.st183{fill:url(#SVGID_175_);}
	.st184{fill:url(#SVGID_176_);}
	.st185{fill:url(#SVGID_177_);}
	.st186{fill:url(#SVGID_178_);}
	.st187{fill:url(#SVGID_179_);}
	.st188{fill:url(#SVGID_180_);}
	.st189{fill:url(#SVGID_181_);}
</style>
<g>
	<g>
		
			<radialGradient id="SVGID_1_" cx="60.7726" cy="2985.5757" r="40.2494" gradientTransform="matrix(1 0 0 -1 0 3026.5898)" gradientUnits="userSpaceOnUse">
			<stop  offset="0" style="stop-color:#F9DA52"/>
			<stop  offset="1" style="stop-color:#F7B82C"/>
		</radialGradient>
		<path class="st0" d="M73.017,81.619C57.313,81.631,44.572,68.91,44.56,53.206c-0.008-10.169,5.415-19.568,14.223-24.651
			c3.538-2.053,7.484-3.305,11.559-3.666h0.14c0.518,0,0.997,0.277,1.255,0.727c0.282,0.493,0.253,1.105-0.074,1.569
			c-8.139,11.484-5.428,27.392,6.057,35.532c4.325,3.065,9.498,4.706,14.799,4.693c0.826,0,1.577-0.041,2.353-0.116h0.074
			c0.537-0.016,1.042,0.259,1.321,0.718c0.282,0.493,0.253,1.105-0.074,1.569c-5.302,7.515-13.92,11.991-23.118,12.005
			L73.017,81.619z"/>
		<path class="st25" d="M70.482,25.41c0.341-0.017,0.662,0.163,0.826,0.462c0.183,0.313,0.163,0.705-0.05,0.999
			c-8.331,11.706-5.595,27.95,6.112,36.28c4.423,3.148,9.72,4.833,15.148,4.819c0.826,0,1.585,0,2.37-0.107h0.05
			c0.334-0.004,0.646,0.165,0.826,0.446c0.183,0.313,0.163,0.705-0.05,0.999C90.508,76.687,82.046,81.08,73.017,81.09
			c-15.412,0.016-27.919-12.466-27.935-27.878c-0.01-9.985,5.315-19.215,13.965-24.203c3.475-2.009,7.346-3.235,11.344-3.591h0.091
			 M70.482,24.353h-0.19c-4.152,0.372-8.173,1.646-11.782,3.732C44.653,36.083,39.903,53.8,47.901,67.657
			s25.715,18.607,39.572,10.609c3.615-2.096,6.728-4.956,9.123-8.38c0.453-0.63,0.495-1.466,0.107-2.138
			c-0.378-0.625-1.062-0.999-1.792-0.982h-0.116c-0.768,0.074-1.536,0.116-2.304,0.116c-13.784,0.024-24.978-11.13-25.003-24.915
			c-0.009-5.189,1.599-10.252,4.601-14.484c0.45-0.631,0.489-1.468,0.099-2.138c-0.345-0.619-1-1.002-1.709-0.999V24.353z"/>
		<path class="st64" d="M112.564,45.175c-0.384,0.013-0.726-0.24-0.826-0.611l-1.057-3.922c-0.182-0.63-0.674-1.123-1.304-1.304
			l-3.93-1.057c-0.371-0.1-0.624-0.442-0.611-0.826c-0.013-0.384,0.24-0.726,0.611-0.826l3.93-1.057
			c0.632-0.179,1.126-0.673,1.304-1.304l1.057-3.93c0.111-0.442,0.559-0.711,1.002-0.6c0.295,0.074,0.526,0.305,0.6,0.6l1.057,3.93
			c0.176,0.648,0.682,1.153,1.329,1.329l3.93,1.057c0.371,0.1,0.624,0.442,0.611,0.826c0.013,0.384-0.24,0.726-0.611,0.826
			l-3.905,1.032c-0.648,0.18-1.153,0.688-1.329,1.338l-1.057,3.922C113.256,44.946,112.93,45.181,112.564,45.175z"/>
		<path class="st26" d="M112.564,30.256c0.138-0.007,0.261,0.088,0.289,0.223l1.057,3.905c0.222,0.844,0.881,1.504,1.726,1.726
			l3.93,1.057c0.134,0.029,0.226,0.152,0.215,0.289c0.015,0.136-0.08,0.259-0.215,0.281l-3.93,1.057
			c-0.825,0.237-1.468,0.883-1.701,1.709l-1.057,3.93c-0.032,0.132-0.153,0.222-0.289,0.215c-0.135,0.011-0.256-0.082-0.281-0.215
			l-1.065-3.93c-0.233-0.826-0.876-1.472-1.701-1.709l-3.93-1.057c-0.133-0.025-0.225-0.146-0.215-0.281
			c-0.008-0.136,0.083-0.257,0.215-0.289l3.93-1.057c0.825-0.237,1.463-0.894,1.676-1.726l1.065-3.922
			c0.021-0.136,0.143-0.233,0.281-0.223 M112.564,29.183c-0.616-0.012-1.16,0.402-1.313,0.999l-1.057,3.93
			c-0.122,0.469-0.489,0.836-0.958,0.958l-3.922,1.057c-0.723,0.192-1.153,0.934-0.961,1.656c0.125,0.469,0.491,0.836,0.961,0.961
			l3.922,1.057c0.466,0.128,0.83,0.492,0.958,0.958l1.057,3.93c0.201,0.725,0.952,1.15,1.677,0.949
			c0.461-0.128,0.821-0.488,0.949-0.949l1.057-3.93c0.128-0.466,0.492-0.83,0.958-0.958l3.922-1.057
			c0.723-0.192,1.153-0.934,0.961-1.656c-0.125-0.469-0.491-0.836-0.961-0.961l-3.922-1.057c-0.469-0.122-0.836-0.488-0.958-0.958
			l-1.057-3.93C113.724,29.585,113.181,29.171,112.564,29.183z"/>
		<path class="st64" d="M91.47,34.789c-0.384,0.013-0.726-0.24-0.826-0.611l-1.024-3.922c-0.176-0.652-0.686-1.161-1.338-1.338
			l-3.922-1.057c-0.371-0.1-0.624-0.442-0.611-0.826c-0.013-0.384,0.24-0.726,0.611-0.826l3.922-1.057
			c0.651-0.173,1.16-0.68,1.338-1.329l1.057-3.93c0.12-0.44,0.573-0.7,1.013-0.58c0.283,0.077,0.503,0.298,0.58,0.58l1.073,3.988
			c0.176,0.648,0.682,1.153,1.329,1.329l3.93,1.057c0.371,0.1,0.624,0.442,0.611,0.826c0.013,0.384-0.24,0.726-0.611,0.826
			l-3.93,1.057c-0.634,0.17-1.136,0.653-1.329,1.28l-1.073,3.922C92.173,34.54,91.844,34.791,91.47,34.789z"/>
		<path class="st26" d="M91.47,19.87c0.139-0.011,0.264,0.086,0.289,0.223l1.057,3.922c0.224,0.834,0.875,1.485,1.709,1.709
			l3.922,1.057c0.135,0.028,0.23,0.151,0.223,0.289c0.01,0.137-0.087,0.26-0.223,0.281l-3.922,1.057
			c-0.833,0.225-1.484,0.876-1.709,1.709l-1.057,3.93c-0.029,0.134-0.152,0.226-0.289,0.215c-0.134,0.007-0.253-0.084-0.281-0.215
			l-1.057-3.93c-0.231-0.841-0.896-1.494-1.742-1.709l-3.93-1.057c-0.133-0.025-0.225-0.146-0.215-0.281
			c-0.008-0.136,0.083-0.257,0.215-0.289l3.93-1.057c0.834-0.224,1.485-0.875,1.709-1.709l1.057-3.922
			c0.021-0.136,0.143-0.233,0.281-0.223 M91.436,18.813c-0.614-0.011-1.155,0.403-1.304,0.999l-1.057,3.93
			c-0.128,0.466-0.492,0.83-0.958,0.958l-3.856,1.057c-0.723,0.192-1.153,0.934-0.961,1.656c0.125,0.469,0.491,0.836,0.961,0.961
			l3.889,1.057c0.463,0.133,0.825,0.495,0.958,0.958l1.057,3.93c0.192,0.723,0.934,1.153,1.656,0.961
			c0.469-0.125,0.836-0.491,0.961-0.961l1.057-3.93c0.13-0.465,0.493-0.828,0.958-0.958l3.93-1.057
			c0.723-0.192,1.153-0.934,0.961-1.656c-0.125-0.469-0.491-0.836-0.961-0.961l-3.93-1.057c-0.467-0.125-0.833-0.49-0.958-0.958
			l-1.057-3.93c-0.15-0.599-0.695-1.014-1.313-0.999H91.436z"/>
	</g>
	<g>
		<path class="st64" d="M44.162,27.016c-0.467,0-0.84-0.187-1.12-0.467l-7.843-7.843c-0.654-0.654-0.654-1.681,0-2.334
			c0.28-0.28,0.747-0.467,1.12-0.467c0.467,0,0.84,0.187,1.12,0.467l7.843,7.843c0.654,0.654,0.654,1.681,0,2.334
			C45.002,26.829,44.629,27.016,44.162,27.016z"/>
		<path class="st26" d="M36.319,16.465c0.28,0,0.56,0.093,0.747,0.28l7.843,7.843c0.187,0.187,0.28,0.467,0.28,0.747
			s-0.093,0.56-0.28,0.747c-0.187,0.187-0.467,0.28-0.747,0.28s-0.56-0.093-0.747-0.28l-7.843-7.843
			c-0.187-0.187-0.28-0.467-0.28-0.747s0.093-0.56,0.28-0.747C35.759,16.558,36.039,16.465,36.319,16.465 M36.319,15.345
			c-0.56,0-1.12,0.187-1.494,0.654c-0.84,0.84-0.84,2.241,0,3.081l7.843,7.843c0.467,0.467,0.934,0.654,1.494,0.654
			s1.12-0.187,1.494-0.654c0.84-0.84,0.84-2.241,0-3.081l-7.843-7.843C37.439,15.531,36.879,15.345,36.319,15.345L36.319,15.345z"/>
	</g>
	<g>
		
			<radialGradient id="SVGID_2_" cx="47.3795" cy="2957.448" r="33.8884" gradientTransform="matrix(1 0 0 -1 0 3026.8655)" gradientUnits="userSpaceOnUse">
			<stop  offset="0" style="stop-color:#FBFBFB"/>
			<stop  offset="1" style="stop-color:#E7E7E7"/>
		</radialGradient>
		<path class="st2" d="M36.506,63.429c-1.307,0-2.334-1.027-2.334-2.334s1.027-2.334,2.334-2.334h69.466
			c1.307,0,2.334,1.027,2.334,2.334s-1.027,2.334-2.334,2.334H36.506z"/>
		<path class="st1" d="M105.972,59.321c1.027,0,1.774,0.84,1.774,1.774s-0.84,1.774-1.774,1.774H36.506
			c-1.027,0-1.774-0.84-1.774-1.774s0.84-1.774,1.774-1.774H105.972 M105.972,58.201H36.506c-1.587,0-2.894,1.307-2.894,2.894
			s1.307,2.894,2.894,2.894h69.466c1.587,0,2.894-1.307,2.894-2.894C108.866,59.508,107.559,58.201,105.972,58.201L105.972,58.201z"
			/>
	</g>
	<g>
		
			<radialGradient id="SVGID_3_" cx="47.5098" cy="2955.3132" r="33.9468" gradientTransform="matrix(1 0 0 -1 0 3026.8655)" gradientUnits="userSpaceOnUse">
			<stop  offset="0" style="stop-color:#FBFBFB"/>
			<stop  offset="1" style="stop-color:#E7E7E7"/>
		</radialGradient>
		<path class="st3" d="M45.469,74.82c-1.307,0-2.334-1.027-2.334-2.334s1.027-2.334,2.334-2.334h69.466
			c1.307,0,2.334,1.027,2.334,2.334s-1.027,2.334-2.334,2.334H45.469z"/>
		<path class="st1" d="M115.029,70.619c1.027,0,1.774,0.84,1.774,1.774s-0.84,1.774-1.774,1.774H45.563
			c-1.027,0-1.774-0.84-1.774-1.774s0.84-1.774,1.774-1.774H115.029 M115.029,69.592H45.563c-1.587,0-2.894,1.307-2.894,2.894
			c0,1.587,1.307,2.894,2.894,2.894h69.466c1.587,0,2.894-1.307,2.894-2.894C117.923,70.899,116.616,69.592,115.029,69.592
			L115.029,69.592z"/>
	</g>
	<g>
		
			<radialGradient id="SVGID_4_" cx="47.3275" cy="2953.178" r="33.6071" gradientTransform="matrix(1 0 0 -1 0 3026.8655)" gradientUnits="userSpaceOnUse">
			<stop  offset="0" style="stop-color:#FBFBFB"/>
			<stop  offset="1" style="stop-color:#E7E7E7"/>
		</radialGradient>
		<path class="st5" d="M32.958,86.211c-1.307,0-2.334-1.027-2.334-2.334s1.027-2.334,2.334-2.334h69.466
			c1.307,0,2.334,1.027,2.334,2.334s-1.027,2.334-2.334,2.334H32.958z"/>
		<path class="st1" d="M102.424,82.01c1.027,0,1.774,0.84,1.774,1.774s-0.84,1.774-1.774,1.774H32.958
			c-1.027,0-1.774-0.84-1.774-1.774s0.84-1.774,1.774-1.774H102.424 M102.424,80.983H32.958c-1.587,0-2.894,1.307-2.894,2.894
			c0,1.587,1.307,2.894,2.894,2.894h69.466c1.587,0,2.894-1.307,2.894-2.894C105.318,82.29,104.011,80.983,102.424,80.983
			L102.424,80.983z"/>
	</g>
	<g>
		
			<radialGradient id="SVGID_5_" cx="70.335" cy="-32.8102" r="24.3409" gradientTransform="matrix(0.9582 0 0 0.9582 -24.0825 50.1608)" gradientUnits="userSpaceOnUse">
			<stop  offset="0" style="stop-color:#D44445"/>
			<stop  offset="1" style="stop-color:#C11F1F"/>
		</radialGradient>
		<path class="st6" d="M27.287,38.149H58.52c2.443,0,3.96-2.655,2.721-4.76L45.624,6.875c-1.221-2.073-4.22-2.073-5.441,0
			L24.567,33.389C23.327,35.493,24.844,38.149,27.287,38.149z"/>
		<path class="st50" d="M47.957,17.546l-4.581-1.418c-0.643-0.199-1.51,0.256-1.854,0.837l-2.165,3.56l-0.015,0.048
			c-0.003,0.007-0.007,0.013-0.011,0.02c-0.021,0.039-0.053,0.098-0.078,0.177c-0.164,0.53,0.06,1.086,0.508,1.386l-0.318,1.026
			c-0.137,0.44,0.11,0.908,0.55,1.044c0.082,0.025,0.165,0.037,0.247,0.037c0.356,0,0.686-0.23,0.797-0.588l0.3-0.97l4.583,1.419
			l-0.3,0.97c-0.137,0.44,0.11,0.908,0.55,1.044c0.082,0.025,0.165,0.037,0.247,0.037c0.356,0,0.686-0.23,0.797-0.588l0.316-1.022
			c0.547,0.016,1.033-0.31,1.203-0.86c0.025-0.08,0.032-0.146,0.036-0.19c0.001-0.007,0.001-0.015,0.002-0.022l0.015-0.048
			l0.221-4.303C49.055,18.468,48.6,17.745,47.957,17.546z M42.976,17.794l4.365,1.351l-0.127,2.298l-5.431-1.682L42.976,17.794z"/>
		<path class="st50" d="M33.27,31.019c-0.196,0-0.389-0.091-0.511-0.263l-0.035-0.049c-0.421-0.593-0.529-1.405-0.289-2.171
			c0.229-0.729,0.735-1.282,1.389-1.517c1.838-0.66,5.089-1.034,5.227-1.05c0.343-0.041,0.653,0.208,0.692,0.551
			c0.039,0.344-0.208,0.654-0.551,0.693c-0.032,0.004-3.244,0.373-4.945,0.984c-0.282,0.101-0.508,0.361-0.618,0.714
			c-0.12,0.383-0.075,0.803,0.115,1.071l0.035,0.049c0.2,0.282,0.134,0.673-0.148,0.873C33.522,30.981,33.395,31.019,33.27,31.019z"
			/>
		<path class="st50" d="M49.808,34.695c-0.28,0-0.553-0.14-0.711-0.396c-0.242-0.392-0.121-0.906,0.271-1.149
			c0.057-0.035,0.228-0.141,0.168-0.387c-0.045-0.186-0.229-0.414-0.601-0.443c-0.214-0.017-0.487-0.037-0.798-0.059
			c-2.448-0.176-4.711-0.363-5.499-0.705c-0.648-0.281-1.095-0.942-1.168-1.726c-0.072-0.776,0.236-1.476,0.824-1.872
			c0.679-0.458,2.014-0.69,2.275-0.732c0.458-0.075,0.883,0.237,0.956,0.691c0.073,0.455-0.236,0.883-0.691,0.957
			c-0.578,0.093-1.356,0.299-1.607,0.468c-0.07,0.047-0.108,0.184-0.095,0.334c0.016,0.177,0.1,0.318,0.169,0.348
			c0.592,0.257,3.65,0.477,4.955,0.571c0.317,0.023,0.594,0.043,0.811,0.06c1.022,0.082,1.863,0.771,2.091,1.715
			c0.209,0.864-0.149,1.727-0.912,2.199C50.11,34.655,49.958,34.695,49.808,34.695z"/>
	</g>
</g>
</svg>
