<?xml version="1.0" encoding="utf-8"?>
<!-- Generator: Adobe Illustrator 23.0.1, SVG Export Plug-In . SVG Version: 6.00 Build 0)  -->
<svg version="1.1" id="Ebene_2" xmlns="http://www.w3.org/2000/svg" xmlns:xlink="http://www.w3.org/1999/xlink" x="0px" y="0px"
	 viewBox="0 0 143 122" style="enable-background:new 0 0 143 122;" xml:space="preserve">
<style type="text/css">
	.st0{fill:url(#SVGID_1_);}
	.st1{fill:#F7B82C;}
	.st2{fill:#F7B82D;}
	.st3{fill:#F5AE23;}
	.st4{fill:url(#SVGID_2_);}
	.st5{fill:#DADCDE;}
	.st6{fill:url(#SVGID_3_);}
	.st7{fill:url(#SVGID_4_);}
	.st8{fill:url(#SVGID_5_);}
	.st9{fill:#FFFFFF;}
	.st10{fill:url(#SVGID_6_);}
	.st11{fill:#1D1D1B;stroke:#1D1D1B;stroke-width:0.5;stroke-miterlimit:10;}
	.st12{fill:#CBD9E7;}
	.st13{fill:#C3CFDA;}
	.st14{fill:url(#SVGID_7_);}
	.st15{fill:#BEE2F1;}
	.st16{fill:url(#SVGID_8_);}
	.st17{fill:url(#SVGID_9_);}
	.st18{fill:url(#SVGID_10_);}
	.st19{fill:url(#SVGID_11_);}
	.st20{fill:url(#SVGID_12_);}
	.st21{fill:url(#SVGID_13_);}
	.st22{fill:#59B9E8;}
	.st23{fill:url(#SVGID_14_);}
	.st24{fill:url(#SVGID_15_);}
	.st25{fill:url(#SVGID_16_);}
	.st26{fill:url(#SVGID_17_);}
	.st27{fill:url(#SVGID_18_);}
	.st28{fill:url(#SVGID_19_);}
	.st29{fill:url(#SVGID_20_);}
	.st30{fill:url(#SVGID_21_);}
	.st31{fill:url(#SVGID_22_);}
	.st32{fill:url(#SVGID_23_);}
	.st33{fill:url(#SVGID_24_);}
	.st34{fill:url(#SVGID_25_);}
	.st35{fill:url(#SVGID_26_);}
	.st36{fill:url(#SVGID_27_);}
	.st37{fill:url(#SVGID_28_);}
	.st38{fill:url(#SVGID_29_);}
	.st39{fill:url(#SVGID_30_);}
	.st40{fill:url(#SVGID_31_);}
	.st41{fill:url(#SVGID_32_);}
	.st42{fill:url(#SVGID_33_);}
	.st43{fill:url(#SVGID_34_);}
	.st44{fill:url(#SVGID_35_);}
	.st45{fill:url(#SVGID_36_);}
	.st46{fill:url(#SVGID_37_);}
	.st47{fill:url(#SVGID_38_);}
	.st48{fill:url(#SVGID_39_);}
	.st49{fill:url(#SVGID_40_);}
	.st50{fill:url(#SVGID_41_);}
	.st51{fill:url(#SVGID_42_);}
	.st52{fill:url(#SVGID_43_);}
	.st53{fill:url(#SVGID_44_);}
	.st54{fill:url(#SVGID_45_);}
	.st55{fill:url(#SVGID_46_);}
	.st56{fill:url(#SVGID_47_);}
	.st57{fill:url(#SVGID_48_);}
	.st58{fill:url(#SVGID_49_);}
	.st59{fill:url(#SVGID_50_);}
	.st60{fill:url(#SVGID_51_);}
	.st61{fill:url(#SVGID_52_);}
	.st62{fill:url(#SVGID_53_);}
	.st63{fill:url(#SVGID_54_);}
	.st64{fill:url(#SVGID_55_);}
	.st65{fill:url(#SVGID_56_);}
	.st66{fill:url(#SVGID_57_);}
	.st67{fill:url(#SVGID_58_);}
	.st68{fill:url(#SVGID_59_);}
	.st69{fill:url(#SVGID_60_);}
	.st70{fill:url(#SVGID_61_);}
	.st71{fill:url(#SVGID_62_);}
	.st72{fill:url(#SVGID_63_);}
	.st73{fill:url(#SVGID_64_);}
	.st74{fill:url(#SVGID_65_);}
	.st75{fill:url(#SVGID_66_);}
	.st76{fill:url(#SVGID_67_);}
	.st77{fill:url(#SVGID_68_);}
	.st78{fill:url(#SVGID_69_);}
	.st79{fill:url(#SVGID_70_);}
	.st80{fill:url(#SVGID_71_);}
	.st81{fill:url(#SVGID_72_);}
	.st82{fill:url(#SVGID_73_);}
	.st83{fill:url(#SVGID_74_);}
	.st84{fill:url(#SVGID_75_);}
	.st85{fill:url(#SVGID_76_);}
	.st86{fill:url(#SVGID_77_);}
	.st87{fill:url(#SVGID_78_);}
	.st88{fill:url(#SVGID_79_);}
	.st89{fill:url(#SVGID_80_);}
	.st90{fill:url(#SVGID_81_);}
	.st91{fill:url(#SVGID_82_);}
	.st92{fill:url(#SVGID_83_);}
	.st93{fill:url(#SVGID_84_);}
	.st94{fill:url(#SVGID_85_);}
	.st95{fill:url(#SVGID_86_);}
	.st96{fill:url(#SVGID_87_);}
	.st97{fill:url(#SVGID_88_);}
	.st98{fill:url(#SVGID_89_);}
	.st99{fill:url(#SVGID_90_);}
	.st100{fill:url(#SVGID_91_);}
	.st101{fill:url(#SVGID_92_);}
	.st102{fill:url(#SVGID_93_);}
	.st103{fill:url(#SVGID_94_);}
	.st104{fill:url(#SVGID_95_);}
	.st105{fill:url(#SVGID_96_);}
	.st106{fill:url(#SVGID_97_);}
	.st107{fill:url(#SVGID_98_);}
	.st108{fill:url(#SVGID_99_);}
	.st109{fill:url(#SVGID_100_);}
	.st110{fill:url(#SVGID_101_);}
	.st111{fill:url(#SVGID_102_);}
	.st112{fill:url(#SVGID_103_);}
	.st113{fill:url(#SVGID_104_);}
	.st114{fill:url(#SVGID_105_);}
	.st115{fill:url(#SVGID_106_);}
	.st116{fill:url(#SVGID_107_);}
	.st117{fill:url(#SVGID_108_);}
	.st118{fill:url(#SVGID_109_);}
	.st119{fill:url(#SVGID_110_);}
	.st120{fill:url(#SVGID_111_);}
	.st121{fill:url(#SVGID_112_);}
	.st122{fill:url(#SVGID_113_);}
	.st123{fill:url(#SVGID_114_);}
	.st124{fill:url(#SVGID_115_);}
	.st125{fill:url(#SVGID_116_);}
	.st126{fill:url(#SVGID_117_);}
	.st127{fill:url(#SVGID_118_);}
	.st128{fill:url(#SVGID_119_);}
	.st129{fill:url(#SVGID_120_);}
	.st130{fill:url(#SVGID_121_);}
	.st131{fill:url(#SVGID_122_);}
	.st132{fill:url(#SVGID_123_);}
	.st133{fill:url(#SVGID_124_);}
	.st134{fill:url(#SVGID_125_);}
	.st135{fill:url(#SVGID_126_);}
	.st136{fill:url(#SVGID_127_);}
	.st137{fill:url(#SVGID_128_);}
	.st138{fill:url(#SVGID_129_);}
	.st139{fill:url(#SVGID_130_);}
	.st140{fill:url(#SVGID_131_);}
	.st141{fill:url(#SVGID_132_);}
	.st142{fill:url(#SVGID_133_);}
	.st143{fill:url(#SVGID_134_);}
	.st144{fill:url(#SVGID_135_);}
	.st145{fill:url(#SVGID_136_);}
	.st146{fill:url(#SVGID_137_);}
	.st147{fill:url(#SVGID_138_);}
	.st148{fill:url(#SVGID_139_);}
	.st149{fill:url(#SVGID_140_);}
	.st150{fill:url(#SVGID_141_);}
	.st151{fill:url(#SVGID_142_);}
	.st152{fill:url(#SVGID_143_);}
	.st153{fill:url(#SVGID_144_);}
	.st154{fill:url(#SVGID_145_);}
	.st155{fill:url(#SVGID_146_);}
	.st156{fill:url(#SVGID_147_);}
	.st157{fill:url(#SVGID_148_);}
	.st158{fill:url(#SVGID_149_);}
	.st159{fill:url(#SVGID_150_);}
	.st160{fill:url(#SVGID_151_);}
	.st161{fill:url(#SVGID_152_);}
	.st162{fill:url(#SVGID_153_);}
	.st163{fill:url(#SVGID_154_);}
	.st164{fill:url(#SVGID_155_);}
	.st165{fill:url(#SVGID_156_);}
	.st166{fill:url(#SVGID_157_);}
	.st167{fill:url(#SVGID_158_);}
	.st168{fill:url(#SVGID_159_);}
	.st169{fill:url(#SVGID_160_);}
	.st170{fill:url(#SVGID_161_);}
	.st171{fill:url(#SVGID_162_);}
	.st172{fill:url(#SVGID_163_);}
	.st173{fill:url(#SVGID_164_);}
	.st174{fill:url(#SVGID_165_);}
	.st175{fill:url(#SVGID_166_);}
	.st176{fill:url(#SVGID_167_);}
	.st177{fill:url(#SVGID_168_);}
	.st178{fill:url(#SVGID_169_);}
	.st179{fill:url(#SVGID_170_);}
	.st180{fill:url(#SVGID_171_);}
	.st181{fill:url(#SVGID_172_);}
	.st182{fill:url(#SVGID_173_);}
	.st183{fill:url(#SVGID_174_);}
	.st184{fill:url(#SVGID_175_);}
	.st185{fill:url(#SVGID_176_);}
	.st186{fill:url(#SVGID_177_);}
	.st187{fill:url(#SVGID_178_);}
	.st188{fill:url(#SVGID_179_);}
	.st189{fill:url(#SVGID_180_);}
	.st190{fill:url(#SVGID_181_);}
	.st191{fill:url(#SVGID_182_);}
	.st192{fill:url(#SVGID_183_);}
	.st193{fill:url(#SVGID_184_);}
	.st194{fill:url(#SVGID_185_);}
	.st195{fill:url(#SVGID_186_);}
	.st196{fill:url(#SVGID_187_);}
	.st197{fill:url(#SVGID_188_);}
	.st198{fill:url(#SVGID_189_);}
	.st199{fill:url(#SVGID_190_);}
	.st200{fill:url(#SVGID_191_);}
	.st201{fill:url(#SVGID_192_);}
	.st202{fill:url(#SVGID_193_);}
	.st203{fill:url(#SVGID_194_);}
	.st204{fill:url(#SVGID_195_);}
	.st205{fill:url(#SVGID_196_);}
	.st206{fill:url(#SVGID_197_);}
	.st207{fill:url(#SVGID_198_);}
	.st208{fill:url(#SVGID_199_);}
	.st209{fill:url(#SVGID_200_);}
	.st210{fill:url(#SVGID_201_);}
	.st211{fill:url(#SVGID_202_);}
	.st212{fill:url(#SVGID_203_);}
	.st213{fill:url(#SVGID_204_);}
	.st214{fill:url(#SVGID_205_);}
	.st215{fill:url(#SVGID_206_);}
	.st216{fill:url(#SVGID_207_);}
	.st217{fill:url(#SVGID_208_);}
	.st218{fill:url(#SVGID_209_);}
	.st219{fill:url(#SVGID_210_);}
	.st220{fill:url(#SVGID_211_);}
	.st221{fill:url(#SVGID_212_);}
	.st222{fill:url(#SVGID_213_);}
	.st223{fill:url(#SVGID_214_);}
	.st224{fill:url(#SVGID_215_);}
	.st225{fill:url(#SVGID_216_);}
	.st226{fill:url(#SVGID_217_);}
	.st227{fill:url(#SVGID_218_);}
	.st228{fill:url(#SVGID_219_);}
	.st229{fill:url(#SVGID_220_);}
	.st230{fill:url(#SVGID_221_);}
	.st231{fill:url(#SVGID_222_);}
	.st232{fill:url(#SVGID_223_);}
	.st233{fill:url(#SVGID_224_);}
	.st234{fill:url(#SVGID_225_);}
	.st235{fill:url(#SVGID_226_);}
	.st236{fill:url(#SVGID_227_);}
	.st237{fill:url(#SVGID_228_);}
	.st238{fill:url(#SVGID_229_);}
	.st239{fill:url(#SVGID_230_);}
	.st240{fill:url(#SVGID_231_);}
	.st241{fill:url(#SVGID_232_);}
	.st242{fill:url(#SVGID_233_);}
	.st243{fill:url(#SVGID_234_);}
	.st244{fill:url(#SVGID_235_);}
	.st245{fill:url(#SVGID_236_);}
	.st246{fill:url(#SVGID_237_);}
	.st247{fill:url(#SVGID_238_);}
	.st248{fill:url(#SVGID_239_);}
	.st249{fill:url(#SVGID_240_);}
	.st250{fill:url(#SVGID_241_);}
	.st251{fill:url(#SVGID_242_);}
	.st252{fill:url(#SVGID_243_);}
	.st253{fill:url(#SVGID_244_);}
	.st254{fill:url(#SVGID_245_);}
	.st255{fill:url(#SVGID_246_);}
	.st256{fill:url(#SVGID_247_);}
	.st257{fill:url(#SVGID_248_);}
	.st258{fill:url(#SVGID_249_);}
	.st259{fill:url(#SVGID_250_);}
	.st260{fill:url(#SVGID_251_);}
	.st261{fill:url(#SVGID_252_);}
	.st262{fill:url(#SVGID_253_);}
	.st263{fill:url(#SVGID_254_);}
	.st264{fill:url(#SVGID_255_);}
	.st265{fill:url(#SVGID_256_);}
	.st266{fill:url(#SVGID_257_);}
	.st267{fill:url(#SVGID_258_);}
	.st268{fill:url(#SVGID_259_);}
	.st269{fill:url(#SVGID_260_);}
	.st270{fill:url(#SVGID_261_);}
	.st271{fill:url(#SVGID_262_);}
	.st272{fill:url(#SVGID_263_);}
	.st273{fill:url(#SVGID_264_);}
	.st274{fill:url(#SVGID_265_);}
	.st275{fill:url(#SVGID_266_);}
	.st276{fill:url(#SVGID_267_);}
	.st277{fill:url(#SVGID_268_);}
	.st278{fill:url(#SVGID_269_);}
	.st279{fill:url(#SVGID_270_);}
	.st280{fill:url(#SVGID_271_);}
	.st281{fill:url(#SVGID_272_);}
	.st282{fill:url(#SVGID_273_);}
	.st283{fill:url(#SVGID_274_);}
	.st284{fill:url(#SVGID_275_);}
</style>
<g>
	<g>
		
			<radialGradient id="SVGID_1_" cx="62.7726" cy="2985.5757" r="40.2494" gradientTransform="matrix(1 0 0 -1 0 3026.5898)" gradientUnits="userSpaceOnUse">
			<stop  offset="0" style="stop-color:#F9DA52"/>
			<stop  offset="1" style="stop-color:#F7B82C"/>
		</radialGradient>
		<path class="st0" d="M75.017,81.619C59.313,81.631,46.572,68.91,46.56,53.206c-0.008-10.169,5.415-19.568,14.223-24.651
			c3.538-2.053,7.484-3.305,11.559-3.666h0.14c0.518,0,0.997,0.277,1.255,0.727c0.282,0.493,0.253,1.105-0.074,1.569
			c-8.139,11.484-5.428,27.392,6.057,35.532c4.325,3.065,9.498,4.706,14.799,4.693c0.826,0,1.577-0.041,2.353-0.116h0.074
			c0.537-0.016,1.042,0.259,1.321,0.718c0.282,0.493,0.253,1.105-0.074,1.569c-5.302,7.515-13.92,11.991-23.118,12.005
			L75.017,81.619z"/>
		<path class="st1" d="M72.482,25.41c0.341-0.017,0.662,0.163,0.826,0.462c0.183,0.313,0.163,0.705-0.05,0.999
			c-8.331,11.706-5.595,27.95,6.112,36.28c4.423,3.148,9.72,4.833,15.148,4.819c0.826,0,1.585,0,2.37-0.107h0.05
			c0.334-0.004,0.646,0.165,0.826,0.446c0.183,0.313,0.163,0.705-0.05,0.999C92.508,76.687,84.046,81.08,75.017,81.09
			c-15.412,0.016-27.919-12.466-27.935-27.878c-0.01-9.985,5.315-19.215,13.965-24.203c3.475-2.009,7.346-3.235,11.344-3.591h0.091
			 M72.482,24.353h-0.19c-4.152,0.372-8.173,1.646-11.782,3.732C46.653,36.083,41.903,53.8,49.901,67.657
			s25.715,18.607,39.572,10.609c3.615-2.096,6.728-4.956,9.123-8.38c0.453-0.63,0.495-1.466,0.107-2.138
			c-0.378-0.625-1.062-0.999-1.792-0.982h-0.116c-0.768,0.074-1.536,0.116-2.304,0.116c-13.784,0.024-24.978-11.13-25.003-24.915
			c-0.009-5.189,1.599-10.252,4.601-14.484c0.45-0.631,0.489-1.468,0.099-2.138c-0.345-0.619-1-1.002-1.709-0.999V24.353z"/>
		<path class="st2" d="M114.564,45.175c-0.384,0.013-0.726-0.24-0.826-0.611l-1.057-3.922c-0.182-0.63-0.674-1.123-1.304-1.304
			l-3.93-1.057c-0.371-0.1-0.624-0.442-0.611-0.826c-0.013-0.384,0.24-0.726,0.611-0.826l3.93-1.057
			c0.632-0.179,1.126-0.673,1.304-1.304l1.057-3.93c0.111-0.442,0.559-0.711,1.002-0.6c0.295,0.074,0.526,0.305,0.6,0.6l1.057,3.93
			c0.176,0.648,0.682,1.153,1.329,1.329l3.93,1.057c0.371,0.1,0.624,0.442,0.611,0.826c0.013,0.384-0.24,0.726-0.611,0.826
			l-3.905,1.032c-0.648,0.18-1.153,0.688-1.329,1.338l-1.057,3.922C115.256,44.946,114.93,45.181,114.564,45.175z"/>
		<path class="st3" d="M114.564,30.256c0.138-0.007,0.261,0.088,0.289,0.223l1.057,3.905c0.222,0.844,0.881,1.504,1.726,1.726
			l3.93,1.057c0.134,0.029,0.226,0.152,0.215,0.289c0.015,0.136-0.08,0.259-0.215,0.281l-3.93,1.057
			c-0.825,0.237-1.468,0.883-1.701,1.709l-1.057,3.93c-0.032,0.132-0.153,0.222-0.289,0.215c-0.135,0.011-0.256-0.082-0.281-0.215
			l-1.065-3.93c-0.233-0.826-0.876-1.472-1.701-1.709l-3.93-1.057c-0.133-0.025-0.225-0.146-0.215-0.281
			c-0.008-0.136,0.083-0.257,0.215-0.289l3.93-1.057c0.825-0.237,1.463-0.894,1.676-1.726l1.065-3.922
			c0.021-0.136,0.143-0.233,0.281-0.223 M114.564,29.183c-0.616-0.012-1.16,0.402-1.313,0.999l-1.057,3.93
			c-0.122,0.469-0.489,0.836-0.958,0.958l-3.922,1.057c-0.723,0.192-1.153,0.934-0.961,1.656c0.125,0.469,0.491,0.836,0.961,0.961
			l3.922,1.057c0.466,0.128,0.83,0.492,0.958,0.958l1.057,3.93c0.201,0.725,0.952,1.15,1.677,0.949
			c0.461-0.128,0.821-0.488,0.949-0.949l1.057-3.93c0.128-0.466,0.492-0.83,0.958-0.958l3.922-1.057
			c0.723-0.192,1.153-0.934,0.961-1.656c-0.125-0.469-0.491-0.836-0.961-0.961l-3.922-1.057c-0.469-0.122-0.836-0.488-0.958-0.958
			l-1.057-3.93C115.724,29.585,115.181,29.171,114.564,29.183z"/>
		<path class="st2" d="M93.47,34.789c-0.384,0.013-0.726-0.24-0.826-0.611l-1.024-3.922c-0.176-0.652-0.686-1.161-1.338-1.338
			l-3.922-1.057c-0.371-0.1-0.624-0.442-0.611-0.826c-0.013-0.384,0.24-0.726,0.611-0.826l3.922-1.057
			c0.651-0.173,1.16-0.68,1.338-1.329l1.057-3.93c0.12-0.44,0.573-0.7,1.013-0.58c0.283,0.077,0.503,0.298,0.58,0.58l1.073,3.988
			c0.176,0.648,0.682,1.153,1.329,1.329l3.93,1.057c0.371,0.1,0.624,0.442,0.611,0.826c0.013,0.384-0.24,0.726-0.611,0.826
			l-3.93,1.057c-0.634,0.17-1.136,0.653-1.329,1.28l-1.073,3.922C94.173,34.54,93.844,34.791,93.47,34.789z"/>
		<path class="st3" d="M93.47,19.87c0.139-0.011,0.264,0.086,0.289,0.223l1.057,3.922c0.224,0.834,0.875,1.485,1.709,1.709
			l3.922,1.057c0.135,0.028,0.23,0.151,0.223,0.289c0.01,0.137-0.087,0.26-0.223,0.281l-3.922,1.057
			c-0.833,0.225-1.484,0.876-1.709,1.709l-1.057,3.93c-0.029,0.134-0.152,0.226-0.289,0.215c-0.134,0.007-0.253-0.084-0.281-0.215
			l-1.057-3.93c-0.231-0.841-0.896-1.494-1.742-1.709l-3.93-1.057c-0.133-0.025-0.225-0.146-0.215-0.281
			c-0.008-0.136,0.083-0.257,0.215-0.289l3.93-1.057c0.834-0.224,1.485-0.875,1.709-1.709l1.057-3.922
			c0.021-0.136,0.143-0.233,0.281-0.223 M93.436,18.813c-0.614-0.011-1.155,0.403-1.304,0.999l-1.057,3.93
			c-0.128,0.466-0.492,0.83-0.958,0.958l-3.856,1.057c-0.723,0.192-1.153,0.934-0.961,1.656c0.125,0.469,0.491,0.836,0.961,0.961
			l3.889,1.057c0.463,0.133,0.825,0.495,0.958,0.958l1.057,3.93c0.192,0.723,0.934,1.153,1.656,0.961
			c0.469-0.125,0.836-0.491,0.961-0.961l1.057-3.93c0.13-0.465,0.493-0.828,0.958-0.958l3.93-1.057
			c0.723-0.192,1.153-0.934,0.961-1.656c-0.125-0.469-0.491-0.836-0.961-0.961l-3.93-1.057c-0.467-0.125-0.833-0.49-0.958-0.958
			l-1.057-3.93c-0.15-0.599-0.695-1.014-1.313-0.999H93.436z"/>
	</g>
	<g>
		
			<radialGradient id="SVGID_2_" cx="49.3795" cy="2957.448" r="33.8884" gradientTransform="matrix(1 0 0 -1 0 3026.8655)" gradientUnits="userSpaceOnUse">
			<stop  offset="0" style="stop-color:#FBFBFB"/>
			<stop  offset="1" style="stop-color:#E7E7E7"/>
		</radialGradient>
		<path class="st4" d="M38.506,63.429c-1.307,0-2.334-1.027-2.334-2.334s1.027-2.334,2.334-2.334h69.466
			c1.307,0,2.334,1.027,2.334,2.334s-1.027,2.334-2.334,2.334H38.506z"/>
		<path class="st5" d="M107.972,59.321c1.027,0,1.774,0.84,1.774,1.774s-0.84,1.774-1.774,1.774H38.506
			c-1.027,0-1.774-0.84-1.774-1.774s0.84-1.774,1.774-1.774H107.972 M107.972,58.201H38.506c-1.587,0-2.894,1.307-2.894,2.894
			s1.307,2.894,2.894,2.894h69.466c1.587,0,2.894-1.307,2.894-2.894C110.866,59.508,109.559,58.201,107.972,58.201L107.972,58.201z"
			/>
	</g>
	<g>
		
			<radialGradient id="SVGID_3_" cx="49.5098" cy="2955.3132" r="33.9468" gradientTransform="matrix(1 0 0 -1 0 3026.8655)" gradientUnits="userSpaceOnUse">
			<stop  offset="0" style="stop-color:#FBFBFB"/>
			<stop  offset="1" style="stop-color:#E7E7E7"/>
		</radialGradient>
		<path class="st6" d="M47.469,74.82c-1.307,0-2.334-1.027-2.334-2.334s1.027-2.334,2.334-2.334h69.466
			c1.307,0,2.334,1.027,2.334,2.334s-1.027,2.334-2.334,2.334H47.469z"/>
		<path class="st5" d="M117.029,70.619c1.027,0,1.774,0.84,1.774,1.774s-0.84,1.774-1.774,1.774H47.563
			c-1.027,0-1.774-0.84-1.774-1.774s0.84-1.774,1.774-1.774H117.029 M117.029,69.592H47.563c-1.587,0-2.894,1.307-2.894,2.894
			c0,1.587,1.307,2.894,2.894,2.894h69.466c1.587,0,2.894-1.307,2.894-2.894C119.923,70.899,118.616,69.592,117.029,69.592
			L117.029,69.592z"/>
	</g>
	<g>
		
			<radialGradient id="SVGID_4_" cx="49.3275" cy="2953.178" r="33.6071" gradientTransform="matrix(1 0 0 -1 0 3026.8655)" gradientUnits="userSpaceOnUse">
			<stop  offset="0" style="stop-color:#FBFBFB"/>
			<stop  offset="1" style="stop-color:#E7E7E7"/>
		</radialGradient>
		<path class="st7" d="M34.958,86.211c-1.307,0-2.334-1.027-2.334-2.334s1.027-2.334,2.334-2.334h69.466
			c1.307,0,2.334,1.027,2.334,2.334s-1.027,2.334-2.334,2.334H34.958z"/>
		<path class="st5" d="M104.424,82.01c1.027,0,1.774,0.84,1.774,1.774s-0.84,1.774-1.774,1.774H34.958
			c-1.027,0-1.774-0.84-1.774-1.774s0.84-1.774,1.774-1.774H104.424 M104.424,80.983H34.958c-1.587,0-2.894,1.307-2.894,2.894
			c0,1.587,1.307,2.894,2.894,2.894h69.466c1.587,0,2.894-1.307,2.894-2.894C107.318,82.29,106.011,80.983,104.424,80.983
			L104.424,80.983z"/>
	</g>
</g>
<g>
	<g>
		<g>
			
				<radialGradient id="SVGID_5_" cx="-854.1868" cy="-36.2402" r="34.7955" gradientTransform="matrix(0.6796 0 0 0.7208 607.2414 51.291)" gradientUnits="userSpaceOnUse">
				<stop  offset="0" style="stop-color:#D44445"/>
				<stop  offset="1" style="stop-color:#C11F1F"/>
			</radialGradient>
			<path class="st8" d="M11.389,46.102c-1.409,0-2.69-0.748-3.428-2.001c-0.779-1.324-0.8-2.98-0.054-4.323l14.967-26.953
				c0.728-1.312,2.029-2.096,3.481-2.096s2.754,0.784,3.481,2.096l14.967,26.953c0.746,1.343,0.726,3-0.054,4.323
				c-0.737,1.253-2.019,2.001-3.428,2.001H11.389z"/>
			<path class="st9" d="M26.355,11.73c1.011,0,2.022,0.527,2.608,1.581L43.93,40.264c1.188,2.14-0.266,4.839-2.608,4.839H11.389
				c-2.341,0-3.796-2.699-2.608-4.839l14.967-26.953C24.333,12.257,25.344,11.73,26.355,11.73 M26.355,9.73
				c-1.82,0-3.449,0.976-4.356,2.61L7.032,39.293c-0.917,1.651-0.891,3.688,0.067,5.316c0.919,1.561,2.522,2.493,4.289,2.493h29.934
				c1.767,0,3.371-0.932,4.29-2.494c0.958-1.628,0.983-3.665,0.066-5.316L30.712,12.34C29.804,10.706,28.176,9.73,26.355,9.73
				L26.355,9.73z"/>
		</g>
		<g>
			<path class="st9" d="M11.389,45.102h29.934c2.341,0,3.796-2.699,2.608-4.839L28.963,13.311c-1.17-2.108-4.045-2.108-5.215,0
				L8.781,40.264C7.593,42.403,9.047,45.102,11.389,45.102z"/>
			
				<radialGradient id="SVGID_6_" cx="26.3555" cy="28.4163" r="17.3543" gradientTransform="matrix(1 0 0 1.0607 0 -1.7238)" gradientUnits="userSpaceOnUse">
				<stop  offset="0" style="stop-color:#D44445"/>
				<stop  offset="1" style="stop-color:#C11F1F"/>
			</radialGradient>
			<path class="st10" d="M26.355,16.34l13.89,25.013h-27.78L26.355,16.34 M26.355,11.73c-1.011,0-2.022,0.527-2.608,1.581
				L8.781,40.264c-1.188,2.14,0.266,4.839,2.608,4.839h29.934c2.341,0,3.796-2.699,2.608-4.839L28.963,13.311
				C28.378,12.257,27.367,11.73,26.355,11.73L26.355,11.73z"/>
		</g>
		<path class="st11" d="M26.356,33.857c-0.575,0-1.041-0.494-1.041-1.104v-9.355c0-0.61,0.466-1.104,1.041-1.104
			s1.041,0.494,1.041,1.104v9.355C27.396,33.363,26.93,33.857,26.356,33.857z"/>
		<ellipse class="st11" cx="26.355" cy="37.133" rx="1.387" ry="1.472"/>
	</g>
	<g>
		
			<radialGradient id="SVGID_7_" cx="62.5667" cy="-18.276" r="24.3409" gradientTransform="matrix(0.9582 0 0 0.9582 -17.2724 50.1608)" gradientUnits="userSpaceOnUse">
			<stop  offset="0" style="stop-color:#D44445"/>
			<stop  offset="1" style="stop-color:#C11F1F"/>
		</radialGradient>
		<path class="st14" d="M26.654,52.076h31.232c2.443,0,3.96-2.655,2.721-4.76L44.991,20.802c-1.221-2.073-4.22-2.073-5.441,0
			L23.933,47.316C22.693,49.42,24.211,52.076,26.654,52.076z"/>
		<path class="st9" d="M47.324,31.473l-4.581-1.418c-0.643-0.199-1.51,0.256-1.854,0.837l-2.165,3.56l-0.015,0.048
			c-0.003,0.007-0.007,0.013-0.011,0.02c-0.021,0.039-0.053,0.098-0.078,0.177c-0.164,0.53,0.06,1.086,0.508,1.386l-0.318,1.026
			c-0.137,0.44,0.11,0.908,0.55,1.044c0.082,0.025,0.165,0.037,0.247,0.037c0.356,0,0.686-0.23,0.797-0.588l0.3-0.97l4.583,1.419
			l-0.3,0.97c-0.137,0.44,0.11,0.908,0.55,1.044c0.082,0.025,0.165,0.037,0.247,0.037c0.356,0,0.686-0.23,0.797-0.588l0.316-1.022
			c0.547,0.016,1.033-0.31,1.203-0.86c0.025-0.08,0.032-0.146,0.036-0.19c0.001-0.007,0.001-0.015,0.002-0.022l0.015-0.048
			l0.221-4.303C48.421,32.395,47.967,31.672,47.324,31.473z M42.343,31.721l4.365,1.351l-0.127,2.298l-5.431-1.682L42.343,31.721z"
			/>
		<path class="st9" d="M32.636,44.946c-0.196,0-0.389-0.091-0.511-0.263l-0.035-0.049c-0.421-0.593-0.529-1.405-0.289-2.171
			c0.229-0.729,0.735-1.282,1.389-1.517c1.838-0.66,5.089-1.034,5.227-1.05c0.343-0.041,0.653,0.208,0.692,0.551
			c0.039,0.344-0.208,0.654-0.551,0.693c-0.032,0.004-3.244,0.374-4.945,0.984c-0.282,0.101-0.508,0.361-0.618,0.714
			c-0.12,0.383-0.075,0.803,0.115,1.071l0.035,0.049c0.2,0.282,0.134,0.673-0.148,0.873C32.888,44.908,32.762,44.946,32.636,44.946z
			"/>
		<path class="st9" d="M49.175,48.622c-0.28,0-0.553-0.14-0.711-0.396c-0.242-0.392-0.121-0.906,0.271-1.149
			c0.057-0.035,0.228-0.141,0.168-0.387c-0.045-0.186-0.229-0.414-0.601-0.443c-0.214-0.017-0.487-0.037-0.798-0.059
			c-2.448-0.176-4.711-0.363-5.499-0.705c-0.648-0.281-1.095-0.942-1.168-1.726c-0.072-0.776,0.236-1.476,0.824-1.872
			c0.679-0.458,2.014-0.69,2.275-0.732c0.458-0.075,0.883,0.237,0.956,0.691c0.073,0.455-0.236,0.883-0.691,0.957
			c-0.578,0.093-1.356,0.299-1.607,0.468c-0.07,0.047-0.108,0.184-0.095,0.334c0.016,0.177,0.1,0.318,0.169,0.348
			c0.592,0.257,3.65,0.477,4.955,0.571c0.317,0.023,0.594,0.043,0.811,0.06c1.022,0.082,1.863,0.771,2.091,1.715
			c0.209,0.864-0.149,1.727-0.912,2.199C49.476,48.582,49.325,48.622,49.175,48.622z"/>
	</g>
</g>
</svg>
