<?xml version="1.0" encoding="utf-8"?>
<!-- Generator: Adobe Illustrator 23.0.1, SVG Export Plug-In . SVG Version: 6.00 Build 0)  -->
<svg version="1.1" id="Ebene_2" xmlns="http://www.w3.org/2000/svg" xmlns:xlink="http://www.w3.org/1999/xlink" x="0px" y="0px"
	 viewBox="0 0 143 122" style="enable-background:new 0 0 143 122;" xml:space="preserve">
<style type="text/css">
	.st0{fill:url(#SVGID_1_);}
	.st1{fill:#F7B82C;}
	.st2{fill:#F7B82D;}
	.st3{fill:#F5AE23;}
	.st4{fill:url(#SVGID_2_);}
	.st5{fill:#59B9E8;}
	.st6{fill:url(#SVGID_3_);}
	.st7{fill:url(#SVGID_4_);}
	.st8{fill:#1D1D1B;stroke:#FFFFFF;stroke-width:3;stroke-linecap:round;stroke-miterlimit:10;}
	.st9{fill:#FFFFFF;}
	.st10{fill:url(#SVGID_5_);}
	.st11{fill:#1D1D1B;stroke:#1D1D1B;stroke-width:3;stroke-linecap:round;stroke-miterlimit:10;}
	.st12{fill:url(#SVGID_6_);}
	.st13{fill:#DADCDE;}
	.st14{fill:url(#SVGID_7_);}
	.st15{fill:url(#SVGID_8_);}
	.st16{fill:url(#SVGID_9_);}
	.st17{fill:#CBD9E7;}
	.st18{fill:#C3CFDA;}
	.st19{fill:url(#SVGID_10_);}
	.st20{fill:#BEE2F1;}
	.st21{fill:url(#SVGID_11_);}
	.st22{fill:url(#SVGID_12_);}
	.st23{fill:url(#SVGID_13_);}
	.st24{fill:url(#SVGID_14_);}
	.st25{fill:url(#SVGID_15_);}
	.st26{fill:url(#SVGID_16_);}
	.st27{fill:url(#SVGID_17_);}
	.st28{fill:url(#SVGID_18_);}
	.st29{fill:url(#SVGID_19_);}
	.st30{fill:url(#SVGID_20_);}
	.st31{fill:url(#SVGID_21_);}
	.st32{fill:url(#SVGID_22_);}
	.st33{fill:url(#SVGID_23_);}
	.st34{fill:url(#SVGID_24_);}
	.st35{fill:url(#SVGID_25_);}
	.st36{fill:url(#SVGID_26_);}
	.st37{fill:url(#SVGID_27_);}
	.st38{fill:url(#SVGID_28_);}
	.st39{fill:url(#SVGID_29_);}
	.st40{fill:url(#SVGID_30_);}
	.st41{fill:url(#SVGID_31_);}
	.st42{fill:url(#SVGID_32_);}
	.st43{fill:url(#SVGID_33_);}
	.st44{fill:url(#SVGID_34_);}
	.st45{fill:url(#SVGID_35_);}
	.st46{fill:url(#SVGID_36_);}
	.st47{fill:url(#SVGID_37_);}
	.st48{fill:url(#SVGID_38_);}
	.st49{fill:url(#SVGID_39_);}
	.st50{fill:url(#SVGID_40_);}
	.st51{fill:url(#SVGID_41_);}
	.st52{fill:url(#SVGID_42_);}
	.st53{fill:url(#SVGID_43_);}
	.st54{fill:url(#SVGID_44_);}
	.st55{fill:url(#SVGID_45_);}
	.st56{fill:url(#SVGID_46_);}
	.st57{fill:url(#SVGID_47_);}
	.st58{fill:url(#SVGID_48_);}
	.st59{fill:url(#SVGID_49_);}
	.st60{fill:url(#SVGID_50_);}
	.st61{fill:url(#SVGID_51_);}
	.st62{fill:url(#SVGID_52_);}
	.st63{fill:url(#SVGID_53_);}
	.st64{fill:url(#SVGID_54_);}
	.st65{fill:url(#SVGID_55_);}
	.st66{fill:url(#SVGID_56_);}
	.st67{fill:url(#SVGID_57_);}
	.st68{fill:url(#SVGID_58_);}
	.st69{fill:url(#SVGID_59_);}
	.st70{fill:url(#SVGID_60_);}
	.st71{fill:url(#SVGID_61_);}
	.st72{fill:url(#SVGID_62_);}
	.st73{fill:url(#SVGID_63_);}
	.st74{fill:url(#SVGID_64_);}
	.st75{fill:url(#SVGID_65_);}
	.st76{fill:url(#SVGID_66_);}
	.st77{fill:url(#SVGID_67_);}
	.st78{fill:url(#SVGID_68_);}
	.st79{fill:url(#SVGID_69_);}
	.st80{fill:url(#SVGID_70_);}
	.st81{fill:url(#SVGID_71_);}
	.st82{fill:url(#SVGID_72_);}
	.st83{fill:url(#SVGID_73_);}
	.st84{fill:url(#SVGID_74_);}
	.st85{fill:url(#SVGID_75_);}
	.st86{fill:url(#SVGID_76_);}
	.st87{fill:url(#SVGID_77_);}
	.st88{fill:url(#SVGID_78_);}
	.st89{fill:url(#SVGID_79_);}
	.st90{fill:url(#SVGID_80_);}
	.st91{fill:url(#SVGID_81_);}
	.st92{fill:url(#SVGID_82_);}
	.st93{fill:url(#SVGID_83_);}
	.st94{fill:url(#SVGID_84_);}
	.st95{fill:url(#SVGID_85_);}
	.st96{fill:url(#SVGID_86_);}
	.st97{fill:url(#SVGID_87_);}
	.st98{fill:url(#SVGID_88_);}
	.st99{fill:url(#SVGID_89_);}
	.st100{fill:url(#SVGID_90_);}
	.st101{fill:url(#SVGID_91_);}
	.st102{fill:url(#SVGID_92_);}
	.st103{fill:url(#SVGID_93_);}
	.st104{fill:url(#SVGID_94_);}
	.st105{fill:url(#SVGID_95_);}
	.st106{fill:url(#SVGID_96_);}
	.st107{fill:url(#SVGID_97_);}
	.st108{fill:url(#SVGID_98_);}
	.st109{fill:url(#SVGID_99_);}
	.st110{fill:url(#SVGID_100_);}
	.st111{fill:url(#SVGID_101_);}
	.st112{fill:url(#SVGID_102_);}
	.st113{fill:url(#SVGID_103_);}
	.st114{fill:url(#SVGID_104_);}
	.st115{fill:url(#SVGID_105_);}
	.st116{fill:url(#SVGID_106_);}
	.st117{fill:url(#SVGID_107_);}
	.st118{fill:url(#SVGID_108_);}
	.st119{fill:url(#SVGID_109_);}
	.st120{fill:url(#SVGID_110_);}
	.st121{fill:url(#SVGID_111_);}
	.st122{fill:url(#SVGID_112_);}
	.st123{fill:url(#SVGID_113_);}
	.st124{fill:url(#SVGID_114_);}
	.st125{fill:url(#SVGID_115_);}
	.st126{fill:url(#SVGID_116_);}
	.st127{fill:url(#SVGID_117_);}
	.st128{fill:url(#SVGID_118_);}
	.st129{fill:url(#SVGID_119_);}
	.st130{fill:url(#SVGID_120_);}
	.st131{fill:url(#SVGID_121_);}
	.st132{fill:url(#SVGID_122_);}
	.st133{fill:url(#SVGID_123_);}
	.st134{fill:url(#SVGID_124_);}
	.st135{fill:url(#SVGID_125_);}
	.st136{fill:url(#SVGID_126_);}
	.st137{fill:url(#SVGID_127_);}
	.st138{fill:url(#SVGID_128_);}
	.st139{fill:url(#SVGID_129_);}
	.st140{fill:url(#SVGID_130_);}
	.st141{fill:url(#SVGID_131_);}
	.st142{fill:url(#SVGID_132_);}
	.st143{fill:url(#SVGID_133_);}
	.st144{fill:url(#SVGID_134_);}
	.st145{fill:url(#SVGID_135_);}
	.st146{fill:url(#SVGID_136_);}
	.st147{fill:url(#SVGID_137_);}
	.st148{fill:url(#SVGID_138_);}
	.st149{fill:url(#SVGID_139_);}
	.st150{fill:url(#SVGID_140_);}
	.st151{fill:url(#SVGID_141_);}
	.st152{fill:url(#SVGID_142_);}
	.st153{fill:url(#SVGID_143_);}
	.st154{fill:url(#SVGID_144_);}
	.st155{fill:url(#SVGID_145_);}
	.st156{fill:url(#SVGID_146_);}
	.st157{fill:url(#SVGID_147_);}
	.st158{fill:url(#SVGID_148_);}
	.st159{fill:url(#SVGID_149_);}
	.st160{fill:url(#SVGID_150_);}
	.st161{fill:url(#SVGID_151_);}
	.st162{fill:url(#SVGID_152_);}
	.st163{fill:url(#SVGID_153_);}
	.st164{fill:url(#SVGID_154_);}
	.st165{fill:url(#SVGID_155_);}
	.st166{fill:url(#SVGID_156_);}
	.st167{fill:url(#SVGID_157_);}
	.st168{fill:url(#SVGID_158_);}
	.st169{fill:url(#SVGID_159_);}
	.st170{fill:url(#SVGID_160_);}
	.st171{fill:url(#SVGID_161_);}
	.st172{fill:url(#SVGID_162_);}
	.st173{fill:url(#SVGID_163_);}
	.st174{fill:url(#SVGID_164_);}
	.st175{fill:url(#SVGID_165_);}
	.st176{fill:url(#SVGID_166_);}
	.st177{fill:url(#SVGID_167_);}
	.st178{fill:url(#SVGID_168_);}
	.st179{fill:url(#SVGID_169_);}
	.st180{fill:url(#SVGID_170_);}
	.st181{fill:url(#SVGID_171_);}
	.st182{fill:url(#SVGID_172_);}
	.st183{fill:url(#SVGID_173_);}
	.st184{fill:url(#SVGID_174_);}
	.st185{fill:url(#SVGID_175_);}
	.st186{fill:url(#SVGID_176_);}
	.st187{fill:url(#SVGID_177_);}
	.st188{fill:url(#SVGID_178_);}
	.st189{fill:url(#SVGID_179_);}
	.st190{fill:url(#SVGID_180_);}
	.st191{fill:url(#SVGID_181_);}
	.st192{fill:url(#SVGID_182_);}
	.st193{fill:url(#SVGID_183_);}
	.st194{fill:url(#SVGID_184_);}
	.st195{fill:url(#SVGID_185_);}
	.st196{fill:url(#SVGID_186_);}
	.st197{fill:url(#SVGID_187_);}
	.st198{fill:url(#SVGID_188_);}
	.st199{fill:url(#SVGID_189_);}
	.st200{fill:url(#SVGID_190_);}
	.st201{fill:url(#SVGID_191_);}
	.st202{fill:url(#SVGID_192_);}
	.st203{fill:url(#SVGID_193_);}
	.st204{fill:url(#SVGID_194_);}
	.st205{fill:url(#SVGID_195_);}
	.st206{fill:url(#SVGID_196_);}
	.st207{fill:url(#SVGID_197_);}
	.st208{fill:url(#SVGID_198_);}
	.st209{fill:url(#SVGID_199_);}
	.st210{fill:url(#SVGID_200_);}
	.st211{fill:url(#SVGID_201_);}
	.st212{fill:url(#SVGID_202_);}
	.st213{fill:url(#SVGID_203_);}
	.st214{fill:url(#SVGID_204_);}
	.st215{fill:url(#SVGID_205_);}
	.st216{fill:url(#SVGID_206_);}
	.st217{fill:url(#SVGID_207_);}
	.st218{fill:url(#SVGID_208_);}
	.st219{fill:url(#SVGID_209_);}
	.st220{fill:url(#SVGID_210_);}
	.st221{fill:url(#SVGID_211_);}
	.st222{fill:url(#SVGID_212_);}
	.st223{fill:url(#SVGID_213_);}
	.st224{fill:url(#SVGID_214_);}
	.st225{fill:url(#SVGID_215_);}
	.st226{fill:url(#SVGID_216_);}
	.st227{fill:url(#SVGID_217_);}
	.st228{fill:url(#SVGID_218_);}
	.st229{fill:url(#SVGID_219_);}
	.st230{fill:url(#SVGID_220_);}
	.st231{fill:url(#SVGID_221_);}
	.st232{fill:url(#SVGID_222_);}
	.st233{fill:url(#SVGID_223_);}
	.st234{fill:url(#SVGID_224_);}
	.st235{fill:url(#SVGID_225_);}
	.st236{fill:url(#SVGID_226_);}
	.st237{fill:url(#SVGID_227_);}
	.st238{fill:url(#SVGID_228_);}
	.st239{fill:url(#SVGID_229_);}
	.st240{fill:url(#SVGID_230_);}
	.st241{fill:url(#SVGID_231_);}
</style>
<g>
	<g>
		
			<radialGradient id="SVGID_1_" cx="57.2953" cy="2983.4258" r="44.2744" gradientTransform="matrix(1 0 0 -1 0 3026.5898)" gradientUnits="userSpaceOnUse">
			<stop  offset="0" style="stop-color:#F9DA52"/>
			<stop  offset="1" style="stop-color:#F7B82C"/>
		</radialGradient>
		<path class="st0" d="M70.764,87.829C53.489,87.843,39.475,73.85,39.461,56.575C39.452,45.389,45.418,35.05,55.107,29.46
			c3.892-2.258,8.232-3.635,12.715-4.032h0.154c0.57-0.001,1.097,0.304,1.38,0.799c0.31,0.542,0.279,1.215-0.082,1.726
			c-8.953,12.633-5.97,30.132,6.662,39.085c4.757,3.372,10.448,5.176,16.279,5.162c0.908,0,1.735-0.045,2.588-0.127h0.082
			c0.591-0.017,1.146,0.285,1.453,0.79c0.31,0.542,0.279,1.215-0.082,1.726c-5.832,8.267-15.313,13.19-25.429,13.205L70.764,87.829z
			"/>
		<path class="st1" d="M67.976,25.999c0.375-0.018,0.728,0.179,0.908,0.509c0.201,0.345,0.18,0.776-0.054,1.099
			c-9.164,12.877-6.154,30.745,6.723,39.908c4.865,3.462,10.692,5.316,16.663,5.301c0.908,0,1.744,0,2.607-0.118h0.054
			c0.367-0.004,0.711,0.181,0.908,0.49c0.201,0.345,0.18,0.776-0.054,1.099c-5.725,8.116-15.034,12.948-24.966,12.96
			C53.81,87.265,40.053,73.536,40.036,56.582c-0.011-10.984,5.847-21.136,15.362-26.623c3.822-2.21,8.081-3.558,12.479-3.951h0.1
			 M67.976,24.837h-0.209c-4.567,0.409-8.99,1.81-12.96,4.105c-15.243,8.798-20.468,28.287-11.67,43.53s28.287,20.468,43.53,11.67
			c3.976-2.305,7.401-5.451,10.036-9.218c0.498-0.693,0.544-1.613,0.118-2.352c-0.416-0.687-1.168-1.099-1.971-1.081h-0.127
			c-0.845,0.082-1.689,0.127-2.534,0.127c-15.163,0.027-27.476-12.243-27.503-27.406c-0.01-5.708,1.759-11.277,5.062-15.933
			c0.495-0.695,0.538-1.615,0.109-2.352c-0.38-0.681-1.1-1.102-1.88-1.099L67.976,24.837z"/>
		<path class="st2" d="M114.266,47.741c-0.422,0.014-0.799-0.264-0.908-0.672l-1.162-4.314c-0.2-0.693-0.742-1.235-1.435-1.435
			l-4.323-1.162c-0.408-0.11-0.687-0.486-0.672-0.908c-0.014-0.422,0.264-0.799,0.672-0.908l4.323-1.162
			c0.695-0.197,1.238-0.74,1.435-1.435l1.162-4.323c0.122-0.487,0.615-0.782,1.102-0.66c0.325,0.081,0.579,0.335,0.66,0.66
			l1.162,4.323c0.193,0.712,0.75,1.269,1.462,1.462l4.323,1.162c0.408,0.11,0.687,0.486,0.672,0.908
			c0.014,0.422-0.264,0.799-0.672,0.908l-4.296,1.135c-0.713,0.198-1.268,0.757-1.462,1.471l-1.162,4.314
			C115.027,47.489,114.668,47.748,114.266,47.741z"/>
		<path class="st3" d="M114.266,31.33c0.152-0.008,0.287,0.096,0.318,0.245l1.162,4.296c0.244,0.929,0.969,1.654,1.898,1.898
			l4.323,1.162c0.147,0.031,0.249,0.168,0.236,0.318c0.016,0.149-0.088,0.285-0.236,0.309l-4.323,1.162
			c-0.907,0.26-1.615,0.972-1.871,1.88l-1.162,4.323c-0.035,0.145-0.169,0.245-0.318,0.236c-0.148,0.012-0.281-0.09-0.309-0.236
			l-1.172-4.323c-0.256-0.908-0.964-1.62-1.871-1.88l-4.323-1.162c-0.146-0.027-0.248-0.161-0.236-0.309
			c-0.009-0.149,0.091-0.283,0.236-0.318l4.323-1.162c0.908-0.261,1.61-0.983,1.844-1.898l1.172-4.314
			c0.023-0.15,0.158-0.256,0.309-0.245 M114.266,30.15c-0.678-0.013-1.276,0.442-1.444,1.099l-1.162,4.323
			c-0.134,0.516-0.537,0.919-1.054,1.054l-4.314,1.162c-0.795,0.211-1.268,1.027-1.057,1.822c0.137,0.516,0.541,0.92,1.057,1.057
			l4.314,1.162c0.512,0.141,0.913,0.541,1.054,1.054l1.162,4.323c0.221,0.798,1.047,1.265,1.844,1.044
			c0.507-0.141,0.903-0.537,1.044-1.044l1.162-4.323c0.141-0.512,0.541-0.913,1.054-1.054l4.314-1.162
			c0.795-0.211,1.268-1.027,1.057-1.822c-0.137-0.516-0.541-0.92-1.057-1.057l-4.314-1.162c-0.516-0.134-0.919-0.537-1.054-1.054
			l-1.162-4.323C115.542,30.592,114.944,30.137,114.266,30.15z"/>
		<path class="st2" d="M91.062,36.316c-0.422,0.014-0.799-0.264-0.908-0.672l-1.126-4.314c-0.194-0.717-0.754-1.277-1.471-1.471
			l-4.314-1.162c-0.408-0.11-0.687-0.486-0.672-0.908c-0.014-0.422,0.264-0.799,0.672-0.908l4.314-1.162
			c0.716-0.191,1.276-0.748,1.471-1.462l1.162-4.323c0.132-0.484,0.631-0.77,1.115-0.638c0.311,0.084,0.554,0.327,0.638,0.638
			l1.181,4.387c0.193,0.712,0.75,1.269,1.462,1.462l4.323,1.162c0.408,0.11,0.687,0.486,0.672,0.908
			c0.014,0.422-0.264,0.799-0.672,0.908l-4.323,1.162c-0.697,0.187-1.249,0.718-1.462,1.408l-1.181,4.314
			C91.836,36.042,91.474,36.318,91.062,36.316z"/>
		<path class="st3" d="M91.062,19.905c0.153-0.012,0.29,0.094,0.318,0.245l1.162,4.314c0.246,0.917,0.963,1.634,1.88,1.88
			l4.314,1.162c0.149,0.031,0.253,0.166,0.245,0.318c0.011,0.151-0.095,0.286-0.245,0.309l-4.314,1.162
			c-0.916,0.248-1.632,0.964-1.88,1.88l-1.162,4.323c-0.031,0.147-0.168,0.249-0.318,0.236c-0.147,0.008-0.278-0.092-0.309-0.236
			l-1.162-4.323c-0.254-0.926-0.986-1.643-1.916-1.88l-4.323-1.162c-0.146-0.027-0.248-0.161-0.236-0.309
			c-0.009-0.149,0.091-0.283,0.236-0.318l4.323-1.162c0.917-0.246,1.634-0.963,1.88-1.88l1.162-4.314
			c0.023-0.15,0.158-0.256,0.309-0.245 M91.026,18.743c-0.676-0.012-1.27,0.444-1.435,1.099l-1.162,4.323
			c-0.141,0.512-0.541,0.913-1.054,1.054l-4.241,1.162c-0.795,0.211-1.268,1.027-1.057,1.822c0.137,0.516,0.541,0.92,1.057,1.057
			l4.278,1.162c0.509,0.146,0.908,0.544,1.054,1.054l1.162,4.323c0.211,0.795,1.027,1.268,1.822,1.057
			c0.516-0.137,0.92-0.541,1.057-1.057l1.162-4.323c0.143-0.511,0.542-0.911,1.054-1.053l4.323-1.162
			c0.795-0.211,1.268-1.027,1.057-1.822c-0.137-0.516-0.541-0.92-1.057-1.057l-4.323-1.162c-0.514-0.138-0.916-0.539-1.054-1.054
			l-1.162-4.323c-0.165-0.659-0.765-1.115-1.444-1.099H91.026z"/>
	</g>
</g>
<g>
	<line class="st8" x1="17.339" y1="26.008" x2="17.339" y2="68.142"/>
	<g>
		<path class="st9" d="M18.829,27.168l11.166-2.312l23.595,17.408c0,0-0.218,2.947-0.893,4.874
			c-0.676,1.926-3.704,2.489-3.704,2.489l-25.21-10.982l-4.954-9V27.168z"/>
		
			<radialGradient id="SVGID_2_" cx="36.9904" cy="37.4444" r="15.5557" gradientTransform="matrix(1 0 0 0.9981 0 -0.1475)" gradientUnits="userSpaceOnUse">
			<stop  offset="0" style="stop-color:#D44545"/>
			<stop  offset="1" style="stop-color:#C21E1E"/>
		</radialGradient>
		<path class="st4" d="M31.099,23.815C31.13,23.815,31.13,23.815,31.099,23.815L31.099,23.815z M31.099,23.815L31.099,23.815
			L31.099,23.815L31.099,23.815z M31.099,23.815c-0.187,0-1.026,0.062-1.483,0.517l-10.046,2.235l0.031,5.008l3.452,6.374
			c0.031,0.6,0.207,1.024,0.549,1.242c0.187,0.124,24.632,11.444,25.908,11.444h0.031c1.358-0.062,2.177-0.993,3.39-2.897
			c1.244-1.966,1.97-4.739,1.089-5.981c-0.124-0.155-21.605-17.766-22.787-17.88L31.099,23.815z M25.045,30.789
			c-0.881,1.935-1.607,3.953-1.876,5.556l-3.566-6.581l-0.031-2.297l9.113-2.08C27.771,26.505,25.864,28.978,25.045,30.789z
			 M50.444,45.502c0.85-1.749,1.638-2.39,2.208-2.597c0.156,0.455-0.062,2.08-1.151,3.839c-1.12,1.78-1.545,2.059-1.939,2.111
			C49.532,48.1,49.688,47.013,50.444,45.502z M40.907,39.584c2.032-4.046,3.846-3.177,3.846-3.177v-0.031
			c1.545,1.242,3.027,2.421,4.24,3.415c-0.726,0.662-1.721,1.718-2.426,3.052c-0.819,1.542-1.12,3.228-1.213,4.294
			c-1.545-0.662-3.359-1.48-5.298-2.328C39.818,44.292,39.3,42.75,40.907,39.584z M35.847,29.34
			c1.151,0.911,2.447,1.904,3.784,2.959c-0.933,0.755-2.478,2.173-3.546,4.077c-1.275,2.297-1.514,4.894-1.576,5.888
			c-1.451-0.662-2.872-1.304-4.178-1.904c-0.332-0.486-0.881-1.966,1.026-5.95C33.339,30.364,35.153,29.516,35.847,29.34z"/>
	</g>
	<line class="st11" x1="18.332" y1="26.008" x2="18.332" y2="68.464"/>
</g>
</svg>
