<?xml version="1.0" encoding="utf-8"?>
<!-- Generator: Adobe Illustrator 23.0.1, SVG Export Plug-In . SVG Version: 6.00 Build 0)  -->
<svg version="1.1" id="Ebene_2" xmlns="http://www.w3.org/2000/svg" xmlns:xlink="http://www.w3.org/1999/xlink" x="0px" y="0px"
	 viewBox="0 0 143 122" style="enable-background:new 0 0 143 122;" xml:space="preserve">
<style type="text/css">
	.st0{fill:url(#SVGID_1_);}
	.st1{fill:#F7B82C;}
	.st2{fill:#F7B82D;}
	.st3{fill:#F5AE23;}
	.st4{fill:url(#SVGID_2_);}
	.st5{fill:#59B9E8;}
	.st6{fill:url(#SVGID_3_);}
	.st7{fill:url(#SVGID_4_);}
	.st8{fill:#1D1D1B;stroke:#FFFFFF;stroke-width:3;stroke-linecap:round;stroke-miterlimit:10;}
	.st9{fill:#FFFFFF;}
	.st10{fill:url(#SVGID_5_);}
	.st11{fill:#1D1D1B;stroke:#1D1D1B;stroke-width:3;stroke-linecap:round;stroke-miterlimit:10;}
	.st12{fill:url(#SVGID_6_);}
	.st13{fill:#DADCDE;}
	.st14{fill:url(#SVGID_7_);}
	.st15{fill:url(#SVGID_8_);}
	.st16{fill:url(#SVGID_9_);}
	.st17{fill:#CBD9E7;}
	.st18{fill:#C3CFDA;}
	.st19{fill:url(#SVGID_10_);}
	.st20{fill:#BEE2F1;}
	.st21{fill:url(#SVGID_11_);}
	.st22{fill:url(#SVGID_12_);}
	.st23{fill:url(#SVGID_13_);}
	.st24{fill:url(#SVGID_14_);}
	.st25{fill:url(#SVGID_15_);}
	.st26{fill:url(#SVGID_16_);}
	.st27{fill:url(#SVGID_17_);}
	.st28{fill:url(#SVGID_18_);}
	.st29{fill:url(#SVGID_19_);}
	.st30{fill:url(#SVGID_20_);}
	.st31{fill:url(#SVGID_21_);}
	.st32{fill:url(#SVGID_22_);}
	.st33{fill:url(#SVGID_23_);}
	.st34{fill:url(#SVGID_24_);}
	.st35{fill:url(#SVGID_25_);}
	.st36{fill:url(#SVGID_26_);}
	.st37{fill:url(#SVGID_27_);}
	.st38{fill:url(#SVGID_28_);}
	.st39{fill:url(#SVGID_29_);}
	.st40{fill:url(#SVGID_30_);}
	.st41{fill:url(#SVGID_31_);}
	.st42{fill:url(#SVGID_32_);}
	.st43{fill:url(#SVGID_33_);}
	.st44{fill:url(#SVGID_34_);}
	.st45{fill:url(#SVGID_35_);}
	.st46{fill:url(#SVGID_36_);}
	.st47{fill:url(#SVGID_37_);}
	.st48{fill:url(#SVGID_38_);}
	.st49{fill:url(#SVGID_39_);}
	.st50{fill:url(#SVGID_40_);}
	.st51{fill:url(#SVGID_41_);}
	.st52{fill:url(#SVGID_42_);}
	.st53{fill:url(#SVGID_43_);}
	.st54{fill:url(#SVGID_44_);}
	.st55{fill:url(#SVGID_45_);}
	.st56{fill:url(#SVGID_46_);}
	.st57{fill:url(#SVGID_47_);}
	.st58{fill:url(#SVGID_48_);}
	.st59{fill:url(#SVGID_49_);}
	.st60{fill:url(#SVGID_50_);}
	.st61{fill:url(#SVGID_51_);}
	.st62{fill:url(#SVGID_52_);}
	.st63{fill:url(#SVGID_53_);}
	.st64{fill:url(#SVGID_54_);}
	.st65{fill:url(#SVGID_55_);}
	.st66{fill:url(#SVGID_56_);}
	.st67{fill:url(#SVGID_57_);}
	.st68{fill:url(#SVGID_58_);}
	.st69{fill:url(#SVGID_59_);}
	.st70{fill:url(#SVGID_60_);}
	.st71{fill:url(#SVGID_61_);}
	.st72{fill:url(#SVGID_62_);}
	.st73{fill:url(#SVGID_63_);}
	.st74{fill:url(#SVGID_64_);}
	.st75{fill:url(#SVGID_65_);}
	.st76{fill:url(#SVGID_66_);}
	.st77{fill:url(#SVGID_67_);}
	.st78{fill:url(#SVGID_68_);}
	.st79{fill:url(#SVGID_69_);}
	.st80{fill:url(#SVGID_70_);}
	.st81{fill:url(#SVGID_71_);}
	.st82{fill:url(#SVGID_72_);}
	.st83{fill:url(#SVGID_73_);}
	.st84{fill:url(#SVGID_74_);}
	.st85{fill:url(#SVGID_75_);}
	.st86{fill:url(#SVGID_76_);}
	.st87{fill:url(#SVGID_77_);}
	.st88{fill:url(#SVGID_78_);}
	.st89{fill:url(#SVGID_79_);}
	.st90{fill:url(#SVGID_80_);}
	.st91{fill:url(#SVGID_81_);}
	.st92{fill:url(#SVGID_82_);}
	.st93{fill:url(#SVGID_83_);}
	.st94{fill:url(#SVGID_84_);}
	.st95{fill:url(#SVGID_85_);}
	.st96{fill:url(#SVGID_86_);}
	.st97{fill:url(#SVGID_87_);}
	.st98{fill:url(#SVGID_88_);}
	.st99{fill:url(#SVGID_89_);}
	.st100{fill:url(#SVGID_90_);}
	.st101{fill:url(#SVGID_91_);}
	.st102{fill:url(#SVGID_92_);}
	.st103{fill:url(#SVGID_93_);}
	.st104{fill:url(#SVGID_94_);}
	.st105{fill:url(#SVGID_95_);}
	.st106{fill:url(#SVGID_96_);}
	.st107{fill:url(#SVGID_97_);}
	.st108{fill:url(#SVGID_98_);}
	.st109{fill:url(#SVGID_99_);}
	.st110{fill:url(#SVGID_100_);}
	.st111{fill:url(#SVGID_101_);}
	.st112{fill:url(#SVGID_102_);}
	.st113{fill:url(#SVGID_103_);}
	.st114{fill:url(#SVGID_104_);}
	.st115{fill:url(#SVGID_105_);}
	.st116{fill:url(#SVGID_106_);}
	.st117{fill:url(#SVGID_107_);}
	.st118{fill:url(#SVGID_108_);}
	.st119{fill:url(#SVGID_109_);}
	.st120{fill:url(#SVGID_110_);}
	.st121{fill:url(#SVGID_111_);}
	.st122{fill:url(#SVGID_112_);}
	.st123{fill:url(#SVGID_113_);}
	.st124{fill:url(#SVGID_114_);}
	.st125{fill:url(#SVGID_115_);}
	.st126{fill:url(#SVGID_116_);}
	.st127{fill:url(#SVGID_117_);}
	.st128{fill:url(#SVGID_118_);}
	.st129{fill:url(#SVGID_119_);}
	.st130{fill:url(#SVGID_120_);}
	.st131{fill:url(#SVGID_121_);}
	.st132{fill:url(#SVGID_122_);}
	.st133{fill:url(#SVGID_123_);}
	.st134{fill:url(#SVGID_124_);}
	.st135{fill:url(#SVGID_125_);}
	.st136{fill:url(#SVGID_126_);}
	.st137{fill:url(#SVGID_127_);}
	.st138{fill:url(#SVGID_128_);}
	.st139{fill:url(#SVGID_129_);}
	.st140{fill:url(#SVGID_130_);}
	.st141{fill:url(#SVGID_131_);}
	.st142{fill:url(#SVGID_132_);}
	.st143{fill:url(#SVGID_133_);}
	.st144{fill:url(#SVGID_134_);}
	.st145{fill:url(#SVGID_135_);}
	.st146{fill:url(#SVGID_136_);}
	.st147{fill:url(#SVGID_137_);}
	.st148{fill:url(#SVGID_138_);}
	.st149{fill:url(#SVGID_139_);}
	.st150{fill:url(#SVGID_140_);}
	.st151{fill:url(#SVGID_141_);}
	.st152{fill:url(#SVGID_142_);}
	.st153{fill:url(#SVGID_143_);}
	.st154{fill:url(#SVGID_144_);}
	.st155{fill:url(#SVGID_145_);}
	.st156{fill:url(#SVGID_146_);}
	.st157{fill:url(#SVGID_147_);}
	.st158{fill:url(#SVGID_148_);}
	.st159{fill:url(#SVGID_149_);}
	.st160{fill:url(#SVGID_150_);}
	.st161{fill:url(#SVGID_151_);}
	.st162{fill:url(#SVGID_152_);}
	.st163{fill:url(#SVGID_153_);}
	.st164{fill:url(#SVGID_154_);}
	.st165{fill:url(#SVGID_155_);}
	.st166{fill:url(#SVGID_156_);}
	.st167{fill:url(#SVGID_157_);}
	.st168{fill:url(#SVGID_158_);}
	.st169{fill:url(#SVGID_159_);}
	.st170{fill:url(#SVGID_160_);}
	.st171{fill:url(#SVGID_161_);}
	.st172{fill:url(#SVGID_162_);}
	.st173{fill:url(#SVGID_163_);}
	.st174{fill:url(#SVGID_164_);}
	.st175{fill:url(#SVGID_165_);}
	.st176{fill:url(#SVGID_166_);}
	.st177{fill:url(#SVGID_167_);}
	.st178{fill:url(#SVGID_168_);}
	.st179{fill:url(#SVGID_169_);}
	.st180{fill:url(#SVGID_170_);}
	.st181{fill:url(#SVGID_171_);}
	.st182{fill:url(#SVGID_172_);}
	.st183{fill:url(#SVGID_173_);}
	.st184{fill:url(#SVGID_174_);}
	.st185{fill:url(#SVGID_175_);}
	.st186{fill:url(#SVGID_176_);}
	.st187{fill:url(#SVGID_177_);}
	.st188{fill:url(#SVGID_178_);}
	.st189{fill:url(#SVGID_179_);}
	.st190{fill:url(#SVGID_180_);}
	.st191{fill:url(#SVGID_181_);}
	.st192{fill:url(#SVGID_182_);}
	.st193{fill:url(#SVGID_183_);}
	.st194{fill:url(#SVGID_184_);}
	.st195{fill:url(#SVGID_185_);}
	.st196{fill:url(#SVGID_186_);}
	.st197{fill:url(#SVGID_187_);}
	.st198{fill:url(#SVGID_188_);}
	.st199{fill:url(#SVGID_189_);}
	.st200{fill:url(#SVGID_190_);}
	.st201{fill:url(#SVGID_191_);}
	.st202{fill:url(#SVGID_192_);}
	.st203{fill:url(#SVGID_193_);}
	.st204{fill:url(#SVGID_194_);}
	.st205{fill:url(#SVGID_195_);}
	.st206{fill:url(#SVGID_196_);}
	.st207{fill:url(#SVGID_197_);}
	.st208{fill:url(#SVGID_198_);}
	.st209{fill:url(#SVGID_199_);}
	.st210{fill:url(#SVGID_200_);}
	.st211{fill:url(#SVGID_201_);}
	.st212{fill:url(#SVGID_202_);}
	.st213{fill:url(#SVGID_203_);}
	.st214{fill:url(#SVGID_204_);}
	.st215{fill:url(#SVGID_205_);}
	.st216{fill:url(#SVGID_206_);}
	.st217{fill:url(#SVGID_207_);}
	.st218{fill:url(#SVGID_208_);}
	.st219{fill:url(#SVGID_209_);}
	.st220{fill:url(#SVGID_210_);}
	.st221{fill:url(#SVGID_211_);}
	.st222{fill:url(#SVGID_212_);}
	.st223{fill:url(#SVGID_213_);}
	.st224{fill:url(#SVGID_214_);}
	.st225{fill:url(#SVGID_215_);}
	.st226{fill:url(#SVGID_216_);}
	.st227{fill:url(#SVGID_217_);}
	.st228{fill:url(#SVGID_218_);}
	.st229{fill:url(#SVGID_219_);}
	.st230{fill:url(#SVGID_220_);}
	.st231{fill:url(#SVGID_221_);}
	.st232{fill:url(#SVGID_222_);}
	.st233{fill:url(#SVGID_223_);}
	.st234{fill:url(#SVGID_224_);}
	.st235{fill:url(#SVGID_225_);}
	.st236{fill:url(#SVGID_226_);}
	.st237{fill:url(#SVGID_227_);}
	.st238{fill:url(#SVGID_228_);}
	.st239{fill:url(#SVGID_229_);}
	.st240{fill:url(#SVGID_230_);}
	.st241{fill:url(#SVGID_231_);}
</style>
<g>
	<g>
		
			<radialGradient id="SVGID_1_" cx="46.5483" cy="2985.646" r="40.2494" gradientTransform="matrix(1 0 0 -1 0 3026.5898)" gradientUnits="userSpaceOnUse">
			<stop  offset="0" style="stop-color:#F9DA52"/>
			<stop  offset="1" style="stop-color:#F7B82C"/>
		</radialGradient>
		<path class="st0" d="M58.792,81.548C43.088,81.561,30.348,68.84,30.335,53.136c-0.008-10.169,5.415-19.568,14.223-24.651
			c3.538-2.053,7.484-3.305,11.559-3.666h0.14c0.518,0,0.997,0.277,1.255,0.727c0.282,0.493,0.253,1.105-0.074,1.569
			c-8.139,11.484-5.428,27.392,6.057,35.532c4.325,3.065,9.498,4.706,14.799,4.693c0.826,0,1.577-0.041,2.353-0.116h0.074
			c0.537-0.016,1.042,0.259,1.321,0.718c0.282,0.493,0.253,1.105-0.074,1.569c-5.302,7.515-13.92,11.991-23.118,12.005
			L58.792,81.548z"/>
		<path class="st1" d="M56.258,25.34c0.341-0.017,0.662,0.163,0.826,0.462c0.183,0.313,0.163,0.705-0.05,0.999
			c-8.331,11.706-5.595,27.95,6.112,36.28c4.423,3.148,9.72,4.833,15.148,4.819c0.826,0,1.585,0,2.37-0.107h0.05
			c0.334-0.004,0.646,0.165,0.826,0.446c0.183,0.313,0.163,0.705-0.05,0.999c-5.205,7.378-13.667,11.771-22.697,11.782
			C43.38,81.036,30.873,68.554,30.858,53.142c-0.01-9.985,5.315-19.215,13.965-24.203c3.475-2.009,7.346-3.235,11.344-3.591h0.091
			 M56.258,24.283h-0.19c-4.152,0.372-8.173,1.646-11.782,3.732C30.429,36.013,25.679,53.73,33.677,67.587
			s25.715,18.607,39.572,10.609c3.615-2.096,6.728-4.956,9.123-8.38c0.453-0.63,0.495-1.466,0.107-2.138
			c-0.378-0.625-1.062-0.999-1.792-0.982h-0.116c-0.768,0.074-1.536,0.116-2.304,0.116c-13.784,0.024-24.978-11.13-25.003-24.915
			c-0.009-5.189,1.599-10.252,4.601-14.484c0.45-0.631,0.489-1.468,0.099-2.138c-0.345-0.619-1-1.002-1.709-0.999L56.258,24.283z"/>
		<path class="st2" d="M98.34,45.105c-0.384,0.013-0.726-0.24-0.826-0.611l-1.057-3.922c-0.182-0.63-0.674-1.123-1.304-1.304
			l-3.93-1.057c-0.371-0.1-0.624-0.442-0.611-0.826c-0.013-0.384,0.24-0.726,0.611-0.826l3.93-1.057
			c0.632-0.179,1.126-0.673,1.304-1.304l1.057-3.93c0.111-0.442,0.559-0.711,1.002-0.6c0.295,0.074,0.526,0.305,0.6,0.6l1.057,3.93
			c0.176,0.648,0.682,1.153,1.329,1.329l3.93,1.057c0.371,0.1,0.624,0.442,0.611,0.826c0.013,0.384-0.24,0.726-0.611,0.826
			l-3.905,1.032c-0.648,0.18-1.153,0.688-1.329,1.338l-1.057,3.922C99.031,44.876,98.705,45.111,98.34,45.105z"/>
		<path class="st3" d="M98.34,30.186c0.138-0.007,0.261,0.088,0.289,0.223l1.057,3.905c0.222,0.844,0.881,1.504,1.726,1.726
			l3.93,1.057c0.134,0.029,0.226,0.152,0.215,0.289c0.015,0.136-0.08,0.259-0.215,0.281l-3.93,1.057
			c-0.825,0.237-1.468,0.883-1.701,1.709l-1.057,3.93c-0.032,0.132-0.153,0.222-0.289,0.215c-0.135,0.011-0.256-0.082-0.281-0.215
			l-1.065-3.93c-0.233-0.826-0.876-1.472-1.701-1.709l-3.93-1.057c-0.133-0.025-0.225-0.146-0.215-0.281
			c-0.008-0.136,0.083-0.257,0.215-0.289l3.93-1.057c0.825-0.237,1.463-0.894,1.676-1.726l1.065-3.922
			c0.021-0.136,0.143-0.233,0.281-0.223 M98.34,29.113c-0.616-0.012-1.16,0.402-1.313,0.999l-1.057,3.93
			c-0.122,0.469-0.489,0.836-0.958,0.958l-3.922,1.057c-0.723,0.192-1.153,0.934-0.961,1.656c0.125,0.469,0.491,0.836,0.961,0.961
			l3.922,1.057c0.466,0.128,0.83,0.492,0.958,0.958l1.057,3.93c0.201,0.725,0.952,1.15,1.677,0.949
			c0.461-0.128,0.821-0.488,0.949-0.949l1.057-3.93c0.128-0.466,0.492-0.83,0.958-0.958l3.922-1.057
			c0.723-0.192,1.153-0.934,0.961-1.656c-0.125-0.469-0.491-0.836-0.961-0.961l-3.922-1.057c-0.469-0.122-0.836-0.488-0.958-0.958
			l-1.057-3.93C99.5,29.515,98.956,29.101,98.34,29.113z"/>
		<path class="st2" d="M77.245,34.719c-0.384,0.013-0.726-0.24-0.826-0.611l-1.024-3.922c-0.176-0.652-0.686-1.161-1.338-1.338
			l-3.922-1.057c-0.371-0.1-0.624-0.442-0.611-0.826c-0.013-0.384,0.24-0.726,0.611-0.826l3.922-1.057
			c0.651-0.173,1.16-0.68,1.338-1.329l1.057-3.93c0.12-0.44,0.573-0.7,1.013-0.58c0.283,0.077,0.503,0.298,0.58,0.58l1.073,3.988
			c0.176,0.648,0.682,1.153,1.329,1.329l3.93,1.057c0.371,0.1,0.624,0.442,0.611,0.826c0.013,0.384-0.24,0.726-0.611,0.826
			l-3.93,1.057c-0.634,0.17-1.136,0.653-1.329,1.28l-1.073,3.922C77.949,34.47,77.62,34.72,77.245,34.719z"/>
		<path class="st3" d="M77.245,19.8c0.139-0.011,0.264,0.086,0.289,0.223l1.057,3.922c0.224,0.834,0.875,1.485,1.709,1.709
			l3.922,1.057c0.135,0.028,0.23,0.151,0.223,0.289c0.01,0.137-0.087,0.26-0.223,0.281L80.3,28.337
			c-0.833,0.225-1.484,0.876-1.709,1.709l-1.057,3.93c-0.029,0.134-0.152,0.226-0.289,0.215c-0.134,0.007-0.253-0.084-0.281-0.215
			l-1.057-3.93c-0.231-0.841-0.896-1.494-1.742-1.709l-3.93-1.057c-0.133-0.025-0.225-0.146-0.215-0.281
			c-0.008-0.136,0.083-0.257,0.215-0.289l3.93-1.057c0.834-0.224,1.485-0.875,1.709-1.709l1.057-3.922
			c0.021-0.136,0.143-0.233,0.281-0.223 M77.212,18.743c-0.614-0.011-1.155,0.403-1.304,0.999l-1.057,3.93
			c-0.128,0.466-0.492,0.83-0.958,0.958l-3.856,1.057c-0.723,0.192-1.153,0.934-0.961,1.656c0.125,0.469,0.491,0.836,0.961,0.961
			l3.889,1.057c0.463,0.133,0.825,0.495,0.958,0.958l1.057,3.93c0.192,0.723,0.934,1.153,1.656,0.961
			c0.469-0.125,0.836-0.491,0.961-0.961l1.057-3.93c0.13-0.465,0.493-0.828,0.958-0.958l3.93-1.057
			c0.723-0.192,1.153-0.934,0.961-1.656c-0.125-0.469-0.491-0.836-0.961-0.961l-3.93-1.057c-0.467-0.125-0.833-0.49-0.958-0.958
			l-1.057-3.93c-0.15-0.599-0.695-1.014-1.313-0.999H77.212z"/>
	</g>
	<g>
		
			<radialGradient id="SVGID_2_" cx="65.7492" cy="2920.51" r="9.1324" gradientTransform="matrix(1 0 0 -1 0 3026.8655)" gradientUnits="userSpaceOnUse">
			<stop  offset="0" style="stop-color:#71C6E4"/>
			<stop  offset="1" style="stop-color:#56C0EE"/>
		</radialGradient>
		<path class="st4" d="M63.111,118.54c-0.093,0-0.28,0-0.373-0.093c-0.84-0.187-1.401-1.12-1.214-1.961l5.229-21.101
			c0.187-0.747,0.84-1.214,1.587-1.214c0.093,0,0.28,0,0.373,0.093c0.84,0.187,1.401,1.12,1.214,1.961l-5.229,21.101
			C64.512,118.073,63.858,118.54,63.111,118.54z"/>
		<path class="st5" d="M68.34,94.731L68.34,94.731c0.093,0,0.187,0,0.28,0c0.56,0.187,0.934,0.747,0.84,1.307l-5.229,21.101
			c-0.093,0.467-0.56,0.84-1.027,0.84c-0.093,0-0.187,0-0.28,0c-0.56-0.187-0.934-0.747-0.84-1.307l5.229-21.101
			C67.406,95.011,67.873,94.731,68.34,94.731 M68.34,93.611c-0.934,0-1.867,0.654-2.147,1.681l-5.229,21.101
			c-0.28,1.12,0.467,2.334,1.587,2.614c0.187,0,0.373,0.093,0.56,0.093c0.934,0,1.867-0.654,2.147-1.681l5.229-21.101
			c0.28-1.12-0.467-2.334-1.587-2.614C68.713,93.611,68.527,93.611,68.34,93.611L68.34,93.611z"/>
	</g>
	<g>
		
			<radialGradient id="SVGID_3_" cx="57.0548" cy="2961.9253" r="56.5032" gradientTransform="matrix(1 0 0 -1 0 3026.8655)" gradientUnits="userSpaceOnUse">
			<stop  offset="0" style="stop-color:#FBFBFB"/>
			<stop  offset="1" style="stop-color:#E7E7E7"/>
		</radialGradient>
		<path class="st6" d="M57.093,87.937c-5.602,0-10.737-3.361-12.978-8.497c-0.747-1.774-1.214-3.735-1.214-5.602
			c0-7.843,6.349-14.192,14.099-14.192c0.84,0,1.681,0.093,2.521,0.28l0.373,0.093l0.187-0.373c0.28-0.56,0.56-1.214,0.84-1.867
			c0.093-0.28,0.28-0.467,0.373-0.747l0.093-0.187c0.56-0.934,1.12-1.774,1.774-2.521l0.093-0.093
			c0.093-0.187,0.28-0.28,0.373-0.467c1.867-2.054,4.108-3.641,6.629-4.762c2.428-1.027,4.949-1.587,7.469-1.587
			c6.629,0,12.698,3.361,16.153,9.057l0.187,0.28l0.28-0.093c0.84-0.187,1.681-0.28,2.521-0.28c8.683,0,15.779,7.096,15.779,15.779
			s-7.096,15.779-15.779,15.779L57.093,87.937L57.093,87.937z"/>
		<radialGradient id="SVGID_4_" cx="77.8673" cy="67.7692" r="28.9703" gradientUnits="userSpaceOnUse">
			<stop  offset="0" style="stop-color:#FBFBFB"/>
			<stop  offset="1" style="stop-color:#E7E7E7"/>
		</radialGradient>
		<path class="st7" d="M77.821,47.975c6.442,0,12.325,3.268,15.686,8.777l0.373,0.56l0.654-0.093
			c0.84-0.187,1.681-0.187,2.428-0.187c8.403,0,15.219,6.816,15.219,15.312c0,8.403-6.816,15.219-15.312,15.219H56.999
			c-5.415,0-10.364-3.268-12.511-8.216c-0.747-1.774-1.12-3.548-1.12-5.415c0-7.563,6.162-13.632,13.632-13.632
			c0.84,0,1.587,0.093,2.428,0.28l0.747,0.187l0.28-0.747c0.187-0.56,0.467-1.214,0.84-1.774c0.093-0.28,0.28-0.467,0.373-0.747
			l0.093-0.187c0.56-0.934,1.12-1.774,1.774-2.521l0.093-0.093c0.093-0.187,0.187-0.28,0.373-0.373
			c1.774-1.961,4.015-3.548,6.442-4.668C72.872,48.442,75.393,47.975,77.821,47.975 M77.821,47.041c-2.614,0-5.135,0.56-7.656,1.681
			c-2.614,1.12-4.855,2.801-6.722,4.855c-0.093,0.187-0.28,0.28-0.373,0.467l-0.093,0.093c-0.654,0.747-1.214,1.681-1.774,2.614
			l-0.093,0.187c-0.187,0.28-0.28,0.467-0.467,0.747c-0.373,0.654-0.654,1.307-0.84,1.867c-0.934-0.187-1.774-0.28-2.614-0.28
			c-8.03,0-14.659,6.536-14.659,14.659c0,1.961,0.373,3.921,1.214,5.789c2.334,5.322,7.563,8.777,13.352,8.777h39.868
			c8.963,0,16.246-7.283,16.246-16.246s-7.283-16.246-16.246-16.246c-0.84,0-1.681,0.093-2.614,0.28
			C90.799,50.496,84.636,47.041,77.821,47.041L77.821,47.041z"/>
	</g>
</g>
<g>
	<line class="st8" x1="9.081" y1="26.008" x2="9.081" y2="68.142"/>
	<g>
		<path class="st9" d="M10.572,27.168l11.166-2.312l23.595,17.408c0,0-0.218,2.947-0.893,4.874
			c-0.676,1.926-3.704,2.489-3.704,2.489l-25.21-10.982l-4.954-9V27.168z"/>
		
			<radialGradient id="SVGID_5_" cx="28.7328" cy="37.4444" r="15.5557" gradientTransform="matrix(1 0 0 0.9981 0 -0.1475)" gradientUnits="userSpaceOnUse">
			<stop  offset="0" style="stop-color:#D44545"/>
			<stop  offset="1" style="stop-color:#C21E1E"/>
		</radialGradient>
		<path class="st10" d="M22.842,23.815C22.873,23.815,22.873,23.815,22.842,23.815L22.842,23.815z M22.842,23.815L22.842,23.815
			L22.842,23.815L22.842,23.815z M22.842,23.815c-0.187,0-1.026,0.062-1.483,0.517l-10.046,2.235l0.031,5.008l3.452,6.374
			c0.031,0.6,0.207,1.024,0.549,1.242c0.187,0.124,24.632,11.444,25.908,11.444h0.031c1.358-0.062,2.177-0.993,3.39-2.897
			c1.244-1.966,1.97-4.739,1.089-5.981c-0.124-0.155-21.605-17.766-22.787-17.88L22.842,23.815z M16.787,30.789
			c-0.881,1.935-1.607,3.953-1.876,5.556l-3.566-6.581l-0.031-2.297l9.113-2.08C19.514,26.505,17.606,28.978,16.787,30.789z
			 M42.187,45.502c0.85-1.749,1.638-2.39,2.208-2.597c0.156,0.455-0.062,2.08-1.151,3.839c-1.12,1.78-1.545,2.059-1.939,2.111
			C41.275,48.1,41.43,47.013,42.187,45.502z M32.649,39.584c2.032-4.046,3.846-3.177,3.846-3.177v-0.031
			c1.545,1.242,3.027,2.421,4.24,3.415c-0.726,0.662-1.721,1.718-2.426,3.052c-0.819,1.542-1.12,3.228-1.213,4.294
			c-1.545-0.662-3.359-1.48-5.298-2.328C31.56,44.292,31.042,42.75,32.649,39.584z M27.59,29.34
			c1.151,0.911,2.447,1.904,3.784,2.959c-0.933,0.755-2.478,2.173-3.546,4.077c-1.275,2.297-1.514,4.894-1.576,5.888
			c-1.451-0.662-2.872-1.304-4.178-1.904c-0.332-0.486-0.881-1.966,1.026-5.95C25.081,30.364,26.895,29.516,27.59,29.34z"/>
	</g>
	<line class="st11" x1="10.074" y1="26.008" x2="10.074" y2="68.464"/>
</g>
</svg>
