<?xml version="1.0" encoding="utf-8"?>
<!-- Generator: Adobe Illustrator 23.0.1, SVG Export Plug-In . SVG Version: 6.00 Build 0)  -->
<svg version="1.1" id="Ebene_2" xmlns="http://www.w3.org/2000/svg" xmlns:xlink="http://www.w3.org/1999/xlink" x="0px" y="0px"
	 viewBox="0 0 143 122" style="enable-background:new 0 0 143 122;" xml:space="preserve">
<style type="text/css">
	.st0{fill:url(#SVGID_1_);}
	.st1{fill:#DADCDE;}
	.st2{fill:url(#SVGID_2_);}
	.st3{fill:#59B9E8;}
	.st4{fill:url(#SVGID_3_);}
	.st5{fill:#F7B82C;}
	.st6{fill:#F7B82D;}
	.st7{fill:#F5AE23;}
	.st8{fill:url(#SVGID_4_);}
	.st9{fill:url(#SVGID_5_);}
	.st10{fill:url(#SVGID_6_);}
	.st11{fill:url(#SVGID_7_);}
	.st12{fill:url(#SVGID_8_);}
	.st13{fill:url(#SVGID_9_);}
	.st14{fill:url(#SVGID_10_);}
	.st15{fill:url(#SVGID_11_);}
	.st16{fill:url(#SVGID_12_);}
	.st17{fill:url(#SVGID_13_);}
	.st18{fill:url(#SVGID_14_);}
	.st19{fill:url(#SVGID_15_);}
	.st20{fill:url(#SVGID_16_);}
	.st21{fill:url(#SVGID_17_);}
	.st22{fill:url(#SVGID_18_);}
	.st23{fill:url(#SVGID_19_);}
	.st24{fill:url(#SVGID_20_);}
	.st25{fill:url(#SVGID_21_);}
	.st26{fill:url(#SVGID_22_);}
	.st27{fill:url(#SVGID_23_);}
	.st28{fill:url(#SVGID_24_);}
	.st29{fill:url(#SVGID_25_);}
	.st30{fill:#BEE2F1;}
	.st31{fill:url(#SVGID_26_);}
	.st32{fill:url(#SVGID_27_);}
	.st33{fill:url(#SVGID_28_);}
	.st34{fill:url(#SVGID_29_);}
	.st35{fill:#CBD9E7;}
	.st36{fill:#C3CFDA;}
	.st37{fill:url(#SVGID_30_);}
	.st38{fill:url(#SVGID_31_);}
	.st39{fill:url(#SVGID_32_);}
	.st40{fill:url(#SVGID_33_);}
	.st41{fill:url(#SVGID_34_);}
	.st42{fill:url(#SVGID_35_);}
	.st43{fill:url(#SVGID_36_);}
	.st44{fill:url(#SVGID_37_);}
	.st45{fill:url(#SVGID_38_);}
	.st46{fill:url(#SVGID_39_);}
	.st47{fill:url(#SVGID_40_);}
	.st48{fill:url(#SVGID_41_);}
	.st49{fill:url(#SVGID_42_);}
	.st50{fill:url(#SVGID_43_);}
	.st51{fill:url(#SVGID_44_);}
	.st52{fill:url(#SVGID_45_);}
	.st53{fill:url(#SVGID_46_);}
	.st54{fill:url(#SVGID_47_);}
	.st55{fill:url(#SVGID_48_);}
	.st56{fill:url(#SVGID_49_);}
	.st57{fill:url(#SVGID_50_);}
	.st58{fill:url(#SVGID_51_);}
	.st59{fill:url(#SVGID_52_);}
	.st60{fill:url(#SVGID_53_);}
	.st61{fill:url(#SVGID_54_);}
	.st62{fill:url(#SVGID_55_);}
	.st63{fill:url(#SVGID_56_);}
	.st64{fill:url(#SVGID_57_);}
	.st65{fill:url(#SVGID_58_);}
	.st66{fill:url(#SVGID_59_);}
	.st67{fill:url(#SVGID_60_);}
	.st68{fill:url(#SVGID_61_);}
	.st69{fill:url(#SVGID_62_);}
	.st70{fill:url(#SVGID_63_);}
	.st71{fill:url(#SVGID_64_);}
	.st72{fill:url(#SVGID_65_);}
	.st73{fill:url(#SVGID_66_);}
	.st74{fill:url(#SVGID_67_);}
	.st75{fill:url(#SVGID_68_);}
	.st76{fill:url(#SVGID_69_);}
	.st77{fill:url(#SVGID_70_);}
	.st78{fill:#FFFFFF;}
	.st79{fill:url(#SVGID_71_);}
	.st80{fill:url(#SVGID_72_);}
	.st81{fill:url(#SVGID_73_);}
	.st82{fill:url(#SVGID_74_);}
	.st83{fill:url(#SVGID_75_);}
	.st84{fill:url(#SVGID_76_);}
	.st85{fill:url(#SVGID_77_);}
	.st86{fill:url(#SVGID_78_);}
	.st87{fill:url(#SVGID_79_);}
	.st88{fill:url(#SVGID_80_);}
	.st89{fill:url(#SVGID_81_);}
	.st90{fill:url(#SVGID_82_);}
	.st91{fill:url(#SVGID_83_);}
	.st92{fill:url(#SVGID_84_);}
	.st93{fill:url(#SVGID_85_);}
	.st94{fill:url(#SVGID_86_);}
	.st95{fill:url(#SVGID_87_);}
	.st96{fill:url(#SVGID_88_);}
	.st97{fill:url(#SVGID_89_);}
	.st98{fill:url(#SVGID_90_);}
	.st99{fill:url(#SVGID_91_);}
	.st100{fill:url(#SVGID_92_);}
	.st101{fill:url(#SVGID_93_);}
	.st102{fill:url(#SVGID_94_);}
	.st103{fill:url(#SVGID_95_);}
	.st104{fill:url(#SVGID_96_);}
	.st105{fill:url(#SVGID_97_);}
	.st106{fill:url(#SVGID_98_);}
	.st107{fill:url(#SVGID_99_);}
	.st108{fill:url(#SVGID_100_);}
	.st109{fill:url(#SVGID_101_);}
	.st110{fill:url(#SVGID_102_);}
	.st111{fill:url(#SVGID_103_);}
	.st112{fill:url(#SVGID_104_);}
	.st113{fill:url(#SVGID_105_);}
	.st114{fill:url(#SVGID_106_);}
	.st115{fill:url(#SVGID_107_);}
	.st116{fill:url(#SVGID_108_);}
	.st117{fill:url(#SVGID_109_);}
	.st118{fill:url(#SVGID_110_);}
	.st119{fill:url(#SVGID_111_);}
	.st120{fill:url(#SVGID_112_);}
	.st121{fill:url(#SVGID_113_);}
	.st122{fill:url(#SVGID_114_);}
	.st123{fill:url(#SVGID_115_);}
	.st124{fill:url(#SVGID_116_);}
	.st125{fill:url(#SVGID_117_);}
	.st126{fill:url(#SVGID_118_);}
	.st127{fill:url(#SVGID_119_);}
	.st128{fill:url(#SVGID_120_);}
	.st129{fill:url(#SVGID_121_);}
	.st130{fill:url(#SVGID_122_);}
	.st131{fill:url(#SVGID_123_);}
	.st132{fill:url(#SVGID_124_);}
	.st133{fill:url(#SVGID_125_);}
	.st134{fill:url(#SVGID_126_);}
	.st135{fill:url(#SVGID_127_);}
	.st136{fill:url(#SVGID_128_);}
	.st137{fill:url(#SVGID_129_);}
	.st138{fill:url(#SVGID_130_);}
	.st139{fill:url(#SVGID_131_);}
	.st140{fill:url(#SVGID_132_);}
	.st141{fill:url(#SVGID_133_);}
	.st142{fill:url(#SVGID_134_);}
	.st143{fill:url(#SVGID_135_);}
	.st144{fill:url(#SVGID_136_);}
	.st145{fill:url(#SVGID_137_);}
	.st146{fill:url(#SVGID_138_);}
	.st147{fill:url(#SVGID_139_);}
	.st148{fill:url(#SVGID_140_);}
	.st149{fill:url(#SVGID_141_);}
	.st150{fill:url(#SVGID_142_);}
	.st151{fill:url(#SVGID_143_);}
	.st152{fill:url(#SVGID_144_);}
	.st153{fill:url(#SVGID_145_);}
	.st154{fill:url(#SVGID_146_);}
	.st155{fill:url(#SVGID_147_);}
	.st156{fill:url(#SVGID_148_);}
	.st157{fill:url(#SVGID_149_);}
	.st158{fill:url(#SVGID_150_);}
	.st159{fill:url(#SVGID_151_);}
	.st160{fill:url(#SVGID_152_);}
	.st161{fill:url(#SVGID_153_);}
	.st162{fill:url(#SVGID_154_);}
	.st163{fill:url(#SVGID_155_);}
	.st164{fill:url(#SVGID_156_);}
	.st165{fill:url(#SVGID_157_);}
	.st166{fill:url(#SVGID_158_);}
	.st167{fill:url(#SVGID_159_);}
	.st168{fill:url(#SVGID_160_);}
	.st169{fill:url(#SVGID_161_);}
	.st170{fill:url(#SVGID_162_);}
	.st171{fill:url(#SVGID_163_);}
	.st172{fill:url(#SVGID_164_);}
	.st173{fill:url(#SVGID_165_);}
	.st174{fill:url(#SVGID_166_);}
	.st175{fill:url(#SVGID_167_);}
	.st176{fill:url(#SVGID_168_);}
	.st177{fill:url(#SVGID_169_);}
	.st178{fill:url(#SVGID_170_);}
	.st179{fill:url(#SVGID_171_);}
	.st180{fill:url(#SVGID_172_);}
	.st181{fill:url(#SVGID_173_);}
	.st182{fill:url(#SVGID_174_);}
	.st183{fill:url(#SVGID_175_);}
	.st184{fill:url(#SVGID_176_);}
	.st185{fill:url(#SVGID_177_);}
	.st186{fill:url(#SVGID_178_);}
	.st187{fill:url(#SVGID_179_);}
	.st188{fill:url(#SVGID_180_);}
	.st189{fill:url(#SVGID_181_);}
</style>
<g>
	<g>
		<g>
			
				<radialGradient id="SVGID_1_" cx="65.4412" cy="2984.6553" r="31.8395" gradientTransform="matrix(1 0 0 -1 0.2615 3026.8992)" gradientUnits="userSpaceOnUse">
				<stop  offset="0" style="stop-color:#F9DA52"/>
				<stop  offset="1" style="stop-color:#F7B82C"/>
			</radialGradient>
			<path class="st0" d="M65.391,74.512c-13.352,0-24.089-10.831-24.089-24.089c0-13.258,10.831-24.089,24.089-24.089
				s24.089,10.831,24.089,24.089S78.65,74.512,65.391,74.512z"/>
			<path class="st5" d="M65.391,26.707c12.978,0,23.622,10.551,23.622,23.622c0,12.978-10.551,23.622-23.622,23.622
				c-12.978,0-23.622-10.551-23.622-23.622C41.769,37.351,52.32,26.707,65.391,26.707 M65.391,25.68
				c-13.632,0-24.649,11.111-24.649,24.649c0,13.632,11.111,24.649,24.649,24.649c13.632,0,24.649-11.111,24.649-24.649
				C90.041,36.698,79.023,25.68,65.391,25.68L65.391,25.68z"/>
		</g>
		<g>
			<path class="st6" d="M40.649,27.921c-0.467,0-0.84-0.187-1.12-0.467l-7.843-7.843c-0.28-0.28-0.467-0.747-0.467-1.12
				s0.187-0.84,0.467-1.12s0.747-0.467,1.12-0.467c0.467,0,0.84,0.187,1.12,0.467l7.843,7.843c0.654,0.654,0.654,1.681,0,2.334
				C41.489,27.828,41.116,27.921,40.649,27.921z"/>
			<path class="st7" d="M32.899,17.464c0.28,0,0.56,0.093,0.747,0.28l7.843,7.843c0.187,0.187,0.28,0.467,0.28,0.747
				s-0.093,0.56-0.28,0.747c-0.187,0.187-0.467,0.28-0.747,0.28s-0.56-0.093-0.747-0.28l-7.843-7.843
				c-0.187-0.187-0.28-0.467-0.28-0.747s0.093-0.56,0.28-0.747C32.339,17.557,32.619,17.464,32.899,17.464 M32.899,16.344
				c-0.56,0-1.12,0.187-1.494,0.654c-0.84,0.84-0.84,2.241,0,3.081l7.843,7.843c0.467,0.467,0.934,0.654,1.494,0.654
				s1.12-0.187,1.494-0.654c0.84-0.84,0.84-2.241,0-3.081l-7.843-7.843C34.02,16.53,33.459,16.344,32.899,16.344L32.899,16.344z"/>
		</g>
		<g>
			<path class="st6" d="M22.629,52.384c-0.934,0-1.587-0.747-1.587-1.587c0-0.84,0.747-1.587,1.587-1.587h7.936
				c0.934,0,1.587,0.747,1.587,1.587c0,0.84-0.747,1.587-1.587,1.587H22.629z"/>
			<path class="st7" d="M30.565,49.676c0.56,0,1.12,0.467,1.12,1.12c0,0.56-0.467,1.12-1.12,1.12h-7.936
				c-0.56,0-1.12-0.467-1.12-1.12c0-0.56,0.467-1.12,1.12-1.12H30.565 M30.565,48.556h-7.936c-1.214,0-2.147,0.934-2.147,2.147
				s0.934,2.147,2.147,2.147h7.936c1.214,0,2.147-0.934,2.147-2.147C32.713,49.583,31.779,48.556,30.565,48.556L30.565,48.556z"/>
		</g>
		<g>
			<path class="st6" d="M65.111,17.837c-0.934,0-1.587-0.747-1.587-1.587V8.314c0-0.934,0.747-1.587,1.587-1.587
				c0.934,0,1.587,0.747,1.587,1.587v7.936C66.792,17.091,66.045,17.837,65.111,17.837z"/>
			<path class="st7" d="M65.111,7.193c0.56,0,1.12,0.467,1.12,1.12v7.936c0,0.56-0.467,1.12-1.12,1.12
				c-0.654,0-1.12-0.467-1.12-1.12V8.314C64.084,7.66,64.551,7.193,65.111,7.193 M65.111,6.073c-1.214,0-2.147,0.934-2.147,2.147
				v7.936c0,1.214,0.934,2.147,2.147,2.147c1.214,0,2.147-0.934,2.147-2.147V8.22C67.259,7.007,66.325,6.073,65.111,6.073
				L65.111,6.073z"/>
		</g>
		<g>
			<path class="st6" d="M89.574,27.921c-0.467,0-0.84-0.187-1.12-0.467c-0.28-0.28-0.467-0.747-0.467-1.12
				c0-0.467,0.187-0.84,0.467-1.12l7.843-7.843c0.28-0.28,0.747-0.467,1.12-0.467c0.467,0,0.84,0.187,1.12,0.467
				c0.654,0.654,0.654,1.681,0,2.334l-7.843,7.843C90.414,27.828,90.041,27.921,89.574,27.921z"/>
			<path class="st7" d="M97.417,17.464c0.28,0,0.56,0.093,0.747,0.28c0.187,0.187,0.28,0.467,0.28,0.747s-0.093,0.56-0.28,0.747
				l-7.843,7.843c-0.187,0.187-0.467,0.28-0.747,0.28c-0.28,0-0.56-0.093-0.747-0.28c-0.187-0.187-0.28-0.467-0.28-0.747
				s0.093-0.56,0.28-0.747l7.843-7.843C96.857,17.557,97.043,17.464,97.417,17.464 M97.417,16.344c-0.56,0-1.12,0.187-1.494,0.654
				L88.08,24.84c-0.84,0.84-0.84,2.241,0,3.081c0.467,0.467,0.934,0.654,1.494,0.654c0.56,0,1.12-0.187,1.494-0.654l7.843-7.843
				c0.84-0.84,0.84-2.241,0-3.081C98.537,16.53,97.977,16.344,97.417,16.344L97.417,16.344z"/>
		</g>
		<g>
			<g>
				
					<radialGradient id="SVGID_2_" cx="59.9328" cy="2966.8608" r="61.0056" gradientTransform="matrix(1 0 0 -1 0 3026.8655)" gradientUnits="userSpaceOnUse">
					<stop  offset="0" style="stop-color:#FBFBFB"/>
					<stop  offset="1" style="stop-color:#E7E7E7"/>
				</radialGradient>
				<path class="st2" d="M58.389,86.37c-6.442,0-12.231-3.828-14.846-9.71c-0.934-2.054-1.401-4.202-1.401-6.442
					c0-8.963,7.283-16.246,16.246-16.246c0.934,0,1.867,0.093,2.894,0.28l0.467,0.093l0.187-0.467
					c0.28-0.654,0.56-1.401,0.934-2.147c0.187-0.28,0.28-0.56,0.467-0.84l0.093-0.187c0.654-1.027,1.307-2.054,2.054-2.894
					l0.093-0.093c0.093-0.187,0.28-0.373,0.467-0.467c2.147-2.334,4.668-4.202,7.563-5.415c2.801-1.214,5.695-1.867,8.59-1.867
					c7.563,0,14.472,3.828,18.487,10.364l0.187,0.28l0.373-0.093c1.027-0.187,1.961-0.28,2.894-0.28
					c9.897,0,18.02,8.123,18.02,18.02c0,9.897-8.123,18.02-18.02,18.02H58.389V86.37z"/>
			</g>
			<g>
				<path class="st1" d="M82.104,40.526c7.376,0,14.192,3.735,18.02,10.084l0.373,0.654l0.747-0.093
					c1.027-0.187,1.867-0.28,2.801-0.28c9.617,0,17.46,7.843,17.46,17.46c0,9.617-7.843,17.46-17.46,17.46H58.389
					c-6.256,0-11.858-3.735-14.379-9.43c-0.84-1.961-1.307-4.108-1.307-6.256c0-8.683,7.003-15.686,15.686-15.686
					c0.934,0,1.867,0.093,2.801,0.28l0.934,0.187l0.373-0.84c0.28-0.654,0.56-1.401,0.934-2.054c0.093-0.28,0.28-0.467,0.467-0.84
					l0.093-0.187c0.654-1.027,1.307-1.961,1.961-2.801l0.093-0.093c0.093-0.187,0.28-0.28,0.373-0.467
					c2.054-2.334,4.575-4.108,7.376-5.322C76.502,41.086,79.303,40.526,82.104,40.526 M82.104,39.406
					c-2.988,0-5.882,0.654-8.777,1.867c-2.988,1.307-5.602,3.175-7.75,5.602c-0.187,0.187-0.28,0.373-0.467,0.56l-0.093,0.093
					c-0.747,0.84-1.401,1.867-2.054,2.988l-0.093,0.187c-0.187,0.28-0.373,0.56-0.467,0.84c-0.373,0.747-0.747,1.494-1.027,2.147
					c-1.027-0.187-2.054-0.28-2.988-0.28c-9.243,0-16.713,7.563-16.713,16.713c0,2.334,0.467,4.575,1.401,6.723
					c2.708,6.162,8.683,10.084,15.312,10.084h45.657c10.271,0,18.58-8.31,18.58-18.58s-8.31-18.58-18.58-18.58
					c-0.934,0-1.961,0.093-2.988,0.28C97.043,43.42,89.854,39.406,82.104,39.406L82.104,39.406z"/>
			</g>
		</g>
		<g>
			
				<radialGradient id="SVGID_3_" cx="65.5952" cy="2919.4409" r="9.1324" gradientTransform="matrix(1 0 0 -1 0 3026.8655)" gradientUnits="userSpaceOnUse">
				<stop  offset="0" style="stop-color:#71C6E4"/>
				<stop  offset="1" style="stop-color:#56C0EE"/>
			</radialGradient>
			<path class="st4" d="M62.957,119.609c-0.093,0-0.28,0-0.373-0.093c-0.84-0.187-1.401-1.12-1.214-1.961l5.229-21.101
				c0.187-0.747,0.84-1.214,1.587-1.214c0.093,0,0.28,0,0.373,0.093c0.84,0.187,1.401,1.12,1.214,1.961l-5.229,21.101
				C64.358,119.142,63.704,119.609,62.957,119.609z"/>
			<path class="st3" d="M68.186,95.8L68.186,95.8c0.093,0,0.187,0,0.28,0c0.56,0.187,0.934,0.747,0.84,1.307l-5.229,21.101
				c-0.093,0.467-0.56,0.84-1.027,0.84c-0.093,0-0.187,0-0.28,0c-0.56-0.187-0.934-0.747-0.84-1.307l5.229-21.101
				C67.252,96.08,67.719,95.8,68.186,95.8 M68.186,94.68c-0.934,0-1.867,0.654-2.147,1.681l-5.229,21.101
				c-0.28,1.12,0.467,2.334,1.587,2.614c0.187,0,0.373,0.093,0.56,0.093c0.934,0,1.867-0.654,2.147-1.681l5.229-21.101
				c0.28-1.12-0.467-2.334-1.587-2.614C68.559,94.68,68.373,94.68,68.186,94.68L68.186,94.68z"/>
		</g>
	</g>
	<g>
		
			<radialGradient id="SVGID_4_" cx="101.9541" cy="-31.7779" r="24.3393" gradientTransform="matrix(0.9582 0 0 0.9582 -58.1332 50.1608)" gradientUnits="userSpaceOnUse">
			<stop  offset="0" style="stop-color:#D44445"/>
			<stop  offset="1" style="stop-color:#C11F1F"/>
		</radialGradient>
		<path class="st8" d="M23.536,39.136h31.23c2.443,0,3.96-2.655,2.721-4.76L41.872,7.865c-1.221-2.073-4.22-2.073-5.441,0
			L20.815,34.377C19.576,36.482,21.093,39.136,23.536,39.136z"/>
		<path class="st78" d="M38.342,29.351V18.57c0-1.165-0.947-2.112-2.112-2.112c-1.165,0-2.112,0.948-2.112,2.112v10.781
			c-0.73,0.618-1.156,1.527-1.156,2.494c0,1.802,1.467,3.269,3.269,3.269c1.802,0,3.269-1.466,3.269-3.269
			C39.499,30.878,39.072,29.969,38.342,29.351z M36.23,17.709c0.474,0,0.86,0.386,0.86,0.86v8.931H35.37V18.57
			C35.37,18.095,35.756,17.709,36.23,17.709z"/>
		<g>
			<path class="st78" d="M44.849,27.633c0,1.078-0.181,1.867-0.542,2.368c-0.361,0.501-0.914,0.752-1.658,0.752
				c-0.728,0-1.276-0.262-1.645-0.785c-0.37-0.524-0.554-1.302-0.554-2.335c0-1.083,0.181-1.878,0.542-2.383
				c0.361-0.505,0.914-0.758,1.658-0.758c0.725,0,1.273,0.263,1.644,0.79S44.849,26.591,44.849,27.633z M42.087,27.633
				c0,0.689,0.043,1.162,0.129,1.421c0.086,0.258,0.231,0.388,0.433,0.388c0.206,0,0.351-0.133,0.436-0.4s0.127-0.736,0.127-1.408
				c0-0.675-0.043-1.148-0.129-1.419c-0.086-0.271-0.231-0.406-0.434-0.406c-0.203,0-0.347,0.13-0.433,0.392
				C42.13,26.461,42.087,26.938,42.087,27.633z"/>
			<path class="st78" d="M45.411,26.029c0-0.269,0.068-0.523,0.204-0.76c0.136-0.238,0.324-0.426,0.562-0.567
				c0.239-0.14,0.496-0.21,0.771-0.21c0.275,0,0.532,0.07,0.771,0.21c0.239,0.14,0.426,0.328,0.562,0.564
				c0.136,0.236,0.204,0.49,0.204,0.762c0,0.27-0.067,0.521-0.202,0.754c-0.134,0.233-0.321,0.419-0.558,0.556
				c-0.237,0.138-0.496,0.206-0.777,0.206c-0.275,0-0.532-0.068-0.771-0.204c-0.239-0.136-0.426-0.321-0.562-0.554
				C45.479,26.554,45.411,26.301,45.411,26.029z M46.403,26.029c0,0.139,0.054,0.262,0.161,0.369c0.107,0.107,0.236,0.16,0.385,0.16
				c0.15,0,0.278-0.054,0.385-0.162c0.107-0.108,0.161-0.231,0.161-0.367c0-0.144-0.052-0.273-0.156-0.385
				c-0.104-0.112-0.234-0.169-0.39-0.169c-0.156,0-0.286,0.056-0.39,0.169C46.455,25.756,46.403,25.884,46.403,26.029z"/>
		</g>
	</g>
</g>
</svg>
