<svg xmlns="http://www.w3.org/2000/svg" xmlns:xlink="http://www.w3.org/1999/xlink" viewBox="0 0 143 122"><defs><style>.a{fill:url(#a);}.b{fill:#dadcde;}.c{fill:url(#b);}.d{fill:url(#c);}.e{fill:url(#d);}.f{fill:url(#e);}.g{fill:#59b9e8;}.h{fill:url(#f);}</style><radialGradient id="a" cx="819.16" cy="3050.73" r="6.72" gradientTransform="matrix(0.89, 0, 0, -0.89, -671.03, 2826.81)" gradientUnits="userSpaceOnUse"><stop offset="0" stop-color="#fff"/><stop offset="1" stop-color="#e7e7e7"/></radialGradient><radialGradient id="b" cx="71.54" cy="2926.29" r="5.25" gradientTransform="matrix(1, 0, 0, -1, 0, 3026.87)" xlink:href="#a"/><radialGradient id="c" cx="431.11" cy="2997.14" r="5.58" gradientTransform="matrix(0.94, 0, 0, -0.94, -362.61, 2918.19)" xlink:href="#a"/><radialGradient id="d" cx="42.12" cy="2973.39" r="74.17" gradientTransform="matrix(1, 0, 0, -1, 0, 3026.87)" gradientUnits="userSpaceOnUse"><stop offset="0" stop-color="#fbfbfb"/><stop offset="1" stop-color="#e7e7e7"/></radialGradient><radialGradient id="e" cx="185.34" cy="4526.42" r="5.84" gradientTransform="matrix(0.9, 0.22, 0.22, -0.9, -1085.36, 4141.6)" gradientUnits="userSpaceOnUse"><stop offset="0" stop-color="#71c6e4"/><stop offset="1" stop-color="#56c0ee"/></radialGradient><radialGradient id="f" cx="-294.1" cy="4327.14" r="6.28" gradientTransform="matrix(0.97, 0.24, 0.24, -0.97, -675.91, 4384.04)" xlink:href="#e"/></defs><title>d</title><path class="a" d="M57.12,121a6,6,0,1,1,6-6A6,6,0,0,1,57.12,121Z"/><path class="b" d="M57.12,109.56A5.42,5.42,0,1,1,51.71,115a5.42,5.42,0,0,1,5.41-5.42m0-1a6.54,6.54,0,1,0,6.54,6.54,6.55,6.55,0,0,0-6.54-6.54Z"/><path class="c" d="M71.5,105.83a5.23,5.23,0,1,1,5.23-5.23A5.17,5.17,0,0,1,71.5,105.83Z"/><path class="b" d="M71.5,95.84a4.67,4.67,0,1,1,0,9.33,4.67,4.67,0,1,1,0-9.33m0-1a5.79,5.79,0,1,0,5.79,5.79,5.76,5.76,0,0,0-5.79-5.79Z"/><path class="d" d="M42.65,105.83a5.23,5.23,0,1,1,5.23-5.23A5.22,5.22,0,0,1,42.65,105.83Z"/><path class="b" d="M42.65,95.84A4.67,4.67,0,1,1,38,100.5a4.74,4.74,0,0,1,4.67-4.66m0-1a5.79,5.79,0,1,0,5.79,5.79,5.81,5.81,0,0,0-5.79-5.79Z"/><path class="e" d="M40.78,86.22a21,21,0,0,1-19.33-12.7,20.34,20.34,0,0,1-1.77-8.4,21.22,21.22,0,0,1,21.1-21.2,17,17,0,0,1,3.74.38l.46.09.19-.47c.37-.84.75-1.77,1.31-2.8A6.47,6.47,0,0,1,47.13,40l.19-.28A29.51,29.51,0,0,1,49.93,36l.1-.19c.18-.19.37-.47.56-.65a29.15,29.15,0,0,1,9.8-7.1A27.87,27.87,0,0,1,95.68,39.16l.19.28.37-.09a17.77,17.77,0,0,1,3.83-.38,23.53,23.53,0,0,1,0,47.06H40.78Z"/><path class="b" d="M71.5,26.37A27.56,27.56,0,0,1,95.12,39.63l.38.65.74-.09a17.27,17.27,0,0,1,3.64-.38,23,23,0,0,1,0,45.94H40.69A20.49,20.49,0,0,1,21.83,73.33a20.94,20.94,0,0,1-1.78-8.21A20.65,20.65,0,0,1,40.69,44.48a16.08,16.08,0,0,1,3.64.38l.93.18.38-.84c.37-.84.74-1.77,1.21-2.71a11.66,11.66,0,0,0,.56-1.12l.19-.28a39.07,39.07,0,0,1,2.61-3.73l.1-.19c.18-.18.37-.46.56-.65a28.9,28.9,0,0,1,9.71-7A29.9,29.9,0,0,1,71.5,26.37m0-1.12a29,29,0,0,0-11.39,2.43A30.49,30.49,0,0,0,50,34.87c-.19.18-.38.46-.56.65l-.1.19a31.08,31.08,0,0,0-2.71,3.82l-.09.28c-.19.38-.47.75-.65,1.12-.47.94-.94,1.87-1.31,2.81a18.6,18.6,0,0,0-3.92-.38A21.68,21.68,0,0,0,19,65a23.3,23.3,0,0,0,1.77,8.69A21.76,21.76,0,0,0,40.69,86.78H99.88a24.09,24.09,0,1,0,0-48.18A19.82,19.82,0,0,0,96,39,28.52,28.52,0,0,0,71.5,25.25Z"/><path class="f" d="M98.55,105.64a4.71,4.71,0,0,1-1.12-.09A4.61,4.61,0,0,1,94.07,100c.28-1.22,2.14-3.46,5.23-6.17a1.12,1.12,0,0,1,.84-.28,1,1,0,0,1,1.12.84c1.4,3.83,2,6.73,1.68,7.94a4.46,4.46,0,0,1-4.39,3.27Z"/><path class="g" d="M100.14,94.06a.65.65,0,0,1,.65.47c1.31,3.64,2,6.53,1.68,7.56a4.09,4.09,0,0,1-3.92,3.08,3.27,3.27,0,0,1-.93-.09,3.79,3.79,0,0,1-2.43-1.87,3.93,3.93,0,0,1-.47-3.08c.28-1.12,2.15-3.27,5-6a.6.6,0,0,1,.38-.09m0-1.12a2.22,2.22,0,0,0-1.22.47c-2,1.86-5,4.76-5.32,6.44A5.13,5.13,0,0,0,97.34,106a5.08,5.08,0,0,0,1.21.19,5.19,5.19,0,0,0,5-3.83c.46-1.77-.75-5.69-1.68-8.22a1.81,1.81,0,0,0-1.68-1.21Z"/><path class="h" d="M84.17,121a6.55,6.55,0,0,1-1.31-.18A5.29,5.29,0,0,1,79,114.42c.37-1.41,2.42-3.93,6-7.1a1.73,1.73,0,0,1,1-.37,1.41,1.41,0,0,1,1.4,1c1.59,4.48,2.24,7.66,1.87,9.06a5.39,5.39,0,0,1-5.14,4Z"/><path class="g" d="M85.94,107.51a1.06,1.06,0,0,1,.94.65c1.49,4.2,2.24,7.47,1.87,8.78a4.69,4.69,0,0,1-4.58,3.54,4.84,4.84,0,0,1-1.12-.18,4.48,4.48,0,0,1-2.89-2.15,4.74,4.74,0,0,1-.56-3.55c.18-.65,1-2.52,5.78-6.81a.57.57,0,0,1,.56-.28m0-1.12a2.22,2.22,0,0,0-1.4.56c-2.24,2-5.6,5.41-6.07,7.37a6,6,0,0,0,4.21,7.1,7.35,7.35,0,0,0,1.4.18,5.77,5.77,0,0,0,5.6-4.38c.47-2.06-.84-6.45-2-9.43a1.81,1.81,0,0,0-1.78-1.4Z"/></svg>