<?xml version="1.0" encoding="utf-8"?>
<!-- Generator: Adobe Illustrator 23.0.1, SVG Export Plug-In . SVG Version: 6.00 Build 0)  -->
<svg version="1.1" id="Ebene_2" xmlns="http://www.w3.org/2000/svg" xmlns:xlink="http://www.w3.org/1999/xlink" x="0px" y="0px"
	 viewBox="0 0 143 122" style="enable-background:new 0 0 143 122;" xml:space="preserve">
<style type="text/css">
	.st0{fill:url(#SVGID_1_);}
	.st1{fill:#F7B82C;}
	.st2{fill:#F7B82D;}
	.st3{fill:#F5AE23;}
	.st4{fill:url(#SVGID_2_);}
	.st5{fill:#DADCDE;}
	.st6{fill:url(#SVGID_3_);}
	.st7{fill:#59B9E8;}
	.st8{fill:url(#SVGID_4_);}
	.st9{fill:url(#SVGID_5_);}
	.st10{fill:url(#SVGID_6_);}
	.st11{fill:url(#SVGID_7_);}
	.st12{fill:url(#SVGID_8_);}
	.st13{fill:url(#SVGID_9_);}
	.st14{fill:url(#SVGID_10_);}
	.st15{fill:url(#SVGID_11_);}
	.st16{fill:url(#SVGID_12_);}
	.st17{fill:url(#SVGID_13_);}
	.st18{fill:url(#SVGID_14_);}
	.st19{fill:url(#SVGID_15_);}
	.st20{fill:url(#SVGID_16_);}
	.st21{fill:#BEE2F1;}
	.st22{fill:url(#SVGID_17_);}
	.st23{fill:url(#SVGID_18_);}
	.st24{fill:#CBD9E7;}
	.st25{fill:#C3CFDA;}
	.st26{fill:url(#SVGID_19_);}
	.st27{fill:url(#SVGID_20_);}
	.st28{fill:url(#SVGID_21_);}
	.st29{fill:url(#SVGID_22_);}
	.st30{fill:url(#SVGID_23_);}
	.st31{fill:url(#SVGID_24_);}
	.st32{fill:url(#SVGID_25_);}
	.st33{fill:url(#SVGID_26_);}
	.st34{fill:url(#SVGID_27_);}
	.st35{fill:url(#SVGID_28_);}
	.st36{fill:url(#SVGID_29_);}
	.st37{fill:url(#SVGID_30_);}
	.st38{fill:url(#SVGID_31_);}
	.st39{fill:url(#SVGID_32_);}
	.st40{fill:url(#SVGID_33_);}
	.st41{fill:url(#SVGID_34_);}
	.st42{fill:url(#SVGID_35_);}
	.st43{fill:url(#SVGID_36_);}
	.st44{fill:url(#SVGID_37_);}
	.st45{fill:url(#SVGID_38_);}
	.st46{fill:url(#SVGID_39_);}
	.st47{fill:url(#SVGID_40_);}
	.st48{fill:url(#SVGID_41_);}
	.st49{fill:url(#SVGID_42_);}
	.st50{fill:url(#SVGID_43_);}
	.st51{fill:url(#SVGID_44_);}
	.st52{fill:url(#SVGID_45_);}
	.st53{fill:url(#SVGID_46_);}
	.st54{fill:url(#SVGID_47_);}
	.st55{fill:url(#SVGID_48_);}
	.st56{fill:url(#SVGID_49_);}
	.st57{fill:url(#SVGID_50_);}
	.st58{fill:url(#SVGID_51_);}
	.st59{fill:url(#SVGID_52_);}
	.st60{fill:url(#SVGID_53_);}
	.st61{fill:url(#SVGID_54_);}
	.st62{fill:url(#SVGID_55_);}
	.st63{fill:url(#SVGID_56_);}
	.st64{fill:url(#SVGID_57_);}
	.st65{fill:url(#SVGID_58_);}
	.st66{fill:url(#SVGID_59_);}
	.st67{fill:url(#SVGID_60_);}
	.st68{fill:url(#SVGID_61_);}
	.st69{fill:url(#SVGID_62_);}
	.st70{fill:url(#SVGID_63_);}
	.st71{fill:url(#SVGID_64_);}
	.st72{fill:url(#SVGID_65_);}
	.st73{fill:url(#SVGID_66_);}
	.st74{fill:url(#SVGID_67_);}
	.st75{fill:url(#SVGID_68_);}
	.st76{fill:url(#SVGID_69_);}
	.st77{fill:url(#SVGID_70_);}
	.st78{fill:url(#SVGID_71_);}
	.st79{fill:url(#SVGID_72_);}
	.st80{fill:url(#SVGID_73_);}
	.st81{fill:url(#SVGID_74_);}
	.st82{fill:url(#SVGID_75_);}
	.st83{fill:url(#SVGID_76_);}
	.st84{fill:url(#SVGID_77_);}
	.st85{fill:url(#SVGID_78_);}
	.st86{fill:url(#SVGID_79_);}
	.st87{fill:url(#SVGID_80_);}
	.st88{fill:url(#SVGID_81_);}
	.st89{fill:url(#SVGID_82_);}
	.st90{fill:url(#SVGID_83_);}
	.st91{fill:url(#SVGID_84_);}
	.st92{fill:url(#SVGID_85_);}
	.st93{fill:url(#SVGID_86_);}
	.st94{fill:url(#SVGID_87_);}
	.st95{fill:url(#SVGID_88_);}
	.st96{fill:url(#SVGID_89_);}
	.st97{fill:url(#SVGID_90_);}
	.st98{fill:url(#SVGID_91_);}
	.st99{fill:url(#SVGID_92_);}
	.st100{fill:url(#SVGID_93_);}
	.st101{fill:url(#SVGID_94_);}
	.st102{fill:url(#SVGID_95_);}
	.st103{fill:url(#SVGID_96_);}
	.st104{fill:url(#SVGID_97_);}
	.st105{fill:url(#SVGID_98_);}
	.st106{fill:url(#SVGID_99_);}
	.st107{fill:url(#SVGID_100_);}
	.st108{fill:url(#SVGID_101_);}
	.st109{fill:url(#SVGID_102_);}
	.st110{fill:url(#SVGID_103_);}
	.st111{fill:url(#SVGID_104_);}
	.st112{fill:url(#SVGID_105_);}
	.st113{fill:url(#SVGID_106_);}
	.st114{fill:url(#SVGID_107_);}
	.st115{fill:url(#SVGID_108_);}
	.st116{fill:url(#SVGID_109_);}
	.st117{fill:url(#SVGID_110_);}
	.st118{fill:url(#SVGID_111_);}
	.st119{fill:url(#SVGID_112_);}
	.st120{fill:url(#SVGID_113_);}
	.st121{fill:url(#SVGID_114_);}
	.st122{fill:#FFFFFF;}
	.st123{fill:url(#SVGID_115_);}
	.st124{fill:url(#SVGID_116_);}
	.st125{fill:url(#SVGID_117_);}
	.st126{fill:url(#SVGID_118_);}
	.st127{fill:url(#SVGID_119_);}
	.st128{fill:url(#SVGID_120_);}
	.st129{fill:url(#SVGID_121_);}
	.st130{fill:url(#SVGID_122_);}
	.st131{fill:url(#SVGID_123_);}
	.st132{fill:url(#SVGID_124_);}
	.st133{fill:url(#SVGID_125_);}
	.st134{fill:url(#SVGID_126_);}
	.st135{fill:url(#SVGID_127_);}
	.st136{fill:url(#SVGID_128_);}
	.st137{fill:#1D1D1B;stroke:#1D1D1B;stroke-width:0.5;stroke-miterlimit:10;}
	.st138{fill:url(#SVGID_129_);}
	.st139{fill:url(#SVGID_130_);}
	.st140{fill:url(#SVGID_131_);}
	.st141{fill:url(#SVGID_132_);}
	.st142{fill:url(#SVGID_133_);}
	.st143{fill:url(#SVGID_134_);}
	.st144{fill:url(#SVGID_135_);}
	.st145{fill:url(#SVGID_136_);}
	.st146{fill:url(#SVGID_137_);}
	.st147{fill:url(#SVGID_138_);}
	.st148{fill:url(#SVGID_139_);}
	.st149{fill:url(#SVGID_140_);}
	.st150{fill:url(#SVGID_141_);}
	.st151{fill:url(#SVGID_142_);}
	.st152{fill:url(#SVGID_143_);}
	.st153{fill:url(#SVGID_144_);}
	.st154{fill:url(#SVGID_145_);}
	.st155{fill:url(#SVGID_146_);}
	.st156{fill:url(#SVGID_147_);}
	.st157{fill:url(#SVGID_148_);}
	.st158{fill:url(#SVGID_149_);}
	.st159{fill:url(#SVGID_150_);}
	.st160{fill:url(#SVGID_151_);}
	.st161{fill:url(#SVGID_152_);}
	.st162{fill:url(#SVGID_153_);}
	.st163{fill:url(#SVGID_154_);}
	.st164{fill:url(#SVGID_155_);}
	.st165{fill:url(#SVGID_156_);}
	.st166{fill:url(#SVGID_157_);}
	.st167{fill:url(#SVGID_158_);}
	.st168{fill:url(#SVGID_159_);}
	.st169{fill:url(#SVGID_160_);}
	.st170{fill:url(#SVGID_161_);}
	.st171{fill:url(#SVGID_162_);}
	.st172{fill:url(#SVGID_163_);}
	.st173{fill:url(#SVGID_164_);}
	.st174{fill:url(#SVGID_165_);}
	.st175{fill:url(#SVGID_166_);}
	.st176{fill:url(#SVGID_167_);}
	.st177{fill:url(#SVGID_168_);}
	.st178{fill:url(#SVGID_169_);}
	.st179{fill:url(#SVGID_170_);}
	.st180{fill:url(#SVGID_171_);}
	.st181{fill:url(#SVGID_172_);}
	.st182{fill:url(#SVGID_173_);}
	.st183{fill:url(#SVGID_174_);}
	.st184{fill:url(#SVGID_175_);}
	.st185{fill:url(#SVGID_176_);}
	.st186{fill:url(#SVGID_177_);}
	.st187{fill:url(#SVGID_178_);}
	.st188{fill:url(#SVGID_179_);}
	.st189{fill:url(#SVGID_180_);}
	.st190{fill:url(#SVGID_181_);}
	.st191{fill:url(#SVGID_182_);}
	.st192{fill:url(#SVGID_183_);}
	.st193{fill:url(#SVGID_184_);}
	.st194{fill:url(#SVGID_185_);}
	.st195{fill:url(#SVGID_186_);}
	.st196{fill:url(#SVGID_187_);}
	.st197{fill:url(#SVGID_188_);}
	.st198{fill:url(#SVGID_189_);}
	.st199{fill:url(#SVGID_190_);}
	.st200{fill:url(#SVGID_191_);}
	.st201{fill:url(#SVGID_192_);}
	.st202{fill:url(#SVGID_193_);}
	.st203{fill:url(#SVGID_194_);}
	.st204{fill:url(#SVGID_195_);}
	.st205{fill:url(#SVGID_196_);}
	.st206{fill:url(#SVGID_197_);}
	.st207{fill:url(#SVGID_198_);}
	.st208{fill:url(#SVGID_199_);}
	.st209{fill:url(#SVGID_200_);}
	.st210{fill:url(#SVGID_201_);}
	.st211{fill:url(#SVGID_202_);}
	.st212{fill:url(#SVGID_203_);}
	.st213{fill:url(#SVGID_204_);}
	.st214{fill:url(#SVGID_205_);}
	.st215{fill:url(#SVGID_206_);}
	.st216{fill:url(#SVGID_207_);}
	.st217{fill:url(#SVGID_208_);}
	.st218{fill:url(#SVGID_209_);}
	.st219{fill:url(#SVGID_210_);}
	.st220{fill:url(#SVGID_211_);}
	.st221{fill:url(#SVGID_212_);}
	.st222{fill:url(#SVGID_213_);}
	.st223{fill:url(#SVGID_214_);}
	.st224{fill:url(#SVGID_215_);}
	.st225{fill:url(#SVGID_216_);}
	.st226{fill:url(#SVGID_217_);}
	.st227{fill:url(#SVGID_218_);}
	.st228{fill:url(#SVGID_219_);}
	.st229{fill:url(#SVGID_220_);}
	.st230{fill:url(#SVGID_221_);}
	.st231{fill:url(#SVGID_222_);}
	.st232{fill:url(#SVGID_223_);}
	.st233{fill:url(#SVGID_224_);}
	.st234{fill:url(#SVGID_225_);}
	.st235{fill:url(#SVGID_226_);}
	.st236{fill:url(#SVGID_227_);}
	.st237{fill:url(#SVGID_228_);}
	.st238{fill:url(#SVGID_229_);}
	.st239{fill:url(#SVGID_230_);}
	.st240{fill:url(#SVGID_231_);}
	.st241{fill:url(#SVGID_232_);}
	.st242{fill:url(#SVGID_233_);}
	.st243{fill:url(#SVGID_234_);}
	.st244{fill:url(#SVGID_235_);}
	.st245{fill:url(#SVGID_236_);}
	.st246{fill:url(#SVGID_237_);}
	.st247{fill:url(#SVGID_238_);}
	.st248{fill:url(#SVGID_239_);}
	.st249{fill:url(#SVGID_240_);}
	.st250{fill:url(#SVGID_241_);}
	.st251{fill:url(#SVGID_242_);}
	.st252{fill:url(#SVGID_243_);}
	.st253{fill:url(#SVGID_244_);}
	.st254{fill:url(#SVGID_245_);}
	.st255{fill:url(#SVGID_246_);}
	.st256{fill:url(#SVGID_247_);}
	.st257{fill:url(#SVGID_248_);}
	.st258{fill:url(#SVGID_249_);}
	.st259{fill:url(#SVGID_250_);}
	.st260{fill:url(#SVGID_251_);}
	.st261{fill:url(#SVGID_252_);}
	.st262{fill:url(#SVGID_253_);}
	.st263{fill:url(#SVGID_254_);}
	.st264{fill:url(#SVGID_255_);}
	.st265{fill:url(#SVGID_256_);}
	.st266{fill:url(#SVGID_257_);}
	.st267{fill:url(#SVGID_258_);}
	.st268{fill:url(#SVGID_259_);}
	.st269{fill:url(#SVGID_260_);}
	.st270{fill:url(#SVGID_261_);}
	.st271{fill:url(#SVGID_262_);}
	.st272{fill:url(#SVGID_263_);}
	.st273{fill:url(#SVGID_264_);}
	.st274{fill:url(#SVGID_265_);}
	.st275{fill:url(#SVGID_266_);}
	.st276{fill:url(#SVGID_267_);}
	.st277{fill:url(#SVGID_268_);}
	.st278{fill:url(#SVGID_269_);}
	.st279{fill:url(#SVGID_270_);}
	.st280{fill:url(#SVGID_271_);}
	.st281{fill:url(#SVGID_272_);}
	.st282{fill:url(#SVGID_273_);}
	.st283{fill:url(#SVGID_274_);}
	.st284{fill:url(#SVGID_275_);}
</style>
<g>
	<g>
		
			<radialGradient id="SVGID_1_" cx="60.9427" cy="2981.6567" r="31.8393" gradientTransform="matrix(1 0 0 -1 0.2615 3026.8992)" gradientUnits="userSpaceOnUse">
			<stop  offset="0" style="stop-color:#F9DA52"/>
			<stop  offset="1" style="stop-color:#F7B82C"/>
		</radialGradient>
		<circle class="st0" cx="60.856" cy="53.328" r="24.089"/>
		<path class="st1" d="M60.856,29.706c12.978,0,23.622,10.551,23.622,23.622c0,12.978-10.551,23.622-23.622,23.622
			c-12.978,0-23.622-10.551-23.622-23.622C37.327,40.35,47.878,29.706,60.856,29.706 M60.856,28.679
			c-13.632,0-24.649,11.111-24.649,24.649c0,13.632,11.111,24.649,24.649,24.649c13.632,0,24.649-11.111,24.649-24.649
			C85.505,39.696,74.488,28.679,60.856,28.679L60.856,28.679z"/>
	</g>
	<g>
		<path class="st2" d="M36.207,30.919c-0.467,0-0.84-0.187-1.12-0.467l-7.843-7.843c-0.654-0.654-0.654-1.681,0-2.334
			c0.28-0.28,0.747-0.467,1.12-0.467c0.467,0,0.84,0.187,1.12,0.467l7.843,7.843c0.28,0.28,0.467,0.747,0.467,1.12
			c0,0.467-0.187,0.84-0.467,1.12C37.047,30.826,36.58,30.919,36.207,30.919z"/>
		<path class="st3" d="M28.364,20.462c0.28,0,0.56,0.093,0.747,0.28l7.843,7.843c0.187,0.187,0.28,0.467,0.28,0.747
			s-0.093,0.56-0.28,0.747c-0.187,0.187-0.467,0.28-0.747,0.28s-0.56-0.093-0.747-0.28l-7.843-7.843
			c-0.187-0.187-0.28-0.467-0.28-0.747s0.093-0.56,0.28-0.747C27.804,20.555,28.084,20.462,28.364,20.462 M28.364,19.342
			c-0.56,0-1.12,0.187-1.494,0.654c-0.84,0.84-0.84,2.241,0,3.081l7.843,7.843c0.467,0.467,0.934,0.654,1.494,0.654
			s1.12-0.187,1.494-0.654c0.84-0.84,0.84-2.241,0-3.081l-7.843-7.843C29.484,19.528,28.924,19.342,28.364,19.342L28.364,19.342z"/>
	</g>
	<g>
		<path class="st2" d="M18.093,55.382c-0.934,0-1.587-0.747-1.587-1.587s0.747-1.587,1.587-1.587h7.936
			c0.934,0,1.587,0.747,1.587,1.587s-0.747,1.587-1.587,1.587H18.093z"/>
		<path class="st3" d="M26.03,52.674c0.56,0,1.12,0.467,1.12,1.12c0,0.56-0.467,1.12-1.12,1.12h-7.936c-0.56,0-1.12-0.467-1.12-1.12
			c0-0.56,0.467-1.12,1.12-1.12H26.03 M26.03,51.554h-7.936c-1.214,0-2.148,0.934-2.148,2.147s0.934,2.147,2.148,2.147h7.936
			c1.214,0,2.148-0.934,2.148-2.147C28.27,52.581,27.243,51.554,26.03,51.554L26.03,51.554z"/>
	</g>
	<g>
		<path class="st2" d="M60.669,20.836c-0.934,0-1.587-0.747-1.587-1.587v-7.936c0-0.934,0.747-1.587,1.587-1.587
			c0.934,0,1.587,0.747,1.587,1.587v7.936C62.256,20.089,61.51,20.836,60.669,20.836z"/>
		<path class="st3" d="M60.669,10.192c0.56,0,1.12,0.467,1.12,1.12v7.936c0,0.56-0.467,1.12-1.12,1.12c-0.56,0-1.12-0.467-1.12-1.12
			v-7.936C59.549,10.658,60.016,10.192,60.669,10.192 M60.669,9.071c-1.214,0-2.148,0.934-2.148,2.147v7.936
			c0,1.214,0.934,2.147,2.148,2.147s2.148-0.934,2.148-2.147v-7.936C62.817,10.005,61.79,9.071,60.669,9.071L60.669,9.071z"/>
	</g>
	<g>
		<path class="st2" d="M85.038,30.919c-0.467,0-0.84-0.187-1.12-0.467c-0.28-0.28-0.467-0.747-0.467-1.12
			c0-0.467,0.187-0.84,0.467-1.12l7.843-7.843c0.28-0.28,0.747-0.467,1.12-0.467c0.467,0,0.84,0.187,1.12,0.467
			c0.654,0.654,0.654,1.681,0,2.334l-7.843,7.843C85.879,30.826,85.505,30.919,85.038,30.919z"/>
		<path class="st3" d="M92.881,20.462c0.28,0,0.56,0.093,0.747,0.28c0.187,0.187,0.28,0.467,0.28,0.747s-0.093,0.56-0.28,0.747
			l-7.843,7.843c-0.187,0.187-0.467,0.28-0.747,0.28s-0.56-0.093-0.747-0.28c-0.187-0.187-0.28-0.467-0.28-0.747
			s0.093-0.56,0.28-0.747l7.843-7.843C92.321,20.555,92.601,20.462,92.881,20.462 M92.881,19.342c-0.56,0-1.12,0.187-1.494,0.654
			l-7.843,7.843c-0.84,0.84-0.84,2.241,0,3.081c0.467,0.467,0.934,0.654,1.494,0.654s1.12-0.187,1.494-0.654l7.843-7.843
			c0.84-0.84,0.84-2.241,0-3.081C94.002,19.528,93.442,19.342,92.881,19.342L92.881,19.342z"/>
	</g>
	<g>
		<g>
			
				<radialGradient id="SVGID_2_" cx="50.4999" cy="2959.3611" r="74.5992" gradientTransform="matrix(1 0 0 -1 0 3026.8655)" gradientUnits="userSpaceOnUse">
				<stop  offset="0" style="stop-color:#F4FAFF"/>
				<stop  offset="1" style="stop-color:#DDEFFA"/>
			</radialGradient>
			<path class="st4" d="M48.625,99.825c-7.936,0-15.032-4.668-18.207-11.951c-1.12-2.521-1.681-5.229-1.681-7.936
				c0-10.924,8.963-19.887,19.888-19.887c1.214,0,2.334,0.093,3.548,0.373l0.467,0.093l0.187-0.467
				c0.373-0.84,0.747-1.681,1.214-2.614c0.187-0.373,0.373-0.654,0.56-1.027l0.093-0.187c0.747-1.307,1.587-2.521,2.428-3.548
				l0.093-0.187c0.187-0.187,0.373-0.373,0.56-0.654c2.614-2.894,5.695-5.135,9.244-6.629c3.455-1.494,7.003-2.241,10.551-2.241
				c9.337,0,17.74,4.762,22.689,12.698l0.187,0.28l0.373-0.093c1.214-0.187,2.428-0.373,3.548-0.373
				c12.231,0,22.128,9.897,22.128,22.128s-9.897,22.128-22.128,22.128H48.625V99.825z"/>
		</g>
		<g>
			<path class="st21" d="M77.569,43.524c9.15,0,17.367,4.668,22.222,12.418l0.373,0.654l0.747-0.093
				c1.214-0.187,2.334-0.28,3.455-0.28c11.858,0,21.568,9.71,21.568,21.568s-9.71,21.568-21.568,21.568H48.625
				c-7.656,0-14.659-4.575-17.74-11.578c-1.12-2.428-1.587-5.042-1.587-7.75c0-10.644,8.683-19.327,19.327-19.327
				c1.12,0,2.241,0.093,3.455,0.373l0.934,0.187l0.373-0.84c0.28-0.84,0.747-1.681,1.214-2.521c0.187-0.28,0.373-0.654,0.56-1.027
				l0.093-0.187c0.747-1.307,1.587-2.428,2.428-3.455l0.093-0.187c0.187-0.187,0.28-0.373,0.467-0.56
				c2.521-2.801,5.602-5.042,9.057-6.536C70.66,44.271,74.114,43.524,77.569,43.524 M77.569,42.404
				c-3.641,0-7.189,0.747-10.737,2.334c-3.641,1.587-6.816,3.828-9.43,6.816c-0.187,0.187-0.373,0.467-0.56,0.654l-0.093,0.187
				c-0.934,1.027-1.774,2.334-2.521,3.641l-0.093,0.187c-0.187,0.373-0.373,0.747-0.56,1.027c-0.467,0.934-0.84,1.774-1.214,2.614
				c-1.307-0.28-2.428-0.373-3.641-0.373c-11.298,0-20.448,9.15-20.448,20.448c0,2.801,0.56,5.509,1.681,8.123
				c3.268,7.469,10.644,12.231,18.674,12.231h55.741c12.511,0,22.689-10.177,22.689-22.689s-10.177-22.689-22.689-22.689
				c-1.214,0-2.334,0.093-3.641,0.373C95.776,47.352,87.093,42.404,77.569,42.404L77.569,42.404z"/>
		</g>
	</g>
</g>
<g>
	<g>
		
			<radialGradient id="SVGID_3_" cx="279.7458" cy="-14.0983" r="34.2915" gradientTransform="matrix(0.9582 0 0 0.9582 -235.1963 50.1608)" gradientUnits="userSpaceOnUse">
			<stop  offset="0" style="stop-color:#D44445"/>
			<stop  offset="1" style="stop-color:#C11F1F"/>
		</radialGradient>
		<path class="st6" d="M11.181,64.089c-1.914,0-3.624-0.992-4.573-2.654s-0.937-3.638,0.035-5.287l21.104-35.831
			c0.957-1.625,2.653-2.594,4.539-2.594c1.885,0,3.582,0.97,4.539,2.594L57.928,56.15c0.971,1.648,0.984,3.625,0.035,5.286
			s-2.659,2.654-4.573,2.654H11.181z"/>
		<path class="st122" d="M32.285,18.724c1.426,0,2.852,0.701,3.677,2.102l21.104,35.831c1.676,2.845-0.375,6.433-3.677,6.433H11.181
			c-3.301,0-5.352-3.588-3.677-6.433l21.104-35.831C29.434,19.425,30.859,18.724,32.285,18.724 M32.285,16.724
			c-2.243,0-4.262,1.154-5.4,3.087L5.781,55.642c-1.156,1.962-1.171,4.314-0.041,6.291c1.13,1.977,3.164,3.157,5.441,3.157H53.39
			c2.277,0,4.311-1.18,5.441-3.157c1.13-1.977,1.115-4.329-0.041-6.291L37.686,19.811C36.547,17.878,34.528,16.724,32.285,16.724
			L32.285,16.724z"/>
	</g>
	<g>
		<path class="st122" d="M11.181,63.09h42.209c3.301,0,5.352-3.588,3.677-6.433L35.962,20.826c-1.65-2.802-5.703-2.802-7.354,0
			L7.504,56.657C5.829,59.501,7.88,63.09,11.181,63.09z"/>
		<radialGradient id="SVGID_4_" cx="32.2852" cy="40.9068" r="23.834" gradientUnits="userSpaceOnUse">
			<stop  offset="0" style="stop-color:#D44445"/>
			<stop  offset="1" style="stop-color:#C11F1F"/>
		</radialGradient>
		<path class="st8" d="M32.285,22.474c0.296,0,0.408,0.192,0.446,0.255L53.835,58.56c0.038,0.064,0.152,0.259,0.003,0.519
			s-0.375,0.261-0.449,0.261H11.181c-0.074,0-0.3,0-0.449-0.261s-0.034-0.455,0.003-0.519L31.84,22.729
			C31.877,22.666,31.989,22.474,32.285,22.474 M32.285,18.724c-1.426,0-2.852,0.701-3.677,2.102L7.504,56.657
			c-1.676,2.845,0.375,6.433,3.677,6.433H53.39c3.301,0,5.352-3.588,3.677-6.433L35.962,20.826
			C35.137,19.424,33.711,18.724,32.285,18.724L32.285,18.724z"/>
	</g>
	<path class="st137" d="M32.285,48.14c-0.811,0-1.467-0.657-1.467-1.467V34.236c0-0.81,0.657-1.467,1.467-1.467
		c0.811,0,1.467,0.657,1.467,1.467v12.437C33.753,47.483,33.096,48.14,32.285,48.14z"/>
	<circle class="st137" cx="32.285" cy="52.495" r="1.956"/>
</g>
</svg>
