<?xml version="1.0" encoding="utf-8"?>
<!-- Generator: Adobe Illustrator 23.0.1, SVG Export Plug-In . SVG Version: 6.00 Build 0)  -->
<svg version="1.1" id="Ebene_2" xmlns="http://www.w3.org/2000/svg" xmlns:xlink="http://www.w3.org/1999/xlink" x="0px" y="0px"
	 viewBox="0 0 143 122" style="enable-background:new 0 0 143 122;" xml:space="preserve">
<style type="text/css">
	.st0{fill:url(#SVGID_1_);}
	.st1{fill:#F7B82C;}
	.st2{fill:#F7B82D;}
	.st3{fill:#F5AE23;}
	.st4{fill:url(#SVGID_2_);}
	.st5{fill:#DADCDE;}
	.st6{fill:url(#SVGID_3_);}
	.st7{fill:#59B9E8;}
	.st8{fill:url(#SVGID_4_);}
	.st9{fill:url(#SVGID_5_);}
	.st10{fill:url(#SVGID_6_);}
	.st11{fill:url(#SVGID_7_);}
	.st12{fill:url(#SVGID_8_);}
	.st13{fill:url(#SVGID_9_);}
	.st14{fill:url(#SVGID_10_);}
	.st15{fill:url(#SVGID_11_);}
	.st16{fill:url(#SVGID_12_);}
	.st17{fill:url(#SVGID_13_);}
	.st18{fill:url(#SVGID_14_);}
	.st19{fill:url(#SVGID_15_);}
	.st20{fill:url(#SVGID_16_);}
	.st21{fill:#BEE2F1;}
	.st22{fill:url(#SVGID_17_);}
	.st23{fill:url(#SVGID_18_);}
	.st24{fill:#CBD9E7;}
	.st25{fill:#C3CFDA;}
	.st26{fill:url(#SVGID_19_);}
	.st27{fill:url(#SVGID_20_);}
	.st28{fill:url(#SVGID_21_);}
	.st29{fill:url(#SVGID_22_);}
	.st30{fill:url(#SVGID_23_);}
	.st31{fill:url(#SVGID_24_);}
	.st32{fill:url(#SVGID_25_);}
	.st33{fill:url(#SVGID_26_);}
	.st34{fill:url(#SVGID_27_);}
	.st35{fill:url(#SVGID_28_);}
	.st36{fill:url(#SVGID_29_);}
	.st37{fill:url(#SVGID_30_);}
	.st38{fill:url(#SVGID_31_);}
	.st39{fill:url(#SVGID_32_);}
	.st40{fill:url(#SVGID_33_);}
	.st41{fill:url(#SVGID_34_);}
	.st42{fill:url(#SVGID_35_);}
	.st43{fill:url(#SVGID_36_);}
	.st44{fill:url(#SVGID_37_);}
	.st45{fill:url(#SVGID_38_);}
	.st46{fill:url(#SVGID_39_);}
	.st47{fill:url(#SVGID_40_);}
	.st48{fill:url(#SVGID_41_);}
	.st49{fill:url(#SVGID_42_);}
	.st50{fill:url(#SVGID_43_);}
	.st51{fill:url(#SVGID_44_);}
	.st52{fill:url(#SVGID_45_);}
	.st53{fill:url(#SVGID_46_);}
	.st54{fill:url(#SVGID_47_);}
	.st55{fill:url(#SVGID_48_);}
	.st56{fill:url(#SVGID_49_);}
	.st57{fill:url(#SVGID_50_);}
	.st58{fill:url(#SVGID_51_);}
	.st59{fill:url(#SVGID_52_);}
	.st60{fill:url(#SVGID_53_);}
	.st61{fill:url(#SVGID_54_);}
	.st62{fill:url(#SVGID_55_);}
	.st63{fill:url(#SVGID_56_);}
	.st64{fill:url(#SVGID_57_);}
	.st65{fill:url(#SVGID_58_);}
	.st66{fill:url(#SVGID_59_);}
	.st67{fill:url(#SVGID_60_);}
	.st68{fill:url(#SVGID_61_);}
	.st69{fill:url(#SVGID_62_);}
	.st70{fill:url(#SVGID_63_);}
	.st71{fill:url(#SVGID_64_);}
	.st72{fill:url(#SVGID_65_);}
	.st73{fill:url(#SVGID_66_);}
	.st74{fill:url(#SVGID_67_);}
	.st75{fill:url(#SVGID_68_);}
	.st76{fill:url(#SVGID_69_);}
	.st77{fill:url(#SVGID_70_);}
	.st78{fill:url(#SVGID_71_);}
	.st79{fill:url(#SVGID_72_);}
	.st80{fill:url(#SVGID_73_);}
	.st81{fill:url(#SVGID_74_);}
	.st82{fill:url(#SVGID_75_);}
	.st83{fill:url(#SVGID_76_);}
	.st84{fill:url(#SVGID_77_);}
	.st85{fill:url(#SVGID_78_);}
	.st86{fill:url(#SVGID_79_);}
	.st87{fill:url(#SVGID_80_);}
	.st88{fill:url(#SVGID_81_);}
	.st89{fill:url(#SVGID_82_);}
	.st90{fill:url(#SVGID_83_);}
	.st91{fill:url(#SVGID_84_);}
	.st92{fill:url(#SVGID_85_);}
	.st93{fill:url(#SVGID_86_);}
	.st94{fill:url(#SVGID_87_);}
	.st95{fill:url(#SVGID_88_);}
	.st96{fill:url(#SVGID_89_);}
	.st97{fill:url(#SVGID_90_);}
	.st98{fill:url(#SVGID_91_);}
	.st99{fill:url(#SVGID_92_);}
	.st100{fill:url(#SVGID_93_);}
	.st101{fill:url(#SVGID_94_);}
	.st102{fill:url(#SVGID_95_);}
	.st103{fill:url(#SVGID_96_);}
	.st104{fill:url(#SVGID_97_);}
	.st105{fill:url(#SVGID_98_);}
	.st106{fill:url(#SVGID_99_);}
	.st107{fill:url(#SVGID_100_);}
	.st108{fill:url(#SVGID_101_);}
	.st109{fill:url(#SVGID_102_);}
	.st110{fill:url(#SVGID_103_);}
	.st111{fill:url(#SVGID_104_);}
	.st112{fill:url(#SVGID_105_);}
	.st113{fill:url(#SVGID_106_);}
	.st114{fill:url(#SVGID_107_);}
	.st115{fill:url(#SVGID_108_);}
	.st116{fill:url(#SVGID_109_);}
	.st117{fill:url(#SVGID_110_);}
	.st118{fill:url(#SVGID_111_);}
	.st119{fill:url(#SVGID_112_);}
	.st120{fill:url(#SVGID_113_);}
	.st121{fill:url(#SVGID_114_);}
	.st122{fill:#FFFFFF;}
	.st123{fill:url(#SVGID_115_);}
	.st124{fill:url(#SVGID_116_);}
	.st125{fill:url(#SVGID_117_);}
	.st126{fill:url(#SVGID_118_);}
	.st127{fill:url(#SVGID_119_);}
	.st128{fill:url(#SVGID_120_);}
	.st129{fill:url(#SVGID_121_);}
	.st130{fill:url(#SVGID_122_);}
	.st131{fill:url(#SVGID_123_);}
	.st132{fill:url(#SVGID_124_);}
	.st133{fill:url(#SVGID_125_);}
	.st134{fill:url(#SVGID_126_);}
	.st135{fill:url(#SVGID_127_);}
	.st136{fill:url(#SVGID_128_);}
	.st137{fill:#1D1D1B;stroke:#1D1D1B;stroke-width:0.5;stroke-miterlimit:10;}
	.st138{fill:url(#SVGID_129_);}
	.st139{fill:url(#SVGID_130_);}
	.st140{fill:url(#SVGID_131_);}
	.st141{fill:url(#SVGID_132_);}
	.st142{fill:url(#SVGID_133_);}
	.st143{fill:url(#SVGID_134_);}
	.st144{fill:url(#SVGID_135_);}
	.st145{fill:url(#SVGID_136_);}
	.st146{fill:url(#SVGID_137_);}
	.st147{fill:url(#SVGID_138_);}
	.st148{fill:url(#SVGID_139_);}
	.st149{fill:url(#SVGID_140_);}
	.st150{fill:url(#SVGID_141_);}
	.st151{fill:url(#SVGID_142_);}
	.st152{fill:url(#SVGID_143_);}
	.st153{fill:url(#SVGID_144_);}
	.st154{fill:url(#SVGID_145_);}
	.st155{fill:url(#SVGID_146_);}
	.st156{fill:url(#SVGID_147_);}
	.st157{fill:url(#SVGID_148_);}
	.st158{fill:url(#SVGID_149_);}
	.st159{fill:url(#SVGID_150_);}
	.st160{fill:url(#SVGID_151_);}
	.st161{fill:url(#SVGID_152_);}
	.st162{fill:url(#SVGID_153_);}
	.st163{fill:url(#SVGID_154_);}
	.st164{fill:url(#SVGID_155_);}
	.st165{fill:url(#SVGID_156_);}
	.st166{fill:url(#SVGID_157_);}
	.st167{fill:url(#SVGID_158_);}
	.st168{fill:url(#SVGID_159_);}
	.st169{fill:url(#SVGID_160_);}
	.st170{fill:url(#SVGID_161_);}
	.st171{fill:url(#SVGID_162_);}
	.st172{fill:url(#SVGID_163_);}
	.st173{fill:url(#SVGID_164_);}
	.st174{fill:url(#SVGID_165_);}
	.st175{fill:url(#SVGID_166_);}
	.st176{fill:url(#SVGID_167_);}
	.st177{fill:url(#SVGID_168_);}
	.st178{fill:url(#SVGID_169_);}
	.st179{fill:url(#SVGID_170_);}
	.st180{fill:url(#SVGID_171_);}
	.st181{fill:url(#SVGID_172_);}
	.st182{fill:url(#SVGID_173_);}
	.st183{fill:url(#SVGID_174_);}
	.st184{fill:url(#SVGID_175_);}
	.st185{fill:url(#SVGID_176_);}
	.st186{fill:url(#SVGID_177_);}
	.st187{fill:url(#SVGID_178_);}
	.st188{fill:url(#SVGID_179_);}
	.st189{fill:url(#SVGID_180_);}
	.st190{fill:url(#SVGID_181_);}
	.st191{fill:url(#SVGID_182_);}
	.st192{fill:url(#SVGID_183_);}
	.st193{fill:url(#SVGID_184_);}
	.st194{fill:url(#SVGID_185_);}
	.st195{fill:url(#SVGID_186_);}
	.st196{fill:url(#SVGID_187_);}
	.st197{fill:url(#SVGID_188_);}
	.st198{fill:url(#SVGID_189_);}
	.st199{fill:url(#SVGID_190_);}
	.st200{fill:url(#SVGID_191_);}
	.st201{fill:url(#SVGID_192_);}
	.st202{fill:url(#SVGID_193_);}
	.st203{fill:url(#SVGID_194_);}
	.st204{fill:url(#SVGID_195_);}
	.st205{fill:url(#SVGID_196_);}
	.st206{fill:url(#SVGID_197_);}
	.st207{fill:url(#SVGID_198_);}
	.st208{fill:url(#SVGID_199_);}
	.st209{fill:url(#SVGID_200_);}
	.st210{fill:url(#SVGID_201_);}
	.st211{fill:url(#SVGID_202_);}
	.st212{fill:url(#SVGID_203_);}
	.st213{fill:url(#SVGID_204_);}
	.st214{fill:url(#SVGID_205_);}
	.st215{fill:url(#SVGID_206_);}
	.st216{fill:url(#SVGID_207_);}
	.st217{fill:url(#SVGID_208_);}
	.st218{fill:url(#SVGID_209_);}
	.st219{fill:url(#SVGID_210_);}
	.st220{fill:url(#SVGID_211_);}
	.st221{fill:url(#SVGID_212_);}
	.st222{fill:url(#SVGID_213_);}
	.st223{fill:url(#SVGID_214_);}
	.st224{fill:url(#SVGID_215_);}
	.st225{fill:url(#SVGID_216_);}
	.st226{fill:url(#SVGID_217_);}
	.st227{fill:url(#SVGID_218_);}
	.st228{fill:url(#SVGID_219_);}
	.st229{fill:url(#SVGID_220_);}
	.st230{fill:url(#SVGID_221_);}
	.st231{fill:url(#SVGID_222_);}
	.st232{fill:url(#SVGID_223_);}
	.st233{fill:url(#SVGID_224_);}
	.st234{fill:url(#SVGID_225_);}
	.st235{fill:url(#SVGID_226_);}
	.st236{fill:url(#SVGID_227_);}
	.st237{fill:url(#SVGID_228_);}
	.st238{fill:url(#SVGID_229_);}
	.st239{fill:url(#SVGID_230_);}
	.st240{fill:url(#SVGID_231_);}
	.st241{fill:url(#SVGID_232_);}
	.st242{fill:url(#SVGID_233_);}
	.st243{fill:url(#SVGID_234_);}
	.st244{fill:url(#SVGID_235_);}
	.st245{fill:url(#SVGID_236_);}
	.st246{fill:url(#SVGID_237_);}
	.st247{fill:url(#SVGID_238_);}
	.st248{fill:url(#SVGID_239_);}
	.st249{fill:url(#SVGID_240_);}
	.st250{fill:url(#SVGID_241_);}
	.st251{fill:url(#SVGID_242_);}
	.st252{fill:url(#SVGID_243_);}
	.st253{fill:url(#SVGID_244_);}
	.st254{fill:url(#SVGID_245_);}
	.st255{fill:url(#SVGID_246_);}
	.st256{fill:url(#SVGID_247_);}
	.st257{fill:url(#SVGID_248_);}
	.st258{fill:url(#SVGID_249_);}
	.st259{fill:url(#SVGID_250_);}
	.st260{fill:url(#SVGID_251_);}
	.st261{fill:url(#SVGID_252_);}
	.st262{fill:url(#SVGID_253_);}
	.st263{fill:url(#SVGID_254_);}
	.st264{fill:url(#SVGID_255_);}
	.st265{fill:url(#SVGID_256_);}
	.st266{fill:url(#SVGID_257_);}
	.st267{fill:url(#SVGID_258_);}
	.st268{fill:url(#SVGID_259_);}
	.st269{fill:url(#SVGID_260_);}
	.st270{fill:url(#SVGID_261_);}
	.st271{fill:url(#SVGID_262_);}
	.st272{fill:url(#SVGID_263_);}
	.st273{fill:url(#SVGID_264_);}
	.st274{fill:url(#SVGID_265_);}
	.st275{fill:url(#SVGID_266_);}
	.st276{fill:url(#SVGID_267_);}
	.st277{fill:url(#SVGID_268_);}
	.st278{fill:url(#SVGID_269_);}
	.st279{fill:url(#SVGID_270_);}
	.st280{fill:url(#SVGID_271_);}
	.st281{fill:url(#SVGID_272_);}
	.st282{fill:url(#SVGID_273_);}
	.st283{fill:url(#SVGID_274_);}
	.st284{fill:url(#SVGID_275_);}
</style>
<g>
	<g>
		<g>
			
				<radialGradient id="SVGID_1_" cx="71.6745" cy="2977.5088" r="32.1614" gradientTransform="matrix(1 0 0 -1 0 3026.8655)" gradientUnits="userSpaceOnUse">
				<stop  offset="0" style="stop-color:#F9DA52"/>
				<stop  offset="1" style="stop-color:#F7B82C"/>
			</radialGradient>
			<path class="st0" d="M71.359,81.908c-13.487,0-24.333-10.94-24.333-24.333s10.94-24.333,24.333-24.333
				s24.333,10.94,24.333,24.333S84.751,81.908,71.359,81.908z"/>
			<path class="st1" d="M71.359,33.715c13.109,0,23.861,10.657,23.861,23.861c0,13.109-10.657,23.861-23.861,23.861
				S47.497,70.779,47.497,57.576S58.249,33.715,71.359,33.715 M71.359,32.583c-13.77,0-24.898,11.223-24.898,24.898
				c0,13.77,11.223,24.898,24.898,24.898c13.77,0,24.898-11.223,24.898-24.898C96.257,43.806,85.128,32.583,71.359,32.583
				L71.359,32.583z"/>
		</g>
	</g>
	<g>
		<path class="st2" d="M106.348,59.65c-0.943,0-1.603-0.754-1.603-1.603s0.755-1.603,1.603-1.603h11.129
			c0.943,0,1.603,0.754,1.603,1.603s-0.755,1.603-1.603,1.603H106.348z"/>
		<path class="st3" d="M117.572,56.915c0.566,0,1.132,0.472,1.132,1.132c0,0.566-0.472,1.132-1.132,1.132h-11.129
			c-0.566,0-1.132-0.472-1.132-1.132c0-0.566,0.472-1.132,1.132-1.132H117.572 M117.572,55.784h-11.129
			c-1.226,0-2.169,0.943-2.169,2.169c0,1.226,0.943,2.169,2.169,2.169h11.129c1.226,0,2.169-0.943,2.169-2.169
			C119.741,56.821,118.798,55.784,117.572,55.784L117.572,55.784z"/>
	</g>
	<g>
		<path class="st2" d="M25.428,59.65c-0.943,0-1.603-0.754-1.603-1.603s0.755-1.603,1.603-1.603h11.129
			c0.943,0,1.603,0.754,1.603,1.603s-0.755,1.603-1.603,1.603H25.428z"/>
		<path class="st3" d="M36.557,56.915c0.566,0,1.132,0.472,1.132,1.132c0,0.566-0.472,1.132-1.132,1.132H25.428
			c-0.566,0-1.132-0.472-1.132-1.132c0-0.566,0.472-1.132,1.132-1.132H36.557 M36.557,55.784H25.428
			c-1.226,0-2.169,0.943-2.169,2.169c0,1.226,0.943,2.169,2.169,2.169h11.129c1.226,0,2.169-0.943,2.169-2.169
			C38.726,56.821,37.783,55.784,36.557,55.784L36.557,55.784z"/>
	</g>
	<g>
		<path class="st2" d="M96.163,34.941c-0.472,0-0.849-0.189-1.132-0.472c-0.283-0.283-0.472-0.754-0.472-1.132
			c0-0.472,0.189-0.849,0.472-1.132l5.659-5.659c0.283-0.283,0.755-0.472,1.132-0.472c0.472,0,0.849,0.189,1.132,0.472
			c0.283,0.283,0.472,0.754,0.472,1.132c0,0.377-0.189,0.849-0.472,1.132l-5.659,5.659C97.011,34.846,96.634,34.941,96.163,34.941z"
			/>
		<path class="st3" d="M101.821,26.547c0.283,0,0.566,0.094,0.755,0.283c0.189,0.189,0.283,0.472,0.283,0.754
			c0,0.283-0.094,0.566-0.283,0.754l-5.659,5.659c-0.189,0.189-0.472,0.283-0.755,0.283s-0.566-0.094-0.755-0.283
			c-0.189-0.189-0.283-0.472-0.283-0.754c0-0.283,0.094-0.566,0.283-0.754l5.659-5.659
			C101.256,26.641,101.539,26.547,101.821,26.547 M101.821,25.415c-0.566,0-1.132,0.189-1.509,0.66l-5.659,5.659
			c-0.849,0.849-0.849,2.264,0,3.112c0.472,0.472,0.943,0.66,1.509,0.66s1.132-0.189,1.509-0.66l5.659-5.659
			c0.849-0.849,0.849-2.264,0-3.112C102.953,25.698,102.387,25.415,101.821,25.415L101.821,25.415z"/>
	</g>
	<g>
		<path class="st2" d="M41.084,90.019c-0.472,0-0.849-0.189-1.132-0.472c-0.283-0.283-0.472-0.754-0.472-1.132
			c0-0.472,0.189-0.849,0.472-1.132l5.659-5.659c0.283-0.283,0.755-0.472,1.132-0.472c0.472,0,0.849,0.189,1.132,0.472
			c0.283,0.283,0.472,0.754,0.472,1.132s-0.189,0.849-0.472,1.132l-5.659,5.659C41.933,89.925,41.556,90.019,41.084,90.019z"/>
		<path class="st3" d="M46.743,81.625c0.283,0,0.566,0.094,0.755,0.283c0.189,0.189,0.283,0.472,0.283,0.754
			c0,0.283-0.094,0.566-0.283,0.754l-5.659,5.659c-0.189,0.189-0.472,0.283-0.755,0.283s-0.566-0.094-0.755-0.283
			c-0.189-0.189-0.283-0.472-0.283-0.754c0-0.283,0.094-0.566,0.283-0.754l5.659-5.659C46.177,81.72,46.46,81.625,46.743,81.625
			 M46.743,80.494c-0.566,0-1.132,0.189-1.509,0.66l-5.659,5.659c-0.849,0.849-0.849,2.263,0,3.112
			c0.472,0.472,0.943,0.66,1.509,0.66c0.566,0,1.132-0.189,1.509-0.66l5.659-5.659c0.849-0.849,0.849-2.263,0-3.112
			C47.875,80.682,47.309,80.494,46.743,80.494L46.743,80.494z"/>
	</g>
	<g>
		<path class="st2" d="M101.821,90.019c-0.472,0-0.849-0.189-1.132-0.472l-5.659-5.659c-0.66-0.66-0.66-1.698,0-2.358
			c0.283-0.283,0.755-0.472,1.132-0.472c0.472,0,0.849,0.189,1.132,0.472l5.659,5.659c0.283,0.283,0.472,0.754,0.472,1.132
			c0,0.472-0.189,0.849-0.472,1.132C102.67,89.925,102.293,90.019,101.821,90.019z"/>
		<path class="st3" d="M96.163,81.625c0.283,0,0.566,0.094,0.755,0.283l5.659,5.659c0.189,0.189,0.283,0.472,0.283,0.754
			c0,0.283-0.094,0.566-0.283,0.754c-0.189,0.189-0.472,0.283-0.755,0.283s-0.566-0.094-0.755-0.283l-5.659-5.659
			c-0.189-0.189-0.283-0.472-0.283-0.754c0-0.283,0.094-0.566,0.283-0.754C95.597,81.72,95.88,81.625,96.163,81.625 M96.163,80.494
			c-0.566,0-1.132,0.189-1.509,0.66c-0.849,0.849-0.849,2.263,0,3.112l5.659,5.659c0.472,0.472,0.943,0.66,1.509,0.66
			s1.132-0.189,1.509-0.66c0.849-0.849,0.849-2.263,0-3.112l-5.659-5.659C97.294,80.682,96.729,80.494,96.163,80.494L96.163,80.494z
			"/>
	</g>
	<g>
		<path class="st2" d="M46.743,34.941c-0.472,0-0.849-0.189-1.132-0.472l-5.659-5.659c-0.66-0.66-0.66-1.698,0-2.358
			c0.283-0.283,0.755-0.472,1.132-0.472c0.472,0,0.849,0.189,1.132,0.472l5.659,5.659c0.283,0.283,0.472,0.754,0.472,1.132
			c0,0.472-0.189,0.849-0.472,1.132C47.686,34.846,47.215,34.941,46.743,34.941z"/>
		<path class="st3" d="M41.084,26.547c0.283,0,0.566,0.094,0.755,0.283l5.659,5.659c0.189,0.189,0.283,0.472,0.283,0.754
			c0,0.283-0.094,0.566-0.283,0.754c-0.189,0.189-0.472,0.283-0.755,0.283c-0.283,0-0.566-0.094-0.755-0.283l-5.659-5.659
			c-0.189-0.189-0.283-0.472-0.283-0.754c0-0.283,0.094-0.566,0.283-0.754S40.801,26.547,41.084,26.547 M41.084,25.415
			c-0.566,0-1.132,0.189-1.509,0.66c-0.849,0.849-0.849,2.264,0,3.112l5.659,5.659c0.472,0.472,0.943,0.66,1.509,0.66
			c0.566,0,1.132-0.189,1.509-0.66c0.849-0.849,0.849-2.264,0-3.112l-5.659-5.659C42.216,25.698,41.65,25.415,41.084,25.415
			L41.084,25.415z"/>
	</g>
	<g>
		<path class="st2" d="M71.453,105.769c-0.943,0-1.603-0.754-1.603-1.603V93.037c0-0.943,0.755-1.603,1.603-1.603
			c0.943,0,1.603,0.754,1.603,1.603v11.129C73.15,105.015,72.396,105.769,71.453,105.769z"/>
		<path class="st3" d="M71.453,91.811c0.566,0,1.132,0.472,1.132,1.132v11.129c0,0.566-0.472,1.132-1.132,1.132
			c-0.566,0-1.132-0.472-1.132-1.132V92.943C70.415,92.283,70.887,91.811,71.453,91.811 M71.453,90.774
			c-1.226,0-2.169,0.943-2.169,2.169v11.129c0,1.226,0.943,2.169,2.169,2.169c1.226,0,2.169-0.943,2.169-2.169V92.943
			C73.622,91.717,72.679,90.774,71.453,90.774L71.453,90.774z"/>
	</g>
	<g>
		<path class="st2" d="M71.453,24.755c-0.943,0-1.603-0.754-1.603-1.603V12.023c0-0.943,0.755-1.603,1.603-1.603
			c0.943,0,1.603,0.754,1.603,1.603v11.129C73.15,24,72.396,24.755,71.453,24.755z"/>
		<path class="st3" d="M71.453,10.891c0.566,0,1.132,0.472,1.132,1.132v11.129c0,0.566-0.472,1.132-1.132,1.132
			c-0.566,0-1.132-0.472-1.132-1.132V12.023C70.415,11.363,70.887,10.891,71.453,10.891 M71.453,9.759
			c-1.226,0-2.169,0.943-2.169,2.169v11.129c0,1.226,0.943,2.169,2.169,2.169c1.226,0,2.169-0.943,2.169-2.169V11.928
			C73.622,10.702,72.679,9.759,71.453,9.759L71.453,9.759z"/>
	</g>
</g>
<g>
	<g>
		
			<radialGradient id="SVGID_2_" cx="-46.1858" cy="-14.0984" r="34.2915" gradientTransform="matrix(0.9582 0 0 0.9582 84.8794 50.1608)" gradientUnits="userSpaceOnUse">
			<stop  offset="0" style="stop-color:#D44445"/>
			<stop  offset="1" style="stop-color:#C11F1F"/>
		</radialGradient>
		<path class="st4" d="M18.942,64.089c-1.914,0-3.624-0.992-4.573-2.654s-0.937-3.638,0.035-5.287l21.104-35.831
			c0.957-1.625,2.653-2.594,4.539-2.594c1.885,0,3.582,0.97,4.539,2.594L65.69,56.15c0.971,1.648,0.984,3.625,0.035,5.286
			s-2.659,2.654-4.573,2.654H18.942z"/>
		<path class="st122" d="M40.047,18.724c1.426,0,2.852,0.701,3.677,2.102l21.104,35.831c1.676,2.845-0.375,6.433-3.677,6.433H18.942
			c-3.301,0-5.352-3.588-3.677-6.433L36.37,20.826C37.195,19.425,38.621,18.724,40.047,18.724 M40.047,16.724
			c-2.243,0-4.262,1.154-5.4,3.087L13.542,55.642c-1.156,1.962-1.171,4.314-0.041,6.291c1.13,1.977,3.164,3.157,5.441,3.157h42.208
			c2.277,0,4.311-1.18,5.441-3.157c1.13-1.977,1.115-4.329-0.041-6.291L45.447,19.811C44.309,17.878,42.29,16.724,40.047,16.724
			L40.047,16.724z"/>
	</g>
	<g>
		<path class="st122" d="M18.942,63.09h42.209c3.301,0,5.352-3.588,3.677-6.433L43.724,20.826c-1.65-2.802-5.703-2.802-7.354,0
			L15.266,56.657C13.59,59.501,15.641,63.09,18.942,63.09z"/>
		<radialGradient id="SVGID_3_" cx="40.0467" cy="40.9068" r="23.834" gradientUnits="userSpaceOnUse">
			<stop  offset="0" style="stop-color:#D44445"/>
			<stop  offset="1" style="stop-color:#C11F1F"/>
		</radialGradient>
		<path class="st6" d="M40.047,22.474c0.296,0,0.408,0.192,0.446,0.255L61.597,58.56c0.038,0.064,0.152,0.259,0.003,0.519
			c-0.149,0.261-0.375,0.261-0.449,0.261H18.942c-0.074,0-0.3,0-0.449-0.261s-0.034-0.455,0.003-0.519l21.104-35.831
			C39.638,22.666,39.751,22.474,40.047,22.474 M40.047,18.724c-1.426,0-2.852,0.701-3.677,2.102L15.266,56.657
			c-1.676,2.845,0.375,6.433,3.677,6.433h42.208c3.302,0,5.353-3.588,3.677-6.433L43.724,20.826
			C42.898,19.424,41.473,18.724,40.047,18.724L40.047,18.724z"/>
	</g>
	<path class="st137" d="M40.047,48.14c-0.811,0-1.467-0.657-1.467-1.467V34.236c0-0.81,0.657-1.467,1.467-1.467
		c0.811,0,1.467,0.657,1.467,1.467v12.437C41.514,47.483,40.857,48.14,40.047,48.14z"/>
	<circle class="st137" cx="40.047" cy="52.495" r="1.956"/>
</g>
</svg>
