<?xml version="1.0" encoding="utf-8"?>
<!-- Generator: Adobe Illustrator 23.0.1, SVG Export Plug-In . SVG Version: 6.00 Build 0)  -->
<svg version="1.1" id="Ebene_2" xmlns="http://www.w3.org/2000/svg" xmlns:xlink="http://www.w3.org/1999/xlink" x="0px" y="0px"
	 viewBox="0 0 143 122" style="enable-background:new 0 0 143 122;" xml:space="preserve">
<style type="text/css">
	.st0{fill:url(#SVGID_1_);}
	.st1{fill:#F7B82C;}
	.st2{fill:#F7B82D;}
	.st3{fill:#F5AE23;}
	.st4{fill:url(#SVGID_2_);}
	.st5{fill:#DADCDE;}
	.st6{fill:url(#SVGID_3_);}
	.st7{fill:#59B9E8;}
	.st8{fill:url(#SVGID_4_);}
	.st9{fill:url(#SVGID_5_);}
	.st10{fill:url(#SVGID_6_);}
	.st11{fill:url(#SVGID_7_);}
	.st12{fill:url(#SVGID_8_);}
	.st13{fill:url(#SVGID_9_);}
	.st14{fill:url(#SVGID_10_);}
	.st15{fill:url(#SVGID_11_);}
	.st16{fill:url(#SVGID_12_);}
	.st17{fill:url(#SVGID_13_);}
	.st18{fill:url(#SVGID_14_);}
	.st19{fill:url(#SVGID_15_);}
	.st20{fill:url(#SVGID_16_);}
	.st21{fill:#BEE2F1;}
	.st22{fill:url(#SVGID_17_);}
	.st23{fill:url(#SVGID_18_);}
	.st24{fill:#CBD9E7;}
	.st25{fill:#C3CFDA;}
	.st26{fill:url(#SVGID_19_);}
	.st27{fill:url(#SVGID_20_);}
	.st28{fill:url(#SVGID_21_);}
	.st29{fill:url(#SVGID_22_);}
	.st30{fill:url(#SVGID_23_);}
	.st31{fill:url(#SVGID_24_);}
	.st32{fill:url(#SVGID_25_);}
	.st33{fill:url(#SVGID_26_);}
	.st34{fill:url(#SVGID_27_);}
	.st35{fill:url(#SVGID_28_);}
	.st36{fill:url(#SVGID_29_);}
	.st37{fill:url(#SVGID_30_);}
	.st38{fill:url(#SVGID_31_);}
	.st39{fill:url(#SVGID_32_);}
	.st40{fill:url(#SVGID_33_);}
	.st41{fill:url(#SVGID_34_);}
	.st42{fill:url(#SVGID_35_);}
	.st43{fill:url(#SVGID_36_);}
	.st44{fill:url(#SVGID_37_);}
	.st45{fill:url(#SVGID_38_);}
	.st46{fill:url(#SVGID_39_);}
	.st47{fill:url(#SVGID_40_);}
	.st48{fill:url(#SVGID_41_);}
	.st49{fill:url(#SVGID_42_);}
	.st50{fill:url(#SVGID_43_);}
	.st51{fill:url(#SVGID_44_);}
	.st52{fill:url(#SVGID_45_);}
	.st53{fill:url(#SVGID_46_);}
	.st54{fill:url(#SVGID_47_);}
	.st55{fill:url(#SVGID_48_);}
	.st56{fill:url(#SVGID_49_);}
	.st57{fill:url(#SVGID_50_);}
	.st58{fill:url(#SVGID_51_);}
	.st59{fill:url(#SVGID_52_);}
	.st60{fill:url(#SVGID_53_);}
	.st61{fill:url(#SVGID_54_);}
	.st62{fill:url(#SVGID_55_);}
	.st63{fill:url(#SVGID_56_);}
	.st64{fill:url(#SVGID_57_);}
	.st65{fill:url(#SVGID_58_);}
	.st66{fill:url(#SVGID_59_);}
	.st67{fill:url(#SVGID_60_);}
	.st68{fill:url(#SVGID_61_);}
	.st69{fill:url(#SVGID_62_);}
	.st70{fill:url(#SVGID_63_);}
	.st71{fill:url(#SVGID_64_);}
	.st72{fill:url(#SVGID_65_);}
	.st73{fill:url(#SVGID_66_);}
	.st74{fill:url(#SVGID_67_);}
	.st75{fill:url(#SVGID_68_);}
	.st76{fill:url(#SVGID_69_);}
	.st77{fill:url(#SVGID_70_);}
	.st78{fill:url(#SVGID_71_);}
	.st79{fill:url(#SVGID_72_);}
	.st80{fill:url(#SVGID_73_);}
	.st81{fill:url(#SVGID_74_);}
	.st82{fill:url(#SVGID_75_);}
	.st83{fill:url(#SVGID_76_);}
	.st84{fill:url(#SVGID_77_);}
	.st85{fill:url(#SVGID_78_);}
	.st86{fill:url(#SVGID_79_);}
	.st87{fill:url(#SVGID_80_);}
	.st88{fill:url(#SVGID_81_);}
	.st89{fill:url(#SVGID_82_);}
	.st90{fill:url(#SVGID_83_);}
	.st91{fill:url(#SVGID_84_);}
	.st92{fill:url(#SVGID_85_);}
	.st93{fill:url(#SVGID_86_);}
	.st94{fill:url(#SVGID_87_);}
	.st95{fill:url(#SVGID_88_);}
	.st96{fill:url(#SVGID_89_);}
	.st97{fill:url(#SVGID_90_);}
	.st98{fill:url(#SVGID_91_);}
	.st99{fill:url(#SVGID_92_);}
	.st100{fill:url(#SVGID_93_);}
	.st101{fill:url(#SVGID_94_);}
	.st102{fill:url(#SVGID_95_);}
	.st103{fill:url(#SVGID_96_);}
	.st104{fill:url(#SVGID_97_);}
	.st105{fill:url(#SVGID_98_);}
	.st106{fill:url(#SVGID_99_);}
	.st107{fill:url(#SVGID_100_);}
	.st108{fill:url(#SVGID_101_);}
	.st109{fill:url(#SVGID_102_);}
	.st110{fill:url(#SVGID_103_);}
	.st111{fill:url(#SVGID_104_);}
	.st112{fill:url(#SVGID_105_);}
	.st113{fill:url(#SVGID_106_);}
	.st114{fill:url(#SVGID_107_);}
	.st115{fill:url(#SVGID_108_);}
	.st116{fill:url(#SVGID_109_);}
	.st117{fill:url(#SVGID_110_);}
	.st118{fill:url(#SVGID_111_);}
	.st119{fill:url(#SVGID_112_);}
	.st120{fill:url(#SVGID_113_);}
	.st121{fill:url(#SVGID_114_);}
	.st122{fill:#FFFFFF;}
	.st123{fill:url(#SVGID_115_);}
	.st124{fill:url(#SVGID_116_);}
	.st125{fill:url(#SVGID_117_);}
	.st126{fill:url(#SVGID_118_);}
	.st127{fill:url(#SVGID_119_);}
	.st128{fill:url(#SVGID_120_);}
	.st129{fill:url(#SVGID_121_);}
	.st130{fill:url(#SVGID_122_);}
	.st131{fill:url(#SVGID_123_);}
	.st132{fill:url(#SVGID_124_);}
	.st133{fill:url(#SVGID_125_);}
	.st134{fill:url(#SVGID_126_);}
	.st135{fill:url(#SVGID_127_);}
	.st136{fill:url(#SVGID_128_);}
	.st137{fill:#1D1D1B;stroke:#1D1D1B;stroke-width:0.5;stroke-miterlimit:10;}
	.st138{fill:url(#SVGID_129_);}
	.st139{fill:url(#SVGID_130_);}
	.st140{fill:url(#SVGID_131_);}
	.st141{fill:url(#SVGID_132_);}
	.st142{fill:url(#SVGID_133_);}
	.st143{fill:url(#SVGID_134_);}
	.st144{fill:url(#SVGID_135_);}
	.st145{fill:url(#SVGID_136_);}
	.st146{fill:url(#SVGID_137_);}
	.st147{fill:url(#SVGID_138_);}
	.st148{fill:url(#SVGID_139_);}
	.st149{fill:url(#SVGID_140_);}
	.st150{fill:url(#SVGID_141_);}
	.st151{fill:url(#SVGID_142_);}
	.st152{fill:url(#SVGID_143_);}
	.st153{fill:url(#SVGID_144_);}
	.st154{fill:url(#SVGID_145_);}
	.st155{fill:url(#SVGID_146_);}
	.st156{fill:url(#SVGID_147_);}
	.st157{fill:url(#SVGID_148_);}
	.st158{fill:url(#SVGID_149_);}
	.st159{fill:url(#SVGID_150_);}
	.st160{fill:url(#SVGID_151_);}
	.st161{fill:url(#SVGID_152_);}
	.st162{fill:url(#SVGID_153_);}
	.st163{fill:url(#SVGID_154_);}
	.st164{fill:url(#SVGID_155_);}
	.st165{fill:url(#SVGID_156_);}
	.st166{fill:url(#SVGID_157_);}
	.st167{fill:url(#SVGID_158_);}
	.st168{fill:url(#SVGID_159_);}
	.st169{fill:url(#SVGID_160_);}
	.st170{fill:url(#SVGID_161_);}
	.st171{fill:url(#SVGID_162_);}
	.st172{fill:url(#SVGID_163_);}
	.st173{fill:url(#SVGID_164_);}
	.st174{fill:url(#SVGID_165_);}
	.st175{fill:url(#SVGID_166_);}
	.st176{fill:url(#SVGID_167_);}
	.st177{fill:url(#SVGID_168_);}
	.st178{fill:url(#SVGID_169_);}
	.st179{fill:url(#SVGID_170_);}
	.st180{fill:url(#SVGID_171_);}
	.st181{fill:url(#SVGID_172_);}
	.st182{fill:url(#SVGID_173_);}
	.st183{fill:url(#SVGID_174_);}
	.st184{fill:url(#SVGID_175_);}
	.st185{fill:url(#SVGID_176_);}
	.st186{fill:url(#SVGID_177_);}
	.st187{fill:url(#SVGID_178_);}
	.st188{fill:url(#SVGID_179_);}
	.st189{fill:url(#SVGID_180_);}
	.st190{fill:url(#SVGID_181_);}
	.st191{fill:url(#SVGID_182_);}
	.st192{fill:url(#SVGID_183_);}
	.st193{fill:url(#SVGID_184_);}
	.st194{fill:url(#SVGID_185_);}
	.st195{fill:url(#SVGID_186_);}
	.st196{fill:url(#SVGID_187_);}
	.st197{fill:url(#SVGID_188_);}
	.st198{fill:url(#SVGID_189_);}
	.st199{fill:url(#SVGID_190_);}
	.st200{fill:url(#SVGID_191_);}
	.st201{fill:url(#SVGID_192_);}
	.st202{fill:url(#SVGID_193_);}
	.st203{fill:url(#SVGID_194_);}
	.st204{fill:url(#SVGID_195_);}
	.st205{fill:url(#SVGID_196_);}
	.st206{fill:url(#SVGID_197_);}
	.st207{fill:url(#SVGID_198_);}
	.st208{fill:url(#SVGID_199_);}
	.st209{fill:url(#SVGID_200_);}
	.st210{fill:url(#SVGID_201_);}
	.st211{fill:url(#SVGID_202_);}
	.st212{fill:url(#SVGID_203_);}
	.st213{fill:url(#SVGID_204_);}
	.st214{fill:url(#SVGID_205_);}
	.st215{fill:url(#SVGID_206_);}
	.st216{fill:url(#SVGID_207_);}
	.st217{fill:url(#SVGID_208_);}
	.st218{fill:url(#SVGID_209_);}
	.st219{fill:url(#SVGID_210_);}
	.st220{fill:url(#SVGID_211_);}
	.st221{fill:url(#SVGID_212_);}
	.st222{fill:url(#SVGID_213_);}
	.st223{fill:url(#SVGID_214_);}
	.st224{fill:url(#SVGID_215_);}
	.st225{fill:url(#SVGID_216_);}
	.st226{fill:url(#SVGID_217_);}
	.st227{fill:url(#SVGID_218_);}
	.st228{fill:url(#SVGID_219_);}
	.st229{fill:url(#SVGID_220_);}
	.st230{fill:url(#SVGID_221_);}
	.st231{fill:url(#SVGID_222_);}
	.st232{fill:url(#SVGID_223_);}
	.st233{fill:url(#SVGID_224_);}
	.st234{fill:url(#SVGID_225_);}
	.st235{fill:url(#SVGID_226_);}
	.st236{fill:url(#SVGID_227_);}
	.st237{fill:url(#SVGID_228_);}
	.st238{fill:url(#SVGID_229_);}
	.st239{fill:url(#SVGID_230_);}
	.st240{fill:url(#SVGID_231_);}
	.st241{fill:url(#SVGID_232_);}
	.st242{fill:url(#SVGID_233_);}
	.st243{fill:url(#SVGID_234_);}
	.st244{fill:url(#SVGID_235_);}
	.st245{fill:url(#SVGID_236_);}
	.st246{fill:url(#SVGID_237_);}
	.st247{fill:url(#SVGID_238_);}
	.st248{fill:url(#SVGID_239_);}
	.st249{fill:url(#SVGID_240_);}
	.st250{fill:url(#SVGID_241_);}
	.st251{fill:url(#SVGID_242_);}
	.st252{fill:url(#SVGID_243_);}
	.st253{fill:url(#SVGID_244_);}
	.st254{fill:url(#SVGID_245_);}
	.st255{fill:url(#SVGID_246_);}
	.st256{fill:url(#SVGID_247_);}
	.st257{fill:url(#SVGID_248_);}
	.st258{fill:url(#SVGID_249_);}
	.st259{fill:url(#SVGID_250_);}
	.st260{fill:url(#SVGID_251_);}
	.st261{fill:url(#SVGID_252_);}
	.st262{fill:url(#SVGID_253_);}
	.st263{fill:url(#SVGID_254_);}
	.st264{fill:url(#SVGID_255_);}
	.st265{fill:url(#SVGID_256_);}
	.st266{fill:url(#SVGID_257_);}
	.st267{fill:url(#SVGID_258_);}
	.st268{fill:url(#SVGID_259_);}
	.st269{fill:url(#SVGID_260_);}
	.st270{fill:url(#SVGID_261_);}
	.st271{fill:url(#SVGID_262_);}
	.st272{fill:url(#SVGID_263_);}
	.st273{fill:url(#SVGID_264_);}
	.st274{fill:url(#SVGID_265_);}
	.st275{fill:url(#SVGID_266_);}
	.st276{fill:url(#SVGID_267_);}
	.st277{fill:url(#SVGID_268_);}
	.st278{fill:url(#SVGID_269_);}
	.st279{fill:url(#SVGID_270_);}
	.st280{fill:url(#SVGID_271_);}
	.st281{fill:url(#SVGID_272_);}
	.st282{fill:url(#SVGID_273_);}
	.st283{fill:url(#SVGID_274_);}
	.st284{fill:url(#SVGID_275_);}
</style>
<g>
	<g>
		<g>
			<path class="st1" d="M87.665,116.405c-0.187,0.002-0.468-0.09-0.562-0.275c-0.095-0.186-0.19-0.372-0.098-0.559l2.251-10.103
				c0.089-0.561-0.009-1.12-0.386-1.491c-0.377-0.464-0.846-0.647-1.406-0.642l-9.056,0.074c-0.187,0.002-0.468-0.09-0.562-0.275
				c-0.095-0.186-0.191-0.465-0.099-0.653l8.317-21.917l0.549-1.405l10.457-0.086L96.61,80.01l-5.583,13.678
				c-0.182,0.562-0.177,1.215,0.201,1.679s0.846,0.74,1.5,0.735l7.282-0.06c0.28-0.002,0.468,0.09,0.657,0.368
				c0.095,0.186,0.097,0.466,0.006,0.747l-12.45,18.87C88.038,116.308,87.852,116.403,87.665,116.405z"/>
			<path class="st3" d="M96.326,79.545l-0.092,0.188l-5.583,13.678c-0.274,0.749-0.174,1.495,0.204,2.146
				c0.472,0.65,1.129,1.018,1.969,1.011l7.282-0.06c0,0,0.093-0.001,0.094,0.093c0.001,0.093,0.001,0.093,0.002,0.187l-12.45,18.87
				c-0.093,0.094-0.093,0.094-0.093,0.094c-0.093,0.001-0.093,0.001-0.188-0.092c0,0,0,0-0.001-0.093l2.251-10.103
				c0.181-0.655-0.012-1.4-0.483-1.957c-0.471-0.556-1.127-0.831-1.781-0.826l-9.056,0.074c-0.093,0.001-0.093,0.001-0.094-0.093
				s-0.001-0.093-0.002-0.187l8.317-21.917l0.365-1.03l9.337-0.077 M97.998,78.504L86.328,78.6l-0.64,1.686l-8.317,21.917
				c-0.273,0.843,0.294,1.678,1.134,1.671l9.056-0.074c0.84-0.007,1.407,0.735,1.226,1.484l-2.251,10.103
				c-0.18,0.842,0.479,1.49,1.226,1.484c0.373-0.003,0.745-0.193,1.022-0.569l12.45-18.87c0.553-0.845-0.016-1.961-1.043-1.952
				l-7.282,0.06c-0.84,0.007-1.501-0.921-1.134-1.671l5.583-13.678L97.998,78.504L97.998,78.504z"/>
		</g>
		<g>
			<path class="st1" d="M56.41,112.201c-0.187,0.002-0.468-0.09-0.562-0.275c-0.095-0.186-0.19-0.372-0.098-0.559l2.251-10.103
				c0.089-0.561-0.009-1.12-0.386-1.491c-0.377-0.464-0.846-0.647-1.406-0.642l-9.056,0.074c-0.187,0.002-0.468-0.09-0.562-0.275
				c-0.095-0.186-0.191-0.465-0.099-0.653l8.317-21.917l0.549-1.405l10.457-0.086l-0.459,0.937l-5.583,13.678
				c-0.182,0.562-0.177,1.215,0.201,1.679c0.377,0.464,0.846,0.74,1.5,0.735l7.282-0.06c0.28-0.002,0.468,0.09,0.657,0.368
				c0.095,0.186,0.097,0.466,0.006,0.747l-12.45,18.87C56.782,112.105,56.596,112.2,56.41,112.201z"/>
			<path class="st3" d="M65.071,75.342l-0.092,0.188l-5.583,13.678c-0.274,0.749-0.174,1.495,0.204,2.146
				c0.472,0.65,1.129,1.018,1.969,1.011l7.282-0.06c0,0,0.093-0.001,0.094,0.093c0.001,0.093,0.001,0.093,0.002,0.187l-12.45,18.87
				c-0.093,0.094-0.093,0.094-0.093,0.094c-0.093,0.001-0.093,0.001-0.188-0.092c0,0,0,0-0.001-0.093l2.251-10.103
				c0.181-0.655-0.012-1.4-0.483-1.957c-0.471-0.556-1.127-0.831-1.781-0.826l-9.056,0.074c-0.093,0.001-0.093,0.001-0.094-0.093
				c-0.001-0.093-0.001-0.093-0.002-0.187l8.317-21.917l0.365-1.03l9.337-0.077 M66.743,74.301l-11.671,0.096l-0.64,1.686L46.115,98
				c-0.273,0.843,0.294,1.678,1.134,1.671l9.056-0.074c0.84-0.007,1.407,0.735,1.226,1.484l-2.251,10.103
				c-0.18,0.842,0.479,1.49,1.226,1.484c0.373-0.003,0.745-0.193,1.022-0.569l12.45-18.87c0.553-0.845-0.016-1.961-1.043-1.952
				l-7.282,0.06c-0.84,0.007-1.501-0.921-1.134-1.671l5.583-13.678L66.743,74.301L66.743,74.301z"/>
		</g>
		<g>
			<g>
				
					<radialGradient id="SVGID_1_" cx="44.034" cy="2975.1807" r="75.8259" gradientTransform="matrix(1 -0.0082 -0.0082 -1 24.3101 3027.3259)" gradientUnits="userSpaceOnUse">
					<stop  offset="0" style="stop-color:#FBFBFB"/>
					<stop  offset="1" style="stop-color:#E7E7E7"/>
				</radialGradient>
				<path class="st0" d="M43.703,86.327c-8.403,0.069-16.006-4.817-19.431-12.539c-1.236-2.698-1.819-5.494-1.843-8.388
					c-0.096-11.671,9.349-21.272,20.926-21.367c1.214-0.01,2.522,0.073,3.738,0.343l0.468,0.09l0.183-0.468
					c0.367-0.843,0.732-1.78,1.284-2.812c0.184-0.375,0.367-0.75,0.644-1.126l0.184-0.282c0.829-1.407,1.659-2.628,2.584-3.756
					l0.092-0.188c0.185-0.188,0.37-0.47,0.555-0.658c2.776-3.104,6.024-5.465,9.745-7.176c3.628-1.617,7.356-2.488,11.184-2.52
					c9.897-0.081,18.901,4.887,24.199,13.34l0.189,0.279l0.373-0.096c1.305-0.291,2.518-0.394,3.825-0.405
					c12.978-0.107,23.615,10.357,23.721,23.335c0.107,12.978-10.357,23.615-23.335,23.721L43.701,86.14L43.703,86.327z"/>
			</g>
			<g>
				<path class="st5" d="M73.928,26.227c9.71-0.08,18.527,4.796,23.73,13.064l0.379,0.651l0.746-0.099
					c1.305-0.291,2.518-0.394,3.638-0.403c12.698-0.104,23.052,10.082,23.157,22.779c0.104,12.698-10.081,23.052-22.779,23.157
					l-59.194,0.486c-8.216,0.067-15.632-4.727-18.962-12.263c-1.142-2.605-1.725-5.401-1.748-8.202
					c-0.094-11.391,9.074-20.71,20.464-20.803c1.214-0.01,2.428,0.073,3.644,0.344l0.935,0.179l0.367-0.843
					c0.367-0.843,0.732-1.78,1.191-2.718c0.184-0.375,0.368-0.657,0.552-1.032l0.184-0.282c0.83-1.314,1.659-2.628,2.584-3.756
					l0.092-0.188c0.185-0.188,0.37-0.47,0.555-0.658c2.683-3.01,5.932-5.371,9.652-7.082C66.653,27.127,70.287,26.257,73.928,26.227
					 M73.92,25.2c-3.828,0.031-7.649,0.903-11.371,2.521c-3.814,1.712-7.155,4.167-10.024,7.272c-0.185,0.188-0.37,0.47-0.555,0.658
					l-0.092,0.188c-0.924,1.128-1.847,2.443-2.676,3.85l-0.091,0.281c-0.184,0.375-0.461,0.751-0.644,1.126
					c-0.459,0.937-0.918,1.875-1.284,2.812c-1.309-0.269-2.617-0.352-3.924-0.341c-11.951,0.098-21.581,9.888-21.483,21.839
					c0.025,2.988,0.702,5.877,1.845,8.668c3.52,7.908,11.405,12.978,19.994,12.908l59.194-0.486
					c13.258-0.109,23.999-11.028,23.89-24.286c-0.109-13.258-11.028-23.999-24.286-23.89c-1.214,0.01-2.52,0.114-3.918,0.406
					C93.289,30.176,84.097,25.116,73.92,25.2L73.92,25.2z"/>
			</g>
		</g>
	</g>
	<g>
		<g>
			
				<radialGradient id="SVGID_2_" cx="261.316" cy="-14.0986" r="34.2916" gradientTransform="matrix(0.9582 -0.0079 0.0079 0.9582 -214.9019 52.486)" gradientUnits="userSpaceOnUse">
				<stop  offset="0" style="stop-color:#D44445"/>
				<stop  offset="1" style="stop-color:#C11F1F"/>
			</radialGradient>
			<path class="st4" d="M13.875,64.535c-1.902,0-3.607-0.985-4.56-2.635c-0.951-1.65-0.951-3.619,0.002-5.268l20.81-36.003
				c0.952-1.647,2.657-2.631,4.561-2.631c1.867,0,3.556,0.956,4.517,2.557l21.397,35.656c0.985,1.641,1.015,3.618,0.078,5.287
				c-0.936,1.669-2.638,2.675-4.552,2.691L13.875,64.535z"/>
			<path class="st122" d="M34.688,18.998c1.414,0,2.829,0.689,3.658,2.071l21.398,35.657c1.699,2.831-0.323,6.436-3.624,6.463
				l-42.207,0.347c-0.012,0-0.025,0-0.037,0c-3.28,0-5.338-3.555-3.692-6.403L30.993,21.13
				C31.814,19.71,33.251,18.998,34.688,18.998 M34.688,16.998c-2.265,0-4.294,1.171-5.427,3.131L8.452,56.132
				C7.318,58.094,7.317,60.438,8.45,62.4c1.133,1.963,3.162,3.135,5.427,3.135h0.009l0.046,0l42.207-0.347
				c2.277-0.019,4.302-1.216,5.415-3.202c1.114-1.986,1.079-4.338-0.093-6.29L40.062,20.04
				C38.918,18.135,36.91,16.998,34.688,16.998L34.688,16.998z"/>
		</g>
		<g>
			<path class="st122" d="M13.914,63.535l42.207-0.347c3.301-0.027,5.323-3.632,3.624-6.463L38.347,21.069
				c-1.673-2.788-5.726-2.755-7.353,0.06L10.184,57.133C8.532,59.991,10.612,63.563,13.914,63.535z"/>
			<radialGradient id="SVGID_3_" cx="34.9822" cy="41.2667" r="23.8737" gradientUnits="userSpaceOnUse">
				<stop  offset="0" style="stop-color:#D44445"/>
				<stop  offset="1" style="stop-color:#C11F1F"/>
			</radialGradient>
			<path class="st6" d="M34.688,22.748c0.292,0,0.406,0.189,0.443,0.251l21.398,35.657c0.038,0.064,0.154,0.257,0.008,0.519
				c-0.147,0.262-0.373,0.264-0.447,0.264l-42.214,0.347c-0.073,0-0.297,0-0.446-0.259c-0.149-0.258-0.037-0.453,0-0.517
				l20.81-36.003C34.277,22.942,34.389,22.748,34.688,22.748 M34.688,18.998c-1.438,0-2.875,0.712-3.695,2.132L10.184,57.133
				c-1.646,2.848,0.413,6.403,3.692,6.403c0.012,0,0.025,0,0.037,0l42.207-0.347c3.301-0.027,5.323-3.632,3.624-6.463L38.347,21.069
				C37.517,19.687,36.102,18.998,34.688,18.998L34.688,18.998z"/>
		</g>
		<path class="st137" d="M34.894,48.413c-0.811,0.007-1.473-0.645-1.479-1.455l-0.102-12.436c-0.007-0.81,0.645-1.473,1.455-1.479
			c0.811-0.007,1.473,0.645,1.479,1.455l0.102,12.436C36.356,47.744,35.705,48.406,34.894,48.413z"/>
		<circle class="st137" cx="34.93" cy="52.768" r="1.956"/>
	</g>
</g>
</svg>
