<?xml version="1.0" encoding="utf-8"?>
<!-- Generator: Adobe Illustrator 23.0.1, SVG Export Plug-In . SVG Version: 6.00 Build 0)  -->
<svg version="1.1" id="Ebene_2" xmlns="http://www.w3.org/2000/svg" xmlns:xlink="http://www.w3.org/1999/xlink" x="0px" y="0px"
	 viewBox="0 0 143 122" style="enable-background:new 0 0 143 122;" xml:space="preserve">
<style type="text/css">
	.st0{fill:url(#SVGID_1_);}
	.st1{fill:#F7B82C;}
	.st2{fill:#F7B82D;}
	.st3{fill:#F5AE23;}
	.st4{fill:url(#SVGID_2_);}
	.st5{fill:#DADCDE;}
	.st6{fill:url(#SVGID_3_);}
	.st7{fill:#59B9E8;}
	.st8{fill:url(#SVGID_4_);}
	.st9{fill:url(#SVGID_5_);}
	.st10{fill:url(#SVGID_6_);}
	.st11{fill:url(#SVGID_7_);}
	.st12{fill:url(#SVGID_8_);}
	.st13{fill:url(#SVGID_9_);}
	.st14{fill:url(#SVGID_10_);}
	.st15{fill:url(#SVGID_11_);}
	.st16{fill:url(#SVGID_12_);}
	.st17{fill:url(#SVGID_13_);}
	.st18{fill:url(#SVGID_14_);}
	.st19{fill:url(#SVGID_15_);}
	.st20{fill:url(#SVGID_16_);}
	.st21{fill:#BEE2F1;}
	.st22{fill:url(#SVGID_17_);}
	.st23{fill:url(#SVGID_18_);}
	.st24{fill:#CBD9E7;}
	.st25{fill:#C3CFDA;}
	.st26{fill:url(#SVGID_19_);}
	.st27{fill:url(#SVGID_20_);}
	.st28{fill:url(#SVGID_21_);}
	.st29{fill:url(#SVGID_22_);}
	.st30{fill:url(#SVGID_23_);}
	.st31{fill:url(#SVGID_24_);}
	.st32{fill:url(#SVGID_25_);}
	.st33{fill:url(#SVGID_26_);}
	.st34{fill:url(#SVGID_27_);}
	.st35{fill:url(#SVGID_28_);}
	.st36{fill:url(#SVGID_29_);}
	.st37{fill:url(#SVGID_30_);}
	.st38{fill:url(#SVGID_31_);}
	.st39{fill:url(#SVGID_32_);}
	.st40{fill:url(#SVGID_33_);}
	.st41{fill:url(#SVGID_34_);}
	.st42{fill:url(#SVGID_35_);}
	.st43{fill:url(#SVGID_36_);}
	.st44{fill:url(#SVGID_37_);}
	.st45{fill:url(#SVGID_38_);}
	.st46{fill:url(#SVGID_39_);}
	.st47{fill:url(#SVGID_40_);}
	.st48{fill:url(#SVGID_41_);}
	.st49{fill:url(#SVGID_42_);}
	.st50{fill:url(#SVGID_43_);}
	.st51{fill:url(#SVGID_44_);}
	.st52{fill:url(#SVGID_45_);}
	.st53{fill:url(#SVGID_46_);}
	.st54{fill:url(#SVGID_47_);}
	.st55{fill:url(#SVGID_48_);}
	.st56{fill:url(#SVGID_49_);}
	.st57{fill:url(#SVGID_50_);}
	.st58{fill:url(#SVGID_51_);}
	.st59{fill:url(#SVGID_52_);}
	.st60{fill:url(#SVGID_53_);}
	.st61{fill:url(#SVGID_54_);}
	.st62{fill:url(#SVGID_55_);}
	.st63{fill:url(#SVGID_56_);}
	.st64{fill:url(#SVGID_57_);}
	.st65{fill:url(#SVGID_58_);}
	.st66{fill:url(#SVGID_59_);}
	.st67{fill:url(#SVGID_60_);}
	.st68{fill:url(#SVGID_61_);}
	.st69{fill:url(#SVGID_62_);}
	.st70{fill:url(#SVGID_63_);}
	.st71{fill:url(#SVGID_64_);}
	.st72{fill:url(#SVGID_65_);}
	.st73{fill:url(#SVGID_66_);}
	.st74{fill:url(#SVGID_67_);}
	.st75{fill:url(#SVGID_68_);}
	.st76{fill:url(#SVGID_69_);}
	.st77{fill:url(#SVGID_70_);}
	.st78{fill:url(#SVGID_71_);}
	.st79{fill:url(#SVGID_72_);}
	.st80{fill:url(#SVGID_73_);}
	.st81{fill:url(#SVGID_74_);}
	.st82{fill:url(#SVGID_75_);}
	.st83{fill:url(#SVGID_76_);}
	.st84{fill:url(#SVGID_77_);}
	.st85{fill:url(#SVGID_78_);}
	.st86{fill:url(#SVGID_79_);}
	.st87{fill:url(#SVGID_80_);}
	.st88{fill:url(#SVGID_81_);}
	.st89{fill:url(#SVGID_82_);}
	.st90{fill:url(#SVGID_83_);}
	.st91{fill:url(#SVGID_84_);}
	.st92{fill:url(#SVGID_85_);}
	.st93{fill:url(#SVGID_86_);}
	.st94{fill:url(#SVGID_87_);}
	.st95{fill:url(#SVGID_88_);}
	.st96{fill:url(#SVGID_89_);}
	.st97{fill:url(#SVGID_90_);}
	.st98{fill:url(#SVGID_91_);}
	.st99{fill:url(#SVGID_92_);}
	.st100{fill:url(#SVGID_93_);}
	.st101{fill:url(#SVGID_94_);}
	.st102{fill:url(#SVGID_95_);}
	.st103{fill:url(#SVGID_96_);}
	.st104{fill:url(#SVGID_97_);}
	.st105{fill:url(#SVGID_98_);}
	.st106{fill:url(#SVGID_99_);}
	.st107{fill:url(#SVGID_100_);}
	.st108{fill:url(#SVGID_101_);}
	.st109{fill:url(#SVGID_102_);}
	.st110{fill:url(#SVGID_103_);}
	.st111{fill:url(#SVGID_104_);}
	.st112{fill:url(#SVGID_105_);}
	.st113{fill:url(#SVGID_106_);}
	.st114{fill:url(#SVGID_107_);}
	.st115{fill:url(#SVGID_108_);}
	.st116{fill:url(#SVGID_109_);}
	.st117{fill:url(#SVGID_110_);}
	.st118{fill:url(#SVGID_111_);}
	.st119{fill:url(#SVGID_112_);}
	.st120{fill:url(#SVGID_113_);}
	.st121{fill:url(#SVGID_114_);}
	.st122{fill:#FFFFFF;}
	.st123{fill:url(#SVGID_115_);}
	.st124{fill:url(#SVGID_116_);}
	.st125{fill:url(#SVGID_117_);}
	.st126{fill:url(#SVGID_118_);}
	.st127{fill:url(#SVGID_119_);}
	.st128{fill:url(#SVGID_120_);}
	.st129{fill:url(#SVGID_121_);}
	.st130{fill:url(#SVGID_122_);}
	.st131{fill:url(#SVGID_123_);}
	.st132{fill:url(#SVGID_124_);}
	.st133{fill:url(#SVGID_125_);}
	.st134{fill:url(#SVGID_126_);}
	.st135{fill:url(#SVGID_127_);}
	.st136{fill:url(#SVGID_128_);}
	.st137{fill:#1D1D1B;stroke:#1D1D1B;stroke-width:0.5;stroke-miterlimit:10;}
	.st138{fill:url(#SVGID_129_);}
	.st139{fill:url(#SVGID_130_);}
	.st140{fill:url(#SVGID_131_);}
	.st141{fill:url(#SVGID_132_);}
	.st142{fill:url(#SVGID_133_);}
	.st143{fill:url(#SVGID_134_);}
	.st144{fill:url(#SVGID_135_);}
	.st145{fill:url(#SVGID_136_);}
	.st146{fill:url(#SVGID_137_);}
	.st147{fill:url(#SVGID_138_);}
	.st148{fill:url(#SVGID_139_);}
	.st149{fill:url(#SVGID_140_);}
	.st150{fill:url(#SVGID_141_);}
	.st151{fill:url(#SVGID_142_);}
	.st152{fill:url(#SVGID_143_);}
	.st153{fill:url(#SVGID_144_);}
	.st154{fill:url(#SVGID_145_);}
	.st155{fill:url(#SVGID_146_);}
	.st156{fill:url(#SVGID_147_);}
	.st157{fill:url(#SVGID_148_);}
	.st158{fill:url(#SVGID_149_);}
	.st159{fill:url(#SVGID_150_);}
	.st160{fill:url(#SVGID_151_);}
	.st161{fill:url(#SVGID_152_);}
	.st162{fill:url(#SVGID_153_);}
	.st163{fill:url(#SVGID_154_);}
	.st164{fill:url(#SVGID_155_);}
	.st165{fill:url(#SVGID_156_);}
	.st166{fill:url(#SVGID_157_);}
	.st167{fill:url(#SVGID_158_);}
	.st168{fill:url(#SVGID_159_);}
	.st169{fill:url(#SVGID_160_);}
	.st170{fill:url(#SVGID_161_);}
	.st171{fill:url(#SVGID_162_);}
	.st172{fill:url(#SVGID_163_);}
	.st173{fill:url(#SVGID_164_);}
	.st174{fill:url(#SVGID_165_);}
	.st175{fill:url(#SVGID_166_);}
	.st176{fill:url(#SVGID_167_);}
	.st177{fill:url(#SVGID_168_);}
	.st178{fill:url(#SVGID_169_);}
	.st179{fill:url(#SVGID_170_);}
	.st180{fill:url(#SVGID_171_);}
	.st181{fill:url(#SVGID_172_);}
	.st182{fill:url(#SVGID_173_);}
	.st183{fill:url(#SVGID_174_);}
	.st184{fill:url(#SVGID_175_);}
	.st185{fill:url(#SVGID_176_);}
	.st186{fill:url(#SVGID_177_);}
	.st187{fill:url(#SVGID_178_);}
	.st188{fill:url(#SVGID_179_);}
	.st189{fill:url(#SVGID_180_);}
	.st190{fill:url(#SVGID_181_);}
	.st191{fill:url(#SVGID_182_);}
	.st192{fill:url(#SVGID_183_);}
	.st193{fill:url(#SVGID_184_);}
	.st194{fill:url(#SVGID_185_);}
	.st195{fill:url(#SVGID_186_);}
	.st196{fill:url(#SVGID_187_);}
	.st197{fill:url(#SVGID_188_);}
	.st198{fill:url(#SVGID_189_);}
	.st199{fill:url(#SVGID_190_);}
	.st200{fill:url(#SVGID_191_);}
	.st201{fill:url(#SVGID_192_);}
	.st202{fill:url(#SVGID_193_);}
	.st203{fill:url(#SVGID_194_);}
	.st204{fill:url(#SVGID_195_);}
	.st205{fill:url(#SVGID_196_);}
	.st206{fill:url(#SVGID_197_);}
	.st207{fill:url(#SVGID_198_);}
	.st208{fill:url(#SVGID_199_);}
	.st209{fill:url(#SVGID_200_);}
	.st210{fill:url(#SVGID_201_);}
	.st211{fill:url(#SVGID_202_);}
	.st212{fill:url(#SVGID_203_);}
	.st213{fill:url(#SVGID_204_);}
	.st214{fill:url(#SVGID_205_);}
	.st215{fill:url(#SVGID_206_);}
	.st216{fill:url(#SVGID_207_);}
	.st217{fill:url(#SVGID_208_);}
	.st218{fill:url(#SVGID_209_);}
	.st219{fill:url(#SVGID_210_);}
	.st220{fill:url(#SVGID_211_);}
	.st221{fill:url(#SVGID_212_);}
	.st222{fill:url(#SVGID_213_);}
	.st223{fill:url(#SVGID_214_);}
	.st224{fill:url(#SVGID_215_);}
	.st225{fill:url(#SVGID_216_);}
	.st226{fill:url(#SVGID_217_);}
	.st227{fill:url(#SVGID_218_);}
	.st228{fill:url(#SVGID_219_);}
	.st229{fill:url(#SVGID_220_);}
	.st230{fill:url(#SVGID_221_);}
	.st231{fill:url(#SVGID_222_);}
	.st232{fill:url(#SVGID_223_);}
	.st233{fill:url(#SVGID_224_);}
	.st234{fill:url(#SVGID_225_);}
	.st235{fill:url(#SVGID_226_);}
	.st236{fill:url(#SVGID_227_);}
	.st237{fill:url(#SVGID_228_);}
	.st238{fill:url(#SVGID_229_);}
	.st239{fill:url(#SVGID_230_);}
	.st240{fill:url(#SVGID_231_);}
	.st241{fill:url(#SVGID_232_);}
	.st242{fill:url(#SVGID_233_);}
	.st243{fill:url(#SVGID_234_);}
	.st244{fill:url(#SVGID_235_);}
	.st245{fill:url(#SVGID_236_);}
	.st246{fill:url(#SVGID_237_);}
	.st247{fill:url(#SVGID_238_);}
	.st248{fill:url(#SVGID_239_);}
	.st249{fill:url(#SVGID_240_);}
	.st250{fill:url(#SVGID_241_);}
	.st251{fill:url(#SVGID_242_);}
	.st252{fill:url(#SVGID_243_);}
	.st253{fill:url(#SVGID_244_);}
	.st254{fill:url(#SVGID_245_);}
	.st255{fill:url(#SVGID_246_);}
	.st256{fill:url(#SVGID_247_);}
	.st257{fill:url(#SVGID_248_);}
	.st258{fill:url(#SVGID_249_);}
	.st259{fill:url(#SVGID_250_);}
	.st260{fill:url(#SVGID_251_);}
	.st261{fill:url(#SVGID_252_);}
	.st262{fill:url(#SVGID_253_);}
	.st263{fill:url(#SVGID_254_);}
	.st264{fill:url(#SVGID_255_);}
	.st265{fill:url(#SVGID_256_);}
	.st266{fill:url(#SVGID_257_);}
	.st267{fill:url(#SVGID_258_);}
	.st268{fill:url(#SVGID_259_);}
	.st269{fill:url(#SVGID_260_);}
	.st270{fill:url(#SVGID_261_);}
	.st271{fill:url(#SVGID_262_);}
	.st272{fill:url(#SVGID_263_);}
	.st273{fill:url(#SVGID_264_);}
	.st274{fill:url(#SVGID_265_);}
	.st275{fill:url(#SVGID_266_);}
	.st276{fill:url(#SVGID_267_);}
	.st277{fill:url(#SVGID_268_);}
	.st278{fill:url(#SVGID_269_);}
	.st279{fill:url(#SVGID_270_);}
	.st280{fill:url(#SVGID_271_);}
	.st281{fill:url(#SVGID_272_);}
	.st282{fill:url(#SVGID_273_);}
	.st283{fill:url(#SVGID_274_);}
	.st284{fill:url(#SVGID_275_);}
</style>
<g>
	<g>
		
			<radialGradient id="SVGID_1_" cx="76.375" cy="2919.4409" r="9.1324" gradientTransform="matrix(1 0 0 -1 0 3026.8655)" gradientUnits="userSpaceOnUse">
			<stop  offset="0" style="stop-color:#71C6E4"/>
			<stop  offset="1" style="stop-color:#56C0EE"/>
		</radialGradient>
		<path class="st0" d="M73.737,119.609c-0.093,0-0.28,0-0.373-0.093c-0.84-0.187-1.401-1.12-1.214-1.961l5.229-21.101
			c0.187-0.747,0.84-1.214,1.587-1.214c0.093,0,0.28,0,0.373,0.093c0.84,0.187,1.401,1.12,1.214,1.961l-5.229,21.101
			C75.138,119.142,74.484,119.609,73.737,119.609z"/>
		<path class="st7" d="M78.966,95.8L78.966,95.8c0.093,0,0.187,0,0.28,0c0.56,0.187,0.934,0.747,0.84,1.307l-5.229,21.101
			c-0.093,0.467-0.56,0.84-1.027,0.84c-0.093,0-0.187,0-0.28,0c-0.56-0.187-0.934-0.747-0.84-1.307l5.229-21.101
			C78.032,96.08,78.499,95.8,78.966,95.8 M78.966,94.68c-0.934,0-1.867,0.654-2.147,1.681l-5.229,21.101
			c-0.28,1.12,0.467,2.334,1.587,2.614c0.187,0,0.373,0.093,0.56,0.093c0.934,0,1.867-0.654,2.147-1.681l5.229-21.101
			c0.28-1.12-0.467-2.334-1.587-2.614C79.339,94.68,79.152,94.68,78.966,94.68L78.966,94.68z"/>
	</g>
	<g>
		<g>
			<g>
				
					<radialGradient id="SVGID_2_" cx="64.17" cy="2984.655" r="31.8393" gradientTransform="matrix(1 0 0 -1 0.2615 3026.8992)" gradientUnits="userSpaceOnUse">
					<stop  offset="0" style="stop-color:#F9DA52"/>
					<stop  offset="1" style="stop-color:#F7B82C"/>
				</radialGradient>
				<circle class="st4" cx="64.077" cy="50.33" r="24.089"/>
				<path class="st1" d="M64.077,26.707c12.978,0,23.622,10.551,23.622,23.622c0,12.978-10.551,23.622-23.622,23.622
					c-12.978,0-23.622-10.551-23.622-23.622C40.548,37.351,51.099,26.707,64.077,26.707 M64.077,25.68
					c-13.632,0-24.649,11.111-24.649,24.649c0,13.632,11.111,24.649,24.649,24.649c13.632,0,24.649-11.111,24.649-24.649
					C88.82,36.698,77.709,25.68,64.077,25.68L64.077,25.68z"/>
			</g>
		</g>
		<g>
			<path class="st2" d="M39.428,27.921c-0.467,0-0.84-0.187-1.12-0.467l-7.843-7.843c-0.28-0.28-0.467-0.747-0.467-1.12
				s0.187-0.84,0.467-1.12c0.28-0.28,0.747-0.467,1.12-0.467s0.84,0.187,1.12,0.467l7.843,7.843c0.28,0.28,0.467,0.747,0.467,1.12
				c0,0.467-0.187,0.84-0.467,1.12C40.268,27.828,39.895,27.921,39.428,27.921z"/>
			<path class="st3" d="M31.585,17.464c0.28,0,0.56,0.093,0.747,0.28l7.843,7.843c0.187,0.187,0.28,0.467,0.28,0.747
				s-0.093,0.56-0.28,0.747c-0.187,0.187-0.467,0.28-0.747,0.28s-0.56-0.093-0.747-0.28l-7.843-7.843
				c-0.187-0.187-0.28-0.467-0.28-0.747s0.093-0.56,0.28-0.747C31.025,17.557,31.305,17.464,31.585,17.464 M31.585,16.344
				c-0.56,0-1.12,0.187-1.494,0.654c-0.84,0.84-0.84,2.241,0,3.081l7.843,7.843c0.467,0.467,0.934,0.654,1.494,0.654
				s1.12-0.187,1.494-0.654c0.84-0.84,0.84-2.241,0-3.081l-7.843-7.843C32.705,16.53,32.145,16.344,31.585,16.344L31.585,16.344z"/>
		</g>
		<g>
			<path class="st2" d="M21.314,52.384c-0.934,0-1.587-0.747-1.587-1.587c0-0.84,0.747-1.587,1.587-1.587h7.936
				c0.934,0,1.587,0.747,1.587,1.587c0,0.84-0.747,1.587-1.587,1.587H21.314z"/>
			<path class="st3" d="M29.251,49.676c0.56,0,1.12,0.467,1.12,1.12c0,0.56-0.467,1.12-1.12,1.12h-7.936
				c-0.56,0-1.12-0.467-1.12-1.12c0-0.56,0.467-1.12,1.12-1.12H29.251 M29.251,48.556h-7.936c-1.214,0-2.148,0.934-2.148,2.147
				s0.934,2.147,2.148,2.147h7.936c1.214,0,2.148-0.934,2.148-2.147C31.492,49.583,30.465,48.556,29.251,48.556L29.251,48.556z"/>
		</g>
		<g>
			<path class="st2" d="M63.89,17.837c-0.934,0-1.587-0.747-1.587-1.587V8.314c0-0.934,0.747-1.587,1.587-1.587
				c0.934,0,1.587,0.747,1.587,1.587v7.936C65.478,17.091,64.731,17.837,63.89,17.837z"/>
			<path class="st3" d="M63.89,7.193c0.56,0,1.12,0.467,1.12,1.12v7.936c0,0.56-0.467,1.12-1.12,1.12c-0.56,0-1.12-0.467-1.12-1.12
				V8.314C62.77,7.66,63.237,7.193,63.89,7.193 M63.89,6.073c-1.214,0-2.148,0.934-2.148,2.147v7.936
				c0,1.214,0.934,2.147,2.148,2.147s2.148-0.934,2.148-2.147V8.22C66.038,7.007,65.011,6.073,63.89,6.073L63.89,6.073z"/>
		</g>
		<g>
			<path class="st2" d="M31.585,84.689c-0.467,0-0.84-0.187-1.12-0.467c-0.654-0.654-0.654-1.681,0-2.334l7.843-7.843
				c0.28-0.28,0.747-0.467,1.12-0.467c0.467,0,0.84,0.187,1.12,0.467c0.28,0.28,0.467,0.747,0.467,1.12s-0.187,0.84-0.467,1.12
				l-7.843,7.843C32.425,84.503,32.052,84.689,31.585,84.689z"/>
			<path class="st3" d="M39.428,74.139c0.28,0,0.56,0.093,0.747,0.28c0.187,0.187,0.28,0.467,0.28,0.747
				c0,0.28-0.093,0.56-0.28,0.747l-7.843,7.843c-0.187,0.187-0.467,0.28-0.747,0.28c-0.28,0-0.56-0.093-0.747-0.28
				c-0.187-0.187-0.28-0.467-0.28-0.747c0-0.28,0.093-0.56,0.28-0.747l7.843-7.843C38.868,74.232,39.148,74.139,39.428,74.139
				 M39.428,73.018c-0.56,0-1.12,0.187-1.494,0.654l-7.843,7.843c-0.84,0.84-0.84,2.241,0,3.081
				c0.467,0.467,0.934,0.654,1.494,0.654c0.56,0,1.12-0.187,1.494-0.654l7.843-7.843c0.84-0.84,0.84-2.241,0-3.081
				C40.548,73.298,39.988,73.018,39.428,73.018L39.428,73.018z"/>
		</g>
		<g>
			<path class="st2" d="M88.26,27.921c-0.467,0-0.84-0.187-1.12-0.467c-0.28-0.28-0.467-0.747-0.467-1.12
				c0-0.467,0.187-0.84,0.467-1.12l7.843-7.843c0.28-0.28,0.747-0.467,1.12-0.467c0.467,0,0.84,0.187,1.12,0.467
				c0.28,0.28,0.467,0.747,0.467,1.12s-0.187,0.84-0.467,1.12l-7.843,7.843C89.1,27.828,88.726,27.921,88.26,27.921z"/>
			<path class="st3" d="M96.103,17.464c0.28,0,0.56,0.093,0.747,0.28c0.187,0.187,0.28,0.467,0.28,0.747s-0.093,0.56-0.28,0.747
				l-7.843,7.843c-0.187,0.187-0.467,0.28-0.747,0.28s-0.56-0.093-0.747-0.28c-0.187-0.187-0.28-0.467-0.28-0.747
				s0.093-0.56,0.28-0.747l7.843-7.843C95.542,17.557,95.822,17.464,96.103,17.464 M96.103,16.344c-0.56,0-1.12,0.187-1.494,0.654
				l-7.843,7.843c-0.84,0.84-0.84,2.241,0,3.081c0.467,0.467,0.934,0.654,1.494,0.654s1.12-0.187,1.494-0.654l7.843-7.843
				c0.84-0.84,0.84-2.241,0-3.081C97.223,16.53,96.663,16.344,96.103,16.344L96.103,16.344z"/>
		</g>
		<g>
			
				<radialGradient id="SVGID_3_" cx="67.6806" cy="2960.8562" r="56.5032" gradientTransform="matrix(1 0 0 -1 0 3026.8655)" gradientUnits="userSpaceOnUse">
				<stop  offset="0" style="stop-color:#FBFBFB"/>
				<stop  offset="1" style="stop-color:#E7E7E7"/>
			</radialGradient>
			<path class="st6" d="M67.718,89.006c-5.602,0-10.737-3.361-12.978-8.497c-0.747-1.774-1.214-3.735-1.214-5.602
				c0-7.843,6.349-14.192,14.099-14.192c0.84,0,1.681,0.093,2.521,0.28l0.373,0.093l0.187-0.373c0.28-0.56,0.56-1.214,0.84-1.867
				c0.093-0.28,0.28-0.467,0.373-0.747l0.093-0.187c0.56-0.934,1.12-1.774,1.774-2.521l0.093-0.093
				c0.093-0.187,0.28-0.28,0.373-0.467c1.867-2.054,4.108-3.641,6.629-4.762c2.428-1.027,4.949-1.587,7.469-1.587
				c6.629,0,12.698,3.361,16.153,9.057l0.187,0.28l0.28-0.093c0.84-0.187,1.681-0.28,2.521-0.28c8.683,0,15.779,7.096,15.779,15.779
				s-7.096,15.779-15.779,15.779L67.718,89.006L67.718,89.006z"/>
			<radialGradient id="SVGID_4_" cx="88.4931" cy="68.8383" r="28.9703" gradientUnits="userSpaceOnUse">
				<stop  offset="0" style="stop-color:#FBFBFB"/>
				<stop  offset="1" style="stop-color:#E7E7E7"/>
			</radialGradient>
			<path class="st8" d="M88.446,49.044c6.442,0,12.325,3.268,15.686,8.777l0.373,0.56l0.654-0.093
				c0.84-0.187,1.681-0.187,2.428-0.187c8.403,0,15.219,6.816,15.219,15.312c0,8.403-6.816,15.219-15.312,15.219H67.625
				c-5.415,0-10.364-3.268-12.511-8.216c-0.747-1.774-1.12-3.548-1.12-5.415c0-7.563,6.162-13.632,13.632-13.632
				c0.84,0,1.587,0.093,2.428,0.28l0.747,0.187l0.28-0.747c0.187-0.56,0.467-1.214,0.84-1.774c0.093-0.28,0.28-0.467,0.373-0.747
				l0.093-0.187c0.56-0.934,1.12-1.774,1.774-2.521l0.093-0.093c0.093-0.187,0.187-0.28,0.373-0.373
				c1.774-1.961,4.015-3.548,6.442-4.668C83.498,49.511,86.019,49.044,88.446,49.044 M88.446,48.111
				c-2.614,0-5.135,0.56-7.656,1.681c-2.614,1.12-4.855,2.801-6.722,4.855c-0.093,0.187-0.28,0.28-0.373,0.467l-0.093,0.093
				c-0.654,0.747-1.214,1.681-1.774,2.614l-0.093,0.187c-0.187,0.28-0.28,0.467-0.467,0.747c-0.373,0.654-0.654,1.307-0.84,1.867
				c-0.934-0.187-1.774-0.28-2.614-0.28c-8.03,0-14.659,6.536-14.659,14.659c0,1.961,0.373,3.921,1.214,5.789
				c2.334,5.322,7.563,8.777,13.352,8.777h39.868c8.963,0,16.246-7.283,16.246-16.246s-7.283-16.246-16.246-16.246
				c-0.84,0-1.681,0.093-2.614,0.28C101.425,51.565,95.262,48.111,88.446,48.111L88.446,48.111z"/>
		</g>
	</g>
</g>
<g>
	<g>
		
			<radialGradient id="SVGID_5_" cx="194.4614" cy="-16.6098" r="34.2917" gradientTransform="matrix(0.9582 0 0 0.9582 -153.4749 50.1608)" gradientUnits="userSpaceOnUse">
			<stop  offset="0" style="stop-color:#D44445"/>
			<stop  offset="1" style="stop-color:#C11F1F"/>
		</radialGradient>
		<path class="st9" d="M11.181,61.683c-1.914,0-3.623-0.992-4.573-2.654c-0.949-1.661-0.937-3.638,0.035-5.287l21.104-35.831
			c0.956-1.625,2.653-2.594,4.538-2.594s3.582,0.97,4.538,2.594l21.104,35.831c0.972,1.649,0.984,3.625,0.034,5.287
			s-2.659,2.653-4.573,2.653H11.181z"/>
		<path class="st122" d="M32.285,16.317c1.426,0,2.852,0.701,3.677,2.102L57.066,54.25c1.676,2.845-0.375,6.433-3.677,6.433H11.181
			c-3.301,0-5.352-3.588-3.677-6.433l21.104-35.831C29.434,17.018,30.859,16.317,32.285,16.317 M32.285,14.317
			c-2.243,0-4.262,1.154-5.4,3.087L5.781,53.235c-1.156,1.962-1.171,4.314-0.041,6.291c1.13,1.977,3.164,3.157,5.441,3.157h42.208
			c2.277,0,4.311-1.18,5.441-3.157c1.13-1.977,1.115-4.329-0.041-6.291L37.686,17.404C36.547,15.471,34.528,14.317,32.285,14.317
			L32.285,14.317z"/>
	</g>
	<g>
		<path class="st122" d="M11.181,60.683h42.209c3.301,0,5.352-3.588,3.677-6.433L35.962,18.419c-1.65-2.802-5.703-2.802-7.354,0
			L7.504,54.25C5.829,57.095,7.88,60.683,11.181,60.683z"/>
		<radialGradient id="SVGID_6_" cx="32.2853" cy="38.5003" r="23.834" gradientUnits="userSpaceOnUse">
			<stop  offset="0" style="stop-color:#D44445"/>
			<stop  offset="1" style="stop-color:#C11F1F"/>
		</radialGradient>
		<path class="st10" d="M32.285,20.067c0.296,0,0.408,0.192,0.446,0.255l21.104,35.831c0.038,0.064,0.152,0.259,0.003,0.519
			c-0.149,0.261-0.375,0.261-0.449,0.261H11.181c-0.074,0-0.3,0-0.449-0.261s-0.034-0.455,0.003-0.519L31.84,20.322
			C31.877,20.259,31.99,20.067,32.285,20.067 M32.285,16.317c-1.426,0-2.852,0.701-3.677,2.102L7.504,54.25
			c-1.676,2.845,0.375,6.433,3.677,6.433h42.208c3.302,0,5.353-3.588,3.677-6.433L35.962,18.419
			C35.137,17.018,33.711,16.317,32.285,16.317L32.285,16.317z"/>
	</g>
	<path class="st137" d="M32.285,45.733c-0.811,0-1.467-0.657-1.467-1.467V31.829c0-0.81,0.657-1.467,1.467-1.467
		c0.811,0,1.467,0.657,1.467,1.467v12.437C33.753,45.076,33.096,45.733,32.285,45.733z"/>
	<circle class="st137" cx="32.285" cy="50.088" r="1.956"/>
</g>
</svg>
