<?xml version="1.0" encoding="utf-8"?>
<!-- Generator: Adobe Illustrator 23.0.1, SVG Export Plug-In . SVG Version: 6.00 Build 0)  -->
<svg version="1.1" id="Ebene_2" xmlns="http://www.w3.org/2000/svg" xmlns:xlink="http://www.w3.org/1999/xlink" x="0px" y="0px"
	 viewBox="0 0 143 122" style="enable-background:new 0 0 143 122;" xml:space="preserve">
<style type="text/css">
	.st0{fill:url(#SVGID_1_);}
	.st1{fill:#F7B82C;}
	.st2{fill:#F7B82D;}
	.st3{fill:#F5AE23;}
	.st4{fill:url(#SVGID_2_);}
	.st5{fill:#DADCDE;}
	.st6{fill:url(#SVGID_3_);}
	.st7{fill:#59B9E8;}
	.st8{fill:url(#SVGID_4_);}
	.st9{fill:url(#SVGID_5_);}
	.st10{fill:url(#SVGID_6_);}
	.st11{fill:url(#SVGID_7_);}
	.st12{fill:url(#SVGID_8_);}
	.st13{fill:url(#SVGID_9_);}
	.st14{fill:url(#SVGID_10_);}
	.st15{fill:url(#SVGID_11_);}
	.st16{fill:url(#SVGID_12_);}
	.st17{fill:url(#SVGID_13_);}
	.st18{fill:url(#SVGID_14_);}
	.st19{fill:url(#SVGID_15_);}
	.st20{fill:url(#SVGID_16_);}
	.st21{fill:#BEE2F1;}
	.st22{fill:url(#SVGID_17_);}
	.st23{fill:url(#SVGID_18_);}
	.st24{fill:#CBD9E7;}
	.st25{fill:#C3CFDA;}
	.st26{fill:url(#SVGID_19_);}
	.st27{fill:url(#SVGID_20_);}
	.st28{fill:url(#SVGID_21_);}
	.st29{fill:url(#SVGID_22_);}
	.st30{fill:url(#SVGID_23_);}
	.st31{fill:url(#SVGID_24_);}
	.st32{fill:url(#SVGID_25_);}
	.st33{fill:url(#SVGID_26_);}
	.st34{fill:url(#SVGID_27_);}
	.st35{fill:url(#SVGID_28_);}
	.st36{fill:url(#SVGID_29_);}
	.st37{fill:url(#SVGID_30_);}
	.st38{fill:url(#SVGID_31_);}
	.st39{fill:url(#SVGID_32_);}
	.st40{fill:url(#SVGID_33_);}
	.st41{fill:url(#SVGID_34_);}
	.st42{fill:url(#SVGID_35_);}
	.st43{fill:url(#SVGID_36_);}
	.st44{fill:url(#SVGID_37_);}
	.st45{fill:url(#SVGID_38_);}
	.st46{fill:url(#SVGID_39_);}
	.st47{fill:url(#SVGID_40_);}
	.st48{fill:url(#SVGID_41_);}
	.st49{fill:url(#SVGID_42_);}
	.st50{fill:url(#SVGID_43_);}
	.st51{fill:url(#SVGID_44_);}
	.st52{fill:url(#SVGID_45_);}
	.st53{fill:url(#SVGID_46_);}
	.st54{fill:url(#SVGID_47_);}
	.st55{fill:url(#SVGID_48_);}
	.st56{fill:url(#SVGID_49_);}
	.st57{fill:url(#SVGID_50_);}
	.st58{fill:url(#SVGID_51_);}
	.st59{fill:url(#SVGID_52_);}
	.st60{fill:url(#SVGID_53_);}
	.st61{fill:url(#SVGID_54_);}
	.st62{fill:url(#SVGID_55_);}
	.st63{fill:url(#SVGID_56_);}
	.st64{fill:url(#SVGID_57_);}
	.st65{fill:url(#SVGID_58_);}
	.st66{fill:url(#SVGID_59_);}
	.st67{fill:url(#SVGID_60_);}
	.st68{fill:url(#SVGID_61_);}
	.st69{fill:url(#SVGID_62_);}
	.st70{fill:url(#SVGID_63_);}
	.st71{fill:url(#SVGID_64_);}
	.st72{fill:url(#SVGID_65_);}
	.st73{fill:url(#SVGID_66_);}
	.st74{fill:url(#SVGID_67_);}
	.st75{fill:url(#SVGID_68_);}
	.st76{fill:url(#SVGID_69_);}
	.st77{fill:url(#SVGID_70_);}
	.st78{fill:url(#SVGID_71_);}
	.st79{fill:url(#SVGID_72_);}
	.st80{fill:url(#SVGID_73_);}
	.st81{fill:url(#SVGID_74_);}
	.st82{fill:url(#SVGID_75_);}
	.st83{fill:url(#SVGID_76_);}
	.st84{fill:url(#SVGID_77_);}
	.st85{fill:url(#SVGID_78_);}
	.st86{fill:url(#SVGID_79_);}
	.st87{fill:url(#SVGID_80_);}
	.st88{fill:url(#SVGID_81_);}
	.st89{fill:url(#SVGID_82_);}
	.st90{fill:url(#SVGID_83_);}
	.st91{fill:url(#SVGID_84_);}
	.st92{fill:url(#SVGID_85_);}
	.st93{fill:url(#SVGID_86_);}
	.st94{fill:url(#SVGID_87_);}
	.st95{fill:url(#SVGID_88_);}
	.st96{fill:url(#SVGID_89_);}
	.st97{fill:url(#SVGID_90_);}
	.st98{fill:url(#SVGID_91_);}
	.st99{fill:url(#SVGID_92_);}
	.st100{fill:url(#SVGID_93_);}
	.st101{fill:url(#SVGID_94_);}
	.st102{fill:url(#SVGID_95_);}
	.st103{fill:url(#SVGID_96_);}
	.st104{fill:url(#SVGID_97_);}
	.st105{fill:url(#SVGID_98_);}
	.st106{fill:url(#SVGID_99_);}
	.st107{fill:url(#SVGID_100_);}
	.st108{fill:url(#SVGID_101_);}
	.st109{fill:url(#SVGID_102_);}
	.st110{fill:url(#SVGID_103_);}
	.st111{fill:url(#SVGID_104_);}
	.st112{fill:url(#SVGID_105_);}
	.st113{fill:url(#SVGID_106_);}
	.st114{fill:url(#SVGID_107_);}
	.st115{fill:url(#SVGID_108_);}
	.st116{fill:url(#SVGID_109_);}
	.st117{fill:url(#SVGID_110_);}
	.st118{fill:url(#SVGID_111_);}
	.st119{fill:url(#SVGID_112_);}
	.st120{fill:url(#SVGID_113_);}
	.st121{fill:url(#SVGID_114_);}
	.st122{fill:#FFFFFF;}
	.st123{fill:url(#SVGID_115_);}
	.st124{fill:url(#SVGID_116_);}
	.st125{fill:url(#SVGID_117_);}
	.st126{fill:url(#SVGID_118_);}
	.st127{fill:url(#SVGID_119_);}
	.st128{fill:url(#SVGID_120_);}
	.st129{fill:url(#SVGID_121_);}
	.st130{fill:url(#SVGID_122_);}
	.st131{fill:url(#SVGID_123_);}
	.st132{fill:url(#SVGID_124_);}
	.st133{fill:url(#SVGID_125_);}
	.st134{fill:url(#SVGID_126_);}
	.st135{fill:url(#SVGID_127_);}
	.st136{fill:url(#SVGID_128_);}
	.st137{fill:#1D1D1B;stroke:#1D1D1B;stroke-width:0.5;stroke-miterlimit:10;}
	.st138{fill:url(#SVGID_129_);}
	.st139{fill:url(#SVGID_130_);}
	.st140{fill:url(#SVGID_131_);}
	.st141{fill:url(#SVGID_132_);}
	.st142{fill:url(#SVGID_133_);}
	.st143{fill:url(#SVGID_134_);}
	.st144{fill:url(#SVGID_135_);}
	.st145{fill:url(#SVGID_136_);}
	.st146{fill:url(#SVGID_137_);}
	.st147{fill:url(#SVGID_138_);}
	.st148{fill:url(#SVGID_139_);}
	.st149{fill:url(#SVGID_140_);}
	.st150{fill:url(#SVGID_141_);}
	.st151{fill:url(#SVGID_142_);}
	.st152{fill:url(#SVGID_143_);}
	.st153{fill:url(#SVGID_144_);}
	.st154{fill:url(#SVGID_145_);}
	.st155{fill:url(#SVGID_146_);}
	.st156{fill:url(#SVGID_147_);}
	.st157{fill:url(#SVGID_148_);}
	.st158{fill:url(#SVGID_149_);}
	.st159{fill:url(#SVGID_150_);}
	.st160{fill:url(#SVGID_151_);}
	.st161{fill:url(#SVGID_152_);}
	.st162{fill:url(#SVGID_153_);}
	.st163{fill:url(#SVGID_154_);}
	.st164{fill:url(#SVGID_155_);}
	.st165{fill:url(#SVGID_156_);}
	.st166{fill:url(#SVGID_157_);}
	.st167{fill:url(#SVGID_158_);}
	.st168{fill:url(#SVGID_159_);}
	.st169{fill:url(#SVGID_160_);}
	.st170{fill:url(#SVGID_161_);}
	.st171{fill:url(#SVGID_162_);}
	.st172{fill:url(#SVGID_163_);}
	.st173{fill:url(#SVGID_164_);}
	.st174{fill:url(#SVGID_165_);}
	.st175{fill:url(#SVGID_166_);}
	.st176{fill:url(#SVGID_167_);}
	.st177{fill:url(#SVGID_168_);}
	.st178{fill:url(#SVGID_169_);}
	.st179{fill:url(#SVGID_170_);}
	.st180{fill:url(#SVGID_171_);}
	.st181{fill:url(#SVGID_172_);}
	.st182{fill:url(#SVGID_173_);}
	.st183{fill:url(#SVGID_174_);}
	.st184{fill:url(#SVGID_175_);}
	.st185{fill:url(#SVGID_176_);}
	.st186{fill:url(#SVGID_177_);}
	.st187{fill:url(#SVGID_178_);}
	.st188{fill:url(#SVGID_179_);}
	.st189{fill:url(#SVGID_180_);}
	.st190{fill:url(#SVGID_181_);}
	.st191{fill:url(#SVGID_182_);}
	.st192{fill:url(#SVGID_183_);}
	.st193{fill:url(#SVGID_184_);}
	.st194{fill:url(#SVGID_185_);}
	.st195{fill:url(#SVGID_186_);}
	.st196{fill:url(#SVGID_187_);}
	.st197{fill:url(#SVGID_188_);}
	.st198{fill:url(#SVGID_189_);}
	.st199{fill:url(#SVGID_190_);}
	.st200{fill:url(#SVGID_191_);}
	.st201{fill:url(#SVGID_192_);}
	.st202{fill:url(#SVGID_193_);}
	.st203{fill:url(#SVGID_194_);}
	.st204{fill:url(#SVGID_195_);}
	.st205{fill:url(#SVGID_196_);}
	.st206{fill:url(#SVGID_197_);}
	.st207{fill:url(#SVGID_198_);}
	.st208{fill:url(#SVGID_199_);}
	.st209{fill:url(#SVGID_200_);}
	.st210{fill:url(#SVGID_201_);}
	.st211{fill:url(#SVGID_202_);}
	.st212{fill:url(#SVGID_203_);}
	.st213{fill:url(#SVGID_204_);}
	.st214{fill:url(#SVGID_205_);}
	.st215{fill:url(#SVGID_206_);}
	.st216{fill:url(#SVGID_207_);}
	.st217{fill:url(#SVGID_208_);}
	.st218{fill:url(#SVGID_209_);}
	.st219{fill:url(#SVGID_210_);}
	.st220{fill:url(#SVGID_211_);}
	.st221{fill:url(#SVGID_212_);}
	.st222{fill:url(#SVGID_213_);}
	.st223{fill:url(#SVGID_214_);}
	.st224{fill:url(#SVGID_215_);}
	.st225{fill:url(#SVGID_216_);}
	.st226{fill:url(#SVGID_217_);}
	.st227{fill:url(#SVGID_218_);}
	.st228{fill:url(#SVGID_219_);}
	.st229{fill:url(#SVGID_220_);}
	.st230{fill:url(#SVGID_221_);}
	.st231{fill:url(#SVGID_222_);}
	.st232{fill:url(#SVGID_223_);}
	.st233{fill:url(#SVGID_224_);}
	.st234{fill:url(#SVGID_225_);}
	.st235{fill:url(#SVGID_226_);}
	.st236{fill:url(#SVGID_227_);}
	.st237{fill:url(#SVGID_228_);}
	.st238{fill:url(#SVGID_229_);}
	.st239{fill:url(#SVGID_230_);}
	.st240{fill:url(#SVGID_231_);}
	.st241{fill:url(#SVGID_232_);}
	.st242{fill:url(#SVGID_233_);}
	.st243{fill:url(#SVGID_234_);}
	.st244{fill:url(#SVGID_235_);}
	.st245{fill:url(#SVGID_236_);}
	.st246{fill:url(#SVGID_237_);}
	.st247{fill:url(#SVGID_238_);}
	.st248{fill:url(#SVGID_239_);}
	.st249{fill:url(#SVGID_240_);}
	.st250{fill:url(#SVGID_241_);}
	.st251{fill:url(#SVGID_242_);}
	.st252{fill:url(#SVGID_243_);}
	.st253{fill:url(#SVGID_244_);}
	.st254{fill:url(#SVGID_245_);}
	.st255{fill:url(#SVGID_246_);}
	.st256{fill:url(#SVGID_247_);}
	.st257{fill:url(#SVGID_248_);}
	.st258{fill:url(#SVGID_249_);}
	.st259{fill:url(#SVGID_250_);}
	.st260{fill:url(#SVGID_251_);}
	.st261{fill:url(#SVGID_252_);}
	.st262{fill:url(#SVGID_253_);}
	.st263{fill:url(#SVGID_254_);}
	.st264{fill:url(#SVGID_255_);}
	.st265{fill:url(#SVGID_256_);}
	.st266{fill:url(#SVGID_257_);}
	.st267{fill:url(#SVGID_258_);}
	.st268{fill:url(#SVGID_259_);}
	.st269{fill:url(#SVGID_260_);}
	.st270{fill:url(#SVGID_261_);}
	.st271{fill:url(#SVGID_262_);}
	.st272{fill:url(#SVGID_263_);}
	.st273{fill:url(#SVGID_264_);}
	.st274{fill:url(#SVGID_265_);}
	.st275{fill:url(#SVGID_266_);}
	.st276{fill:url(#SVGID_267_);}
	.st277{fill:url(#SVGID_268_);}
	.st278{fill:url(#SVGID_269_);}
	.st279{fill:url(#SVGID_270_);}
	.st280{fill:url(#SVGID_271_);}
	.st281{fill:url(#SVGID_272_);}
	.st282{fill:url(#SVGID_273_);}
	.st283{fill:url(#SVGID_274_);}
	.st284{fill:url(#SVGID_275_);}
</style>
<g>
	<g>
		
			<radialGradient id="SVGID_1_" cx="69.48" cy="2980.2725" r="31.8393" gradientTransform="matrix(1 0 0 -1 0.2615 3026.8992)" gradientUnits="userSpaceOnUse">
			<stop  offset="0" style="stop-color:#F9DA52"/>
			<stop  offset="1" style="stop-color:#F7B82C"/>
		</radialGradient>
		<circle class="st0" cx="69.446" cy="54.699" r="24.089"/>
		<path class="st1" d="M69.446,31.17c12.978,0,23.622,10.551,23.622,23.622c0,12.978-10.551,23.622-23.622,23.622
			S45.824,67.864,45.824,54.792C45.824,41.721,56.374,31.17,69.446,31.17 M69.446,30.05c-13.632,0-24.649,11.111-24.649,24.649
			c0,13.632,11.111,24.649,24.649,24.649c13.632,0,24.649-11.111,24.649-24.649C94.095,41.16,82.984,30.05,69.446,30.05
			L69.446,30.05z"/>
	</g>
	<g>
		<path class="st2" d="M44.703,32.384c-0.467,0-0.84-0.187-1.12-0.467l-7.843-7.843c-0.654-0.654-0.654-1.681,0-2.334
			c0.28-0.28,0.747-0.467,1.12-0.467c0.467,0,0.84,0.187,1.12,0.467l7.843,7.843c0.654,0.654,0.654,1.681,0,2.334
			C45.544,32.197,45.17,32.384,44.703,32.384z"/>
		<path class="st3" d="M36.86,21.833c0.28,0,0.56,0.093,0.747,0.28l7.843,7.843c0.187,0.187,0.28,0.467,0.28,0.747
			c0,0.28-0.093,0.56-0.28,0.747c-0.187,0.187-0.467,0.28-0.747,0.28s-0.56-0.093-0.747-0.28l-7.843-7.843
			c-0.187-0.187-0.28-0.467-0.28-0.747s0.093-0.56,0.28-0.747C36.3,21.926,36.58,21.833,36.86,21.833 M36.86,20.713
			c-0.56,0-1.12,0.187-1.494,0.654c-0.84,0.84-0.84,2.241,0,3.081l7.843,7.843c0.467,0.467,0.934,0.654,1.494,0.654
			s1.12-0.187,1.494-0.654c0.84-0.84,0.84-2.241,0-3.081l-7.843-7.843C37.981,20.899,37.421,20.713,36.86,20.713L36.86,20.713z"/>
	</g>
	<g>
		<path class="st2" d="M26.59,56.753c-0.934,0-1.587-0.747-1.587-1.587s0.747-1.587,1.587-1.587h7.936
			c0.934,0,1.587,0.747,1.587,1.587s-0.747,1.587-1.587,1.587H26.59z"/>
		<path class="st3" d="M34.619,54.045c0.56,0,1.12,0.467,1.12,1.12s-0.467,1.12-1.12,1.12h-7.936c-0.56,0-1.12-0.467-1.12-1.12
			s0.467-1.12,1.12-1.12H34.619 M34.619,53.018h-7.936c-1.214,0-2.148,0.934-2.148,2.147s0.934,2.147,2.148,2.147h7.936
			c1.214,0,2.148-0.934,2.148-2.147S35.833,53.018,34.619,53.018L34.619,53.018z"/>
	</g>
	<g>
		<path class="st2" d="M104.179,55.913c-0.934,0-1.587-0.747-1.587-1.587c0-0.84,0.747-1.587,1.587-1.587h7.936
			c0.934,0,1.587,0.747,1.587,1.587c0,0.84-0.747,1.587-1.587,1.587H104.179z"/>
		<path class="st3" d="M112.209,53.205c0.56,0,1.12,0.467,1.12,1.12c0,0.56-0.467,1.12-1.12,1.12h-7.936
			c-0.56,0-1.12-0.467-1.12-1.12c0-0.56,0.467-1.12,1.12-1.12H112.209 M112.209,52.084h-7.936c-1.214,0-2.148,0.934-2.148,2.147
			s0.934,2.147,2.148,2.147h7.936c1.214,0,2.148-0.934,2.148-2.147C114.356,53.112,113.422,52.084,112.209,52.084L112.209,52.084z"
			/>
	</g>
	<g>
		<path class="st2" d="M69.166,22.207c-0.934,0-1.587-0.747-1.587-1.587v-7.936c0-0.934,0.747-1.587,1.587-1.587
			c0.934,0,1.587,0.747,1.587,1.587v7.936C70.753,21.46,70.099,22.207,69.166,22.207z"/>
		<path class="st3" d="M69.166,11.563c0.56,0,1.12,0.467,1.12,1.12v7.936c0,0.56-0.467,1.12-1.12,1.12c-0.56,0-1.12-0.467-1.12-1.12
			v-7.936C68.045,12.029,68.606,11.563,69.166,11.563 M69.166,10.442c-1.214,0-2.148,0.934-2.148,2.147v7.936
			c0,1.214,0.934,2.147,2.148,2.147s2.148-0.934,2.148-2.147V12.59C71.313,11.376,70.38,10.442,69.166,10.442L69.166,10.442z"/>
	</g>
	<g>
		<path class="st2" d="M93.628,32.384c-0.467,0-0.84-0.187-1.12-0.467c-0.28-0.28-0.467-0.747-0.467-1.12
			c0-0.467,0.187-0.84,0.467-1.12l7.843-7.843c0.28-0.28,0.747-0.467,1.12-0.467s0.84,0.187,1.12,0.467
			c0.654,0.654,0.654,1.681,0,2.334l-7.843,7.843C94.469,32.197,94.002,32.384,93.628,32.384z"/>
		<path class="st3" d="M101.378,21.833c0.28,0,0.56,0.093,0.747,0.28c0.187,0.187,0.28,0.467,0.28,0.747s-0.093,0.56-0.28,0.747
			l-7.843,7.843c-0.187,0.187-0.467,0.28-0.747,0.28s-0.56-0.093-0.747-0.28c-0.187-0.187-0.28-0.467-0.28-0.747
			c0-0.28,0.093-0.56,0.28-0.747l7.843-7.843C100.818,21.926,101.098,21.833,101.378,21.833 M101.378,20.713
			c-0.56,0-1.12,0.187-1.494,0.654l-7.843,7.843c-0.84,0.84-0.84,2.241,0,3.081c0.467,0.467,0.934,0.654,1.494,0.654
			s1.12-0.187,1.494-0.654l7.843-7.843c0.84-0.84,0.84-2.241,0-3.081C102.498,20.899,101.938,20.713,101.378,20.713L101.378,20.713z
			"/>
	</g>
	<g>
		
			<radialGradient id="SVGID_2_" cx="47.9208" cy="2952.0798" r="33.8884" gradientTransform="matrix(1 0 0 -1 0 3026.8655)" gradientUnits="userSpaceOnUse">
			<stop  offset="0" style="stop-color:#FBFBFB"/>
			<stop  offset="1" style="stop-color:#E7E7E7"/>
		</radialGradient>
		<path class="st4" d="M37.047,68.797c-1.307,0-2.334-1.027-2.334-2.334c0-1.307,1.027-2.334,2.334-2.334h69.466
			c1.307,0,2.334,1.027,2.334,2.334c0,1.307-1.027,2.334-2.334,2.334H37.047z"/>
		<path class="st5" d="M106.513,64.689c1.027,0,1.774,0.84,1.774,1.774c0,0.934-0.84,1.774-1.774,1.774H37.047
			c-1.027,0-1.774-0.84-1.774-1.774c0-0.934,0.84-1.774,1.774-1.774H106.513 M106.513,63.569H37.047
			c-1.587,0-2.894,1.307-2.894,2.894c0,1.587,1.307,2.894,2.894,2.894h69.466c1.587,0,2.894-1.307,2.894-2.894
			C109.408,64.876,108.101,63.569,106.513,63.569L106.513,63.569z"/>
	</g>
	<g>
		
			<radialGradient id="SVGID_3_" cx="48.0511" cy="2949.9453" r="33.9468" gradientTransform="matrix(1 0 0 -1 0 3026.8655)" gradientUnits="userSpaceOnUse">
			<stop  offset="0" style="stop-color:#FBFBFB"/>
			<stop  offset="1" style="stop-color:#E7E7E7"/>
		</radialGradient>
		<path class="st6" d="M46.01,80.188c-1.307,0-2.334-1.027-2.334-2.334c0-1.307,1.027-2.334,2.334-2.334h69.466
			c1.307,0,2.334,1.027,2.334,2.334c0,1.307-1.027,2.334-2.334,2.334H46.01z"/>
		<path class="st5" d="M115.57,75.987c1.027,0,1.774,0.84,1.774,1.774s-0.84,1.774-1.774,1.774H46.104
			c-1.027,0-1.774-0.84-1.774-1.774s0.84-1.774,1.774-1.774H115.57 M115.57,74.96H46.104c-1.587,0-2.894,1.307-2.894,2.894
			c0,1.587,1.307,2.894,2.894,2.894h69.466c1.587,0,2.894-1.307,2.894-2.894C118.464,76.267,117.157,74.96,115.57,74.96
			L115.57,74.96z"/>
	</g>
	<g>
		
			<radialGradient id="SVGID_4_" cx="47.8688" cy="2947.8101" r="33.6071" gradientTransform="matrix(1 0 0 -1 0 3026.8655)" gradientUnits="userSpaceOnUse">
			<stop  offset="0" style="stop-color:#FBFBFB"/>
			<stop  offset="1" style="stop-color:#E7E7E7"/>
		</radialGradient>
		<path class="st8" d="M33.499,91.579c-1.307,0-2.334-1.027-2.334-2.334c0-1.307,1.027-2.334,2.334-2.334h69.466
			c1.307,0,2.334,1.027,2.334,2.334c0,1.307-1.027,2.334-2.334,2.334H33.499z"/>
		<path class="st5" d="M102.965,87.378c1.027,0,1.774,0.84,1.774,1.774s-0.84,1.774-1.774,1.774H33.499
			c-1.027,0-1.774-0.84-1.774-1.774s0.84-1.774,1.774-1.774H102.965 M102.965,86.351H33.499c-1.587,0-2.894,1.307-2.894,2.894
			c0,1.587,1.307,2.894,2.894,2.894h69.466c1.587,0,2.894-1.307,2.894-2.894C105.86,87.658,104.552,86.351,102.965,86.351
			L102.965,86.351z"/>
	</g>
</g>
<g>
	<g>
		
			<radialGradient id="SVGID_5_" cx="44.4169" cy="-14.0984" r="34.2915" gradientTransform="matrix(0.9582 0 0 0.9582 -3.6522 50.1608)" gradientUnits="userSpaceOnUse">
			<stop  offset="0" style="stop-color:#D44445"/>
			<stop  offset="1" style="stop-color:#C11F1F"/>
		</radialGradient>
		<path class="st9" d="M17.229,64.089c-1.914,0-3.623-0.992-4.573-2.653c-0.95-1.662-0.938-3.638,0.034-5.287l21.104-35.831
			c0.956-1.625,2.653-2.594,4.538-2.594s3.582,0.97,4.538,2.594L63.975,56.15c0.972,1.648,0.984,3.625,0.035,5.286
			c-0.949,1.662-2.659,2.654-4.573,2.654H17.229z"/>
		<path class="st122" d="M38.333,18.724c1.426,0,2.852,0.701,3.677,2.102l21.104,35.831c1.676,2.845-0.375,6.433-3.677,6.433H17.229
			c-3.302,0-5.352-3.588-3.677-6.433l21.104-35.831C35.481,19.425,36.907,18.724,38.333,18.724 M38.333,16.724
			c-2.243,0-4.262,1.154-5.4,3.087L11.828,55.642c-1.156,1.962-1.171,4.314-0.041,6.291c1.13,1.977,3.164,3.157,5.441,3.157h42.208
			c2.277,0,4.311-1.18,5.441-3.157c1.13-1.977,1.115-4.329-0.041-6.291L43.733,19.811C42.594,17.878,40.576,16.724,38.333,16.724
			L38.333,16.724z"/>
	</g>
	<g>
		<path class="st122" d="M17.228,63.09h42.209c3.301,0,5.352-3.588,3.677-6.433L42.01,20.826c-1.65-2.802-5.703-2.802-7.354,0
			L13.552,56.657C11.876,59.501,13.927,63.09,17.228,63.09z"/>
		<radialGradient id="SVGID_6_" cx="38.3328" cy="40.9068" r="23.834" gradientUnits="userSpaceOnUse">
			<stop  offset="0" style="stop-color:#D44445"/>
			<stop  offset="1" style="stop-color:#C11F1F"/>
		</radialGradient>
		<path class="st10" d="M38.333,22.474c0.296,0,0.409,0.192,0.446,0.255L59.883,58.56c0.038,0.064,0.152,0.259,0.003,0.519
			c-0.149,0.261-0.375,0.261-0.449,0.261H17.229c-0.074,0-0.3,0-0.449-0.261c-0.149-0.261-0.034-0.455,0.003-0.519l21.104-35.831
			C37.924,22.666,38.037,22.474,38.333,22.474 M38.333,18.724c-1.426,0-2.852,0.701-3.677,2.102L13.552,56.657
			c-1.676,2.845,0.375,6.433,3.677,6.433h42.208c3.301,0,5.352-3.588,3.677-6.433L42.01,20.826
			C41.184,19.424,39.759,18.724,38.333,18.724L38.333,18.724z"/>
	</g>
	<path class="st137" d="M38.333,48.14c-0.811,0-1.467-0.657-1.467-1.467V34.236c0-0.81,0.657-1.467,1.467-1.467
		c0.811,0,1.467,0.657,1.467,1.467v12.437C39.8,47.483,39.143,48.14,38.333,48.14z"/>
	<circle class="st137" cx="38.333" cy="52.495" r="1.956"/>
</g>
</svg>
