<?xml version="1.0" encoding="utf-8"?>
<!-- Generator: Adobe Illustrator 23.0.1, SVG Export Plug-In . SVG Version: 6.00 Build 0)  -->
<svg version="1.1" id="Ebene_2" xmlns="http://www.w3.org/2000/svg" xmlns:xlink="http://www.w3.org/1999/xlink" x="0px" y="0px"
	 viewBox="0 0 143 122" style="enable-background:new 0 0 143 122;" xml:space="preserve">
<style type="text/css">
	.st0{fill:url(#SVGID_1_);}
	.st1{fill:#F7B82C;}
	.st2{fill:#F7B82D;}
	.st3{fill:#F5AE23;}
	.st4{fill:url(#SVGID_2_);}
	.st5{fill:#DADCDE;}
	.st6{fill:url(#SVGID_3_);}
	.st7{fill:#59B9E8;}
	.st8{fill:url(#SVGID_4_);}
	.st9{fill:url(#SVGID_5_);}
	.st10{fill:url(#SVGID_6_);}
	.st11{fill:url(#SVGID_7_);}
	.st12{fill:url(#SVGID_8_);}
	.st13{fill:url(#SVGID_9_);}
	.st14{fill:url(#SVGID_10_);}
	.st15{fill:url(#SVGID_11_);}
	.st16{fill:url(#SVGID_12_);}
	.st17{fill:url(#SVGID_13_);}
	.st18{fill:url(#SVGID_14_);}
	.st19{fill:url(#SVGID_15_);}
	.st20{fill:url(#SVGID_16_);}
	.st21{fill:url(#SVGID_17_);}
	.st22{fill:url(#SVGID_18_);}
	.st23{fill:url(#SVGID_19_);}
	.st24{fill:url(#SVGID_20_);}
	.st25{fill:url(#SVGID_21_);}
	.st26{fill:url(#SVGID_22_);}
	.st27{fill:url(#SVGID_23_);}
	.st28{fill:#BEE2F1;}
	.st29{fill:url(#SVGID_24_);}
	.st30{fill:url(#SVGID_25_);}
	.st31{fill:#CBD9E7;}
	.st32{fill:#C3CFDA;}
	.st33{fill:url(#SVGID_26_);}
	.st34{fill:url(#SVGID_27_);}
	.st35{fill:url(#SVGID_28_);}
	.st36{fill:url(#SVGID_29_);}
	.st37{fill:url(#SVGID_30_);}
	.st38{fill:url(#SVGID_31_);}
	.st39{fill:url(#SVGID_32_);}
	.st40{fill:url(#SVGID_33_);}
	.st41{fill:url(#SVGID_34_);}
	.st42{fill:url(#SVGID_35_);}
	.st43{fill:url(#SVGID_36_);}
	.st44{fill:url(#SVGID_37_);}
	.st45{fill:url(#SVGID_38_);}
	.st46{fill:url(#SVGID_39_);}
	.st47{fill:url(#SVGID_40_);}
	.st48{fill:url(#SVGID_41_);}
	.st49{fill:url(#SVGID_42_);}
	.st50{fill:url(#SVGID_43_);}
	.st51{fill:url(#SVGID_44_);}
	.st52{fill:url(#SVGID_45_);}
	.st53{fill:url(#SVGID_46_);}
	.st54{fill:url(#SVGID_47_);}
	.st55{fill:url(#SVGID_48_);}
	.st56{fill:url(#SVGID_49_);}
	.st57{fill:url(#SVGID_50_);}
	.st58{fill:url(#SVGID_51_);}
	.st59{fill:url(#SVGID_52_);}
	.st60{fill:url(#SVGID_53_);}
	.st61{fill:url(#SVGID_54_);}
	.st62{fill:url(#SVGID_55_);}
	.st63{fill:url(#SVGID_56_);}
	.st64{fill:url(#SVGID_57_);}
	.st65{fill:url(#SVGID_58_);}
	.st66{fill:url(#SVGID_59_);}
	.st67{fill:url(#SVGID_60_);}
	.st68{fill:url(#SVGID_61_);}
	.st69{fill:url(#SVGID_62_);}
	.st70{fill:url(#SVGID_63_);}
	.st71{fill:url(#SVGID_64_);}
	.st72{fill:url(#SVGID_65_);}
	.st73{fill:url(#SVGID_66_);}
	.st74{fill:#FFFFFF;}
	.st75{fill:url(#SVGID_67_);}
	.st76{fill:url(#SVGID_68_);}
	.st77{fill:url(#SVGID_69_);}
	.st78{fill:url(#SVGID_70_);}
	.st79{fill:url(#SVGID_71_);}
	.st80{fill:url(#SVGID_72_);}
	.st81{fill:url(#SVGID_73_);}
	.st82{fill:url(#SVGID_74_);}
	.st83{fill:url(#SVGID_75_);}
	.st84{fill:url(#SVGID_76_);}
	.st85{fill:url(#SVGID_77_);}
	.st86{fill:url(#SVGID_78_);}
	.st87{fill:url(#SVGID_79_);}
	.st88{fill:url(#SVGID_80_);}
	.st89{fill:url(#SVGID_81_);}
	.st90{fill:url(#SVGID_82_);}
	.st91{fill:url(#SVGID_83_);}
	.st92{fill:url(#SVGID_84_);}
	.st93{fill:url(#SVGID_85_);}
	.st94{fill:url(#SVGID_86_);}
	.st95{fill:url(#SVGID_87_);}
	.st96{fill:url(#SVGID_88_);}
	.st97{fill:url(#SVGID_89_);}
	.st98{fill:url(#SVGID_90_);}
	.st99{fill:url(#SVGID_91_);}
	.st100{fill:url(#SVGID_92_);}
	.st101{fill:url(#SVGID_93_);}
	.st102{fill:url(#SVGID_94_);}
	.st103{fill:url(#SVGID_95_);}
	.st104{fill:url(#SVGID_96_);}
	.st105{fill:url(#SVGID_97_);}
	.st106{fill:url(#SVGID_98_);}
	.st107{fill:url(#SVGID_99_);}
	.st108{fill:url(#SVGID_100_);}
	.st109{fill:url(#SVGID_101_);}
	.st110{fill:url(#SVGID_102_);}
	.st111{fill:url(#SVGID_103_);}
	.st112{fill:url(#SVGID_104_);}
	.st113{fill:url(#SVGID_105_);}
	.st114{fill:url(#SVGID_106_);}
	.st115{fill:url(#SVGID_107_);}
	.st116{fill:url(#SVGID_108_);}
	.st117{fill:url(#SVGID_109_);}
	.st118{fill:url(#SVGID_110_);}
	.st119{fill:url(#SVGID_111_);}
	.st120{fill:url(#SVGID_112_);}
	.st121{fill:url(#SVGID_113_);}
	.st122{fill:url(#SVGID_114_);}
	.st123{fill:url(#SVGID_115_);}
	.st124{fill:url(#SVGID_116_);}
	.st125{fill:url(#SVGID_117_);}
	.st126{fill:url(#SVGID_118_);}
	.st127{fill:url(#SVGID_119_);}
	.st128{fill:url(#SVGID_120_);}
	.st129{fill:url(#SVGID_121_);}
	.st130{fill:url(#SVGID_122_);}
	.st131{fill:url(#SVGID_123_);}
	.st132{fill:url(#SVGID_124_);}
	.st133{fill:url(#SVGID_125_);}
	.st134{fill:url(#SVGID_126_);}
	.st135{fill:url(#SVGID_127_);}
	.st136{fill:url(#SVGID_128_);}
	.st137{fill:url(#SVGID_129_);}
	.st138{fill:url(#SVGID_130_);}
	.st139{fill:url(#SVGID_131_);}
	.st140{fill:url(#SVGID_132_);}
	.st141{fill:url(#SVGID_133_);}
	.st142{fill:url(#SVGID_134_);}
	.st143{fill:url(#SVGID_135_);}
	.st144{fill:url(#SVGID_136_);}
	.st145{fill:url(#SVGID_137_);}
	.st146{fill:url(#SVGID_138_);}
	.st147{fill:url(#SVGID_139_);}
	.st148{fill:url(#SVGID_140_);}
	.st149{fill:url(#SVGID_141_);}
	.st150{fill:url(#SVGID_142_);}
	.st151{fill:url(#SVGID_143_);}
	.st152{fill:url(#SVGID_144_);}
	.st153{fill:url(#SVGID_145_);}
	.st154{fill:url(#SVGID_146_);}
	.st155{fill:url(#SVGID_147_);}
	.st156{fill:url(#SVGID_148_);}
	.st157{fill:url(#SVGID_149_);}
	.st158{fill:url(#SVGID_150_);}
	.st159{fill:url(#SVGID_151_);}
	.st160{fill:url(#SVGID_152_);}
	.st161{fill:url(#SVGID_153_);}
	.st162{fill:url(#SVGID_154_);}
	.st163{fill:url(#SVGID_155_);}
	.st164{fill:url(#SVGID_156_);}
	.st165{fill:url(#SVGID_157_);}
	.st166{fill:url(#SVGID_158_);}
	.st167{fill:url(#SVGID_159_);}
	.st168{fill:url(#SVGID_160_);}
	.st169{fill:url(#SVGID_161_);}
	.st170{fill:url(#SVGID_162_);}
	.st171{fill:url(#SVGID_163_);}
	.st172{fill:url(#SVGID_164_);}
	.st173{fill:url(#SVGID_165_);}
	.st174{fill:url(#SVGID_166_);}
	.st175{fill:url(#SVGID_167_);}
	.st176{fill:url(#SVGID_168_);}
	.st177{fill:url(#SVGID_169_);}
	.st178{fill:url(#SVGID_170_);}
	.st179{fill:url(#SVGID_171_);}
	.st180{fill:url(#SVGID_172_);}
	.st181{fill:#1D1D1B;stroke:#FFFFFF;stroke-width:3;stroke-linecap:round;stroke-miterlimit:10;}
	.st182{fill:url(#SVGID_173_);}
	.st183{fill:#1D1D1B;stroke:#1D1D1B;stroke-width:3;stroke-linecap:round;stroke-miterlimit:10;}
	.st184{fill:url(#SVGID_174_);}
	.st185{fill:url(#SVGID_175_);}
	.st186{fill:url(#SVGID_176_);}
	.st187{fill:url(#SVGID_177_);}
	.st188{fill:url(#SVGID_178_);}
	.st189{fill:url(#SVGID_179_);}
	.st190{fill:url(#SVGID_180_);}
	.st191{fill:url(#SVGID_181_);}
	.st192{fill:url(#SVGID_182_);}
	.st193{fill:url(#SVGID_183_);}
	.st194{fill:url(#SVGID_184_);}
	.st195{fill:url(#SVGID_185_);}
	.st196{fill:url(#SVGID_186_);}
	.st197{fill:url(#SVGID_187_);}
	.st198{fill:url(#SVGID_188_);}
	.st199{fill:url(#SVGID_189_);}
	.st200{fill:url(#SVGID_190_);}
	.st201{fill:url(#SVGID_191_);}
	.st202{fill:url(#SVGID_192_);}
	.st203{fill:url(#SVGID_193_);}
	.st204{fill:url(#SVGID_194_);}
	.st205{fill:url(#SVGID_195_);}
	.st206{fill:url(#SVGID_196_);}
	.st207{fill:url(#SVGID_197_);}
	.st208{fill:url(#SVGID_198_);}
	.st209{fill:url(#SVGID_199_);}
	.st210{fill:url(#SVGID_200_);}
	.st211{fill:url(#SVGID_201_);}
	.st212{fill:url(#SVGID_202_);}
	.st213{fill:url(#SVGID_203_);}
	.st214{fill:url(#SVGID_204_);}
	.st215{fill:url(#SVGID_205_);}
	.st216{fill:url(#SVGID_206_);}
	.st217{fill:url(#SVGID_207_);}
	.st218{fill:url(#SVGID_208_);}
	.st219{fill:url(#SVGID_209_);}
	.st220{fill:url(#SVGID_210_);}
	.st221{fill:url(#SVGID_211_);}
	.st222{fill:url(#SVGID_212_);}
	.st223{fill:url(#SVGID_213_);}
	.st224{fill:url(#SVGID_214_);}
	.st225{fill:url(#SVGID_215_);}
	.st226{fill:url(#SVGID_216_);}
	.st227{fill:url(#SVGID_217_);}
	.st228{fill:url(#SVGID_218_);}
	.st229{fill:url(#SVGID_219_);}
	.st230{fill:url(#SVGID_220_);}
	.st231{fill:url(#SVGID_221_);}
	.st232{fill:url(#SVGID_222_);}
	.st233{fill:url(#SVGID_223_);}
	.st234{fill:url(#SVGID_224_);}
	.st235{fill:url(#SVGID_225_);}
	.st236{fill:url(#SVGID_226_);}
	.st237{fill:url(#SVGID_227_);}
	.st238{fill:url(#SVGID_228_);}
</style>
<g>
	<g>
		
			<radialGradient id="SVGID_1_" cx="58.3675" cy="2919.4409" r="9.1324" gradientTransform="matrix(1 0 0 -1 0 3026.8655)" gradientUnits="userSpaceOnUse">
			<stop  offset="0" style="stop-color:#71C6E4"/>
			<stop  offset="1" style="stop-color:#56C0EE"/>
		</radialGradient>
		<path class="st0" d="M55.724,119.609c-0.093,0-0.28,0-0.373-0.093c-0.84-0.187-1.401-1.12-1.214-1.961l5.229-21.101
			c0.187-0.747,0.84-1.214,1.587-1.214c0.093,0,0.28,0,0.373,0.093c0.84,0.187,1.401,1.12,1.214,1.961l-5.229,21.101
			C57.124,119.142,56.471,119.609,55.724,119.609z"/>
		<path class="st7" d="M60.952,95.8L60.952,95.8c0.093,0,0.187,0,0.28,0c0.56,0.187,0.934,0.747,0.84,1.307l-5.229,21.101
			c-0.093,0.467-0.56,0.84-1.027,0.84c-0.093,0-0.187,0-0.28,0c-0.56-0.187-0.934-0.747-0.84-1.307l5.229-21.101
			C60.018,96.08,60.485,95.8,60.952,95.8 M60.952,94.68c-0.934,0-1.867,0.654-2.147,1.681l-5.229,21.101
			c-0.28,1.12,0.467,2.334,1.587,2.614c0.187,0,0.373,0.093,0.56,0.093c0.934,0,1.867-0.654,2.147-1.681L63.1,97.387
			c0.28-1.12-0.467-2.334-1.587-2.614C61.326,94.68,61.139,94.68,60.952,94.68L60.952,94.68z"/>
	</g>
	<g>
		
			<radialGradient id="SVGID_2_" cx="94.215" cy="2919.4409" r="9.1324" gradientTransform="matrix(1 0 0 -1 0 3026.8655)" gradientUnits="userSpaceOnUse">
			<stop  offset="0" style="stop-color:#71C6E4"/>
			<stop  offset="1" style="stop-color:#56C0EE"/>
		</radialGradient>
		<path class="st4" d="M91.577,119.609c-0.093,0-0.28,0-0.373-0.093c-0.84-0.187-1.401-1.12-1.214-1.961l5.229-21.101
			c0.187-0.747,0.84-1.214,1.587-1.214c0.093,0,0.28,0,0.373,0.093c0.84,0.187,1.401,1.12,1.214,1.961l-5.229,21.101
			C92.978,119.142,92.324,119.609,91.577,119.609z"/>
		<path class="st7" d="M96.806,95.8L96.806,95.8c0.093,0,0.187,0,0.28,0c0.56,0.187,0.934,0.747,0.84,1.307l-5.229,21.101
			c-0.093,0.467-0.56,0.84-1.027,0.84c-0.093,0-0.187,0-0.28,0c-0.56-0.187-0.934-0.747-0.84-1.307l5.229-21.101
			C95.872,96.08,96.339,95.8,96.806,95.8 M96.806,94.68c-0.934,0-1.867,0.654-2.147,1.681l-5.229,21.101
			c-0.28,1.12,0.467,2.334,1.587,2.614c0.187,0,0.373,0.093,0.56,0.093c0.934,0,1.867-0.654,2.147-1.681l5.229-21.101
			c0.28-1.12-0.467-2.334-1.587-2.614C97.179,94.68,96.992,94.68,96.806,94.68L96.806,94.68z"/>
	</g>
	<g>
		
			<radialGradient id="SVGID_3_" cx="112.1388" cy="2919.4409" r="9.1325" gradientTransform="matrix(1 0 0 -1 0 3026.8655)" gradientUnits="userSpaceOnUse">
			<stop  offset="0" style="stop-color:#71C6E4"/>
			<stop  offset="1" style="stop-color:#56C0EE"/>
		</radialGradient>
		<path class="st6" d="M109.504,119.609c-0.093,0-0.28,0-0.373-0.093c-0.84-0.187-1.401-1.12-1.214-1.961l5.229-21.101
			c0.187-0.747,0.84-1.214,1.587-1.214c0.093,0,0.28,0,0.373,0.093c0.84,0.187,1.401,1.12,1.214,1.961l-5.229,21.101
			C110.904,119.142,110.251,119.609,109.504,119.609z"/>
		<path class="st7" d="M114.732,95.8L114.732,95.8c0.093,0,0.187,0,0.28,0c0.56,0.187,0.934,0.747,0.84,1.307l-5.229,21.101
			c-0.093,0.467-0.56,0.84-1.027,0.84c-0.093,0-0.187,0-0.28,0c-0.56-0.187-0.934-0.747-0.84-1.307l5.229-21.101
			C113.799,96.08,114.266,95.8,114.732,95.8 M114.732,94.68c-0.934,0-1.867,0.654-2.147,1.681l-5.229,21.101
			c-0.28,1.12,0.467,2.334,1.587,2.614c0.187,0,0.373,0.093,0.56,0.093c0.934,0,1.867-0.654,2.147-1.681l5.229-21.101
			c0.28-1.12-0.467-2.334-1.587-2.614C115.106,94.68,114.919,94.68,114.732,94.68L114.732,94.68z"/>
	</g>
	<g>
		
			<radialGradient id="SVGID_4_" cx="77.9519" cy="2926.1167" r="4.3058" gradientTransform="matrix(1 0 0 -1 0 3026.8655)" gradientUnits="userSpaceOnUse">
			<stop  offset="0" style="stop-color:#71C6E4"/>
			<stop  offset="1" style="stop-color:#56C0EE"/>
		</radialGradient>
		<path class="st8" d="M77.012,106.257c-0.093,0-0.28,0-0.373-0.093c-0.84-0.187-1.401-1.12-1.214-1.961l1.961-7.75
			c0.187-0.747,0.84-1.214,1.587-1.214c0.093,0,0.28,0,0.373,0.093c0.84,0.187,1.401,1.12,1.214,1.961l-1.961,7.75
			C78.412,105.697,77.759,106.257,77.012,106.257z"/>
		<path class="st7" d="M78.879,95.8L78.879,95.8c0.093,0,0.187,0,0.28,0c0.56,0.187,0.934,0.747,0.84,1.307l-1.961,7.75
			c-0.093,0.467-0.56,0.84-1.027,0.84c-0.093,0-0.187,0-0.28,0c-0.56-0.187-0.934-0.747-0.84-1.307l1.961-7.75
			C77.945,96.08,78.412,95.8,78.879,95.8 M78.879,94.68c-0.934,0-1.867,0.654-2.147,1.681l-1.961,7.75
			c-0.28,1.12,0.467,2.334,1.587,2.614c0.187,0,0.373,0.093,0.56,0.093c0.934,0,1.867-0.654,2.147-1.681l1.961-7.75
			c0.28-1.12-0.467-2.334-1.587-2.614C79.252,94.68,79.066,94.68,78.879,94.68L78.879,94.68z"/>
	</g>
	<g>
		<g>
			<g>
				
					<radialGradient id="SVGID_5_" cx="64.17" cy="2984.655" r="31.8393" gradientTransform="matrix(1 0 0 -1 0.2615 3026.8992)" gradientUnits="userSpaceOnUse">
					<stop  offset="0" style="stop-color:#F9DA52"/>
					<stop  offset="1" style="stop-color:#F7B82C"/>
				</radialGradient>
				<circle class="st9" cx="64.077" cy="50.33" r="24.089"/>
				<path class="st1" d="M64.077,26.707c12.978,0,23.622,10.551,23.622,23.622c0,12.978-10.551,23.622-23.622,23.622
					c-12.978,0-23.622-10.551-23.622-23.622C40.548,37.351,51.099,26.707,64.077,26.707 M64.077,25.68
					c-13.632,0-24.649,11.111-24.649,24.649c0,13.632,11.111,24.649,24.649,24.649c13.632,0,24.649-11.111,24.649-24.649
					C88.82,36.698,77.709,25.68,64.077,25.68L64.077,25.68z"/>
			</g>
		</g>
		<g>
			<path class="st2" d="M39.428,27.921c-0.467,0-0.84-0.187-1.12-0.467l-7.843-7.843c-0.28-0.28-0.467-0.747-0.467-1.12
				s0.187-0.84,0.467-1.12c0.28-0.28,0.747-0.467,1.12-0.467s0.84,0.187,1.12,0.467l7.843,7.843c0.28,0.28,0.467,0.747,0.467,1.12
				c0,0.467-0.187,0.84-0.467,1.12C40.268,27.828,39.895,27.921,39.428,27.921z"/>
			<path class="st3" d="M31.585,17.464c0.28,0,0.56,0.093,0.747,0.28l7.843,7.843c0.187,0.187,0.28,0.467,0.28,0.747
				s-0.093,0.56-0.28,0.747c-0.187,0.187-0.467,0.28-0.747,0.28s-0.56-0.093-0.747-0.28l-7.843-7.843
				c-0.187-0.187-0.28-0.467-0.28-0.747s0.093-0.56,0.28-0.747C31.025,17.557,31.305,17.464,31.585,17.464 M31.585,16.344
				c-0.56,0-1.12,0.187-1.494,0.654c-0.84,0.84-0.84,2.241,0,3.081l7.843,7.843c0.467,0.467,0.934,0.654,1.494,0.654
				s1.12-0.187,1.494-0.654c0.84-0.84,0.84-2.241,0-3.081l-7.843-7.843C32.705,16.53,32.145,16.344,31.585,16.344L31.585,16.344z"/>
		</g>
		<g>
			<path class="st2" d="M21.314,52.384c-0.934,0-1.587-0.747-1.587-1.587c0-0.84,0.747-1.587,1.587-1.587h7.936
				c0.934,0,1.587,0.747,1.587,1.587c0,0.84-0.747,1.587-1.587,1.587H21.314z"/>
			<path class="st3" d="M29.251,49.676c0.56,0,1.12,0.467,1.12,1.12c0,0.56-0.467,1.12-1.12,1.12h-7.936
				c-0.56,0-1.12-0.467-1.12-1.12c0-0.56,0.467-1.12,1.12-1.12H29.251 M29.251,48.556h-7.936c-1.214,0-2.148,0.934-2.148,2.147
				s0.934,2.147,2.148,2.147h7.936c1.214,0,2.148-0.934,2.148-2.147C31.492,49.583,30.465,48.556,29.251,48.556L29.251,48.556z"/>
		</g>
		<g>
			<path class="st2" d="M63.89,17.837c-0.934,0-1.587-0.747-1.587-1.587V8.314c0-0.934,0.747-1.587,1.587-1.587
				c0.934,0,1.587,0.747,1.587,1.587v7.936C65.478,17.091,64.731,17.837,63.89,17.837z"/>
			<path class="st3" d="M63.89,7.193c0.56,0,1.12,0.467,1.12,1.12v7.936c0,0.56-0.467,1.12-1.12,1.12c-0.56,0-1.12-0.467-1.12-1.12
				V8.314C62.77,7.66,63.237,7.193,63.89,7.193 M63.89,6.073c-1.214,0-2.148,0.934-2.148,2.147v7.936
				c0,1.214,0.934,2.147,2.148,2.147s2.148-0.934,2.148-2.147V8.22C66.038,7.007,65.011,6.073,63.89,6.073L63.89,6.073z"/>
		</g>
		<g>
			<path class="st2" d="M31.585,84.689c-0.467,0-0.84-0.187-1.12-0.467c-0.654-0.654-0.654-1.681,0-2.334l7.843-7.843
				c0.28-0.28,0.747-0.467,1.12-0.467c0.467,0,0.84,0.187,1.12,0.467c0.28,0.28,0.467,0.747,0.467,1.12s-0.187,0.84-0.467,1.12
				l-7.843,7.843C32.425,84.503,32.052,84.689,31.585,84.689z"/>
			<path class="st3" d="M39.428,74.139c0.28,0,0.56,0.093,0.747,0.28c0.187,0.187,0.28,0.467,0.28,0.747
				c0,0.28-0.093,0.56-0.28,0.747l-7.843,7.843c-0.187,0.187-0.467,0.28-0.747,0.28c-0.28,0-0.56-0.093-0.747-0.28
				c-0.187-0.187-0.28-0.467-0.28-0.747c0-0.28,0.093-0.56,0.28-0.747l7.843-7.843C38.868,74.232,39.148,74.139,39.428,74.139
				 M39.428,73.018c-0.56,0-1.12,0.187-1.494,0.654l-7.843,7.843c-0.84,0.84-0.84,2.241,0,3.081
				c0.467,0.467,0.934,0.654,1.494,0.654c0.56,0,1.12-0.187,1.494-0.654l7.843-7.843c0.84-0.84,0.84-2.241,0-3.081
				C40.548,73.298,39.988,73.018,39.428,73.018L39.428,73.018z"/>
		</g>
		<g>
			<path class="st2" d="M88.26,27.921c-0.467,0-0.84-0.187-1.12-0.467c-0.28-0.28-0.467-0.747-0.467-1.12
				c0-0.467,0.187-0.84,0.467-1.12l7.843-7.843c0.28-0.28,0.747-0.467,1.12-0.467c0.467,0,0.84,0.187,1.12,0.467
				c0.28,0.28,0.467,0.747,0.467,1.12s-0.187,0.84-0.467,1.12l-7.843,7.843C89.1,27.828,88.726,27.921,88.26,27.921z"/>
			<path class="st3" d="M96.103,17.464c0.28,0,0.56,0.093,0.747,0.28c0.187,0.187,0.28,0.467,0.28,0.747s-0.093,0.56-0.28,0.747
				l-7.843,7.843c-0.187,0.187-0.467,0.28-0.747,0.28s-0.56-0.093-0.747-0.28c-0.187-0.187-0.28-0.467-0.28-0.747
				s0.093-0.56,0.28-0.747l7.843-7.843C95.542,17.557,95.822,17.464,96.103,17.464 M96.103,16.344c-0.56,0-1.12,0.187-1.494,0.654
				l-7.843,7.843c-0.84,0.84-0.84,2.241,0,3.081c0.467,0.467,0.934,0.654,1.494,0.654s1.12-0.187,1.494-0.654l7.843-7.843
				c0.84-0.84,0.84-2.241,0-3.081C97.223,16.53,96.663,16.344,96.103,16.344L96.103,16.344z"/>
		</g>
		<g>
			
				<radialGradient id="SVGID_6_" cx="67.6806" cy="2960.8562" r="56.5032" gradientTransform="matrix(1 0 0 -1 0 3026.8655)" gradientUnits="userSpaceOnUse">
				<stop  offset="0" style="stop-color:#FBFBFB"/>
				<stop  offset="1" style="stop-color:#E7E7E7"/>
			</radialGradient>
			<path class="st10" d="M67.718,89.006c-5.602,0-10.737-3.361-12.978-8.497c-0.747-1.774-1.214-3.735-1.214-5.602
				c0-7.843,6.349-14.192,14.099-14.192c0.84,0,1.681,0.093,2.521,0.28l0.373,0.093l0.187-0.373c0.28-0.56,0.56-1.214,0.84-1.867
				c0.093-0.28,0.28-0.467,0.373-0.747l0.093-0.187c0.56-0.934,1.12-1.774,1.774-2.521l0.093-0.093
				c0.093-0.187,0.28-0.28,0.373-0.467c1.867-2.054,4.108-3.641,6.629-4.762c2.428-1.027,4.949-1.587,7.469-1.587
				c6.629,0,12.698,3.361,16.153,9.057l0.187,0.28l0.28-0.093c0.84-0.187,1.681-0.28,2.521-0.28c8.683,0,15.779,7.096,15.779,15.779
				s-7.096,15.779-15.779,15.779L67.718,89.006L67.718,89.006z"/>
			<radialGradient id="SVGID_7_" cx="88.4931" cy="68.8383" r="28.9703" gradientUnits="userSpaceOnUse">
				<stop  offset="0" style="stop-color:#FBFBFB"/>
				<stop  offset="1" style="stop-color:#E7E7E7"/>
			</radialGradient>
			<path class="st11" d="M88.446,49.044c6.442,0,12.325,3.268,15.686,8.777l0.373,0.56l0.654-0.093
				c0.84-0.187,1.681-0.187,2.428-0.187c8.403,0,15.219,6.816,15.219,15.312c0,8.403-6.816,15.219-15.312,15.219H67.625
				c-5.415,0-10.364-3.268-12.511-8.216c-0.747-1.774-1.12-3.548-1.12-5.415c0-7.563,6.162-13.632,13.632-13.632
				c0.84,0,1.587,0.093,2.428,0.28l0.747,0.187l0.28-0.747c0.187-0.56,0.467-1.214,0.84-1.774c0.093-0.28,0.28-0.467,0.373-0.747
				l0.093-0.187c0.56-0.934,1.12-1.774,1.774-2.521l0.093-0.093c0.093-0.187,0.187-0.28,0.373-0.373
				c1.774-1.961,4.015-3.548,6.442-4.668C83.498,49.511,86.019,49.044,88.446,49.044 M88.446,48.111
				c-2.614,0-5.135,0.56-7.656,1.681c-2.614,1.12-4.855,2.801-6.722,4.855c-0.093,0.187-0.28,0.28-0.373,0.467l-0.093,0.093
				c-0.654,0.747-1.214,1.681-1.774,2.614l-0.093,0.187c-0.187,0.28-0.28,0.467-0.467,0.747c-0.373,0.654-0.654,1.307-0.84,1.867
				c-0.934-0.187-1.774-0.28-2.614-0.28c-8.03,0-14.659,6.536-14.659,14.659c0,1.961,0.373,3.921,1.214,5.789
				c2.334,5.322,7.563,8.777,13.352,8.777h39.868c8.963,0,16.246-7.283,16.246-16.246s-7.283-16.246-16.246-16.246
				c-0.84,0-1.681,0.093-2.614,0.28C101.425,51.565,95.262,48.111,88.446,48.111L88.446,48.111z"/>
		</g>
	</g>
</g>
<line class="st181" x1="9.081" y1="26.008" x2="9.081" y2="68.142"/>
<g>
	<path class="st74" d="M10.572,27.168l11.166-2.312l23.595,17.408c0,0-0.218,2.947-0.893,4.874
		c-0.676,1.926-3.704,2.489-3.704,2.489l-25.21-10.982l-4.954-9V27.168z"/>
	
		<radialGradient id="SVGID_8_" cx="28.7328" cy="37.4444" r="15.5557" gradientTransform="matrix(1 0 0 0.9981 0 -0.1475)" gradientUnits="userSpaceOnUse">
		<stop  offset="0" style="stop-color:#D44545"/>
		<stop  offset="1" style="stop-color:#C21E1E"/>
	</radialGradient>
	<path class="st12" d="M22.842,23.815C22.873,23.815,22.873,23.815,22.842,23.815L22.842,23.815z M22.842,23.815L22.842,23.815
		L22.842,23.815L22.842,23.815z M22.842,23.815c-0.187,0-1.026,0.062-1.483,0.517l-10.046,2.235l0.031,5.008l3.452,6.374
		c0.031,0.6,0.207,1.024,0.549,1.242c0.187,0.124,24.632,11.444,25.908,11.444h0.031c1.358-0.062,2.177-0.993,3.39-2.897
		c1.244-1.966,1.97-4.739,1.089-5.981c-0.124-0.155-21.605-17.766-22.787-17.88L22.842,23.815z M16.787,30.789
		c-0.881,1.935-1.607,3.953-1.876,5.556l-3.566-6.581l-0.031-2.297l9.113-2.08C19.514,26.505,17.606,28.978,16.787,30.789z
		 M42.187,45.502c0.85-1.749,1.638-2.39,2.208-2.597c0.156,0.455-0.062,2.08-1.151,3.839c-1.12,1.78-1.545,2.059-1.939,2.111
		C41.275,48.1,41.43,47.013,42.187,45.502z M32.649,39.584c2.032-4.046,3.846-3.177,3.846-3.177v-0.031
		c1.545,1.242,3.027,2.421,4.24,3.415c-0.726,0.662-1.721,1.718-2.426,3.052c-0.819,1.542-1.12,3.228-1.213,4.294
		c-1.545-0.662-3.359-1.48-5.298-2.328C31.56,44.292,31.042,42.75,32.649,39.584z M27.59,29.34c1.151,0.911,2.447,1.904,3.784,2.959
		c-0.933,0.755-2.478,2.173-3.546,4.077c-1.275,2.297-1.514,4.894-1.576,5.888c-1.451-0.662-2.872-1.304-4.178-1.904
		c-0.332-0.486-0.881-1.966,1.026-5.95C25.081,30.364,26.895,29.516,27.59,29.34z"/>
</g>
<line class="st183" x1="10.074" y1="26.008" x2="10.074" y2="68.464"/>
</svg>
