<?xml version="1.0" encoding="utf-8"?>
<!-- Generator: Adobe Illustrator 23.0.1, SVG Export Plug-In . SVG Version: 6.00 Build 0)  -->
<svg version="1.1" id="Ebene_2" xmlns="http://www.w3.org/2000/svg" xmlns:xlink="http://www.w3.org/1999/xlink" x="0px" y="0px"
	 viewBox="0 0 143 122" style="enable-background:new 0 0 143 122;" xml:space="preserve">
<style type="text/css">
	.st0{fill:url(#SVGID_1_);}
	.st1{fill:#F7B82C;}
	.st2{fill:#F7B82D;}
	.st3{fill:#F5AE23;}
	.st4{fill:url(#SVGID_2_);}
	.st5{fill:#DADCDE;}
	.st6{fill:url(#SVGID_3_);}
	.st7{fill:url(#SVGID_4_);}
	.st8{fill:url(#SVGID_5_);}
	.st9{fill:#FFFFFF;}
	.st10{fill:url(#SVGID_6_);}
	.st11{fill:#1D1D1B;stroke:#1D1D1B;stroke-width:0.5;stroke-miterlimit:10;}
	.st12{fill:#CBD9E7;}
	.st13{fill:#C3CFDA;}
	.st14{fill:url(#SVGID_7_);}
	.st15{fill:#BEE2F1;}
	.st16{fill:url(#SVGID_8_);}
	.st17{fill:url(#SVGID_9_);}
	.st18{fill:url(#SVGID_10_);}
	.st19{fill:url(#SVGID_11_);}
	.st20{fill:url(#SVGID_12_);}
	.st21{fill:url(#SVGID_13_);}
	.st22{fill:#59B9E8;}
	.st23{fill:url(#SVGID_14_);}
	.st24{fill:url(#SVGID_15_);}
	.st25{fill:url(#SVGID_16_);}
	.st26{fill:url(#SVGID_17_);}
	.st27{fill:url(#SVGID_18_);}
	.st28{fill:url(#SVGID_19_);}
	.st29{fill:url(#SVGID_20_);}
	.st30{fill:url(#SVGID_21_);}
	.st31{fill:url(#SVGID_22_);}
	.st32{fill:url(#SVGID_23_);}
	.st33{fill:url(#SVGID_24_);}
	.st34{fill:url(#SVGID_25_);}
	.st35{fill:url(#SVGID_26_);}
	.st36{fill:url(#SVGID_27_);}
	.st37{fill:url(#SVGID_28_);}
	.st38{fill:url(#SVGID_29_);}
	.st39{fill:url(#SVGID_30_);}
	.st40{fill:url(#SVGID_31_);}
	.st41{fill:url(#SVGID_32_);}
	.st42{fill:url(#SVGID_33_);}
	.st43{fill:url(#SVGID_34_);}
	.st44{fill:url(#SVGID_35_);}
	.st45{fill:url(#SVGID_36_);}
	.st46{fill:url(#SVGID_37_);}
	.st47{fill:url(#SVGID_38_);}
	.st48{fill:url(#SVGID_39_);}
	.st49{fill:url(#SVGID_40_);}
	.st50{fill:url(#SVGID_41_);}
	.st51{fill:url(#SVGID_42_);}
	.st52{fill:url(#SVGID_43_);}
	.st53{fill:url(#SVGID_44_);}
	.st54{fill:url(#SVGID_45_);}
	.st55{fill:url(#SVGID_46_);}
	.st56{fill:url(#SVGID_47_);}
	.st57{fill:url(#SVGID_48_);}
	.st58{fill:url(#SVGID_49_);}
	.st59{fill:url(#SVGID_50_);}
	.st60{fill:url(#SVGID_51_);}
	.st61{fill:url(#SVGID_52_);}
	.st62{fill:url(#SVGID_53_);}
	.st63{fill:url(#SVGID_54_);}
	.st64{fill:url(#SVGID_55_);}
	.st65{fill:url(#SVGID_56_);}
	.st66{fill:url(#SVGID_57_);}
	.st67{fill:url(#SVGID_58_);}
	.st68{fill:url(#SVGID_59_);}
	.st69{fill:url(#SVGID_60_);}
	.st70{fill:url(#SVGID_61_);}
	.st71{fill:url(#SVGID_62_);}
	.st72{fill:url(#SVGID_63_);}
	.st73{fill:url(#SVGID_64_);}
	.st74{fill:url(#SVGID_65_);}
	.st75{fill:url(#SVGID_66_);}
	.st76{fill:url(#SVGID_67_);}
	.st77{fill:url(#SVGID_68_);}
	.st78{fill:url(#SVGID_69_);}
	.st79{fill:url(#SVGID_70_);}
	.st80{fill:url(#SVGID_71_);}
	.st81{fill:url(#SVGID_72_);}
	.st82{fill:url(#SVGID_73_);}
	.st83{fill:url(#SVGID_74_);}
	.st84{fill:url(#SVGID_75_);}
	.st85{fill:url(#SVGID_76_);}
	.st86{fill:url(#SVGID_77_);}
	.st87{fill:url(#SVGID_78_);}
	.st88{fill:url(#SVGID_79_);}
	.st89{fill:url(#SVGID_80_);}
	.st90{fill:url(#SVGID_81_);}
	.st91{fill:url(#SVGID_82_);}
	.st92{fill:url(#SVGID_83_);}
	.st93{fill:url(#SVGID_84_);}
	.st94{fill:url(#SVGID_85_);}
	.st95{fill:url(#SVGID_86_);}
	.st96{fill:url(#SVGID_87_);}
	.st97{fill:url(#SVGID_88_);}
	.st98{fill:url(#SVGID_89_);}
	.st99{fill:url(#SVGID_90_);}
	.st100{fill:url(#SVGID_91_);}
	.st101{fill:url(#SVGID_92_);}
	.st102{fill:url(#SVGID_93_);}
	.st103{fill:url(#SVGID_94_);}
	.st104{fill:url(#SVGID_95_);}
	.st105{fill:url(#SVGID_96_);}
	.st106{fill:url(#SVGID_97_);}
	.st107{fill:url(#SVGID_98_);}
	.st108{fill:url(#SVGID_99_);}
	.st109{fill:url(#SVGID_100_);}
	.st110{fill:url(#SVGID_101_);}
	.st111{fill:url(#SVGID_102_);}
	.st112{fill:url(#SVGID_103_);}
	.st113{fill:url(#SVGID_104_);}
	.st114{fill:url(#SVGID_105_);}
	.st115{fill:url(#SVGID_106_);}
	.st116{fill:url(#SVGID_107_);}
	.st117{fill:url(#SVGID_108_);}
	.st118{fill:url(#SVGID_109_);}
	.st119{fill:url(#SVGID_110_);}
	.st120{fill:url(#SVGID_111_);}
	.st121{fill:url(#SVGID_112_);}
	.st122{fill:url(#SVGID_113_);}
	.st123{fill:url(#SVGID_114_);}
	.st124{fill:url(#SVGID_115_);}
	.st125{fill:url(#SVGID_116_);}
	.st126{fill:url(#SVGID_117_);}
	.st127{fill:url(#SVGID_118_);}
	.st128{fill:url(#SVGID_119_);}
	.st129{fill:url(#SVGID_120_);}
	.st130{fill:url(#SVGID_121_);}
	.st131{fill:url(#SVGID_122_);}
	.st132{fill:url(#SVGID_123_);}
	.st133{fill:url(#SVGID_124_);}
	.st134{fill:url(#SVGID_125_);}
	.st135{fill:url(#SVGID_126_);}
	.st136{fill:url(#SVGID_127_);}
	.st137{fill:url(#SVGID_128_);}
	.st138{fill:url(#SVGID_129_);}
	.st139{fill:url(#SVGID_130_);}
	.st140{fill:url(#SVGID_131_);}
	.st141{fill:url(#SVGID_132_);}
	.st142{fill:url(#SVGID_133_);}
	.st143{fill:url(#SVGID_134_);}
	.st144{fill:url(#SVGID_135_);}
	.st145{fill:url(#SVGID_136_);}
	.st146{fill:url(#SVGID_137_);}
	.st147{fill:url(#SVGID_138_);}
	.st148{fill:url(#SVGID_139_);}
	.st149{fill:url(#SVGID_140_);}
	.st150{fill:url(#SVGID_141_);}
	.st151{fill:url(#SVGID_142_);}
	.st152{fill:url(#SVGID_143_);}
	.st153{fill:url(#SVGID_144_);}
	.st154{fill:url(#SVGID_145_);}
	.st155{fill:url(#SVGID_146_);}
	.st156{fill:url(#SVGID_147_);}
	.st157{fill:url(#SVGID_148_);}
	.st158{fill:url(#SVGID_149_);}
	.st159{fill:url(#SVGID_150_);}
	.st160{fill:url(#SVGID_151_);}
	.st161{fill:url(#SVGID_152_);}
	.st162{fill:url(#SVGID_153_);}
	.st163{fill:url(#SVGID_154_);}
	.st164{fill:url(#SVGID_155_);}
	.st165{fill:url(#SVGID_156_);}
	.st166{fill:url(#SVGID_157_);}
	.st167{fill:url(#SVGID_158_);}
	.st168{fill:url(#SVGID_159_);}
	.st169{fill:url(#SVGID_160_);}
	.st170{fill:url(#SVGID_161_);}
	.st171{fill:url(#SVGID_162_);}
	.st172{fill:url(#SVGID_163_);}
	.st173{fill:url(#SVGID_164_);}
	.st174{fill:url(#SVGID_165_);}
	.st175{fill:url(#SVGID_166_);}
	.st176{fill:url(#SVGID_167_);}
	.st177{fill:url(#SVGID_168_);}
	.st178{fill:url(#SVGID_169_);}
	.st179{fill:url(#SVGID_170_);}
	.st180{fill:url(#SVGID_171_);}
	.st181{fill:url(#SVGID_172_);}
	.st182{fill:url(#SVGID_173_);}
	.st183{fill:url(#SVGID_174_);}
	.st184{fill:url(#SVGID_175_);}
	.st185{fill:url(#SVGID_176_);}
	.st186{fill:url(#SVGID_177_);}
	.st187{fill:url(#SVGID_178_);}
	.st188{fill:url(#SVGID_179_);}
	.st189{fill:url(#SVGID_180_);}
	.st190{fill:url(#SVGID_181_);}
	.st191{fill:url(#SVGID_182_);}
	.st192{fill:url(#SVGID_183_);}
	.st193{fill:url(#SVGID_184_);}
	.st194{fill:url(#SVGID_185_);}
	.st195{fill:url(#SVGID_186_);}
	.st196{fill:url(#SVGID_187_);}
	.st197{fill:url(#SVGID_188_);}
	.st198{fill:url(#SVGID_189_);}
	.st199{fill:url(#SVGID_190_);}
	.st200{fill:url(#SVGID_191_);}
	.st201{fill:url(#SVGID_192_);}
	.st202{fill:url(#SVGID_193_);}
	.st203{fill:url(#SVGID_194_);}
	.st204{fill:url(#SVGID_195_);}
	.st205{fill:url(#SVGID_196_);}
	.st206{fill:url(#SVGID_197_);}
	.st207{fill:url(#SVGID_198_);}
	.st208{fill:url(#SVGID_199_);}
	.st209{fill:url(#SVGID_200_);}
	.st210{fill:url(#SVGID_201_);}
	.st211{fill:url(#SVGID_202_);}
	.st212{fill:url(#SVGID_203_);}
	.st213{fill:url(#SVGID_204_);}
	.st214{fill:url(#SVGID_205_);}
	.st215{fill:url(#SVGID_206_);}
	.st216{fill:url(#SVGID_207_);}
	.st217{fill:url(#SVGID_208_);}
	.st218{fill:url(#SVGID_209_);}
	.st219{fill:url(#SVGID_210_);}
	.st220{fill:url(#SVGID_211_);}
	.st221{fill:url(#SVGID_212_);}
	.st222{fill:url(#SVGID_213_);}
	.st223{fill:url(#SVGID_214_);}
	.st224{fill:url(#SVGID_215_);}
	.st225{fill:url(#SVGID_216_);}
	.st226{fill:url(#SVGID_217_);}
	.st227{fill:url(#SVGID_218_);}
	.st228{fill:url(#SVGID_219_);}
	.st229{fill:url(#SVGID_220_);}
	.st230{fill:url(#SVGID_221_);}
	.st231{fill:url(#SVGID_222_);}
	.st232{fill:url(#SVGID_223_);}
	.st233{fill:url(#SVGID_224_);}
	.st234{fill:url(#SVGID_225_);}
	.st235{fill:url(#SVGID_226_);}
	.st236{fill:url(#SVGID_227_);}
	.st237{fill:url(#SVGID_228_);}
	.st238{fill:url(#SVGID_229_);}
	.st239{fill:url(#SVGID_230_);}
	.st240{fill:url(#SVGID_231_);}
	.st241{fill:url(#SVGID_232_);}
	.st242{fill:url(#SVGID_233_);}
	.st243{fill:url(#SVGID_234_);}
	.st244{fill:url(#SVGID_235_);}
	.st245{fill:url(#SVGID_236_);}
	.st246{fill:url(#SVGID_237_);}
	.st247{fill:url(#SVGID_238_);}
	.st248{fill:url(#SVGID_239_);}
	.st249{fill:url(#SVGID_240_);}
	.st250{fill:url(#SVGID_241_);}
	.st251{fill:url(#SVGID_242_);}
	.st252{fill:url(#SVGID_243_);}
	.st253{fill:url(#SVGID_244_);}
	.st254{fill:url(#SVGID_245_);}
	.st255{fill:url(#SVGID_246_);}
	.st256{fill:url(#SVGID_247_);}
	.st257{fill:url(#SVGID_248_);}
	.st258{fill:url(#SVGID_249_);}
	.st259{fill:url(#SVGID_250_);}
	.st260{fill:url(#SVGID_251_);}
	.st261{fill:url(#SVGID_252_);}
	.st262{fill:url(#SVGID_253_);}
	.st263{fill:url(#SVGID_254_);}
	.st264{fill:url(#SVGID_255_);}
	.st265{fill:url(#SVGID_256_);}
	.st266{fill:url(#SVGID_257_);}
	.st267{fill:url(#SVGID_258_);}
	.st268{fill:url(#SVGID_259_);}
	.st269{fill:url(#SVGID_260_);}
	.st270{fill:url(#SVGID_261_);}
	.st271{fill:url(#SVGID_262_);}
	.st272{fill:url(#SVGID_263_);}
	.st273{fill:url(#SVGID_264_);}
	.st274{fill:url(#SVGID_265_);}
	.st275{fill:url(#SVGID_266_);}
	.st276{fill:url(#SVGID_267_);}
	.st277{fill:url(#SVGID_268_);}
	.st278{fill:url(#SVGID_269_);}
	.st279{fill:url(#SVGID_270_);}
	.st280{fill:url(#SVGID_271_);}
	.st281{fill:url(#SVGID_272_);}
	.st282{fill:url(#SVGID_273_);}
	.st283{fill:url(#SVGID_274_);}
	.st284{fill:url(#SVGID_275_);}
</style>
<g>
	<g>
		
			<radialGradient id="SVGID_1_" cx="57.2953" cy="2983.4258" r="44.2744" gradientTransform="matrix(1 0 0 -1 0 3026.5898)" gradientUnits="userSpaceOnUse">
			<stop  offset="0" style="stop-color:#F9DA52"/>
			<stop  offset="1" style="stop-color:#F7B82C"/>
		</radialGradient>
		<path class="st0" d="M70.764,87.829C53.489,87.843,39.475,73.85,39.461,56.575C39.452,45.389,45.418,35.05,55.107,29.46
			c3.892-2.258,8.232-3.635,12.715-4.032h0.154c0.57-0.001,1.097,0.304,1.38,0.799c0.31,0.542,0.279,1.215-0.082,1.726
			c-8.953,12.633-5.97,30.132,6.662,39.085c4.757,3.372,10.448,5.176,16.279,5.162c0.908,0,1.735-0.045,2.588-0.127h0.082
			c0.591-0.017,1.146,0.285,1.453,0.79c0.31,0.542,0.279,1.215-0.082,1.726c-5.832,8.267-15.313,13.19-25.429,13.205L70.764,87.829z
			"/>
		<path class="st1" d="M67.976,25.999c0.375-0.018,0.728,0.179,0.908,0.509c0.201,0.345,0.18,0.776-0.054,1.099
			c-9.164,12.877-6.154,30.745,6.723,39.908c4.865,3.462,10.692,5.316,16.663,5.301c0.908,0,1.744,0,2.607-0.118h0.054
			c0.367-0.004,0.711,0.181,0.908,0.49c0.201,0.345,0.18,0.776-0.054,1.099c-5.725,8.116-15.034,12.948-24.966,12.96
			C53.81,87.265,40.053,73.536,40.036,56.582c-0.011-10.984,5.847-21.136,15.362-26.623c3.822-2.21,8.081-3.558,12.479-3.951h0.1
			 M67.976,24.837h-0.209c-4.567,0.409-8.99,1.81-12.96,4.105c-15.243,8.798-20.468,28.287-11.67,43.53s28.287,20.468,43.53,11.67
			c3.976-2.305,7.401-5.451,10.036-9.218c0.498-0.693,0.544-1.613,0.118-2.352c-0.416-0.687-1.168-1.099-1.971-1.081h-0.127
			c-0.845,0.082-1.689,0.127-2.534,0.127c-15.163,0.027-27.476-12.243-27.503-27.406c-0.01-5.708,1.759-11.277,5.062-15.933
			c0.495-0.695,0.538-1.615,0.109-2.352c-0.38-0.681-1.1-1.102-1.88-1.099L67.976,24.837z"/>
		<path class="st2" d="M114.266,47.741c-0.422,0.014-0.799-0.264-0.908-0.672l-1.162-4.314c-0.2-0.693-0.742-1.235-1.435-1.435
			l-4.323-1.162c-0.408-0.11-0.687-0.486-0.672-0.908c-0.014-0.422,0.264-0.799,0.672-0.908l4.323-1.162
			c0.695-0.197,1.238-0.74,1.435-1.435l1.162-4.323c0.122-0.487,0.615-0.782,1.102-0.66c0.325,0.081,0.579,0.335,0.66,0.66
			l1.162,4.323c0.193,0.712,0.75,1.269,1.462,1.462l4.323,1.162c0.408,0.11,0.687,0.486,0.672,0.908
			c0.014,0.422-0.264,0.799-0.672,0.908l-4.296,1.135c-0.713,0.198-1.268,0.757-1.462,1.471l-1.162,4.314
			C115.027,47.489,114.668,47.748,114.266,47.741z"/>
		<path class="st3" d="M114.266,31.33c0.152-0.008,0.287,0.096,0.318,0.245l1.162,4.296c0.244,0.929,0.969,1.654,1.898,1.898
			l4.323,1.162c0.147,0.031,0.249,0.168,0.236,0.318c0.016,0.149-0.088,0.285-0.236,0.309l-4.323,1.162
			c-0.907,0.26-1.615,0.972-1.871,1.88l-1.162,4.323c-0.035,0.145-0.169,0.245-0.318,0.236c-0.148,0.012-0.281-0.09-0.309-0.236
			l-1.172-4.323c-0.256-0.908-0.964-1.62-1.871-1.88l-4.323-1.162c-0.146-0.027-0.248-0.161-0.236-0.309
			c-0.009-0.149,0.091-0.283,0.236-0.318l4.323-1.162c0.908-0.261,1.61-0.983,1.844-1.898l1.172-4.314
			c0.023-0.15,0.158-0.256,0.309-0.245 M114.266,30.15c-0.678-0.013-1.276,0.442-1.444,1.099l-1.162,4.323
			c-0.134,0.516-0.537,0.919-1.054,1.054l-4.314,1.162c-0.795,0.211-1.268,1.027-1.057,1.822c0.137,0.516,0.541,0.92,1.057,1.057
			l4.314,1.162c0.512,0.141,0.913,0.541,1.054,1.054l1.162,4.323c0.221,0.798,1.047,1.265,1.844,1.044
			c0.507-0.141,0.903-0.537,1.044-1.044l1.162-4.323c0.141-0.512,0.541-0.913,1.054-1.054l4.314-1.162
			c0.795-0.211,1.268-1.027,1.057-1.822c-0.137-0.516-0.541-0.92-1.057-1.057l-4.314-1.162c-0.516-0.134-0.919-0.537-1.054-1.054
			l-1.162-4.323C115.542,30.592,114.944,30.137,114.266,30.15z"/>
		<path class="st2" d="M91.062,36.316c-0.422,0.014-0.799-0.264-0.908-0.672l-1.126-4.314c-0.194-0.717-0.754-1.277-1.471-1.471
			l-4.314-1.162c-0.408-0.11-0.687-0.486-0.672-0.908c-0.014-0.422,0.264-0.799,0.672-0.908l4.314-1.162
			c0.716-0.191,1.276-0.748,1.471-1.462l1.162-4.323c0.132-0.484,0.631-0.77,1.115-0.638c0.311,0.084,0.554,0.327,0.638,0.638
			l1.181,4.387c0.193,0.712,0.75,1.269,1.462,1.462l4.323,1.162c0.408,0.11,0.687,0.486,0.672,0.908
			c0.014,0.422-0.264,0.799-0.672,0.908l-4.323,1.162c-0.697,0.187-1.249,0.718-1.462,1.408l-1.181,4.314
			C91.836,36.042,91.474,36.318,91.062,36.316z"/>
		<path class="st3" d="M91.062,19.905c0.153-0.012,0.29,0.094,0.318,0.245l1.162,4.314c0.246,0.917,0.963,1.634,1.88,1.88
			l4.314,1.162c0.149,0.031,0.253,0.166,0.245,0.318c0.011,0.151-0.095,0.286-0.245,0.309l-4.314,1.162
			c-0.916,0.248-1.632,0.964-1.88,1.88l-1.162,4.323c-0.031,0.147-0.168,0.249-0.318,0.236c-0.147,0.008-0.278-0.092-0.309-0.236
			l-1.162-4.323c-0.254-0.926-0.986-1.643-1.916-1.88l-4.323-1.162c-0.146-0.027-0.248-0.161-0.236-0.309
			c-0.009-0.149,0.091-0.283,0.236-0.318l4.323-1.162c0.917-0.246,1.634-0.963,1.88-1.88l1.162-4.314
			c0.023-0.15,0.158-0.256,0.309-0.245 M91.026,18.743c-0.676-0.012-1.27,0.444-1.435,1.099l-1.162,4.323
			c-0.141,0.512-0.541,0.913-1.054,1.054l-4.241,1.162c-0.795,0.211-1.268,1.027-1.057,1.822c0.137,0.516,0.541,0.92,1.057,1.057
			l4.278,1.162c0.509,0.146,0.908,0.544,1.054,1.054l1.162,4.323c0.211,0.795,1.027,1.268,1.822,1.057
			c0.516-0.137,0.92-0.541,1.057-1.057l1.162-4.323c0.143-0.511,0.542-0.911,1.054-1.053l4.323-1.162
			c0.795-0.211,1.268-1.027,1.057-1.822c-0.137-0.516-0.541-0.92-1.057-1.057l-4.323-1.162c-0.514-0.138-0.916-0.539-1.054-1.054
			l-1.162-4.323c-0.165-0.659-0.765-1.115-1.444-1.099H91.026z"/>
	</g>
</g>
<g>
	<g>
		
			<radialGradient id="SVGID_2_" cx="-56.1813" cy="-14.0984" r="34.2915" gradientTransform="matrix(0.9582 0 0 0.9582 84.8794 50.1608)" gradientUnits="userSpaceOnUse">
			<stop  offset="0" style="stop-color:#D44445"/>
			<stop  offset="1" style="stop-color:#C11F1F"/>
		</radialGradient>
		<path class="st4" d="M9.364,64.089c-1.914,0-3.623-0.992-4.573-2.653c-0.95-1.662-0.937-3.638,0.034-5.287L25.93,20.318
			c0.957-1.625,2.653-2.594,4.539-2.594s3.582,0.97,4.539,2.594L56.112,56.15c0.971,1.648,0.984,3.625,0.034,5.286
			c-0.95,1.662-2.659,2.654-4.573,2.654H9.364z"/>
		<path class="st9" d="M30.469,18.724c1.426,0,2.852,0.701,3.677,2.102L55.25,56.657c1.675,2.845-0.375,6.433-3.677,6.433H9.364
			c-3.302,0-5.352-3.588-3.677-6.433l21.104-35.831C27.617,19.425,29.043,18.724,30.469,18.724 M30.469,16.724
			c-2.243,0-4.262,1.154-5.4,3.087L3.964,55.642c-1.156,1.962-1.171,4.314-0.041,6.291c1.13,1.977,3.164,3.157,5.441,3.157h42.208
			c2.277,0,4.311-1.18,5.441-3.157c1.13-1.977,1.115-4.329-0.041-6.291L35.869,19.811C34.73,17.878,32.712,16.724,30.469,16.724
			L30.469,16.724z"/>
	</g>
	<g>
		<path class="st9" d="M9.364,63.09h42.209c3.301,0,5.352-3.588,3.677-6.433L34.146,20.826c-1.65-2.802-5.703-2.802-7.354,0
			L5.688,56.657C4.012,59.501,6.063,63.09,9.364,63.09z"/>
		<radialGradient id="SVGID_3_" cx="30.4687" cy="40.9068" r="23.834" gradientUnits="userSpaceOnUse">
			<stop  offset="0" style="stop-color:#D44445"/>
			<stop  offset="1" style="stop-color:#C11F1F"/>
		</radialGradient>
		<path class="st6" d="M30.469,22.474c0.296,0,0.409,0.192,0.446,0.255L52.019,58.56c0.038,0.064,0.152,0.259,0.003,0.519
			c-0.149,0.261-0.375,0.261-0.449,0.261H9.364c-0.074,0-0.3,0-0.449-0.26c-0.149-0.261-0.034-0.455,0.003-0.519l21.104-35.831
			C30.06,22.666,30.173,22.474,30.469,22.474 M30.469,18.724c-1.426,0-2.852,0.701-3.677,2.102L5.688,56.657
			c-1.676,2.845,0.375,6.433,3.677,6.433h42.208c3.302,0,5.352-3.588,3.677-6.433L34.146,20.826
			C33.32,19.424,31.894,18.724,30.469,18.724L30.469,18.724z"/>
	</g>
	<path class="st11" d="M30.469,48.14c-0.811,0-1.467-0.657-1.467-1.467V34.236c0-0.81,0.657-1.467,1.467-1.467
		s1.467,0.657,1.467,1.467v12.437C31.936,47.483,31.279,48.14,30.469,48.14z"/>
	<circle class="st11" cx="30.469" cy="52.495" r="1.956"/>
</g>
</svg>
