<?xml version="1.0" encoding="utf-8"?>
<!-- Generator: Adobe Illustrator 23.0.1, SVG Export Plug-In . SVG Version: 6.00 Build 0)  -->
<svg version="1.1" id="Ebene_2" xmlns="http://www.w3.org/2000/svg" xmlns:xlink="http://www.w3.org/1999/xlink" x="0px" y="0px"
	 viewBox="0 0 143 122" style="enable-background:new 0 0 143 122;" xml:space="preserve">
<style type="text/css">
	.st0{fill:url(#SVGID_1_);}
	.st1{fill:#F7B82C;}
	.st2{fill:#F7B82D;}
	.st3{fill:#F5AE23;}
	.st4{fill:url(#SVGID_2_);}
	.st5{fill:#DADCDE;}
	.st6{fill:url(#SVGID_3_);}
	.st7{fill:url(#SVGID_4_);}
	.st8{fill:url(#SVGID_5_);}
	.st9{fill:#FFFFFF;}
	.st10{fill:url(#SVGID_6_);}
	.st11{fill:#1D1D1B;stroke:#1D1D1B;stroke-width:0.5;stroke-miterlimit:10;}
	.st12{fill:#CBD9E7;}
	.st13{fill:#C3CFDA;}
	.st14{fill:url(#SVGID_7_);}
	.st15{fill:#BEE2F1;}
	.st16{fill:url(#SVGID_8_);}
	.st17{fill:url(#SVGID_9_);}
	.st18{fill:url(#SVGID_10_);}
	.st19{fill:url(#SVGID_11_);}
	.st20{fill:url(#SVGID_12_);}
	.st21{fill:url(#SVGID_13_);}
	.st22{fill:#59B9E8;}
	.st23{fill:url(#SVGID_14_);}
	.st24{fill:url(#SVGID_15_);}
	.st25{fill:url(#SVGID_16_);}
	.st26{fill:url(#SVGID_17_);}
	.st27{fill:url(#SVGID_18_);}
	.st28{fill:url(#SVGID_19_);}
	.st29{fill:url(#SVGID_20_);}
	.st30{fill:url(#SVGID_21_);}
	.st31{fill:url(#SVGID_22_);}
	.st32{fill:url(#SVGID_23_);}
	.st33{fill:url(#SVGID_24_);}
	.st34{fill:url(#SVGID_25_);}
	.st35{fill:url(#SVGID_26_);}
	.st36{fill:url(#SVGID_27_);}
	.st37{fill:url(#SVGID_28_);}
	.st38{fill:url(#SVGID_29_);}
	.st39{fill:url(#SVGID_30_);}
	.st40{fill:url(#SVGID_31_);}
	.st41{fill:url(#SVGID_32_);}
	.st42{fill:url(#SVGID_33_);}
	.st43{fill:url(#SVGID_34_);}
	.st44{fill:url(#SVGID_35_);}
	.st45{fill:url(#SVGID_36_);}
	.st46{fill:url(#SVGID_37_);}
	.st47{fill:url(#SVGID_38_);}
	.st48{fill:url(#SVGID_39_);}
	.st49{fill:url(#SVGID_40_);}
	.st50{fill:url(#SVGID_41_);}
	.st51{fill:url(#SVGID_42_);}
	.st52{fill:url(#SVGID_43_);}
	.st53{fill:url(#SVGID_44_);}
	.st54{fill:url(#SVGID_45_);}
	.st55{fill:url(#SVGID_46_);}
	.st56{fill:url(#SVGID_47_);}
	.st57{fill:url(#SVGID_48_);}
	.st58{fill:url(#SVGID_49_);}
	.st59{fill:url(#SVGID_50_);}
	.st60{fill:url(#SVGID_51_);}
	.st61{fill:url(#SVGID_52_);}
	.st62{fill:url(#SVGID_53_);}
	.st63{fill:url(#SVGID_54_);}
	.st64{fill:url(#SVGID_55_);}
	.st65{fill:url(#SVGID_56_);}
	.st66{fill:url(#SVGID_57_);}
	.st67{fill:url(#SVGID_58_);}
	.st68{fill:url(#SVGID_59_);}
	.st69{fill:url(#SVGID_60_);}
	.st70{fill:url(#SVGID_61_);}
	.st71{fill:url(#SVGID_62_);}
	.st72{fill:url(#SVGID_63_);}
	.st73{fill:url(#SVGID_64_);}
	.st74{fill:url(#SVGID_65_);}
	.st75{fill:url(#SVGID_66_);}
	.st76{fill:url(#SVGID_67_);}
	.st77{fill:url(#SVGID_68_);}
	.st78{fill:url(#SVGID_69_);}
	.st79{fill:url(#SVGID_70_);}
	.st80{fill:url(#SVGID_71_);}
	.st81{fill:url(#SVGID_72_);}
	.st82{fill:url(#SVGID_73_);}
	.st83{fill:url(#SVGID_74_);}
	.st84{fill:url(#SVGID_75_);}
	.st85{fill:url(#SVGID_76_);}
	.st86{fill:url(#SVGID_77_);}
	.st87{fill:url(#SVGID_78_);}
	.st88{fill:url(#SVGID_79_);}
	.st89{fill:url(#SVGID_80_);}
	.st90{fill:url(#SVGID_81_);}
	.st91{fill:url(#SVGID_82_);}
	.st92{fill:url(#SVGID_83_);}
	.st93{fill:url(#SVGID_84_);}
	.st94{fill:url(#SVGID_85_);}
	.st95{fill:url(#SVGID_86_);}
	.st96{fill:url(#SVGID_87_);}
	.st97{fill:url(#SVGID_88_);}
	.st98{fill:url(#SVGID_89_);}
	.st99{fill:url(#SVGID_90_);}
	.st100{fill:url(#SVGID_91_);}
	.st101{fill:url(#SVGID_92_);}
	.st102{fill:url(#SVGID_93_);}
	.st103{fill:url(#SVGID_94_);}
	.st104{fill:url(#SVGID_95_);}
	.st105{fill:url(#SVGID_96_);}
	.st106{fill:url(#SVGID_97_);}
	.st107{fill:url(#SVGID_98_);}
	.st108{fill:url(#SVGID_99_);}
	.st109{fill:url(#SVGID_100_);}
	.st110{fill:url(#SVGID_101_);}
	.st111{fill:url(#SVGID_102_);}
	.st112{fill:url(#SVGID_103_);}
	.st113{fill:url(#SVGID_104_);}
	.st114{fill:url(#SVGID_105_);}
	.st115{fill:url(#SVGID_106_);}
	.st116{fill:url(#SVGID_107_);}
	.st117{fill:url(#SVGID_108_);}
	.st118{fill:url(#SVGID_109_);}
	.st119{fill:url(#SVGID_110_);}
	.st120{fill:url(#SVGID_111_);}
	.st121{fill:url(#SVGID_112_);}
	.st122{fill:url(#SVGID_113_);}
	.st123{fill:url(#SVGID_114_);}
	.st124{fill:url(#SVGID_115_);}
	.st125{fill:url(#SVGID_116_);}
	.st126{fill:url(#SVGID_117_);}
	.st127{fill:url(#SVGID_118_);}
	.st128{fill:url(#SVGID_119_);}
	.st129{fill:url(#SVGID_120_);}
	.st130{fill:url(#SVGID_121_);}
	.st131{fill:url(#SVGID_122_);}
	.st132{fill:url(#SVGID_123_);}
	.st133{fill:url(#SVGID_124_);}
	.st134{fill:url(#SVGID_125_);}
	.st135{fill:url(#SVGID_126_);}
	.st136{fill:url(#SVGID_127_);}
	.st137{fill:url(#SVGID_128_);}
	.st138{fill:url(#SVGID_129_);}
	.st139{fill:url(#SVGID_130_);}
	.st140{fill:url(#SVGID_131_);}
	.st141{fill:url(#SVGID_132_);}
	.st142{fill:url(#SVGID_133_);}
	.st143{fill:url(#SVGID_134_);}
	.st144{fill:url(#SVGID_135_);}
	.st145{fill:url(#SVGID_136_);}
	.st146{fill:url(#SVGID_137_);}
	.st147{fill:url(#SVGID_138_);}
	.st148{fill:url(#SVGID_139_);}
	.st149{fill:url(#SVGID_140_);}
	.st150{fill:url(#SVGID_141_);}
	.st151{fill:url(#SVGID_142_);}
	.st152{fill:url(#SVGID_143_);}
	.st153{fill:url(#SVGID_144_);}
	.st154{fill:url(#SVGID_145_);}
	.st155{fill:url(#SVGID_146_);}
	.st156{fill:url(#SVGID_147_);}
	.st157{fill:url(#SVGID_148_);}
	.st158{fill:url(#SVGID_149_);}
	.st159{fill:url(#SVGID_150_);}
	.st160{fill:url(#SVGID_151_);}
	.st161{fill:url(#SVGID_152_);}
	.st162{fill:url(#SVGID_153_);}
	.st163{fill:url(#SVGID_154_);}
	.st164{fill:url(#SVGID_155_);}
	.st165{fill:url(#SVGID_156_);}
	.st166{fill:url(#SVGID_157_);}
	.st167{fill:url(#SVGID_158_);}
	.st168{fill:url(#SVGID_159_);}
	.st169{fill:url(#SVGID_160_);}
	.st170{fill:url(#SVGID_161_);}
	.st171{fill:url(#SVGID_162_);}
	.st172{fill:url(#SVGID_163_);}
	.st173{fill:url(#SVGID_164_);}
	.st174{fill:url(#SVGID_165_);}
	.st175{fill:url(#SVGID_166_);}
	.st176{fill:url(#SVGID_167_);}
	.st177{fill:url(#SVGID_168_);}
	.st178{fill:url(#SVGID_169_);}
	.st179{fill:url(#SVGID_170_);}
	.st180{fill:url(#SVGID_171_);}
	.st181{fill:url(#SVGID_172_);}
	.st182{fill:url(#SVGID_173_);}
	.st183{fill:url(#SVGID_174_);}
	.st184{fill:url(#SVGID_175_);}
	.st185{fill:url(#SVGID_176_);}
	.st186{fill:url(#SVGID_177_);}
	.st187{fill:url(#SVGID_178_);}
	.st188{fill:url(#SVGID_179_);}
	.st189{fill:url(#SVGID_180_);}
	.st190{fill:url(#SVGID_181_);}
	.st191{fill:url(#SVGID_182_);}
	.st192{fill:url(#SVGID_183_);}
	.st193{fill:url(#SVGID_184_);}
	.st194{fill:url(#SVGID_185_);}
	.st195{fill:url(#SVGID_186_);}
	.st196{fill:url(#SVGID_187_);}
	.st197{fill:url(#SVGID_188_);}
	.st198{fill:url(#SVGID_189_);}
	.st199{fill:url(#SVGID_190_);}
	.st200{fill:url(#SVGID_191_);}
	.st201{fill:url(#SVGID_192_);}
	.st202{fill:url(#SVGID_193_);}
	.st203{fill:url(#SVGID_194_);}
	.st204{fill:url(#SVGID_195_);}
	.st205{fill:url(#SVGID_196_);}
	.st206{fill:url(#SVGID_197_);}
	.st207{fill:url(#SVGID_198_);}
	.st208{fill:url(#SVGID_199_);}
	.st209{fill:url(#SVGID_200_);}
	.st210{fill:url(#SVGID_201_);}
	.st211{fill:url(#SVGID_202_);}
	.st212{fill:url(#SVGID_203_);}
	.st213{fill:url(#SVGID_204_);}
	.st214{fill:url(#SVGID_205_);}
	.st215{fill:url(#SVGID_206_);}
	.st216{fill:url(#SVGID_207_);}
	.st217{fill:url(#SVGID_208_);}
	.st218{fill:url(#SVGID_209_);}
	.st219{fill:url(#SVGID_210_);}
	.st220{fill:url(#SVGID_211_);}
	.st221{fill:url(#SVGID_212_);}
	.st222{fill:url(#SVGID_213_);}
	.st223{fill:url(#SVGID_214_);}
	.st224{fill:url(#SVGID_215_);}
	.st225{fill:url(#SVGID_216_);}
	.st226{fill:url(#SVGID_217_);}
	.st227{fill:url(#SVGID_218_);}
	.st228{fill:url(#SVGID_219_);}
	.st229{fill:url(#SVGID_220_);}
	.st230{fill:url(#SVGID_221_);}
	.st231{fill:url(#SVGID_222_);}
	.st232{fill:url(#SVGID_223_);}
	.st233{fill:url(#SVGID_224_);}
	.st234{fill:url(#SVGID_225_);}
	.st235{fill:url(#SVGID_226_);}
	.st236{fill:url(#SVGID_227_);}
	.st237{fill:url(#SVGID_228_);}
	.st238{fill:url(#SVGID_229_);}
	.st239{fill:url(#SVGID_230_);}
	.st240{fill:url(#SVGID_231_);}
	.st241{fill:url(#SVGID_232_);}
	.st242{fill:url(#SVGID_233_);}
	.st243{fill:url(#SVGID_234_);}
	.st244{fill:url(#SVGID_235_);}
	.st245{fill:url(#SVGID_236_);}
	.st246{fill:url(#SVGID_237_);}
	.st247{fill:url(#SVGID_238_);}
	.st248{fill:url(#SVGID_239_);}
	.st249{fill:url(#SVGID_240_);}
	.st250{fill:url(#SVGID_241_);}
	.st251{fill:url(#SVGID_242_);}
	.st252{fill:url(#SVGID_243_);}
	.st253{fill:url(#SVGID_244_);}
	.st254{fill:url(#SVGID_245_);}
	.st255{fill:url(#SVGID_246_);}
	.st256{fill:url(#SVGID_247_);}
	.st257{fill:url(#SVGID_248_);}
	.st258{fill:url(#SVGID_249_);}
	.st259{fill:url(#SVGID_250_);}
	.st260{fill:url(#SVGID_251_);}
	.st261{fill:url(#SVGID_252_);}
	.st262{fill:url(#SVGID_253_);}
	.st263{fill:url(#SVGID_254_);}
	.st264{fill:url(#SVGID_255_);}
	.st265{fill:url(#SVGID_256_);}
	.st266{fill:url(#SVGID_257_);}
	.st267{fill:url(#SVGID_258_);}
	.st268{fill:url(#SVGID_259_);}
	.st269{fill:url(#SVGID_260_);}
	.st270{fill:url(#SVGID_261_);}
	.st271{fill:url(#SVGID_262_);}
	.st272{fill:url(#SVGID_263_);}
	.st273{fill:url(#SVGID_264_);}
	.st274{fill:url(#SVGID_265_);}
	.st275{fill:url(#SVGID_266_);}
	.st276{fill:url(#SVGID_267_);}
	.st277{fill:url(#SVGID_268_);}
	.st278{fill:url(#SVGID_269_);}
	.st279{fill:url(#SVGID_270_);}
	.st280{fill:url(#SVGID_271_);}
	.st281{fill:url(#SVGID_272_);}
	.st282{fill:url(#SVGID_273_);}
	.st283{fill:url(#SVGID_274_);}
	.st284{fill:url(#SVGID_275_);}
</style>
<g>
	<g>
		<g>
			<g>
				
					<radialGradient id="SVGID_1_" cx="44.8903" cy="2973.3933" r="74.1735" gradientTransform="matrix(1 0 0 -1 0 3026.8655)" gradientUnits="userSpaceOnUse">
					<stop  offset="0" style="stop-color:#FBFBFB"/>
					<stop  offset="1" style="stop-color:#E7E7E7"/>
				</radialGradient>
				<path class="st0" d="M43.552,86.218c-8.403,0-15.966-4.949-19.327-12.698c-1.214-2.708-1.774-5.509-1.774-8.403
					c0-11.671,9.524-21.195,21.101-21.195c1.214,0,2.521,0.093,3.735,0.373l0.467,0.093l0.187-0.467
					c0.373-0.84,0.747-1.774,1.307-2.801c0.187-0.373,0.373-0.747,0.654-1.12l0.187-0.28c0.84-1.401,1.681-2.614,2.614-3.735
					l0.093-0.187c0.187-0.187,0.373-0.467,0.56-0.654c2.801-3.081,6.069-5.415,9.804-7.096c3.641-1.587,7.376-2.428,11.204-2.428
					c9.897,0,18.86,5.042,24.089,13.538l0.187,0.28l0.373-0.093c1.307-0.28,2.521-0.373,3.828-0.373
					c12.978,0,23.529,10.551,23.529,23.529c0,12.978-10.551,23.529-23.529,23.529H43.552V86.218z"/>
				<path class="st5" d="M74.27,26.369c9.71,0,18.487,4.949,23.622,13.258l0.373,0.654l0.747-0.093
					c1.307-0.28,2.521-0.373,3.641-0.373c12.698,0,22.969,10.271,22.969,22.969s-10.271,22.969-22.969,22.969H43.459
					c-8.216,0-15.593-4.855-18.86-12.418c-1.12-2.614-1.774-5.415-1.774-8.216c0-11.391,9.244-20.634,20.634-20.634
					c1.214,0,2.428,0.093,3.641,0.373l0.934,0.187l0.373-0.84c0.373-0.84,0.747-1.774,1.214-2.708
					c0.187-0.373,0.373-0.654,0.56-1.027l0.187-0.28c0.84-1.307,1.681-2.614,2.614-3.735l0.093-0.187
					c0.187-0.187,0.373-0.467,0.56-0.654c2.708-2.988,5.976-5.322,9.71-7.003C66.894,27.116,70.629,26.369,74.27,26.369
					 M74.27,25.248c-3.828,0-7.656,0.84-11.391,2.428c-3.828,1.681-7.189,4.108-10.084,7.189c-0.187,0.187-0.373,0.467-0.56,0.654
					l-0.093,0.187c-0.934,1.12-1.867,2.428-2.708,3.828l-0.093,0.28c-0.187,0.373-0.467,0.747-0.654,1.12
					c-0.467,0.934-0.934,1.867-1.307,2.801c-1.307-0.28-2.614-0.373-3.921-0.373c-11.951,0-21.661,9.71-21.661,21.662
					c0,2.988,0.654,5.882,1.774,8.683c3.455,7.936,11.298,13.072,19.887,13.072h59.196c13.258,0,24.089-10.831,24.089-24.089
					c0-13.258-10.831-24.089-24.089-24.089c-1.214,0-2.521,0.093-3.921,0.373C93.598,30.477,84.354,25.248,74.27,25.248
					L74.27,25.248z"/>
			</g>
		</g>
		<g>
			
				<radialGradient id="SVGID_2_" cx="-288.0256" cy="4058.3137" r="6.281" gradientTransform="matrix(0.9704 0.2417 0.2417 -0.9704 -642.136 4108.2622)" gradientUnits="userSpaceOnUse">
				<stop  offset="0" style="stop-color:#71C6E4"/>
				<stop  offset="1" style="stop-color:#56C0EE"/>
			</radialGradient>
			<path class="st4" d="M58.864,107.599c-0.467,0-0.84-0.093-1.307-0.187c-2.801-0.747-4.575-3.548-3.828-6.442
				c0.373-1.401,2.428-3.921,5.976-7.096c0.373-0.28,0.747-0.373,1.027-0.373c0.654,0,1.214,0.373,1.401,1.027
				c1.587,4.482,2.241,7.656,1.867,9.057C63.346,105.918,61.292,107.599,58.864,107.599L58.864,107.599z"/>
			<path class="st22" d="M60.638,94.06c0.28,0,0.747,0.187,0.934,0.654c1.494,4.202,2.241,7.469,1.867,8.777
				c-0.56,2.147-2.428,3.548-4.575,3.548c-0.373,0-0.747-0.093-1.12-0.187c-1.214-0.28-2.241-1.027-2.894-2.147
				c-0.654-1.12-0.84-2.334-0.56-3.548c0.187-0.654,1.027-2.521,5.789-6.816C60.265,94.06,60.545,94.06,60.638,94.06 M60.638,92.94
				c-0.467,0-0.934,0.187-1.401,0.56c-2.241,2.054-5.602,5.415-6.069,7.376c-0.747,3.081,1.12,6.256,4.202,7.096
				c0.467,0.093,0.934,0.187,1.401,0.187c2.614,0,4.949-1.774,5.602-4.388c0.467-2.054-0.84-6.442-1.961-9.43
				C62.226,93.5,61.479,92.94,60.638,92.94L60.638,92.94z"/>
		</g>
	</g>
	<g>
		<g>
			
				<radialGradient id="SVGID_3_" cx="112.0676" cy="-14.0984" r="34.2912" gradientTransform="matrix(0.9582 0 0 0.9582 -71.7534 50.1608)" gradientUnits="userSpaceOnUse">
				<stop  offset="0" style="stop-color:#D44445"/>
				<stop  offset="1" style="stop-color:#C11F1F"/>
			</radialGradient>
			<path class="st6" d="M13.952,64.089c-1.914,0-3.624-0.992-4.573-2.654s-0.937-3.638,0.035-5.287l21.104-35.831
				c0.956-1.625,2.653-2.594,4.539-2.594c1.885,0,3.582,0.97,4.538,2.594L60.698,56.15c0.972,1.648,0.984,3.625,0.035,5.286
				s-2.659,2.654-4.573,2.654H13.952z"/>
			<path class="st9" d="M35.055,18.724c1.426,0,2.852,0.701,3.677,2.102l21.104,35.831c1.675,2.845-0.375,6.433-3.677,6.433H13.951
				c-3.301,0-5.352-3.588-3.677-6.433l21.104-35.831C32.204,19.425,33.63,18.724,35.055,18.724 M35.055,16.724
				c-2.243,0-4.262,1.154-5.4,3.087L8.551,55.642c-1.156,1.962-1.171,4.314-0.041,6.291c1.13,1.977,3.164,3.157,5.441,3.157H56.16
				c2.277,0,4.311-1.18,5.441-3.157c1.13-1.977,1.115-4.329-0.041-6.291L40.456,19.811C39.317,17.878,37.299,16.724,35.055,16.724
				L35.055,16.724z"/>
		</g>
		<g>
			<path class="st9" d="M13.951,63.09H56.16c3.301,0,5.352-3.588,3.677-6.433L38.732,20.826c-1.65-2.802-5.703-2.802-7.354,0
				L10.274,56.657C8.599,59.501,10.65,63.09,13.951,63.09z"/>
			<radialGradient id="SVGID_4_" cx="35.0555" cy="40.9068" r="23.834" gradientUnits="userSpaceOnUse">
				<stop  offset="0" style="stop-color:#D44445"/>
				<stop  offset="1" style="stop-color:#C11F1F"/>
			</radialGradient>
			<path class="st7" d="M35.055,22.474c0.296,0,0.409,0.192,0.446,0.255L56.605,58.56c0.038,0.064,0.152,0.259,0.003,0.519
				c-0.149,0.261-0.375,0.261-0.449,0.261H13.951c-0.074,0-0.3,0-0.449-0.261c-0.149-0.261-0.034-0.455,0.003-0.519L34.61,22.729
				C34.647,22.666,34.76,22.474,35.055,22.474 M35.055,18.724c-1.426,0-2.852,0.701-3.677,2.102L10.274,56.657
				c-1.675,2.845,0.375,6.433,3.677,6.433H56.16c3.301,0,5.352-3.588,3.677-6.433L38.732,20.826
				C37.907,19.424,36.481,18.724,35.055,18.724L35.055,18.724z"/>
		</g>
		<path class="st11" d="M35.056,48.14c-0.811,0-1.467-0.657-1.467-1.467V34.236c0-0.81,0.657-1.467,1.467-1.467
			c0.811,0,1.467,0.657,1.467,1.467v12.437C36.523,47.483,35.866,48.14,35.056,48.14z"/>
		<circle class="st11" cx="35.055" cy="52.495" r="1.956"/>
	</g>
</g>
</svg>
