<?xml version="1.0" encoding="utf-8"?>
<!-- Generator: Adobe Illustrator 23.0.1, SVG Export Plug-In . SVG Version: 6.00 Build 0)  -->
<svg version="1.1" id="Ebene_2" xmlns="http://www.w3.org/2000/svg" xmlns:xlink="http://www.w3.org/1999/xlink" x="0px" y="0px"
	 viewBox="0 0 143 122" style="enable-background:new 0 0 143 122;" xml:space="preserve">
<style type="text/css">
	.st0{fill:url(#SVGID_1_);}
	.st1{fill:#F7B82C;}
	.st2{fill:#F7B82D;}
	.st3{fill:#F5AE23;}
	.st4{fill:url(#SVGID_2_);}
	.st5{fill:#DADCDE;}
	.st6{fill:url(#SVGID_3_);}
	.st7{fill:url(#SVGID_4_);}
	.st8{fill:url(#SVGID_5_);}
	.st9{fill:#FFFFFF;}
	.st10{fill:url(#SVGID_6_);}
	.st11{fill:#1D1D1B;stroke:#1D1D1B;stroke-width:0.5;stroke-miterlimit:10;}
	.st12{fill:#CBD9E7;}
	.st13{fill:#C3CFDA;}
	.st14{fill:url(#SVGID_7_);}
	.st15{fill:#BEE2F1;}
	.st16{fill:url(#SVGID_8_);}
	.st17{fill:url(#SVGID_9_);}
	.st18{fill:url(#SVGID_10_);}
	.st19{fill:url(#SVGID_11_);}
	.st20{fill:url(#SVGID_12_);}
	.st21{fill:url(#SVGID_13_);}
	.st22{fill:#59B9E8;}
	.st23{fill:url(#SVGID_14_);}
	.st24{fill:url(#SVGID_15_);}
	.st25{fill:url(#SVGID_16_);}
	.st26{fill:url(#SVGID_17_);}
	.st27{fill:url(#SVGID_18_);}
	.st28{fill:url(#SVGID_19_);}
	.st29{fill:url(#SVGID_20_);}
	.st30{fill:url(#SVGID_21_);}
	.st31{fill:url(#SVGID_22_);}
	.st32{fill:url(#SVGID_23_);}
	.st33{fill:url(#SVGID_24_);}
	.st34{fill:url(#SVGID_25_);}
	.st35{fill:url(#SVGID_26_);}
	.st36{fill:url(#SVGID_27_);}
	.st37{fill:url(#SVGID_28_);}
	.st38{fill:url(#SVGID_29_);}
	.st39{fill:url(#SVGID_30_);}
	.st40{fill:url(#SVGID_31_);}
	.st41{fill:url(#SVGID_32_);}
	.st42{fill:url(#SVGID_33_);}
	.st43{fill:url(#SVGID_34_);}
	.st44{fill:url(#SVGID_35_);}
	.st45{fill:url(#SVGID_36_);}
	.st46{fill:url(#SVGID_37_);}
	.st47{fill:url(#SVGID_38_);}
	.st48{fill:url(#SVGID_39_);}
	.st49{fill:url(#SVGID_40_);}
	.st50{fill:url(#SVGID_41_);}
	.st51{fill:url(#SVGID_42_);}
	.st52{fill:url(#SVGID_43_);}
	.st53{fill:url(#SVGID_44_);}
	.st54{fill:url(#SVGID_45_);}
	.st55{fill:url(#SVGID_46_);}
	.st56{fill:url(#SVGID_47_);}
	.st57{fill:url(#SVGID_48_);}
	.st58{fill:url(#SVGID_49_);}
	.st59{fill:url(#SVGID_50_);}
	.st60{fill:url(#SVGID_51_);}
	.st61{fill:url(#SVGID_52_);}
	.st62{fill:url(#SVGID_53_);}
	.st63{fill:url(#SVGID_54_);}
	.st64{fill:url(#SVGID_55_);}
	.st65{fill:url(#SVGID_56_);}
	.st66{fill:url(#SVGID_57_);}
	.st67{fill:url(#SVGID_58_);}
	.st68{fill:url(#SVGID_59_);}
	.st69{fill:url(#SVGID_60_);}
	.st70{fill:url(#SVGID_61_);}
	.st71{fill:url(#SVGID_62_);}
	.st72{fill:url(#SVGID_63_);}
	.st73{fill:url(#SVGID_64_);}
	.st74{fill:url(#SVGID_65_);}
	.st75{fill:url(#SVGID_66_);}
	.st76{fill:url(#SVGID_67_);}
	.st77{fill:url(#SVGID_68_);}
	.st78{fill:url(#SVGID_69_);}
	.st79{fill:url(#SVGID_70_);}
	.st80{fill:url(#SVGID_71_);}
	.st81{fill:url(#SVGID_72_);}
	.st82{fill:url(#SVGID_73_);}
	.st83{fill:url(#SVGID_74_);}
	.st84{fill:url(#SVGID_75_);}
	.st85{fill:url(#SVGID_76_);}
	.st86{fill:url(#SVGID_77_);}
	.st87{fill:url(#SVGID_78_);}
	.st88{fill:url(#SVGID_79_);}
	.st89{fill:url(#SVGID_80_);}
	.st90{fill:url(#SVGID_81_);}
	.st91{fill:url(#SVGID_82_);}
	.st92{fill:url(#SVGID_83_);}
	.st93{fill:url(#SVGID_84_);}
	.st94{fill:url(#SVGID_85_);}
	.st95{fill:url(#SVGID_86_);}
	.st96{fill:url(#SVGID_87_);}
	.st97{fill:url(#SVGID_88_);}
	.st98{fill:url(#SVGID_89_);}
	.st99{fill:url(#SVGID_90_);}
	.st100{fill:url(#SVGID_91_);}
	.st101{fill:url(#SVGID_92_);}
	.st102{fill:url(#SVGID_93_);}
	.st103{fill:url(#SVGID_94_);}
	.st104{fill:url(#SVGID_95_);}
	.st105{fill:url(#SVGID_96_);}
	.st106{fill:url(#SVGID_97_);}
	.st107{fill:url(#SVGID_98_);}
	.st108{fill:url(#SVGID_99_);}
	.st109{fill:url(#SVGID_100_);}
	.st110{fill:url(#SVGID_101_);}
	.st111{fill:url(#SVGID_102_);}
	.st112{fill:url(#SVGID_103_);}
	.st113{fill:url(#SVGID_104_);}
	.st114{fill:url(#SVGID_105_);}
	.st115{fill:url(#SVGID_106_);}
	.st116{fill:url(#SVGID_107_);}
	.st117{fill:url(#SVGID_108_);}
	.st118{fill:url(#SVGID_109_);}
	.st119{fill:url(#SVGID_110_);}
	.st120{fill:url(#SVGID_111_);}
	.st121{fill:url(#SVGID_112_);}
	.st122{fill:url(#SVGID_113_);}
	.st123{fill:url(#SVGID_114_);}
	.st124{fill:url(#SVGID_115_);}
	.st125{fill:url(#SVGID_116_);}
	.st126{fill:url(#SVGID_117_);}
	.st127{fill:url(#SVGID_118_);}
	.st128{fill:url(#SVGID_119_);}
	.st129{fill:url(#SVGID_120_);}
	.st130{fill:url(#SVGID_121_);}
	.st131{fill:url(#SVGID_122_);}
	.st132{fill:url(#SVGID_123_);}
	.st133{fill:url(#SVGID_124_);}
	.st134{fill:url(#SVGID_125_);}
	.st135{fill:url(#SVGID_126_);}
	.st136{fill:url(#SVGID_127_);}
	.st137{fill:url(#SVGID_128_);}
	.st138{fill:url(#SVGID_129_);}
	.st139{fill:url(#SVGID_130_);}
	.st140{fill:url(#SVGID_131_);}
	.st141{fill:url(#SVGID_132_);}
	.st142{fill:url(#SVGID_133_);}
	.st143{fill:url(#SVGID_134_);}
	.st144{fill:url(#SVGID_135_);}
	.st145{fill:url(#SVGID_136_);}
	.st146{fill:url(#SVGID_137_);}
	.st147{fill:url(#SVGID_138_);}
	.st148{fill:url(#SVGID_139_);}
	.st149{fill:url(#SVGID_140_);}
	.st150{fill:url(#SVGID_141_);}
	.st151{fill:url(#SVGID_142_);}
	.st152{fill:url(#SVGID_143_);}
	.st153{fill:url(#SVGID_144_);}
	.st154{fill:url(#SVGID_145_);}
	.st155{fill:url(#SVGID_146_);}
	.st156{fill:url(#SVGID_147_);}
	.st157{fill:url(#SVGID_148_);}
	.st158{fill:url(#SVGID_149_);}
	.st159{fill:url(#SVGID_150_);}
	.st160{fill:url(#SVGID_151_);}
	.st161{fill:url(#SVGID_152_);}
	.st162{fill:url(#SVGID_153_);}
	.st163{fill:url(#SVGID_154_);}
	.st164{fill:url(#SVGID_155_);}
	.st165{fill:url(#SVGID_156_);}
	.st166{fill:url(#SVGID_157_);}
	.st167{fill:url(#SVGID_158_);}
	.st168{fill:url(#SVGID_159_);}
	.st169{fill:url(#SVGID_160_);}
	.st170{fill:url(#SVGID_161_);}
	.st171{fill:url(#SVGID_162_);}
	.st172{fill:url(#SVGID_163_);}
	.st173{fill:url(#SVGID_164_);}
	.st174{fill:url(#SVGID_165_);}
	.st175{fill:url(#SVGID_166_);}
	.st176{fill:url(#SVGID_167_);}
	.st177{fill:url(#SVGID_168_);}
	.st178{fill:url(#SVGID_169_);}
	.st179{fill:url(#SVGID_170_);}
	.st180{fill:url(#SVGID_171_);}
	.st181{fill:url(#SVGID_172_);}
	.st182{fill:url(#SVGID_173_);}
	.st183{fill:url(#SVGID_174_);}
	.st184{fill:url(#SVGID_175_);}
	.st185{fill:url(#SVGID_176_);}
	.st186{fill:url(#SVGID_177_);}
	.st187{fill:url(#SVGID_178_);}
	.st188{fill:url(#SVGID_179_);}
	.st189{fill:url(#SVGID_180_);}
	.st190{fill:url(#SVGID_181_);}
	.st191{fill:url(#SVGID_182_);}
	.st192{fill:url(#SVGID_183_);}
	.st193{fill:url(#SVGID_184_);}
	.st194{fill:url(#SVGID_185_);}
	.st195{fill:url(#SVGID_186_);}
	.st196{fill:url(#SVGID_187_);}
	.st197{fill:url(#SVGID_188_);}
	.st198{fill:url(#SVGID_189_);}
	.st199{fill:url(#SVGID_190_);}
	.st200{fill:url(#SVGID_191_);}
	.st201{fill:url(#SVGID_192_);}
	.st202{fill:url(#SVGID_193_);}
	.st203{fill:url(#SVGID_194_);}
	.st204{fill:url(#SVGID_195_);}
	.st205{fill:url(#SVGID_196_);}
	.st206{fill:url(#SVGID_197_);}
	.st207{fill:url(#SVGID_198_);}
	.st208{fill:url(#SVGID_199_);}
	.st209{fill:url(#SVGID_200_);}
	.st210{fill:url(#SVGID_201_);}
	.st211{fill:url(#SVGID_202_);}
	.st212{fill:url(#SVGID_203_);}
	.st213{fill:url(#SVGID_204_);}
	.st214{fill:url(#SVGID_205_);}
	.st215{fill:url(#SVGID_206_);}
	.st216{fill:url(#SVGID_207_);}
	.st217{fill:url(#SVGID_208_);}
	.st218{fill:url(#SVGID_209_);}
	.st219{fill:url(#SVGID_210_);}
	.st220{fill:url(#SVGID_211_);}
	.st221{fill:url(#SVGID_212_);}
	.st222{fill:url(#SVGID_213_);}
	.st223{fill:url(#SVGID_214_);}
	.st224{fill:url(#SVGID_215_);}
	.st225{fill:url(#SVGID_216_);}
	.st226{fill:url(#SVGID_217_);}
	.st227{fill:url(#SVGID_218_);}
	.st228{fill:url(#SVGID_219_);}
	.st229{fill:url(#SVGID_220_);}
	.st230{fill:url(#SVGID_221_);}
	.st231{fill:url(#SVGID_222_);}
	.st232{fill:url(#SVGID_223_);}
	.st233{fill:url(#SVGID_224_);}
	.st234{fill:url(#SVGID_225_);}
	.st235{fill:url(#SVGID_226_);}
	.st236{fill:url(#SVGID_227_);}
	.st237{fill:url(#SVGID_228_);}
	.st238{fill:url(#SVGID_229_);}
	.st239{fill:url(#SVGID_230_);}
	.st240{fill:url(#SVGID_231_);}
	.st241{fill:url(#SVGID_232_);}
	.st242{fill:url(#SVGID_233_);}
	.st243{fill:url(#SVGID_234_);}
	.st244{fill:url(#SVGID_235_);}
	.st245{fill:url(#SVGID_236_);}
	.st246{fill:url(#SVGID_237_);}
	.st247{fill:url(#SVGID_238_);}
	.st248{fill:url(#SVGID_239_);}
	.st249{fill:url(#SVGID_240_);}
	.st250{fill:url(#SVGID_241_);}
	.st251{fill:url(#SVGID_242_);}
	.st252{fill:url(#SVGID_243_);}
	.st253{fill:url(#SVGID_244_);}
	.st254{fill:url(#SVGID_245_);}
	.st255{fill:url(#SVGID_246_);}
	.st256{fill:url(#SVGID_247_);}
	.st257{fill:url(#SVGID_248_);}
	.st258{fill:url(#SVGID_249_);}
	.st259{fill:url(#SVGID_250_);}
	.st260{fill:url(#SVGID_251_);}
	.st261{fill:url(#SVGID_252_);}
	.st262{fill:url(#SVGID_253_);}
	.st263{fill:url(#SVGID_254_);}
	.st264{fill:url(#SVGID_255_);}
	.st265{fill:url(#SVGID_256_);}
	.st266{fill:url(#SVGID_257_);}
	.st267{fill:url(#SVGID_258_);}
	.st268{fill:url(#SVGID_259_);}
	.st269{fill:url(#SVGID_260_);}
	.st270{fill:url(#SVGID_261_);}
	.st271{fill:url(#SVGID_262_);}
	.st272{fill:url(#SVGID_263_);}
	.st273{fill:url(#SVGID_264_);}
	.st274{fill:url(#SVGID_265_);}
	.st275{fill:url(#SVGID_266_);}
	.st276{fill:url(#SVGID_267_);}
	.st277{fill:url(#SVGID_268_);}
	.st278{fill:url(#SVGID_269_);}
	.st279{fill:url(#SVGID_270_);}
	.st280{fill:url(#SVGID_271_);}
	.st281{fill:url(#SVGID_272_);}
	.st282{fill:url(#SVGID_273_);}
	.st283{fill:url(#SVGID_274_);}
	.st284{fill:url(#SVGID_275_);}
</style>
<g>
	<g>
		<g>
			
				<radialGradient id="SVGID_1_" cx="44.6955" cy="2973.3933" r="74.1735" gradientTransform="matrix(1 0 0 -1 0 3026.8655)" gradientUnits="userSpaceOnUse">
				<stop  offset="0" style="stop-color:#FBFBFB"/>
				<stop  offset="1" style="stop-color:#E7E7E7"/>
			</radialGradient>
			<path class="st0" d="M43.357,86.218c-8.403,0-15.966-4.949-19.327-12.698c-1.214-2.708-1.774-5.509-1.774-8.403
				c0-11.671,9.524-21.195,21.101-21.195c1.214,0,2.521,0.093,3.735,0.373l0.467,0.093l0.187-0.467
				c0.373-0.84,0.747-1.774,1.307-2.801c0.187-0.373,0.373-0.747,0.654-1.12l0.187-0.28c0.84-1.401,1.681-2.614,2.614-3.735
				l0.093-0.187c0.187-0.187,0.373-0.467,0.56-0.654c2.801-3.081,6.069-5.415,9.804-7.096c3.641-1.587,7.376-2.428,11.204-2.428
				c9.897,0,18.86,5.042,24.089,13.538l0.187,0.28l0.373-0.093c1.307-0.28,2.521-0.373,3.828-0.373
				c12.978,0,23.529,10.551,23.529,23.529c0,12.978-10.551,23.529-23.529,23.529H43.357V86.218z"/>
			<path class="st5" d="M74.075,26.369c9.71,0,18.487,4.949,23.622,13.258l0.373,0.654l0.747-0.093
				c1.307-0.28,2.521-0.373,3.641-0.373c12.698,0,22.969,10.271,22.969,22.969s-10.271,22.969-22.969,22.969H43.264
				c-8.216,0-15.593-4.855-18.86-12.418c-1.12-2.614-1.774-5.415-1.774-8.216c0-11.391,9.244-20.634,20.634-20.634
				c1.214,0,2.428,0.093,3.641,0.373l0.934,0.187l0.373-0.84c0.373-0.84,0.747-1.774,1.214-2.708
				c0.187-0.373,0.373-0.654,0.56-1.027l0.187-0.28c0.84-1.307,1.681-2.614,2.614-3.735l0.093-0.187
				c0.187-0.187,0.373-0.467,0.56-0.654c2.708-2.988,5.976-5.322,9.71-7.003C66.699,27.116,70.434,26.369,74.075,26.369
				 M74.075,25.248c-3.828,0-7.656,0.84-11.391,2.428c-3.828,1.681-7.189,4.108-10.084,7.189c-0.187,0.187-0.373,0.467-0.56,0.654
				l-0.093,0.187c-0.934,1.12-1.867,2.428-2.708,3.828l-0.093,0.28c-0.187,0.373-0.467,0.747-0.654,1.12
				c-0.467,0.934-0.934,1.867-1.307,2.801c-1.307-0.28-2.614-0.373-3.921-0.373c-11.951,0-21.662,9.71-21.662,21.662
				c0,2.988,0.654,5.882,1.774,8.683c3.455,7.936,11.298,13.072,19.887,13.072h59.196c13.258,0,24.089-10.831,24.089-24.089
				c0-13.258-10.831-24.089-24.089-24.089c-1.214,0-2.521,0.093-3.921,0.373C93.403,30.477,84.159,25.248,74.075,25.248
				L74.075,25.248z"/>
		</g>
	</g>
	<g>
		
			<radialGradient id="SVGID_2_" cx="170.7998" cy="4441.6079" r="5.8449" gradientTransform="matrix(0.9022 0.2247 0.2247 -0.9022 -1053.481 4068.3513)" gradientUnits="userSpaceOnUse">
			<stop  offset="0" style="stop-color:#71C6E4"/>
			<stop  offset="1" style="stop-color:#56C0EE"/>
		</radialGradient>
		<path class="st4" d="M98.258,105.639c-0.373,0-0.747,0-1.12-0.093c-1.214-0.28-2.147-1.027-2.801-2.054s-0.84-2.241-0.56-3.455
			c0.28-1.214,2.147-3.455,5.229-6.162c0.28-0.28,0.654-0.28,0.84-0.28c0.56,0,1.027,0.28,1.12,0.84
			c1.401,3.828,1.961,6.723,1.681,7.936C102.179,104.238,100.405,105.639,98.258,105.639L98.258,105.639z"/>
		<path class="st22" d="M99.845,94.061c0.187,0,0.56,0.093,0.654,0.467c1.307,3.641,1.961,6.536,1.681,7.563
			c-0.467,1.774-2.054,3.081-3.921,3.081c-0.28,0-0.654,0-0.934-0.093c-1.027-0.28-1.961-0.934-2.428-1.867
			c-0.56-0.934-0.747-1.961-0.467-3.081c0.28-1.12,2.147-3.268,5.042-5.976C99.565,94.061,99.752,94.061,99.845,94.061
			 M99.845,92.941c-0.373,0-0.84,0.187-1.214,0.467c-1.961,1.867-4.949,4.762-5.322,6.442c-0.654,2.708,1.027,5.509,3.735,6.162
			c0.373,0.093,0.84,0.187,1.214,0.187c2.241,0,4.388-1.587,4.949-3.828c0.467-1.774-0.747-5.695-1.681-8.216
			C101.246,93.407,100.592,92.941,99.845,92.941L99.845,92.941z"/>
	</g>
	<g>
		
			<radialGradient id="SVGID_3_" cx="-298.7097" cy="4259.645" r="5.4347" gradientTransform="matrix(0.9704 0.2417 0.2417 -0.9704 -666.26 4305.248)" gradientUnits="userSpaceOnUse">
			<stop  offset="0" style="stop-color:#71C6E4"/>
			<stop  offset="1" style="stop-color:#56C0EE"/>
		</radialGradient>
		<path class="st6" d="M73.048,105.639c-0.373,0-0.747,0-1.12-0.093c-2.428-0.56-3.921-3.081-3.361-5.509
			c0.28-1.214,2.147-3.455,5.229-6.162c0.28-0.28,0.654-0.28,0.84-0.28c0.56,0,1.027,0.28,1.12,0.84
			c1.401,3.828,1.961,6.723,1.681,7.936C76.97,104.238,75.196,105.639,73.048,105.639L73.048,105.639z"/>
		<path class="st22" d="M74.636,94.061c0.187,0,0.56,0.093,0.654,0.467c1.307,3.641,1.961,6.536,1.681,7.563
			c-0.467,1.774-2.054,3.081-3.921,3.081c-0.28,0-0.654,0-0.934-0.093c-1.027-0.28-1.961-0.934-2.428-1.867
			c-0.56-0.934-0.747-1.961-0.467-3.081c0.28-1.12,2.147-3.268,5.042-5.976C74.355,94.061,74.542,94.061,74.636,94.061
			 M74.636,92.941c-0.373,0-0.84,0.187-1.214,0.467c-1.961,1.867-4.949,4.762-5.322,6.442c-0.654,2.708,1.027,5.509,3.735,6.162
			c0.373,0.093,0.84,0.187,1.214,0.187c2.241,0,4.388-1.587,4.949-3.828c0.467-1.774-0.747-5.695-1.681-8.216
			C76.036,93.407,75.383,92.941,74.636,92.941L74.636,92.941z"/>
	</g>
	<g>
		
			<radialGradient id="SVGID_4_" cx="-323.1707" cy="4253.5522" r="5.435" gradientTransform="matrix(0.9704 0.2417 0.2417 -0.9704 -666.26 4305.248)" gradientUnits="userSpaceOnUse">
			<stop  offset="0" style="stop-color:#71C6E4"/>
			<stop  offset="1" style="stop-color:#56C0EE"/>
		</radialGradient>
		<path class="st7" d="M47.839,105.639c-0.373,0-0.747,0-1.12-0.093c-1.214-0.28-2.147-1.027-2.801-2.054s-0.84-2.241-0.56-3.455
			c0.28-1.214,2.147-3.455,5.229-6.162c0.28-0.28,0.654-0.28,0.84-0.28c0.56,0,1.027,0.28,1.12,0.84
			c1.401,3.828,1.961,6.723,1.681,7.936C51.76,104.238,49.986,105.639,47.839,105.639L47.839,105.639z"/>
		<path class="st22" d="M49.426,94.061c0.187,0,0.56,0.093,0.654,0.467c1.307,3.641,1.961,6.536,1.681,7.563
			c-0.467,1.774-2.054,3.081-3.921,3.081c-0.28,0-0.654,0-0.934-0.093c-2.147-0.56-3.455-2.708-2.894-4.855
			c0.28-1.12,2.147-3.268,5.042-5.976C49.146,94.061,49.333,94.061,49.426,94.061 M49.426,92.941c-0.373,0-0.84,0.187-1.214,0.467
			c-1.961,1.867-4.949,4.762-5.322,6.442c-0.654,2.708,1.027,5.509,3.735,6.162c0.373,0.093,0.84,0.187,1.214,0.187
			c2.241,0,4.388-1.587,4.949-3.828c0.467-1.774-0.747-5.695-1.681-8.216C50.827,93.407,50.173,92.941,49.426,92.941L49.426,92.941z
			"/>
	</g>
	<g>
		
			<radialGradient id="SVGID_5_" cx="-309.1643" cy="4242.1865" r="6.281" gradientTransform="matrix(0.9704 0.2417 0.2417 -0.9704 -666.26 4305.248)" gradientUnits="userSpaceOnUse">
			<stop  offset="0" style="stop-color:#71C6E4"/>
			<stop  offset="1" style="stop-color:#56C0EE"/>
		</radialGradient>
		<path class="st8" d="M58.67,121.045c-0.467,0-0.84-0.093-1.307-0.187c-2.801-0.747-4.575-3.548-3.828-6.442
			c0.373-1.401,2.428-3.921,5.976-7.096c0.373-0.28,0.747-0.373,1.027-0.373c0.654,0,1.214,0.373,1.401,1.027
			c1.587,4.482,2.241,7.656,1.867,9.057C63.151,119.364,61.097,121.045,58.67,121.045L58.67,121.045z"/>
		<path class="st22" d="M60.444,107.506c0.28,0,0.747,0.187,0.934,0.654c1.494,4.202,2.241,7.469,1.867,8.777
			c-0.56,2.147-2.428,3.548-4.575,3.548c-0.373,0-0.747-0.093-1.12-0.187c-1.214-0.28-2.241-1.027-2.894-2.147
			c-0.654-1.12-0.84-2.334-0.56-3.548c0.187-0.654,1.027-2.521,5.789-6.816C60.07,107.506,60.35,107.506,60.444,107.506
			 M60.444,106.386c-0.467,0-0.934,0.187-1.401,0.56c-2.241,2.054-5.602,5.415-6.069,7.376c-0.747,3.081,1.12,6.256,4.202,7.096
			c0.467,0.093,0.934,0.187,1.401,0.187c2.614,0,4.949-1.774,5.602-4.388c0.467-2.054-0.84-6.442-1.961-9.43
			C62.031,106.946,61.284,106.386,60.444,106.386L60.444,106.386z"/>
	</g>
	<g>
		
			<radialGradient id="SVGID_6_" cx="-284.7041" cy="4248.2793" r="6.2811" gradientTransform="matrix(0.9704 0.2417 0.2417 -0.9704 -666.26 4305.248)" gradientUnits="userSpaceOnUse">
			<stop  offset="0" style="stop-color:#71C6E4"/>
			<stop  offset="1" style="stop-color:#56C0EE"/>
		</radialGradient>
		<path class="st10" d="M83.879,121.045c-0.467,0-0.84-0.093-1.307-0.187c-2.801-0.747-4.575-3.548-3.828-6.442
			c0.373-1.401,2.428-3.921,5.976-7.096c0.373-0.28,0.747-0.373,1.027-0.373c0.654,0,1.214,0.373,1.401,1.027
			c1.587,4.482,2.241,7.656,1.867,9.057C88.361,119.364,86.307,121.045,83.879,121.045L83.879,121.045z"/>
		<path class="st22" d="M85.653,107.506c0.28,0,0.747,0.187,0.934,0.654c1.494,4.202,2.241,7.469,1.867,8.777
			c-0.56,2.147-2.428,3.548-4.575,3.548c-0.373,0-0.747-0.093-1.12-0.187c-1.214-0.28-2.241-1.027-2.894-2.147
			c-0.654-1.12-0.84-2.334-0.56-3.548c0.187-0.654,1.027-2.521,5.789-6.816C85.28,107.506,85.466,107.506,85.653,107.506
			 M85.653,106.386c-0.467,0-0.934,0.187-1.401,0.56c-2.241,2.054-5.602,5.415-6.069,7.376c-0.747,3.081,1.12,6.256,4.202,7.096
			c0.467,0.093,0.934,0.187,1.401,0.187c2.614,0,4.949-1.774,5.602-4.388c0.467-2.054-0.84-6.442-1.961-9.43
			C87.24,106.946,86.493,106.386,85.653,106.386L85.653,106.386z"/>
	</g>
</g>
<g>
	<g>
		
			<radialGradient id="SVGID_7_" cx="157.2064" cy="-25.1118" r="34.7957" gradientTransform="matrix(0.6796 0 0 0.7208 -71.7718 51.291)" gradientUnits="userSpaceOnUse">
			<stop  offset="0" style="stop-color:#D44445"/>
			<stop  offset="1" style="stop-color:#C11F1F"/>
		</radialGradient>
		<path class="st14" d="M19.677,54.124c-1.409,0-2.69-0.748-3.428-2.001c-0.779-1.324-0.8-2.98-0.054-4.323l14.967-26.953
			c0.729-1.312,2.03-2.096,3.481-2.096c1.452,0,2.754,0.784,3.481,2.096l14.968,26.953c0.746,1.343,0.725,3-0.055,4.324
			c-0.737,1.253-2.019,2-3.428,2H19.677z"/>
		<path class="st9" d="M34.644,19.751c1.011,0,2.022,0.527,2.608,1.581l14.967,26.953c1.188,2.14-0.266,4.839-2.608,4.839H19.677
			c-2.341,0-3.796-2.699-2.608-4.839l14.967-26.953C32.622,20.278,33.633,19.751,34.644,19.751 M34.644,17.751
			c-1.82,0-3.449,0.976-4.356,2.61L15.321,47.314c-0.917,1.651-0.892,3.688,0.067,5.316c0.919,1.561,2.522,2.493,4.29,2.493h29.934
			c1.767,0,3.371-0.932,4.29-2.493c0.958-1.628,0.984-3.665,0.067-5.316L39,20.361C38.093,18.727,36.464,17.751,34.644,17.751
			L34.644,17.751z"/>
	</g>
	<g>
		<path class="st9" d="M19.677,53.124h29.934c2.341,0,3.796-2.699,2.608-4.839L37.252,21.332c-1.17-2.108-4.045-2.108-5.215,0
			L17.07,48.285C15.881,50.425,17.336,53.124,19.677,53.124z"/>
		
			<radialGradient id="SVGID_8_" cx="34.6442" cy="36.4375" r="17.3544" gradientTransform="matrix(1 0 0 1.0607 0 -2.2104)" gradientUnits="userSpaceOnUse">
			<stop  offset="0" style="stop-color:#D44445"/>
			<stop  offset="1" style="stop-color:#C11F1F"/>
		</radialGradient>
		<path class="st16" d="M34.644,24.361l13.89,25.013h-27.78L34.644,24.361 M34.644,19.751c-1.011,0-2.022,0.527-2.608,1.581
			L17.07,48.285c-1.188,2.14,0.266,4.839,2.608,4.839h29.934c2.341,0,3.796-2.699,2.608-4.839L37.252,21.332
			C36.667,20.278,35.655,19.751,34.644,19.751L34.644,19.751z"/>
	</g>
	<path class="st11" d="M34.644,41.878c-0.575,0-1.041-0.494-1.041-1.104v-9.355c0-0.61,0.466-1.104,1.041-1.104
		c0.575,0,1.041,0.494,1.041,1.104v9.355C35.685,41.384,35.219,41.878,34.644,41.878z"/>
	<ellipse class="st11" cx="34.644" cy="45.154" rx="1.387" ry="1.472"/>
</g>
<g>
	
		<radialGradient id="SVGID_9_" cx="166.5963" cy="-7.4141" r="24.3393" gradientTransform="matrix(0.9582 0 0 0.9582 -105.804 50.1608)" gradientUnits="userSpaceOnUse">
		<stop  offset="0" style="stop-color:#D44445"/>
		<stop  offset="1" style="stop-color:#C11F1F"/>
	</radialGradient>
	<path class="st17" d="M37.806,62.482h31.23c2.443,0,3.96-2.655,2.721-4.76L56.142,31.211c-1.221-2.073-4.22-2.073-5.441,0
		L35.086,57.723C33.846,59.827,35.364,62.482,37.806,62.482z"/>
	<path class="st9" d="M52.613,52.697V41.916c0-1.165-0.947-2.112-2.112-2.112s-2.112,0.948-2.112,2.112v10.781
		c-0.73,0.618-1.156,1.527-1.156,2.494c0,1.802,1.467,3.269,3.269,3.269c1.802,0,3.269-1.466,3.269-3.269
		C53.769,54.224,53.343,53.315,52.613,52.697z M50.501,41.055c0.474,0,0.86,0.386,0.86,0.86v8.931H49.64v-8.931
		C49.64,41.441,50.026,41.055,50.501,41.055z"/>
	<g>
		<path class="st9" d="M59.119,50.979c0,1.078-0.181,1.867-0.542,2.368c-0.361,0.501-0.914,0.752-1.658,0.752
			c-0.728,0-1.276-0.262-1.645-0.785c-0.37-0.524-0.554-1.302-0.554-2.335c0-1.083,0.181-1.878,0.542-2.383
			c0.361-0.505,0.914-0.758,1.658-0.758c0.725,0,1.273,0.263,1.644,0.79C58.934,49.153,59.119,49.937,59.119,50.979z M56.357,50.979
			c0,0.689,0.043,1.162,0.129,1.421c0.086,0.258,0.231,0.388,0.433,0.388c0.206,0,0.351-0.133,0.436-0.4s0.127-0.736,0.127-1.408
			c0-0.675-0.043-1.148-0.129-1.419c-0.086-0.271-0.231-0.406-0.434-0.406c-0.203,0-0.347,0.13-0.433,0.392
			C56.4,49.807,56.357,50.284,56.357,50.979z"/>
		<path class="st9" d="M59.682,49.375c0-0.269,0.068-0.523,0.204-0.76c0.136-0.238,0.324-0.426,0.562-0.567s0.496-0.21,0.771-0.21
			c0.275,0,0.532,0.07,0.771,0.21c0.239,0.14,0.426,0.328,0.562,0.564c0.136,0.236,0.204,0.49,0.204,0.762
			c0,0.27-0.067,0.521-0.202,0.754c-0.134,0.233-0.321,0.419-0.558,0.556c-0.237,0.138-0.496,0.206-0.777,0.206
			c-0.275,0-0.532-0.068-0.771-0.204c-0.239-0.136-0.426-0.321-0.562-0.554C59.75,49.9,59.682,49.647,59.682,49.375z M60.673,49.375
			c0,0.139,0.054,0.262,0.161,0.369c0.107,0.107,0.236,0.16,0.385,0.16c0.15,0,0.278-0.054,0.385-0.162
			c0.107-0.108,0.161-0.231,0.161-0.367c0-0.144-0.052-0.273-0.156-0.385c-0.104-0.112-0.234-0.169-0.39-0.169
			c-0.156,0-0.286,0.056-0.39,0.169C60.725,49.102,60.673,49.23,60.673,49.375z"/>
	</g>
</g>
</svg>
