<?xml version="1.0" encoding="utf-8"?>
<!-- Generator: Adobe Illustrator 23.0.1, SVG Export Plug-In . SVG Version: 6.00 Build 0)  -->
<svg version="1.1" id="Ebene_2" xmlns="http://www.w3.org/2000/svg" xmlns:xlink="http://www.w3.org/1999/xlink" x="0px" y="0px"
	 viewBox="0 0 143 122" style="enable-background:new 0 0 143 122;" xml:space="preserve">
<style type="text/css">
	.st0{fill:url(#SVGID_1_);}
	.st1{fill:#F7B82C;}
	.st2{fill:#F7B82D;}
	.st3{fill:#F5AE23;}
	.st4{fill:url(#SVGID_2_);}
	.st5{fill:#DADCDE;}
	.st6{fill:url(#SVGID_3_);}
	.st7{fill:url(#SVGID_4_);}
	.st8{fill:url(#SVGID_5_);}
	.st9{fill:#FFFFFF;}
	.st10{fill:url(#SVGID_6_);}
	.st11{fill:#1D1D1B;stroke:#1D1D1B;stroke-width:0.5;stroke-miterlimit:10;}
	.st12{fill:#CBD9E7;}
	.st13{fill:#C3CFDA;}
	.st14{fill:url(#SVGID_7_);}
	.st15{fill:#BEE2F1;}
	.st16{fill:url(#SVGID_8_);}
	.st17{fill:url(#SVGID_9_);}
	.st18{fill:url(#SVGID_10_);}
	.st19{fill:url(#SVGID_11_);}
	.st20{fill:url(#SVGID_12_);}
	.st21{fill:url(#SVGID_13_);}
	.st22{fill:#59B9E8;}
	.st23{fill:url(#SVGID_14_);}
	.st24{fill:url(#SVGID_15_);}
	.st25{fill:url(#SVGID_16_);}
	.st26{fill:url(#SVGID_17_);}
	.st27{fill:url(#SVGID_18_);}
	.st28{fill:url(#SVGID_19_);}
	.st29{fill:url(#SVGID_20_);}
	.st30{fill:url(#SVGID_21_);}
	.st31{fill:url(#SVGID_22_);}
	.st32{fill:url(#SVGID_23_);}
	.st33{fill:url(#SVGID_24_);}
	.st34{fill:url(#SVGID_25_);}
	.st35{fill:url(#SVGID_26_);}
	.st36{fill:url(#SVGID_27_);}
	.st37{fill:url(#SVGID_28_);}
	.st38{fill:url(#SVGID_29_);}
	.st39{fill:url(#SVGID_30_);}
	.st40{fill:url(#SVGID_31_);}
	.st41{fill:url(#SVGID_32_);}
	.st42{fill:url(#SVGID_33_);}
	.st43{fill:url(#SVGID_34_);}
	.st44{fill:url(#SVGID_35_);}
	.st45{fill:url(#SVGID_36_);}
	.st46{fill:url(#SVGID_37_);}
	.st47{fill:url(#SVGID_38_);}
	.st48{fill:url(#SVGID_39_);}
	.st49{fill:url(#SVGID_40_);}
	.st50{fill:url(#SVGID_41_);}
	.st51{fill:url(#SVGID_42_);}
	.st52{fill:url(#SVGID_43_);}
	.st53{fill:url(#SVGID_44_);}
	.st54{fill:url(#SVGID_45_);}
	.st55{fill:url(#SVGID_46_);}
	.st56{fill:url(#SVGID_47_);}
	.st57{fill:url(#SVGID_48_);}
	.st58{fill:url(#SVGID_49_);}
	.st59{fill:url(#SVGID_50_);}
	.st60{fill:url(#SVGID_51_);}
	.st61{fill:url(#SVGID_52_);}
	.st62{fill:url(#SVGID_53_);}
	.st63{fill:url(#SVGID_54_);}
	.st64{fill:url(#SVGID_55_);}
	.st65{fill:url(#SVGID_56_);}
	.st66{fill:url(#SVGID_57_);}
	.st67{fill:url(#SVGID_58_);}
	.st68{fill:url(#SVGID_59_);}
	.st69{fill:url(#SVGID_60_);}
	.st70{fill:url(#SVGID_61_);}
	.st71{fill:url(#SVGID_62_);}
	.st72{fill:url(#SVGID_63_);}
	.st73{fill:url(#SVGID_64_);}
	.st74{fill:url(#SVGID_65_);}
	.st75{fill:url(#SVGID_66_);}
	.st76{fill:url(#SVGID_67_);}
	.st77{fill:url(#SVGID_68_);}
	.st78{fill:url(#SVGID_69_);}
	.st79{fill:url(#SVGID_70_);}
	.st80{fill:url(#SVGID_71_);}
	.st81{fill:url(#SVGID_72_);}
	.st82{fill:url(#SVGID_73_);}
	.st83{fill:url(#SVGID_74_);}
	.st84{fill:url(#SVGID_75_);}
	.st85{fill:url(#SVGID_76_);}
	.st86{fill:url(#SVGID_77_);}
	.st87{fill:url(#SVGID_78_);}
	.st88{fill:url(#SVGID_79_);}
	.st89{fill:url(#SVGID_80_);}
	.st90{fill:url(#SVGID_81_);}
	.st91{fill:url(#SVGID_82_);}
	.st92{fill:url(#SVGID_83_);}
	.st93{fill:url(#SVGID_84_);}
	.st94{fill:url(#SVGID_85_);}
	.st95{fill:url(#SVGID_86_);}
	.st96{fill:url(#SVGID_87_);}
	.st97{fill:url(#SVGID_88_);}
	.st98{fill:url(#SVGID_89_);}
	.st99{fill:url(#SVGID_90_);}
	.st100{fill:url(#SVGID_91_);}
	.st101{fill:url(#SVGID_92_);}
	.st102{fill:url(#SVGID_93_);}
	.st103{fill:url(#SVGID_94_);}
	.st104{fill:url(#SVGID_95_);}
	.st105{fill:url(#SVGID_96_);}
	.st106{fill:url(#SVGID_97_);}
	.st107{fill:url(#SVGID_98_);}
	.st108{fill:url(#SVGID_99_);}
	.st109{fill:url(#SVGID_100_);}
	.st110{fill:url(#SVGID_101_);}
	.st111{fill:url(#SVGID_102_);}
	.st112{fill:url(#SVGID_103_);}
	.st113{fill:url(#SVGID_104_);}
	.st114{fill:url(#SVGID_105_);}
	.st115{fill:url(#SVGID_106_);}
	.st116{fill:url(#SVGID_107_);}
	.st117{fill:url(#SVGID_108_);}
	.st118{fill:url(#SVGID_109_);}
	.st119{fill:url(#SVGID_110_);}
	.st120{fill:url(#SVGID_111_);}
	.st121{fill:url(#SVGID_112_);}
	.st122{fill:url(#SVGID_113_);}
	.st123{fill:url(#SVGID_114_);}
	.st124{fill:url(#SVGID_115_);}
	.st125{fill:url(#SVGID_116_);}
	.st126{fill:url(#SVGID_117_);}
	.st127{fill:url(#SVGID_118_);}
	.st128{fill:url(#SVGID_119_);}
	.st129{fill:url(#SVGID_120_);}
	.st130{fill:url(#SVGID_121_);}
	.st131{fill:url(#SVGID_122_);}
	.st132{fill:url(#SVGID_123_);}
	.st133{fill:url(#SVGID_124_);}
	.st134{fill:url(#SVGID_125_);}
	.st135{fill:url(#SVGID_126_);}
	.st136{fill:url(#SVGID_127_);}
	.st137{fill:url(#SVGID_128_);}
	.st138{fill:url(#SVGID_129_);}
	.st139{fill:url(#SVGID_130_);}
	.st140{fill:url(#SVGID_131_);}
	.st141{fill:url(#SVGID_132_);}
	.st142{fill:url(#SVGID_133_);}
	.st143{fill:url(#SVGID_134_);}
	.st144{fill:url(#SVGID_135_);}
	.st145{fill:url(#SVGID_136_);}
	.st146{fill:url(#SVGID_137_);}
	.st147{fill:url(#SVGID_138_);}
	.st148{fill:url(#SVGID_139_);}
	.st149{fill:url(#SVGID_140_);}
	.st150{fill:url(#SVGID_141_);}
	.st151{fill:url(#SVGID_142_);}
	.st152{fill:url(#SVGID_143_);}
	.st153{fill:url(#SVGID_144_);}
	.st154{fill:url(#SVGID_145_);}
	.st155{fill:url(#SVGID_146_);}
	.st156{fill:url(#SVGID_147_);}
	.st157{fill:url(#SVGID_148_);}
	.st158{fill:url(#SVGID_149_);}
	.st159{fill:url(#SVGID_150_);}
	.st160{fill:url(#SVGID_151_);}
	.st161{fill:url(#SVGID_152_);}
	.st162{fill:url(#SVGID_153_);}
	.st163{fill:url(#SVGID_154_);}
	.st164{fill:url(#SVGID_155_);}
	.st165{fill:url(#SVGID_156_);}
	.st166{fill:url(#SVGID_157_);}
	.st167{fill:url(#SVGID_158_);}
	.st168{fill:url(#SVGID_159_);}
	.st169{fill:url(#SVGID_160_);}
	.st170{fill:url(#SVGID_161_);}
	.st171{fill:url(#SVGID_162_);}
	.st172{fill:url(#SVGID_163_);}
	.st173{fill:url(#SVGID_164_);}
	.st174{fill:url(#SVGID_165_);}
	.st175{fill:url(#SVGID_166_);}
	.st176{fill:url(#SVGID_167_);}
	.st177{fill:url(#SVGID_168_);}
	.st178{fill:url(#SVGID_169_);}
	.st179{fill:url(#SVGID_170_);}
	.st180{fill:url(#SVGID_171_);}
	.st181{fill:url(#SVGID_172_);}
	.st182{fill:url(#SVGID_173_);}
	.st183{fill:url(#SVGID_174_);}
	.st184{fill:url(#SVGID_175_);}
	.st185{fill:url(#SVGID_176_);}
	.st186{fill:url(#SVGID_177_);}
	.st187{fill:url(#SVGID_178_);}
	.st188{fill:url(#SVGID_179_);}
	.st189{fill:url(#SVGID_180_);}
	.st190{fill:url(#SVGID_181_);}
	.st191{fill:url(#SVGID_182_);}
	.st192{fill:url(#SVGID_183_);}
	.st193{fill:url(#SVGID_184_);}
	.st194{fill:url(#SVGID_185_);}
	.st195{fill:url(#SVGID_186_);}
	.st196{fill:url(#SVGID_187_);}
	.st197{fill:url(#SVGID_188_);}
	.st198{fill:url(#SVGID_189_);}
	.st199{fill:url(#SVGID_190_);}
	.st200{fill:url(#SVGID_191_);}
	.st201{fill:url(#SVGID_192_);}
	.st202{fill:url(#SVGID_193_);}
	.st203{fill:url(#SVGID_194_);}
	.st204{fill:url(#SVGID_195_);}
	.st205{fill:url(#SVGID_196_);}
	.st206{fill:url(#SVGID_197_);}
	.st207{fill:url(#SVGID_198_);}
	.st208{fill:url(#SVGID_199_);}
	.st209{fill:url(#SVGID_200_);}
	.st210{fill:url(#SVGID_201_);}
	.st211{fill:url(#SVGID_202_);}
	.st212{fill:url(#SVGID_203_);}
	.st213{fill:url(#SVGID_204_);}
	.st214{fill:url(#SVGID_205_);}
	.st215{fill:url(#SVGID_206_);}
	.st216{fill:url(#SVGID_207_);}
	.st217{fill:url(#SVGID_208_);}
	.st218{fill:url(#SVGID_209_);}
	.st219{fill:url(#SVGID_210_);}
	.st220{fill:url(#SVGID_211_);}
	.st221{fill:url(#SVGID_212_);}
	.st222{fill:url(#SVGID_213_);}
	.st223{fill:url(#SVGID_214_);}
	.st224{fill:url(#SVGID_215_);}
	.st225{fill:url(#SVGID_216_);}
	.st226{fill:url(#SVGID_217_);}
	.st227{fill:url(#SVGID_218_);}
	.st228{fill:url(#SVGID_219_);}
	.st229{fill:url(#SVGID_220_);}
	.st230{fill:url(#SVGID_221_);}
	.st231{fill:url(#SVGID_222_);}
	.st232{fill:url(#SVGID_223_);}
	.st233{fill:url(#SVGID_224_);}
	.st234{fill:url(#SVGID_225_);}
	.st235{fill:url(#SVGID_226_);}
	.st236{fill:url(#SVGID_227_);}
	.st237{fill:url(#SVGID_228_);}
	.st238{fill:url(#SVGID_229_);}
	.st239{fill:url(#SVGID_230_);}
	.st240{fill:url(#SVGID_231_);}
	.st241{fill:url(#SVGID_232_);}
	.st242{fill:url(#SVGID_233_);}
	.st243{fill:url(#SVGID_234_);}
	.st244{fill:url(#SVGID_235_);}
	.st245{fill:url(#SVGID_236_);}
	.st246{fill:url(#SVGID_237_);}
	.st247{fill:url(#SVGID_238_);}
	.st248{fill:url(#SVGID_239_);}
	.st249{fill:url(#SVGID_240_);}
	.st250{fill:url(#SVGID_241_);}
	.st251{fill:url(#SVGID_242_);}
	.st252{fill:url(#SVGID_243_);}
	.st253{fill:url(#SVGID_244_);}
	.st254{fill:url(#SVGID_245_);}
	.st255{fill:url(#SVGID_246_);}
	.st256{fill:url(#SVGID_247_);}
	.st257{fill:url(#SVGID_248_);}
	.st258{fill:url(#SVGID_249_);}
	.st259{fill:url(#SVGID_250_);}
	.st260{fill:url(#SVGID_251_);}
	.st261{fill:url(#SVGID_252_);}
	.st262{fill:url(#SVGID_253_);}
	.st263{fill:url(#SVGID_254_);}
	.st264{fill:url(#SVGID_255_);}
	.st265{fill:url(#SVGID_256_);}
	.st266{fill:url(#SVGID_257_);}
	.st267{fill:url(#SVGID_258_);}
	.st268{fill:url(#SVGID_259_);}
	.st269{fill:url(#SVGID_260_);}
	.st270{fill:url(#SVGID_261_);}
	.st271{fill:url(#SVGID_262_);}
	.st272{fill:url(#SVGID_263_);}
	.st273{fill:url(#SVGID_264_);}
	.st274{fill:url(#SVGID_265_);}
	.st275{fill:url(#SVGID_266_);}
	.st276{fill:url(#SVGID_267_);}
	.st277{fill:url(#SVGID_268_);}
	.st278{fill:url(#SVGID_269_);}
	.st279{fill:url(#SVGID_270_);}
	.st280{fill:url(#SVGID_271_);}
	.st281{fill:url(#SVGID_272_);}
	.st282{fill:url(#SVGID_273_);}
	.st283{fill:url(#SVGID_274_);}
	.st284{fill:url(#SVGID_275_);}
</style>
<g>
	<g>
		<path class="st12" d="M39.008,86.069c-8.403,0-15.966-4.949-19.421-12.698c-1.214-2.708-1.774-5.509-1.774-8.403
			c0-11.671,9.524-21.195,21.195-21.195c1.214,0,2.521,0.093,3.828,0.373l0.467,0.093l0.187-0.467
			c0.373-0.84,0.747-1.774,1.307-2.801c0.187-0.373,0.373-0.747,0.654-1.12l0.187-0.28c0.84-1.401,1.681-2.614,2.614-3.735
			l0.093-0.187c0.187-0.187,0.373-0.467,0.56-0.654c2.801-3.081,6.069-5.415,9.897-7.096c3.641-1.587,7.469-2.428,11.204-2.428
			c9.897,0,18.86,5.042,24.089,13.538l0.187,0.28l0.373-0.093c1.307-0.28,2.521-0.373,3.828-0.373
			c12.978,0,23.529,10.551,23.529,23.529c0,12.978-10.551,23.529-23.529,23.529H39.008V86.069z"/>
		<path class="st13" d="M69.726,26.127c9.71,0,18.58,4.949,23.622,13.258l0.373,0.654l0.747-0.093
			c1.307-0.28,2.521-0.373,3.735-0.373c12.698,0,22.969,10.271,22.969,22.969s-10.364,22.969-22.969,22.969H39.008
			c-8.216,0-15.592-4.855-18.86-12.418c-1.12-2.614-1.774-5.415-1.774-8.216c0-11.391,9.244-20.634,20.634-20.634
			c1.214,0,2.428,0.093,3.641,0.373l0.934,0.187l0.373-0.84c0.373-0.84,0.747-1.774,1.214-2.708c0.187-0.373,0.373-0.654,0.56-1.12
			l0.187-0.28c0.84-1.307,1.681-2.614,2.614-3.735l0.093-0.187c0.187-0.187,0.373-0.467,0.56-0.654
			c2.708-2.988,5.976-5.322,9.71-7.003C62.35,26.967,66.084,26.127,69.726,26.127 M69.726,25.1c-3.828,0-7.656,0.84-11.391,2.428
			c-3.828,1.681-7.189,4.108-10.084,7.189c-0.187,0.187-0.373,0.467-0.56,0.654l-0.093,0.187c-0.934,1.12-1.867,2.428-2.708,3.828
			l-0.093,0.28c-0.187,0.373-0.467,0.747-0.654,1.12c-0.467,0.934-0.934,1.867-1.307,2.801c-1.307-0.28-2.614-0.373-3.921-0.373
			c-11.951,0-21.661,9.71-21.661,21.661c0,2.988,0.654,5.882,1.774,8.683c3.455,7.936,11.298,13.072,19.888,13.072H98.11
			c13.258,0,24.089-10.831,24.089-24.089c0-13.258-10.831-24.089-24.089-24.089c-1.214,0-2.521,0.093-3.921,0.373
			C89.053,30.235,79.81,25.1,69.726,25.1L69.726,25.1z"/>
	</g>
	<g>
		<g>
			
				<radialGradient id="SVGID_1_" cx="63.0849" cy="2956.8994" r="61.0062" gradientTransform="matrix(1 0 0 -1 0 3026.8655)" gradientUnits="userSpaceOnUse">
				<stop  offset="0" style="stop-color:#F4FAFF"/>
				<stop  offset="1" style="stop-color:#DDEFFA"/>
			</radialGradient>
			<path class="st0" d="M61.509,96.34c-6.442,0-12.231-3.828-14.846-9.71c-0.934-2.054-1.401-4.202-1.401-6.442
				c0-8.963,7.283-16.246,16.246-16.246c0.934,0,1.867,0.093,2.894,0.28l0.467,0.093l0.187-0.467c0.28-0.654,0.56-1.401,0.934-2.147
				c0.187-0.28,0.28-0.56,0.467-0.84l0.093-0.187c0.654-1.027,1.307-2.054,2.054-2.894l0.093-0.093
				c0.093-0.187,0.28-0.373,0.467-0.467c2.148-2.334,4.668-4.202,7.563-5.415c2.801-1.214,5.695-1.867,8.59-1.867
				c7.563,0,14.472,3.828,18.487,10.364l0.187,0.28l0.373-0.093c1.027-0.187,1.961-0.28,2.894-0.28c9.897,0,18.02,8.123,18.02,18.02
				c0,9.897-8.123,18.02-18.02,18.02h-45.75V96.34z"/>
		</g>
		<g>
			<path class="st15" d="M85.225,50.496c7.376,0,14.192,3.735,18.02,10.084l0.373,0.654l0.747-0.093
				c1.027-0.187,1.867-0.28,2.801-0.28c9.617,0,17.46,7.843,17.46,17.46c0,9.617-7.843,17.46-17.46,17.46H61.51
				c-6.256,0-11.858-3.735-14.379-9.43c-0.84-1.961-1.307-4.108-1.307-6.256c0-8.683,7.003-15.686,15.686-15.686
				c0.934,0,1.867,0.093,2.801,0.28l0.934,0.187l0.373-0.84c0.28-0.654,0.56-1.401,0.934-2.054c0.093-0.28,0.28-0.467,0.467-0.84
				l0.093-0.187c0.654-1.027,1.307-1.961,1.961-2.801l0.093-0.093c0.093-0.187,0.28-0.28,0.373-0.467
				c2.054-2.334,4.575-4.108,7.376-5.322C79.623,51.056,82.424,50.496,85.225,50.496 M85.225,49.376
				c-2.988,0-5.882,0.654-8.777,1.867c-2.988,1.307-5.602,3.175-7.75,5.602c-0.187,0.187-0.28,0.373-0.467,0.56l-0.093,0.093
				c-0.747,0.84-1.401,1.867-2.054,2.988l-0.093,0.187c-0.187,0.28-0.373,0.56-0.467,0.84c-0.373,0.747-0.747,1.494-1.027,2.147
				c-1.027-0.187-2.054-0.28-2.988-0.28c-9.244,0-16.713,7.563-16.713,16.713c0,2.334,0.467,4.575,1.401,6.723
				C48.905,92.979,54.88,96.9,61.51,96.9h45.657c10.271,0,18.58-8.31,18.58-18.58s-8.31-18.58-18.58-18.58
				c-0.934,0-1.961,0.093-2.988,0.28C100.164,53.39,93.068,49.376,85.225,49.376L85.225,49.376z"/>
		</g>
	</g>
</g>
<g>
	<g>
		
			<radialGradient id="SVGID_2_" cx="-34.9224" cy="-14.0984" r="34.2915" gradientTransform="matrix(0.9582 0 0 0.9582 64.5086 50.1608)" gradientUnits="userSpaceOnUse">
			<stop  offset="0" style="stop-color:#D44445"/>
			<stop  offset="1" style="stop-color:#C11F1F"/>
		</radialGradient>
		<path class="st4" d="M9.364,64.089c-1.914,0-3.624-0.992-4.573-2.654s-0.937-3.638,0.035-5.287L25.93,20.318
			c0.957-1.625,2.653-2.594,4.539-2.594c1.885,0,3.582,0.97,4.539,2.594L56.112,56.15c0.971,1.648,0.984,3.625,0.035,5.286
			s-2.659,2.654-4.573,2.654H9.364z"/>
		<path class="st9" d="M30.469,18.724c1.426,0,2.852,0.701,3.677,2.102L55.25,56.657c1.676,2.845-0.375,6.433-3.677,6.433H9.364
			c-3.301,0-5.352-3.588-3.677-6.433l21.104-35.831C27.617,19.425,29.043,18.724,30.469,18.724 M30.469,16.724
			c-2.243,0-4.262,1.154-5.4,3.087L3.964,55.642c-1.156,1.962-1.171,4.314-0.041,6.291c1.13,1.977,3.164,3.157,5.441,3.157h42.208
			c2.277,0,4.311-1.18,5.441-3.157c1.13-1.977,1.115-4.329-0.041-6.291L35.869,19.811C34.731,17.878,32.712,16.724,30.469,16.724
			L30.469,16.724z"/>
	</g>
	<g>
		<path class="st9" d="M9.364,63.09h42.209c3.301,0,5.352-3.588,3.677-6.433L34.146,20.826c-1.65-2.802-5.703-2.802-7.354,0
			L5.688,56.657C4.012,59.501,6.063,63.09,9.364,63.09z"/>
		<radialGradient id="SVGID_3_" cx="30.4688" cy="40.9068" r="23.834" gradientUnits="userSpaceOnUse">
			<stop  offset="0" style="stop-color:#D44445"/>
			<stop  offset="1" style="stop-color:#C11F1F"/>
		</radialGradient>
		<path class="st6" d="M30.469,22.474c0.296,0,0.408,0.192,0.446,0.255L52.019,58.56c0.038,0.064,0.152,0.259,0.003,0.519
			c-0.149,0.261-0.375,0.261-0.449,0.261H9.364c-0.074,0-0.3,0-0.449-0.261s-0.034-0.455,0.003-0.519l21.104-35.831
			C30.06,22.666,30.173,22.474,30.469,22.474 M30.469,18.724c-1.426,0-2.852,0.701-3.677,2.102L5.688,56.657
			c-1.676,2.845,0.375,6.433,3.677,6.433h42.208c3.302,0,5.353-3.588,3.677-6.433L34.146,20.826
			C33.32,19.424,31.895,18.724,30.469,18.724L30.469,18.724z"/>
	</g>
	<path class="st11" d="M30.469,48.14c-0.811,0-1.467-0.657-1.467-1.467V34.236c0-0.81,0.657-1.467,1.467-1.467
		s1.467,0.657,1.467,1.467v12.437C31.936,47.483,31.279,48.14,30.469,48.14z"/>
	<circle class="st11" cx="30.469" cy="52.495" r="1.956"/>
</g>
</svg>
