<?xml version="1.0" encoding="utf-8"?>
<!-- Generator: Adobe Illustrator 23.0.1, SVG Export Plug-In . SVG Version: 6.00 Build 0)  -->
<svg version="1.1" id="Ebene_2" xmlns="http://www.w3.org/2000/svg" xmlns:xlink="http://www.w3.org/1999/xlink" x="0px" y="0px"
	 viewBox="0 0 143 122" style="enable-background:new 0 0 143 122;" xml:space="preserve">
<style type="text/css">
	.st0{fill:url(#SVGID_1_);}
	.st1{fill:#F7B82C;}
	.st2{fill:#F7B82D;}
	.st3{fill:#F5AE23;}
	.st4{fill:url(#SVGID_2_);}
	.st5{fill:#DADCDE;}
	.st6{fill:url(#SVGID_3_);}
	.st7{fill:url(#SVGID_4_);}
	.st8{fill:url(#SVGID_5_);}
	.st9{fill:#FFFFFF;}
	.st10{fill:url(#SVGID_6_);}
	.st11{fill:#1D1D1B;stroke:#1D1D1B;stroke-width:0.5;stroke-miterlimit:10;}
	.st12{fill:#CBD9E7;}
	.st13{fill:#C3CFDA;}
	.st14{fill:url(#SVGID_7_);}
	.st15{fill:#BEE2F1;}
	.st16{fill:url(#SVGID_8_);}
	.st17{fill:url(#SVGID_9_);}
	.st18{fill:url(#SVGID_10_);}
	.st19{fill:url(#SVGID_11_);}
	.st20{fill:url(#SVGID_12_);}
	.st21{fill:url(#SVGID_13_);}
	.st22{fill:#59B9E8;}
	.st23{fill:url(#SVGID_14_);}
	.st24{fill:url(#SVGID_15_);}
	.st25{fill:url(#SVGID_16_);}
	.st26{fill:url(#SVGID_17_);}
	.st27{fill:url(#SVGID_18_);}
	.st28{fill:url(#SVGID_19_);}
	.st29{fill:url(#SVGID_20_);}
	.st30{fill:url(#SVGID_21_);}
	.st31{fill:url(#SVGID_22_);}
	.st32{fill:url(#SVGID_23_);}
	.st33{fill:url(#SVGID_24_);}
	.st34{fill:url(#SVGID_25_);}
	.st35{fill:url(#SVGID_26_);}
	.st36{fill:url(#SVGID_27_);}
	.st37{fill:url(#SVGID_28_);}
	.st38{fill:url(#SVGID_29_);}
	.st39{fill:url(#SVGID_30_);}
	.st40{fill:url(#SVGID_31_);}
	.st41{fill:url(#SVGID_32_);}
	.st42{fill:url(#SVGID_33_);}
	.st43{fill:url(#SVGID_34_);}
	.st44{fill:url(#SVGID_35_);}
	.st45{fill:url(#SVGID_36_);}
	.st46{fill:url(#SVGID_37_);}
	.st47{fill:url(#SVGID_38_);}
	.st48{fill:url(#SVGID_39_);}
	.st49{fill:url(#SVGID_40_);}
	.st50{fill:url(#SVGID_41_);}
	.st51{fill:url(#SVGID_42_);}
	.st52{fill:url(#SVGID_43_);}
	.st53{fill:url(#SVGID_44_);}
	.st54{fill:url(#SVGID_45_);}
	.st55{fill:url(#SVGID_46_);}
	.st56{fill:url(#SVGID_47_);}
	.st57{fill:url(#SVGID_48_);}
	.st58{fill:url(#SVGID_49_);}
	.st59{fill:url(#SVGID_50_);}
	.st60{fill:url(#SVGID_51_);}
	.st61{fill:url(#SVGID_52_);}
	.st62{fill:url(#SVGID_53_);}
	.st63{fill:url(#SVGID_54_);}
	.st64{fill:url(#SVGID_55_);}
	.st65{fill:url(#SVGID_56_);}
	.st66{fill:url(#SVGID_57_);}
	.st67{fill:url(#SVGID_58_);}
	.st68{fill:url(#SVGID_59_);}
	.st69{fill:url(#SVGID_60_);}
	.st70{fill:url(#SVGID_61_);}
	.st71{fill:url(#SVGID_62_);}
	.st72{fill:url(#SVGID_63_);}
	.st73{fill:url(#SVGID_64_);}
	.st74{fill:url(#SVGID_65_);}
	.st75{fill:url(#SVGID_66_);}
	.st76{fill:url(#SVGID_67_);}
	.st77{fill:url(#SVGID_68_);}
	.st78{fill:url(#SVGID_69_);}
	.st79{fill:url(#SVGID_70_);}
	.st80{fill:url(#SVGID_71_);}
	.st81{fill:url(#SVGID_72_);}
	.st82{fill:url(#SVGID_73_);}
	.st83{fill:url(#SVGID_74_);}
	.st84{fill:url(#SVGID_75_);}
	.st85{fill:url(#SVGID_76_);}
	.st86{fill:url(#SVGID_77_);}
	.st87{fill:url(#SVGID_78_);}
	.st88{fill:url(#SVGID_79_);}
	.st89{fill:url(#SVGID_80_);}
	.st90{fill:url(#SVGID_81_);}
	.st91{fill:url(#SVGID_82_);}
	.st92{fill:url(#SVGID_83_);}
	.st93{fill:url(#SVGID_84_);}
	.st94{fill:url(#SVGID_85_);}
	.st95{fill:url(#SVGID_86_);}
	.st96{fill:url(#SVGID_87_);}
	.st97{fill:url(#SVGID_88_);}
	.st98{fill:url(#SVGID_89_);}
	.st99{fill:url(#SVGID_90_);}
	.st100{fill:url(#SVGID_91_);}
	.st101{fill:url(#SVGID_92_);}
	.st102{fill:url(#SVGID_93_);}
	.st103{fill:url(#SVGID_94_);}
	.st104{fill:url(#SVGID_95_);}
	.st105{fill:url(#SVGID_96_);}
	.st106{fill:url(#SVGID_97_);}
	.st107{fill:url(#SVGID_98_);}
	.st108{fill:url(#SVGID_99_);}
	.st109{fill:url(#SVGID_100_);}
	.st110{fill:url(#SVGID_101_);}
	.st111{fill:url(#SVGID_102_);}
	.st112{fill:url(#SVGID_103_);}
	.st113{fill:url(#SVGID_104_);}
	.st114{fill:url(#SVGID_105_);}
	.st115{fill:url(#SVGID_106_);}
	.st116{fill:url(#SVGID_107_);}
	.st117{fill:url(#SVGID_108_);}
	.st118{fill:url(#SVGID_109_);}
	.st119{fill:url(#SVGID_110_);}
	.st120{fill:url(#SVGID_111_);}
	.st121{fill:url(#SVGID_112_);}
	.st122{fill:url(#SVGID_113_);}
	.st123{fill:url(#SVGID_114_);}
	.st124{fill:url(#SVGID_115_);}
	.st125{fill:url(#SVGID_116_);}
	.st126{fill:url(#SVGID_117_);}
	.st127{fill:url(#SVGID_118_);}
	.st128{fill:url(#SVGID_119_);}
	.st129{fill:url(#SVGID_120_);}
	.st130{fill:url(#SVGID_121_);}
	.st131{fill:url(#SVGID_122_);}
	.st132{fill:url(#SVGID_123_);}
	.st133{fill:url(#SVGID_124_);}
	.st134{fill:url(#SVGID_125_);}
	.st135{fill:url(#SVGID_126_);}
	.st136{fill:url(#SVGID_127_);}
	.st137{fill:url(#SVGID_128_);}
	.st138{fill:url(#SVGID_129_);}
	.st139{fill:url(#SVGID_130_);}
	.st140{fill:url(#SVGID_131_);}
	.st141{fill:url(#SVGID_132_);}
	.st142{fill:url(#SVGID_133_);}
	.st143{fill:url(#SVGID_134_);}
	.st144{fill:url(#SVGID_135_);}
	.st145{fill:url(#SVGID_136_);}
	.st146{fill:url(#SVGID_137_);}
	.st147{fill:url(#SVGID_138_);}
	.st148{fill:url(#SVGID_139_);}
	.st149{fill:url(#SVGID_140_);}
	.st150{fill:url(#SVGID_141_);}
	.st151{fill:url(#SVGID_142_);}
	.st152{fill:url(#SVGID_143_);}
	.st153{fill:url(#SVGID_144_);}
	.st154{fill:url(#SVGID_145_);}
	.st155{fill:url(#SVGID_146_);}
	.st156{fill:url(#SVGID_147_);}
	.st157{fill:url(#SVGID_148_);}
	.st158{fill:url(#SVGID_149_);}
	.st159{fill:url(#SVGID_150_);}
	.st160{fill:url(#SVGID_151_);}
	.st161{fill:url(#SVGID_152_);}
	.st162{fill:url(#SVGID_153_);}
	.st163{fill:url(#SVGID_154_);}
	.st164{fill:url(#SVGID_155_);}
	.st165{fill:url(#SVGID_156_);}
	.st166{fill:url(#SVGID_157_);}
	.st167{fill:url(#SVGID_158_);}
	.st168{fill:url(#SVGID_159_);}
	.st169{fill:url(#SVGID_160_);}
	.st170{fill:url(#SVGID_161_);}
	.st171{fill:url(#SVGID_162_);}
	.st172{fill:url(#SVGID_163_);}
	.st173{fill:url(#SVGID_164_);}
	.st174{fill:url(#SVGID_165_);}
	.st175{fill:url(#SVGID_166_);}
	.st176{fill:url(#SVGID_167_);}
	.st177{fill:url(#SVGID_168_);}
	.st178{fill:url(#SVGID_169_);}
	.st179{fill:url(#SVGID_170_);}
	.st180{fill:url(#SVGID_171_);}
	.st181{fill:url(#SVGID_172_);}
	.st182{fill:url(#SVGID_173_);}
	.st183{fill:url(#SVGID_174_);}
	.st184{fill:url(#SVGID_175_);}
	.st185{fill:url(#SVGID_176_);}
	.st186{fill:url(#SVGID_177_);}
	.st187{fill:url(#SVGID_178_);}
	.st188{fill:url(#SVGID_179_);}
	.st189{fill:url(#SVGID_180_);}
	.st190{fill:url(#SVGID_181_);}
	.st191{fill:url(#SVGID_182_);}
	.st192{fill:url(#SVGID_183_);}
	.st193{fill:url(#SVGID_184_);}
	.st194{fill:url(#SVGID_185_);}
	.st195{fill:url(#SVGID_186_);}
	.st196{fill:url(#SVGID_187_);}
	.st197{fill:url(#SVGID_188_);}
	.st198{fill:url(#SVGID_189_);}
	.st199{fill:url(#SVGID_190_);}
	.st200{fill:url(#SVGID_191_);}
	.st201{fill:url(#SVGID_192_);}
	.st202{fill:url(#SVGID_193_);}
	.st203{fill:url(#SVGID_194_);}
	.st204{fill:url(#SVGID_195_);}
	.st205{fill:url(#SVGID_196_);}
	.st206{fill:url(#SVGID_197_);}
	.st207{fill:url(#SVGID_198_);}
	.st208{fill:url(#SVGID_199_);}
	.st209{fill:url(#SVGID_200_);}
	.st210{fill:url(#SVGID_201_);}
	.st211{fill:url(#SVGID_202_);}
	.st212{fill:url(#SVGID_203_);}
	.st213{fill:url(#SVGID_204_);}
	.st214{fill:url(#SVGID_205_);}
	.st215{fill:url(#SVGID_206_);}
	.st216{fill:url(#SVGID_207_);}
	.st217{fill:url(#SVGID_208_);}
	.st218{fill:url(#SVGID_209_);}
	.st219{fill:url(#SVGID_210_);}
	.st220{fill:url(#SVGID_211_);}
	.st221{fill:url(#SVGID_212_);}
	.st222{fill:url(#SVGID_213_);}
	.st223{fill:url(#SVGID_214_);}
	.st224{fill:url(#SVGID_215_);}
	.st225{fill:url(#SVGID_216_);}
	.st226{fill:url(#SVGID_217_);}
	.st227{fill:url(#SVGID_218_);}
	.st228{fill:url(#SVGID_219_);}
	.st229{fill:url(#SVGID_220_);}
	.st230{fill:url(#SVGID_221_);}
	.st231{fill:url(#SVGID_222_);}
	.st232{fill:url(#SVGID_223_);}
	.st233{fill:url(#SVGID_224_);}
	.st234{fill:url(#SVGID_225_);}
	.st235{fill:url(#SVGID_226_);}
	.st236{fill:url(#SVGID_227_);}
	.st237{fill:url(#SVGID_228_);}
	.st238{fill:url(#SVGID_229_);}
	.st239{fill:url(#SVGID_230_);}
	.st240{fill:url(#SVGID_231_);}
	.st241{fill:url(#SVGID_232_);}
	.st242{fill:url(#SVGID_233_);}
	.st243{fill:url(#SVGID_234_);}
	.st244{fill:url(#SVGID_235_);}
	.st245{fill:url(#SVGID_236_);}
	.st246{fill:url(#SVGID_237_);}
	.st247{fill:url(#SVGID_238_);}
	.st248{fill:url(#SVGID_239_);}
	.st249{fill:url(#SVGID_240_);}
	.st250{fill:url(#SVGID_241_);}
	.st251{fill:url(#SVGID_242_);}
	.st252{fill:url(#SVGID_243_);}
	.st253{fill:url(#SVGID_244_);}
	.st254{fill:url(#SVGID_245_);}
	.st255{fill:url(#SVGID_246_);}
	.st256{fill:url(#SVGID_247_);}
	.st257{fill:url(#SVGID_248_);}
	.st258{fill:url(#SVGID_249_);}
	.st259{fill:url(#SVGID_250_);}
	.st260{fill:url(#SVGID_251_);}
	.st261{fill:url(#SVGID_252_);}
	.st262{fill:url(#SVGID_253_);}
	.st263{fill:url(#SVGID_254_);}
	.st264{fill:url(#SVGID_255_);}
	.st265{fill:url(#SVGID_256_);}
	.st266{fill:url(#SVGID_257_);}
	.st267{fill:url(#SVGID_258_);}
	.st268{fill:url(#SVGID_259_);}
	.st269{fill:url(#SVGID_260_);}
	.st270{fill:url(#SVGID_261_);}
	.st271{fill:url(#SVGID_262_);}
	.st272{fill:url(#SVGID_263_);}
	.st273{fill:url(#SVGID_264_);}
	.st274{fill:url(#SVGID_265_);}
	.st275{fill:url(#SVGID_266_);}
	.st276{fill:url(#SVGID_267_);}
	.st277{fill:url(#SVGID_268_);}
	.st278{fill:url(#SVGID_269_);}
	.st279{fill:url(#SVGID_270_);}
	.st280{fill:url(#SVGID_271_);}
	.st281{fill:url(#SVGID_272_);}
	.st282{fill:url(#SVGID_273_);}
	.st283{fill:url(#SVGID_274_);}
	.st284{fill:url(#SVGID_275_);}
</style>
<g>
	<g>
		
			<radialGradient id="SVGID_1_" cx="48.7585" cy="2985.646" r="40.2494" gradientTransform="matrix(1 0 0 -1 0 3026.5898)" gradientUnits="userSpaceOnUse">
			<stop  offset="0" style="stop-color:#F9DA52"/>
			<stop  offset="1" style="stop-color:#F7B82C"/>
		</radialGradient>
		<path class="st0" d="M61.003,81.548C45.299,81.561,32.558,68.84,32.546,53.136c-0.008-10.169,5.415-19.568,14.223-24.651
			c3.538-2.053,7.484-3.305,11.559-3.666h0.14c0.518,0,0.997,0.277,1.255,0.727c0.282,0.493,0.253,1.105-0.074,1.569
			c-8.139,11.484-5.428,27.392,6.057,35.532c4.325,3.065,9.498,4.706,14.799,4.693c0.826,0,1.577-0.041,2.353-0.116h0.074
			c0.537-0.016,1.042,0.259,1.321,0.718c0.282,0.493,0.253,1.105-0.074,1.569c-5.302,7.515-13.92,11.991-23.118,12.005
			L61.003,81.548z"/>
		<path class="st1" d="M58.468,25.34c0.341-0.017,0.662,0.163,0.826,0.462c0.183,0.313,0.163,0.705-0.05,0.999
			c-8.331,11.706-5.595,27.95,6.112,36.28c4.423,3.148,9.72,4.833,15.148,4.819c0.826,0,1.585,0,2.37-0.107h0.05
			c0.334-0.004,0.646,0.165,0.826,0.446c0.183,0.313,0.163,0.705-0.05,0.999c-5.205,7.378-13.667,11.771-22.697,11.782
			C45.59,81.036,33.084,68.554,33.068,53.142c-0.01-9.985,5.315-19.215,13.965-24.203c3.475-2.009,7.346-3.235,11.344-3.591h0.091
			 M58.468,24.283h-0.19c-4.152,0.372-8.173,1.646-11.782,3.732C32.639,36.013,27.889,53.73,35.887,67.587
			s25.715,18.607,39.572,10.609c3.615-2.096,6.728-4.956,9.123-8.38c0.453-0.63,0.495-1.466,0.107-2.138
			c-0.378-0.625-1.062-0.999-1.792-0.982h-0.116c-0.768,0.074-1.536,0.116-2.304,0.116c-13.784,0.024-24.978-11.13-25.003-24.915
			c-0.009-5.189,1.599-10.252,4.601-14.484c0.45-0.631,0.489-1.468,0.099-2.138c-0.345-0.619-1-1.002-1.709-0.999L58.468,24.283z"/>
		<path class="st2" d="M100.55,45.105c-0.384,0.013-0.726-0.24-0.826-0.611l-1.057-3.922c-0.182-0.63-0.674-1.123-1.304-1.304
			l-3.93-1.057c-0.371-0.1-0.624-0.442-0.611-0.826c-0.013-0.384,0.24-0.726,0.611-0.826l3.93-1.057
			c0.632-0.179,1.126-0.673,1.304-1.304l1.057-3.93c0.111-0.442,0.559-0.711,1.002-0.6c0.295,0.074,0.526,0.305,0.6,0.6l1.057,3.93
			c0.176,0.648,0.682,1.153,1.329,1.329l3.93,1.057c0.371,0.1,0.624,0.442,0.611,0.826c0.013,0.384-0.24,0.726-0.611,0.826
			l-3.905,1.032c-0.648,0.18-1.153,0.688-1.329,1.338l-1.057,3.922C101.242,44.876,100.916,45.111,100.55,45.105z"/>
		<path class="st3" d="M100.55,30.186c0.138-0.007,0.261,0.088,0.289,0.223l1.057,3.905c0.222,0.844,0.881,1.504,1.726,1.726
			l3.93,1.057c0.134,0.029,0.226,0.152,0.215,0.289c0.015,0.136-0.08,0.259-0.215,0.281l-3.93,1.057
			c-0.825,0.237-1.468,0.883-1.701,1.709l-1.057,3.93c-0.032,0.132-0.153,0.222-0.289,0.215c-0.135,0.011-0.256-0.082-0.281-0.215
			l-1.065-3.93c-0.233-0.826-0.876-1.472-1.701-1.709l-3.93-1.057c-0.133-0.025-0.225-0.146-0.215-0.281
			c-0.008-0.136,0.083-0.257,0.215-0.289l3.93-1.057c0.825-0.237,1.463-0.894,1.676-1.726l1.065-3.922
			c0.021-0.136,0.143-0.233,0.281-0.223 M100.55,29.113c-0.616-0.012-1.16,0.402-1.313,0.999l-1.057,3.93
			c-0.122,0.469-0.489,0.836-0.958,0.958l-3.922,1.057c-0.723,0.192-1.153,0.934-0.961,1.656c0.125,0.469,0.491,0.836,0.961,0.961
			l3.922,1.057c0.466,0.128,0.83,0.492,0.958,0.958l1.057,3.93c0.201,0.725,0.952,1.15,1.677,0.949
			c0.461-0.128,0.821-0.488,0.949-0.949l1.057-3.93c0.128-0.466,0.492-0.83,0.958-0.958l3.922-1.057
			c0.723-0.192,1.153-0.934,0.961-1.656c-0.125-0.469-0.491-0.836-0.961-0.961l-3.922-1.057c-0.469-0.122-0.836-0.488-0.958-0.958
			l-1.057-3.93C101.71,29.515,101.167,29.101,100.55,29.113z"/>
		<path class="st2" d="M79.455,34.719c-0.384,0.013-0.726-0.24-0.826-0.611l-1.024-3.922c-0.176-0.652-0.686-1.161-1.338-1.338
			l-3.922-1.057c-0.371-0.1-0.624-0.442-0.611-0.826c-0.013-0.384,0.24-0.726,0.611-0.826l3.922-1.057
			c0.651-0.173,1.16-0.68,1.338-1.329l1.057-3.93c0.12-0.44,0.573-0.7,1.013-0.58c0.283,0.077,0.503,0.298,0.58,0.58l1.073,3.988
			c0.176,0.648,0.682,1.153,1.329,1.329l3.93,1.057c0.371,0.1,0.624,0.442,0.611,0.826c0.013,0.384-0.24,0.726-0.611,0.826
			l-3.93,1.057c-0.634,0.17-1.136,0.653-1.329,1.28l-1.073,3.922C80.159,34.47,79.83,34.72,79.455,34.719z"/>
		<path class="st3" d="M79.455,19.8c0.139-0.011,0.264,0.086,0.289,0.223l1.057,3.922c0.224,0.834,0.875,1.485,1.709,1.709
			l3.922,1.057c0.135,0.028,0.23,0.151,0.223,0.289c0.01,0.137-0.087,0.26-0.223,0.281l-3.922,1.057
			c-0.833,0.225-1.484,0.876-1.709,1.709l-1.057,3.93c-0.029,0.134-0.152,0.226-0.289,0.215c-0.134,0.007-0.253-0.084-0.281-0.215
			l-1.057-3.93c-0.231-0.841-0.896-1.494-1.742-1.709l-3.93-1.057c-0.133-0.025-0.225-0.146-0.215-0.281
			c-0.008-0.136,0.083-0.257,0.215-0.289l3.93-1.057c0.834-0.224,1.485-0.875,1.709-1.709l1.057-3.922
			c0.021-0.136,0.143-0.233,0.281-0.223 M79.422,18.743c-0.614-0.011-1.155,0.403-1.304,0.999l-1.057,3.93
			c-0.128,0.466-0.492,0.83-0.958,0.958l-3.856,1.057c-0.723,0.192-1.153,0.934-0.961,1.656c0.125,0.469,0.491,0.836,0.961,0.961
			l3.889,1.057c0.463,0.133,0.825,0.495,0.958,0.958l1.057,3.93c0.192,0.723,0.934,1.153,1.656,0.961
			c0.469-0.125,0.836-0.491,0.961-0.961l1.057-3.93c0.13-0.465,0.493-0.828,0.958-0.958l3.93-1.057
			c0.723-0.192,1.153-0.934,0.961-1.656c-0.125-0.469-0.491-0.836-0.961-0.961l-3.93-1.057c-0.467-0.125-0.833-0.49-0.958-0.958
			l-1.057-3.93c-0.15-0.599-0.695-1.014-1.313-0.999H79.422z"/>
	</g>
	<g>
		<g>
			
				<radialGradient id="SVGID_2_" cx="51.147" cy="2967.9299" r="61.0056" gradientTransform="matrix(1 0 0 -1 0 3026.8655)" gradientUnits="userSpaceOnUse">
				<stop  offset="0" style="stop-color:#FBFBFB"/>
				<stop  offset="1" style="stop-color:#E7E7E7"/>
			</radialGradient>
			<path class="st4" d="M49.603,85.301c-6.442,0-12.231-3.828-14.846-9.71c-0.934-2.054-1.401-4.202-1.401-6.442
				c0-8.963,7.283-16.246,16.246-16.246c0.934,0,1.867,0.093,2.894,0.28l0.467,0.093l0.187-0.467c0.28-0.654,0.56-1.401,0.934-2.147
				c0.187-0.28,0.28-0.56,0.467-0.84l0.093-0.187c0.654-1.027,1.307-2.054,2.054-2.894l0.093-0.093
				c0.093-0.187,0.28-0.373,0.467-0.467c2.147-2.334,4.668-4.202,7.563-5.415c2.801-1.214,5.695-1.867,8.59-1.867
				c7.563,0,14.472,3.828,18.487,10.364l0.187,0.28l0.373-0.093c1.027-0.187,1.961-0.28,2.894-0.28c9.897,0,18.02,8.123,18.02,18.02
				c0,9.897-8.123,18.02-18.02,18.02H49.603V85.301z"/>
		</g>
		<g>
			<path class="st5" d="M73.319,39.457c7.376,0,14.192,3.735,18.02,10.084l0.373,0.654l0.747-0.093
				c1.027-0.187,1.867-0.28,2.801-0.28c9.617,0,17.46,7.843,17.46,17.46c0,9.617-7.843,17.46-17.46,17.46H49.603
				c-6.256,0-11.858-3.735-14.379-9.43c-0.84-1.961-1.307-4.108-1.307-6.256c0-8.683,7.003-15.686,15.686-15.686
				c0.934,0,1.867,0.093,2.801,0.28l0.934,0.187l0.373-0.84c0.28-0.654,0.56-1.401,0.934-2.054c0.093-0.28,0.28-0.467,0.467-0.84
				l0.093-0.187c0.654-1.027,1.307-1.961,1.961-2.801l0.093-0.093c0.093-0.187,0.28-0.28,0.373-0.467
				c2.054-2.334,4.575-4.108,7.376-5.322C67.717,40.017,70.518,39.457,73.319,39.457 M73.319,38.336
				c-2.988,0-5.882,0.654-8.777,1.867c-2.988,1.307-5.602,3.175-7.75,5.602c-0.187,0.187-0.28,0.373-0.467,0.56l-0.093,0.093
				c-0.747,0.84-1.401,1.867-2.054,2.988l-0.093,0.187c-0.187,0.28-0.373,0.56-0.467,0.84c-0.373,0.747-0.747,1.494-1.027,2.147
				c-1.027-0.187-2.054-0.28-2.988-0.28c-9.243,0-16.713,7.563-16.713,16.713c0,2.334,0.467,4.575,1.401,6.723
				c2.708,6.162,8.683,10.084,15.312,10.084H95.26c10.271,0,18.58-8.31,18.58-18.58s-8.31-18.58-18.58-18.58
				c-0.934,0-1.961,0.093-2.988,0.28C88.258,42.351,81.068,38.336,73.319,38.336L73.319,38.336z"/>
		</g>
	</g>
	<g>
		
			<radialGradient id="SVGID_3_" cx="56.8095" cy="2920.51" r="9.1324" gradientTransform="matrix(1 0 0 -1 0 3026.8655)" gradientUnits="userSpaceOnUse">
			<stop  offset="0" style="stop-color:#71C6E4"/>
			<stop  offset="1" style="stop-color:#56C0EE"/>
		</radialGradient>
		<path class="st6" d="M54.172,118.54c-0.093,0-0.28,0-0.373-0.093c-0.84-0.187-1.401-1.12-1.214-1.961l5.229-21.101
			c0.187-0.747,0.84-1.214,1.587-1.214c0.093,0,0.28,0,0.373,0.093c0.84,0.187,1.401,1.12,1.214,1.961l-5.229,21.101
			C55.572,118.073,54.918,118.54,54.172,118.54z"/>
		<path class="st22" d="M59.4,94.731L59.4,94.731c0.093,0,0.187,0,0.28,0c0.56,0.187,0.934,0.747,0.84,1.307l-5.229,21.101
			c-0.093,0.467-0.56,0.84-1.027,0.84c-0.093,0-0.187,0-0.28,0c-0.56-0.187-0.934-0.747-0.84-1.307l5.229-21.101
			C58.466,95.011,58.933,94.731,59.4,94.731 M59.4,93.611c-0.934,0-1.867,0.654-2.147,1.681l-5.229,21.101
			c-0.28,1.12,0.467,2.334,1.587,2.614c0.187,0,0.373,0.093,0.56,0.093c0.934,0,1.867-0.654,2.147-1.681l5.229-21.101
			c0.28-1.12-0.467-2.334-1.587-2.614C59.774,93.611,59.587,93.611,59.4,93.611L59.4,93.611z"/>
	</g>
	<g>
		<g>
			
				<radialGradient id="SVGID_4_" cx="-281.3822" cy="-20.2167" r="34.7957" gradientTransform="matrix(0.6796 0 0 0.7208 293.8507 51.291)" gradientUnits="userSpaceOnUse">
				<stop  offset="0" style="stop-color:#D44445"/>
				<stop  offset="1" style="stop-color:#C11F1F"/>
			</radialGradient>
			<path class="st7" d="M87.253,57.652c-1.409,0-2.69-0.748-3.428-2c-0.779-1.324-0.801-2.98-0.055-4.324l14.968-26.953
				c0.728-1.312,2.029-2.096,3.481-2.096c1.451,0,2.753,0.783,3.481,2.096l14.967,26.953c0.746,1.343,0.726,2.999-0.054,4.323
				c-0.737,1.253-2.019,2.001-3.428,2.001H87.253z"/>
			<path class="st9" d="M102.22,23.28c1.011,0,2.022,0.527,2.608,1.581l14.967,26.953c1.188,2.14-0.266,4.839-2.608,4.839H87.253
				c-2.341,0-3.796-2.699-2.608-4.839L99.612,24.86C100.197,23.807,101.208,23.28,102.22,23.28 M102.22,21.28
				c-1.82,0-3.449,0.976-4.356,2.61L82.897,50.842c-0.917,1.651-0.892,3.688,0.067,5.316c0.919,1.561,2.522,2.493,4.29,2.493h29.934
				c1.767,0,3.371-0.932,4.29-2.493c0.958-1.628,0.984-3.665,0.067-5.316L106.576,23.89C105.668,22.255,104.04,21.28,102.22,21.28
				L102.22,21.28z"/>
		</g>
		<g>
			<path class="st9" d="M87.253,56.652h29.934c2.341,0,3.796-2.699,2.608-4.839L104.827,24.86c-1.17-2.108-4.045-2.108-5.215,0
				L84.645,51.813C83.457,53.953,84.911,56.652,87.253,56.652z"/>
			
				<radialGradient id="SVGID_5_" cx="102.2196" cy="39.9658" r="17.3544" gradientTransform="matrix(1 0 0 1.0607 0 -2.4244)" gradientUnits="userSpaceOnUse">
				<stop  offset="0" style="stop-color:#D44445"/>
				<stop  offset="1" style="stop-color:#C11F1F"/>
			</radialGradient>
			<path class="st8" d="M102.22,27.889l13.89,25.013H88.33L102.22,27.889 M102.22,23.28c-1.011,0-2.022,0.527-2.608,1.581
				L84.645,51.813c-1.188,2.14,0.266,4.839,2.608,4.839h29.934c2.341,0,3.796-2.699,2.608-4.839L104.827,24.86
				C104.242,23.807,103.231,23.28,102.22,23.28L102.22,23.28z"/>
		</g>
		<path class="st11" d="M102.22,45.407c-0.575,0-1.041-0.494-1.041-1.104v-9.355c0-0.61,0.466-1.104,1.041-1.104
			s1.041,0.494,1.041,1.104v9.355C103.26,44.912,102.794,45.407,102.22,45.407z"/>
		<ellipse class="st11" cx="102.22" cy="48.682" rx="1.387" ry="1.472"/>
	</g>
	<g>
		
			<radialGradient id="SVGID_6_" cx="151.187" cy="-3.65" r="24.3393" gradientTransform="matrix(0.9582 0 0 0.9582 -58.1332 50.1608)" gradientUnits="userSpaceOnUse">
			<stop  offset="0" style="stop-color:#D44445"/>
			<stop  offset="1" style="stop-color:#C11F1F"/>
		</radialGradient>
		<path class="st10" d="M70.712,66.089h31.23c2.443,0,3.96-2.655,2.721-4.76L89.047,34.818c-1.221-2.073-4.22-2.073-5.441,0
			L67.991,61.33C66.752,63.434,68.269,66.089,70.712,66.089z"/>
		<path class="st9" d="M85.518,56.304V45.522c0-1.165-0.947-2.112-2.112-2.112c-1.165,0-2.112,0.948-2.112,2.112v10.781
			c-0.73,0.618-1.156,1.527-1.156,2.494c0,1.802,1.467,3.269,3.269,3.269c1.802,0,3.269-1.466,3.269-3.269
			C86.675,57.831,86.248,56.921,85.518,56.304z M83.406,44.662c0.474,0,0.86,0.386,0.86,0.86v8.931h-1.721v-8.931
			C82.546,45.048,82.931,44.662,83.406,44.662z"/>
		<g>
			<path class="st9" d="M92.024,54.586c0,1.078-0.181,1.867-0.542,2.368c-0.361,0.501-0.914,0.752-1.658,0.752
				c-0.728,0-1.276-0.262-1.645-0.785c-0.37-0.524-0.554-1.302-0.554-2.335c0-1.083,0.181-1.878,0.542-2.383
				c0.361-0.505,0.914-0.758,1.658-0.758c0.725,0,1.273,0.263,1.644,0.79C91.839,52.76,92.024,53.544,92.024,54.586z M89.262,54.586
				c0,0.689,0.043,1.162,0.129,1.421c0.086,0.258,0.231,0.388,0.433,0.388c0.206,0,0.351-0.133,0.436-0.4
				c0.085-0.267,0.127-0.736,0.127-1.408c0-0.675-0.043-1.148-0.129-1.419c-0.086-0.271-0.231-0.406-0.434-0.406
				c-0.203,0-0.347,0.13-0.433,0.392C89.306,53.413,89.262,53.891,89.262,54.586z"/>
			<path class="st9" d="M92.587,52.981c0-0.269,0.068-0.523,0.204-0.76c0.136-0.238,0.324-0.426,0.562-0.567
				c0.239-0.14,0.496-0.21,0.771-0.21c0.275,0,0.532,0.07,0.771,0.21s0.426,0.328,0.562,0.564c0.136,0.236,0.204,0.49,0.204,0.762
				c0,0.27-0.067,0.521-0.202,0.754c-0.134,0.233-0.321,0.419-0.558,0.556c-0.237,0.138-0.496,0.206-0.777,0.206
				c-0.275,0-0.532-0.068-0.771-0.204c-0.239-0.136-0.426-0.321-0.562-0.554C92.655,53.507,92.587,53.254,92.587,52.981z
				 M93.579,52.981c0,0.139,0.054,0.262,0.161,0.369c0.107,0.107,0.236,0.16,0.385,0.16s0.278-0.054,0.385-0.162
				c0.107-0.108,0.161-0.231,0.161-0.367c0-0.144-0.052-0.273-0.156-0.385c-0.104-0.112-0.234-0.169-0.39-0.169
				c-0.156,0-0.286,0.056-0.39,0.169C93.631,52.709,93.579,52.837,93.579,52.981z"/>
		</g>
	</g>
</g>
</svg>
